<svg width="51" height="51" viewBox="0 0 51 51" fill="none" xmlns="http://www.w3.org/2000/svg">
<g filter="url(#filter0_d_816_918)">
<path d="M36.9219 0H14.0781C8.51213 0 4 4.51213 4 10.0781V32.9219C4 38.4879 8.51213 43 14.0781 43H36.9219C42.4879 43 47 38.4879 47 32.9219V10.0781C47 4.51213 42.4879 0 36.9219 0Z" fill="url(#paint0_radial_816_918)"/>
<path d="M36.9219 0H14.0781C8.51213 0 4 4.51213 4 10.0781V32.9219C4 38.4879 8.51213 43 14.0781 43H36.9219C42.4879 43 47 38.4879 47 32.9219V10.0781C47 4.51213 42.4879 0 36.9219 0Z" fill="url(#paint1_radial_816_918)"/>
<path d="M25.5015 4.70312C20.9398 4.70312 20.3672 4.72311 18.5757 4.80458C16.7875 4.88655 15.5668 5.16957 14.4989 5.58496C13.394 6.01395 12.4569 6.5879 11.5233 7.52181C10.5889 8.45555 10.015 9.39264 9.58463 10.497C9.16806 11.5653 8.8847 12.7865 8.80424 14.5738C8.72412 16.3655 8.70312 16.9383 8.70312 21.5002C8.70312 26.062 8.72328 26.6328 8.80458 28.4243C8.88688 30.2125 9.16991 31.4332 9.58496 32.5011C10.0143 33.606 10.5882 34.5431 11.5221 35.4767C12.4555 36.4111 13.3926 36.9864 14.4967 37.4154C15.5655 37.8308 16.7863 38.1138 18.5741 38.1958C20.3659 38.2772 20.938 38.2972 25.4995 38.2972C30.0617 38.2972 30.6325 38.2772 32.424 38.1958C34.2122 38.1138 35.4342 37.8308 36.503 37.4154C37.6074 36.9864 38.5431 36.4111 39.4763 35.4767C40.4108 34.5431 40.9845 33.606 41.415 32.5016C41.8279 31.4332 42.1114 30.2122 42.1954 28.4247C42.2759 26.6331 42.2969 26.062 42.2969 21.5002C42.2969 16.9383 42.2759 16.3659 42.1954 14.5741C42.1114 12.7859 41.8279 11.5655 41.415 10.4975C40.9845 9.39264 40.4108 8.45555 39.4763 7.52181C38.5421 6.58757 37.6077 6.01362 36.502 5.58513C35.4312 5.16957 34.2099 4.88638 32.4217 4.80458C30.6299 4.72311 30.0595 4.70312 25.4963 4.70312H25.5015ZM23.9947 7.73009C24.442 7.72942 24.941 7.73009 25.5015 7.73009C29.9864 7.73009 30.5179 7.74621 32.289 7.82667C33.9267 7.90159 34.8155 8.17521 35.4076 8.40516C36.1915 8.70952 36.7504 9.0735 37.3379 9.66156C37.9258 10.2495 38.2896 10.8093 38.5948 11.5932C38.8248 12.1845 39.0988 13.0733 39.1733 14.711C39.2538 16.4818 39.2713 17.0136 39.2713 21.4963C39.2713 25.9791 39.2538 26.511 39.1733 28.2816C39.0984 29.9193 38.8248 30.8082 38.5948 31.3996C38.2905 32.1835 37.9258 32.7416 37.3379 33.3292C36.75 33.9171 36.1919 34.2809 35.4076 34.5854C34.8162 34.8164 33.9267 35.0893 32.289 35.1643C30.5182 35.2447 29.9864 35.2622 25.5015 35.2622C21.0164 35.2622 20.4848 35.2447 18.7142 35.1643C17.0765 35.0887 16.1876 34.815 15.5951 34.5851C14.8113 34.2806 14.2513 33.9168 13.6634 33.3289C13.0755 32.741 12.7117 32.1825 12.4065 31.3982C12.1766 30.8068 11.9026 29.9179 11.828 28.2802C11.7476 26.5095 11.7314 25.9777 11.7314 21.4921C11.7314 17.0065 11.7476 16.4776 11.828 14.7068C11.9029 13.0691 12.1766 12.1803 12.4065 11.5882C12.711 10.8043 13.0755 10.2444 13.6636 9.65652C14.2516 9.06863 14.8113 8.70464 15.5952 8.39961C16.1873 8.16866 17.0765 7.89571 18.7142 7.82046C20.2637 7.75041 20.8642 7.72942 23.9947 7.72589V7.73009ZM34.4677 10.519C33.3549 10.519 32.4521 11.421 32.4521 12.534C32.4521 13.6468 33.3549 14.5496 34.4677 14.5496C35.5805 14.5496 36.4833 13.6468 36.4833 12.534C36.4833 11.4212 35.5805 10.5184 34.4677 10.5184V10.519ZM25.5015 12.8741C20.7379 12.8741 16.8756 16.7364 16.8756 21.5002C16.8756 26.2639 20.7379 30.1244 25.5015 30.1244C30.2653 30.1244 34.1262 26.2639 34.1262 21.5002C34.1262 16.7366 30.2649 12.8741 25.5012 12.8741H25.5015ZM25.5015 15.9011C28.5936 15.9011 31.1006 18.4077 31.1006 21.5002C31.1006 24.5923 28.5936 27.0992 25.5015 27.0992C22.4094 27.0992 19.9026 24.5923 19.9026 21.5002C19.9026 18.4077 22.4092 15.9011 25.5015 15.9011Z" fill="white"/>
</g>
<defs>
<filter id="filter0_d_816_918" x="0" y="0" width="51" height="51" filterUnits="userSpaceOnUse" color-interpolation-filters="sRGB">
<feFlood flood-opacity="0" result="BackgroundImageFix"/>
<feColorMatrix in="SourceAlpha" type="matrix" values="0 0 0 0 0 0 0 0 0 0 0 0 0 0 0 0 0 0 127 0" result="hardAlpha"/>
<feOffset dy="4"/>
<feGaussianBlur stdDeviation="2"/>
<feComposite in2="hardAlpha" operator="out"/>
<feColorMatrix type="matrix" values="0 0 0 0 0 0 0 0 0 0 0 0 0 0 0 0 0 0 0.25 0"/>
<feBlend mode="normal" in2="BackgroundImageFix" result="effect1_dropShadow_816_918"/>
<feBlend mode="normal" in="SourceGraphic" in2="effect1_dropShadow_816_918" result="shape"/>
</filter>
<radialGradient id="paint0_radial_816_918" cx="0" cy="0" r="1" gradientUnits="userSpaceOnUse" gradientTransform="translate(15.4219 46.3118) rotate(-90) scale(42.6162 39.6364)">
<stop stop-color="#FFDD55"/>
<stop offset="0.1" stop-color="#FFDD55"/>
<stop offset="0.5" stop-color="#FF543E"/>
<stop offset="1" stop-color="#C837AB"/>
</radialGradient>
<radialGradient id="paint1_radial_816_918" cx="0" cy="0" r="1" gradientUnits="userSpaceOnUse" gradientTransform="translate(-3.20267 3.09751) rotate(78.681) scale(19.0497 78.5234)">
<stop stop-color="#3771C8"/>
<stop offset="0.128" stop-color="#3771C8"/>
<stop offset="1" stop-color="#6600FF" stop-opacity="0"/>
</radialGradient>
</defs>
</svg>
