<svg width="49" height="49" viewBox="0 0 49 49" fill="none" xmlns="http://www.w3.org/2000/svg">
<g filter="url(#filter0_d_816_917)">
<path d="M35.3906 0H13.6094C8.30226 0 4 4.30226 4 9.60938V31.3906C4 36.6977 8.30226 41 13.6094 41H35.3906C40.6977 41 45 36.6977 45 31.3906V9.60938C45 4.30226 40.6977 0 35.3906 0Z" fill="white"/>
<path d="M35.3906 0H13.6094C8.30226 0 4 4.30226 4 9.60938V31.3906C4 36.6977 8.30226 41 13.6094 41H35.3906C40.6977 41 45 36.6977 45 31.3906V9.60938C45 4.30226 40.6977 0 35.3906 0Z" fill="#0A66C2"/>
<path d="M33.5833 34.8636H38.271C38.4409 34.8636 38.6038 34.7961 38.724 34.676C38.8441 34.5559 38.9116 34.393 38.9117 34.2231L38.9141 24.3188C38.9141 19.142 37.7986 15.163 31.749 15.163C29.4493 15.0774 27.2806 16.2629 26.1104 18.2424C26.1046 18.2521 26.0959 18.2595 26.0856 18.2637C26.0752 18.2679 26.0637 18.2686 26.0529 18.2657C26.0421 18.2628 26.0326 18.2564 26.0258 18.2475C26.0189 18.2387 26.0152 18.2278 26.0151 18.2167V16.2815C26.0151 16.1116 25.9476 15.9486 25.8274 15.8285C25.7073 15.7084 25.5444 15.6409 25.3745 15.6409H20.9258C20.7559 15.6409 20.5929 15.7084 20.4728 15.8285C20.3527 15.9486 20.2852 16.1116 20.2852 16.2815V34.2222C20.2852 34.3921 20.3527 34.555 20.4728 34.6752C20.5929 34.7953 20.7559 34.8628 20.9258 34.8628H25.6132C25.7832 34.8628 25.9461 34.7953 26.0662 34.6752C26.1864 34.555 26.2539 34.3921 26.2539 34.2222V25.3539C26.2539 22.8463 26.7295 20.4178 29.8383 20.4178C32.9029 20.4178 32.9426 23.2872 32.9426 25.5163V34.223C32.9426 34.3929 33.0101 34.5558 33.1303 34.676C33.2504 34.7961 33.4134 34.8636 33.5833 34.8636ZM10.0859 9.5498C10.0859 11.4499 11.6502 13.0133 13.5504 13.0133C15.4502 13.0132 17.0135 11.4488 17.0135 9.549C17.0132 7.64922 15.4497 6.08594 13.5498 6.08594C11.6494 6.08594 10.0859 7.6497 10.0859 9.5498ZM11.2005 34.8636H15.8942C16.0641 34.8636 16.227 34.7961 16.3472 34.676C16.4673 34.5558 16.5348 34.3929 16.5348 34.223V16.2815C16.5348 16.1116 16.4673 15.9486 16.3472 15.8285C16.227 15.7084 16.0641 15.6409 15.8942 15.6409H11.2005C11.0306 15.6409 10.8676 15.7084 10.7475 15.8285C10.6273 15.9486 10.5598 16.1116 10.5598 16.2815V34.223C10.5598 34.3929 10.6273 34.5558 10.7475 34.676C10.8676 34.7961 11.0306 34.8636 11.2005 34.8636Z" fill="white"/>
</g>
<defs>
<filter id="filter0_d_816_917" x="0" y="0" width="49" height="49" filterUnits="userSpaceOnUse" color-interpolation-filters="sRGB">
<feFlood flood-opacity="0" result="BackgroundImageFix"/>
<feColorMatrix in="SourceAlpha" type="matrix" values="0 0 0 0 0 0 0 0 0 0 0 0 0 0 0 0 0 0 127 0" result="hardAlpha"/>
<feOffset dy="4"/>
<feGaussianBlur stdDeviation="2"/>
<feComposite in2="hardAlpha" operator="out"/>
<feColorMatrix type="matrix" values="0 0 0 0 0 0 0 0 0 0 0 0 0 0 0 0 0 0 0.25 0"/>
<feBlend mode="normal" in2="BackgroundImageFix" result="effect1_dropShadow_816_917"/>
<feBlend mode="normal" in="SourceGraphic" in2="effect1_dropShadow_816_917" result="shape"/>
</filter>
</defs>
</svg>
