<svg width="51" height="51" viewBox="0 0 51 51" fill="none" xmlns="http://www.w3.org/2000/svg">
<g filter="url(#filter0_d_816_919)">
<path d="M47 21.5C47 9.62595 37.374 0 25.5 0C13.626 0 4 9.62595 4 21.5C4 32.2312 11.8623 41.126 22.1406 42.7388V27.7148H16.6816V21.5H22.1406V16.7633C22.1406 11.3748 25.3505 8.39844 30.2616 8.39844C32.6138 8.39844 35.0742 8.81836 35.0742 8.81836V14.1094H32.3632C29.6923 14.1094 28.8594 15.7667 28.8594 17.4671V21.5H34.8223L33.869 27.7148H28.8594V42.7388C39.1377 41.126 47 32.2314 47 21.5Z" fill="#1877F2"/>
<path d="M33.869 27.7148L34.8223 21.5H28.8594V17.4671C28.8594 15.7666 29.6923 14.1094 32.3632 14.1094H35.0742V8.81836C35.0742 8.81836 32.6138 8.39844 30.2614 8.39844C25.3505 8.39844 22.1406 11.3748 22.1406 16.7633V21.5H16.6816V27.7148H22.1406V42.7388C23.2519 42.9129 24.3751 43.0003 25.5 43C26.6249 43.0003 27.7481 42.9129 28.8594 42.7388V27.7148H33.869Z" fill="white"/>
</g>
<defs>
<filter id="filter0_d_816_919" x="0" y="0" width="51" height="51" filterUnits="userSpaceOnUse" color-interpolation-filters="sRGB">
<feFlood flood-opacity="0" result="BackgroundImageFix"/>
<feColorMatrix in="SourceAlpha" type="matrix" values="0 0 0 0 0 0 0 0 0 0 0 0 0 0 0 0 0 0 127 0" result="hardAlpha"/>
<feOffset dy="4"/>
<feGaussianBlur stdDeviation="2"/>
<feComposite in2="hardAlpha" operator="out"/>
<feColorMatrix type="matrix" values="0 0 0 0 0 0 0 0 0 0 0 0 0 0 0 0 0 0 0.25 0"/>
<feBlend mode="normal" in2="BackgroundImageFix" result="effect1_dropShadow_816_919"/>
<feBlend mode="normal" in="SourceGraphic" in2="effect1_dropShadow_816_919" result="shape"/>
</filter>
</defs>
</svg>
