<svg width="368" height="405" viewBox="0 0 368 405" fill="none" xmlns="http://www.w3.org/2000/svg">
<g filter="url(#filter0_d_428_21149)">
<path d="M217.689 175.881C204.68 167.9 188.275 163.343 174.615 161.49C167.563 160.534 161.22 160.295 156.433 160.684C154.042 160.879 152.019 161.232 150.484 161.741C148.978 162.24 147.818 162.929 147.338 163.885L147.249 164.09C147.074 164.572 147.119 165.072 147.325 165.556C147.552 166.092 147.977 166.621 148.527 167.142C149.628 168.186 151.357 169.318 153.488 170.531C157.754 172.958 163.808 175.805 170.08 178.996C176.371 182.197 182.908 185.756 188.215 189.637C193.372 193.409 197.289 197.428 198.749 201.647L198.882 202.056C199.172 203 199.193 203.839 198.999 204.594C198.805 205.351 198.387 206.055 197.755 206.713C196.478 208.039 194.36 209.141 191.614 210.052C186.132 211.872 178.394 212.854 170.662 213.51C162.979 214.162 155.237 214.498 149.94 215.026C147.294 215.291 145.168 215.609 143.916 216.066C143.598 216.182 143.315 216.314 143.086 216.469C142.861 216.622 142.654 216.822 142.544 217.088C142.323 217.622 142.59 218.103 142.968 218.475L143.135 218.628C144.06 219.413 145.945 220.407 148.495 221.518C151.066 222.637 154.369 223.899 158.178 225.208C165.797 227.825 175.461 230.636 185.384 232.886C195.304 235.135 205.499 236.825 214.174 237.192C218.511 237.376 222.483 237.229 225.857 236.649C229.226 236.071 232.042 235.054 234.028 233.464L234.029 233.464C241.097 227.803 242.988 217.203 240.326 206.304C237.658 195.382 230.396 184.018 218.937 176.664L217.689 175.881Z" stroke="url(#paint0_linear_428_21149)" stroke-miterlimit="10"/>
<path d="M225.677 176.057C210.037 167.856 192.83 162.576 178.822 159.747C171.592 158.287 165.203 157.477 160.311 157.258C157.866 157.148 155.784 157.185 154.153 157.366C152.651 157.532 151.449 157.826 150.714 158.302L150.573 158.4L150.432 158.518C150.299 158.643 150.191 158.793 150.124 158.969C150.033 159.207 150.032 159.451 150.089 159.682C150.197 160.118 150.519 160.542 150.918 160.943C151.731 161.759 153.123 162.728 154.87 163.828C156.628 164.934 158.79 166.199 161.172 167.603C163.557 169.009 166.169 170.558 168.839 172.24C174.181 175.606 179.736 179.492 184.14 183.799C188.551 188.113 191.757 192.8 192.502 197.761L192.502 197.762C192.831 199.954 192.164 201.856 190.715 203.547C189.253 205.253 186.997 206.738 184.182 208.037C178.552 210.634 170.842 212.411 163.273 213.762C159.494 214.436 155.762 215.003 152.353 215.513C148.949 216.022 145.86 216.476 143.385 216.923C140.935 217.366 139.007 217.814 137.973 218.335C137.709 218.468 137.471 218.622 137.293 218.805C137.112 218.992 136.964 219.244 136.969 219.553C136.974 219.857 137.125 220.11 137.31 220.306C137.449 220.454 137.627 220.591 137.835 220.722L138.051 220.85C143.283 223.766 164.182 231.932 186.161 237.701C197.157 240.587 208.45 242.88 218.21 243.614C223.091 243.981 227.603 243.96 231.51 243.423C235.168 242.919 238.327 241.958 240.764 240.416L241.241 240.099C249.956 234.059 253.272 221.908 251.029 209.511C248.783 197.091 240.949 184.302 227.186 176.86L225.677 176.057Z" stroke="url(#paint1_linear_428_21149)" stroke-miterlimit="10"/>
<path d="M182.594 157.806C175.129 155.811 168.669 154.42 163.727 153.625C161.257 153.228 159.159 152.978 157.501 152.878C155.919 152.783 154.682 152.823 153.902 153.027C153.698 153.027 153.507 153.042 153.342 153.083C153.169 153.125 152.942 153.215 152.798 153.429C152.636 153.668 152.663 153.928 152.728 154.113C152.791 154.289 152.904 154.453 153.023 154.598C153.491 155.164 154.517 155.957 155.85 156.923C158.567 158.893 162.78 161.732 167.235 165.295C171.687 168.856 176.348 173.115 179.932 177.888C183.405 182.513 185.842 187.589 186.131 192.957L186.153 193.477C186.293 198.535 182.584 202.629 176.813 206.009C171.063 209.377 163.425 211.939 156.051 213.976C152.369 214.993 148.762 215.878 145.501 216.665C142.244 217.452 139.322 218.145 137.027 218.777C135.878 219.093 134.877 219.396 134.063 219.691C133.259 219.982 132.6 220.278 132.161 220.591C131.943 220.746 131.741 220.932 131.616 221.158C131.479 221.405 131.44 221.693 131.552 221.98C131.654 222.24 131.858 222.441 132.082 222.6C132.311 222.762 132.605 222.911 132.952 223.051L132.953 223.051C140.162 225.948 163.101 235.529 187.167 242.562C199.198 246.079 211.531 248.964 222.332 250.056C232.768 251.111 241.883 250.505 247.9 247.07L248.472 246.729C258.818 240.299 263.54 226.592 261.716 212.701C259.889 198.787 251.489 184.581 235.449 177.071L233.674 176.246C215.324 167.801 197.059 161.67 182.594 157.806Z" stroke="url(#paint2_linear_428_21149)" stroke-miterlimit="10"/>
<path d="M167.356 150.102C162.418 148.74 158.896 147.934 157.152 147.74C156.65 147.549 156.255 147.42 155.982 147.379C155.907 147.368 155.824 147.36 155.741 147.365C155.663 147.369 155.542 147.385 155.423 147.457C155.282 147.542 155.181 147.684 155.152 147.856C155.128 148.002 155.163 148.125 155.191 148.199C155.246 148.343 155.347 148.48 155.438 148.591C155.538 148.713 155.666 148.849 155.812 148.997C156.107 149.292 156.507 149.66 156.987 150.092C158.915 151.826 162.233 154.68 165.764 158.419C172.736 165.802 180.41 176.51 179.82 188.623L179.785 189.201C179.38 194.949 175.4 199.699 169.648 203.694C163.905 207.683 156.49 210.852 149.413 213.455C145.878 214.756 142.436 215.913 139.337 216.961C136.242 218.007 133.48 218.947 131.322 219.81C130.243 220.242 129.303 220.659 128.544 221.065C127.793 221.466 127.181 221.876 126.785 222.305C126.385 222.74 126.132 223.285 126.345 223.882C126.513 224.35 126.933 224.728 127.487 225.049L127.733 225.184C136.076 229.509 161.08 240.496 187.451 248.435C200.638 252.405 214.186 255.619 226.174 256.852C237.766 258.045 247.991 257.396 255.016 253.703L255.686 253.336C267.665 246.51 273.785 231.253 272.382 215.879C270.976 200.477 262.017 184.86 243.723 177.267L239.647 175.588C219.386 167.307 200.939 160.681 186.559 155.969C178.889 153.457 172.374 151.488 167.356 150.102Z" stroke="url(#paint3_linear_428_21149)" stroke-miterlimit="10"/>
<path d="M158.041 141.561C157.881 141.527 157.689 141.503 157.506 141.546C157.408 141.57 157.295 141.617 157.195 141.707C157.092 141.801 157.03 141.919 157.002 142.037C156.951 142.248 157.008 142.451 157.057 142.583C157.162 142.865 157.382 143.214 157.653 143.597C158.205 144.378 159.11 145.495 160.192 146.875C161.281 148.264 162.569 149.943 163.911 151.877C169.208 159.507 175.315 171.043 173.541 184.328L173.45 184.962C172.483 191.387 168.146 196.886 162.264 201.617C156.386 206.344 149.029 210.254 142.14 213.514C135.288 216.757 128.834 219.385 124.909 221.494C123.921 222.025 123.075 222.532 122.411 223.018C121.756 223.498 121.235 223.986 120.948 224.492C120.8 224.751 120.704 225.031 120.697 225.326C120.689 225.626 120.773 225.911 120.937 226.17C121.25 226.666 121.845 227.056 122.628 227.388L122.629 227.388C133.397 231.946 160.458 244.346 188.789 253.483C202.955 258.051 217.46 261.811 230.422 263.367C242.961 264.872 254.139 264.325 262.171 260.373L262.938 259.981C276.518 252.743 284.017 235.934 283.027 219.08C282.035 202.194 272.525 185.171 251.989 177.491L217.78 164.704C207.434 160.833 198.21 157.374 190.307 154.382C174.488 148.392 163.99 144.287 160.357 142.51L159.846 142.264C159.361 142.036 158.957 141.86 158.629 141.739C158.411 141.658 158.213 141.597 158.041 141.561Z" stroke="url(#paint4_linear_428_21149)" stroke-miterlimit="10"/>
<path d="M159.976 135.241C159.791 135.184 159.597 135.144 159.41 135.154C159.213 135.164 158.996 135.232 158.831 135.416C158.675 135.59 158.627 135.802 158.617 135.976C158.607 136.151 158.632 136.337 158.673 136.521C158.832 137.231 159.327 138.33 159.969 139.701C160.624 141.098 161.46 142.832 162.35 144.87C165.857 152.895 170.168 165.549 167.241 180.031L167.096 180.721C165.551 187.812 160.83 194.197 154.769 199.843C148.711 205.485 141.36 210.348 134.626 214.406C127.926 218.443 121.774 221.717 118.245 224.114C117.358 224.717 116.616 225.277 116.062 225.793C115.523 226.296 115.102 226.809 114.949 227.327C114.868 227.601 114.858 227.888 114.957 228.169C115.055 228.447 115.244 228.672 115.482 228.853C115.883 229.157 116.477 229.375 117.23 229.538L117.563 229.604C124.414 230.859 135.089 234.915 147.869 240.045C160.625 245.166 175.441 251.342 190.513 256.791C205.585 262.24 220.942 266.973 234.792 269.208C248.41 271.406 260.654 271.203 269.747 266.808L270.178 266.596C285.366 258.951 294.244 240.598 293.67 222.269C293.095 203.903 283.031 185.477 260.256 177.7L255.123 175.933C202.76 157.783 171.53 142.675 163.502 137.274L162.896 136.87C162.317 136.488 161.815 136.172 161.385 135.921C160.818 135.59 160.348 135.358 159.976 135.241Z" stroke="url(#paint5_linear_428_21149)" stroke-miterlimit="10"/>
<path d="M162.336 128.957C161.837 128.718 161.365 128.572 160.946 128.607C160.726 128.626 160.516 128.695 160.333 128.827C160.152 128.958 160.022 129.133 159.931 129.324C159.758 129.691 159.708 130.162 159.715 130.669C159.722 131.189 159.79 131.809 159.898 132.513C160.114 133.918 160.501 135.733 160.931 137.866C162.658 146.426 165.156 160.479 160.768 176.466L160.56 177.19C158.324 184.66 153.406 191.552 147.43 197.749C141.265 204.141 134.005 209.762 127.481 214.486C120.984 219.19 115.165 223.038 111.98 225.831C111.18 226.533 110.526 227.185 110.063 227.782C109.609 228.367 109.288 228.963 109.258 229.543C109.225 230.184 109.549 230.696 110.117 231.055C110.589 231.353 111.247 231.562 112.074 231.706L112.439 231.763C120.362 232.894 132.083 237.237 145.896 242.853C159.681 248.458 175.523 255.319 191.606 261.429C207.693 267.54 224.061 272.915 238.933 275.554C253.559 278.15 266.817 278.112 276.946 273.448L277.426 273.223C294.218 265.154 304.472 245.256 304.313 225.456C304.154 205.616 293.542 185.795 268.533 177.921L265.68 177.016C206.237 158.021 175.926 139.599 166.641 132.001L165.954 131.446C164.404 130.209 163.219 129.381 162.336 128.957Z" stroke="url(#paint6_linear_428_21149)" stroke-miterlimit="10"/>
<path d="M164.655 122.694C163.364 121.969 162.232 121.719 161.341 122.283C160.911 122.556 160.602 122.984 160.375 123.495C160.147 124.006 159.986 124.632 159.868 125.347C159.633 126.776 159.558 128.658 159.526 130.895C159.397 139.874 159.974 155.027 154.415 172.223L154.153 173.009C151.366 181.112 146.148 188.728 140.067 195.649C133.792 202.792 126.621 209.17 120.305 214.561C114.014 219.932 108.522 224.362 105.689 227.555C104.977 228.358 104.414 229.104 104.045 229.784C103.681 230.456 103.474 231.123 103.568 231.747C103.667 232.405 104.083 232.906 104.723 233.257C105.268 233.556 105.996 233.76 106.899 233.886L107.297 233.935C116.28 234.916 129.044 239.532 143.891 245.627C158.699 251.707 175.581 259.259 192.675 266.032C209.782 272.809 227.168 278.835 243.066 281.883C258.705 284.882 272.977 285.015 284.138 280.079L284.666 279.841C303.051 271.358 314.681 249.917 314.942 228.646C315.203 207.331 304.05 186.11 276.81 178.133L273.688 177.21C208.714 157.781 180.236 136.479 169.753 126.735L168.982 126.028C167.231 124.447 165.81 123.343 164.655 122.694Z" stroke="url(#paint7_linear_428_21149)" stroke-miterlimit="10"/>
<path d="M166.965 116.441C165.342 115.452 163.933 115.069 162.704 115.411C161.47 115.756 160.58 116.786 159.886 118.222C159.189 119.664 158.644 121.611 158.146 123.953C156.143 133.363 154.806 149.571 148.073 167.992L147.755 168.84C140.951 186.611 125.163 202.7 113.119 214.643C107.032 220.678 101.864 225.689 99.3878 229.285C98.7651 230.189 98.295 231.027 98.025 231.788C97.756 232.548 97.6692 233.279 97.8799 233.933C98.0957 234.604 98.5951 235.108 99.3158 235.459C99.9369 235.762 100.74 235.962 101.721 236.072L102.152 236.113C112.182 236.933 125.981 241.815 141.858 248.387C149.786 251.668 158.215 255.364 166.933 259.172C175.649 262.979 184.652 266.896 193.719 270.62C211.849 278.067 230.259 284.746 247.189 288.207C263.844 291.613 279.136 291.92 291.332 286.713L291.91 286.461C311.909 277.562 324.912 254.579 325.587 231.838C325.924 220.455 323.176 209.102 316.643 199.579C310.107 190.05 299.803 182.384 285.091 178.349L281.699 177.406C211.172 157.542 184.568 133.395 172.859 121.467L172.004 120.61C170.054 118.69 168.393 117.311 166.965 116.441Z" stroke="url(#paint8_linear_428_21149)" stroke-miterlimit="10"/>
<path d="M169.274 110.182C167.328 108.936 165.591 108.395 164.008 108.584C162.415 108.774 161.081 109.691 159.918 111.137C158.761 112.578 157.743 114.579 156.775 117.023C154.841 121.907 153.047 128.718 150.762 136.712C148.472 144.721 145.679 153.959 141.735 163.758L141.363 164.665C133.427 183.706 117.568 201.456 105.93 214.708C100.046 221.408 95.2017 227.002 93.0881 231C92.5562 232.006 92.1826 232.936 92.0142 233.777C91.8455 234.619 91.8766 235.403 92.195 236.085C92.8007 237.38 94.3061 238.047 96.5532 238.246L97.0128 238.279C108.078 238.925 122.906 244.068 139.81 251.114C148.253 254.633 157.197 258.62 166.428 262.743C175.657 266.864 185.173 271.123 194.753 275.184C213.91 283.303 233.351 290.641 251.315 294.52C268.989 298.337 285.303 298.822 298.53 293.343L299.157 293.078C320.759 283.76 335.145 259.242 336.24 235.039C336.787 222.924 334.008 210.856 327.11 200.785C320.209 190.708 309.207 182.665 293.375 178.57L289.712 177.608C252.269 167.619 227.269 156.01 209.996 145.118C192.172 133.878 182.558 123.391 175.973 116.19L175.034 115.185C172.881 112.927 170.979 111.273 169.274 110.182Z" stroke="url(#paint9_linear_428_21149)" stroke-miterlimit="10"/>
<path d="M171.574 103.932C169.31 102.434 167.23 101.724 165.28 101.78C161.36 101.892 158.266 105.072 155.407 110.121C152.531 115.201 149.782 122.374 146.632 130.84C143.476 139.32 139.907 149.126 135.381 159.526L134.954 160.493C125.883 180.8 109.956 200.205 98.7227 214.77C93.0413 222.136 88.521 228.313 86.7749 232.714C85.9078 234.899 85.6561 236.811 86.4929 238.223C87.2865 239.561 88.9385 240.256 91.3655 240.424L91.8612 240.451C103.944 240.915 119.792 246.314 137.718 253.832C155.648 261.352 175.519 270.926 195.736 279.733C215.923 288.526 236.397 296.525 255.403 300.825C274.104 305.057 291.451 305.723 305.721 299.976L306.397 299.697C329.61 289.958 345.364 263.893 346.87 238.22C347.624 225.37 344.812 212.585 337.551 201.967C330.286 191.344 318.592 182.929 301.654 178.786L299.677 178.298C258.385 168.009 231.899 155.398 213.954 143.302C195.727 131.017 186.29 119.252 179.068 110.914L178.554 110.328C176.003 107.447 173.695 105.335 171.574 103.932Z" stroke="url(#paint10_linear_428_21149)" stroke-miterlimit="10"/>
<path d="M181.616 104.968C175.931 98.2738 171.035 95.1037 166.537 94.9705C161.864 94.8322 157.847 97.971 154.042 103.227C150.226 108.497 146.524 116.031 142.511 124.965C138.487 133.921 134.153 144.278 129.042 155.286L128.56 156.313C118.351 177.892 102.355 198.952 91.5231 214.83C86.0437 222.862 81.8493 229.621 80.4732 234.42C79.7866 236.815 79.7589 238.866 80.7952 240.342C81.7716 241.733 83.5803 242.457 86.1858 242.593L86.7182 242.612C99.8275 242.895 116.698 248.554 135.647 256.545C154.595 264.535 175.504 274.803 196.743 284.281C217.957 293.749 239.464 302.41 259.509 307.132C279.234 311.778 297.608 312.624 312.917 306.608L313.644 306.317C338.445 296.151 355.572 268.546 357.499 241.408C358.463 227.826 355.623 214.325 348.001 203.161C340.375 191.991 327.988 183.202 309.938 179.003L307.824 178.507C263.697 168.026 236.253 154.612 217.913 141.488C199.281 128.155 190.023 115.11 182.169 105.627L182.169 105.626L181.616 104.968Z" stroke="url(#paint11_linear_428_21149)" stroke-miterlimit="10"/>
<path d="M184.667 99.6106C178.548 92.1559 173.02 88.5415 167.779 88.1703C162.348 87.7858 157.417 90.8938 152.669 96.3415C147.916 101.795 143.262 109.688 138.383 119.09C133.503 128.496 128.372 139.463 122.685 151.064L121.604 153.239C110.291 175.707 94.5718 197.962 84.3022 214.888C79.0237 223.588 75.1541 230.929 74.1502 236.129C73.6478 238.731 73.8384 240.92 75.0698 242.465C76.2271 243.917 78.2009 244.673 80.9859 244.778L81.5544 244.791C95.6791 244.884 113.569 250.793 133.542 259.254C153.51 267.713 175.453 278.67 197.722 288.822C219.969 298.965 242.514 308.289 263.602 313.432C284.356 318.493 303.763 319.521 320.111 313.235L320.887 312.931C347.285 302.352 365.787 273.207 368.132 244.603C369.305 230.288 366.436 216.07 358.451 204.359C350.462 192.642 337.382 183.477 318.219 179.223L315.968 178.718C269.004 168.047 240.602 153.831 221.866 139.678C202.828 125.296 193.751 110.972 185.262 100.344L184.667 99.6106Z" stroke="url(#paint12_linear_428_21149)" stroke-miterlimit="10"/>
<path d="M187.723 94.2666C181.169 86.0491 175 81.9884 169.008 81.3878C162.809 80.7667 156.967 83.8633 151.28 89.501C145.59 95.1408 139.984 103.393 134.244 113.258C128.5 123.128 122.602 134.648 116.339 146.837L115.15 149.129C109.154 160.595 102.36 172.112 95.8248 183.011C88.8577 194.63 82.1793 205.554 77.0907 214.943C72.0138 224.31 68.471 232.232 67.8419 237.829C67.5266 240.635 67.9308 242.961 69.3565 244.578C70.695 246.096 72.8396 246.883 75.8051 246.958L76.4091 246.963C91.5366 246.867 110.438 253.032 131.43 261.965C152.416 270.895 175.389 282.543 198.69 293.37C221.971 304.189 245.557 314.178 267.693 319.742C289.479 325.219 309.922 326.426 327.313 319.868L328.138 319.55C356.134 308.534 376.009 277.85 378.77 247.783C380.152 232.737 377.253 217.806 368.905 205.55C360.552 193.288 346.776 183.75 326.5 179.439L324.113 178.924C274.312 168.063 244.953 153.047 225.821 137.869C206.374 122.439 197.481 106.844 188.359 95.075L187.723 94.2666Z" stroke="url(#paint13_linear_428_21149)" stroke-miterlimit="10"/>
<path d="M190.757 88.9046C183.77 79.9289 176.963 75.4184 170.219 74.5877C163.251 73.7292 156.499 76.8173 149.877 82.6398C143.254 88.4629 136.696 97.0738 130.093 107.403C123.487 117.737 116.817 129.821 109.975 142.608L108.678 145.02C102.154 157.089 95.0739 169.296 88.4269 180.893C81.34 193.258 74.7439 204.935 69.8575 214.992C64.9821 225.026 61.7661 233.529 61.512 239.52C61.3845 242.526 61.9989 244.988 63.6171 246.679C65.1361 248.266 67.4545 249.085 70.5993 249.129L71.2395 249.127C87.3688 248.832 107.273 255.239 129.275 264.631C151.269 274.02 175.261 286.346 199.587 297.844C223.895 309.333 248.52 319.986 271.709 325.983C294.894 331.978 316.708 333.335 335.364 326.164L335.365 326.164C364.917 314.685 386.173 282.462 389.369 250.943C390.968 235.17 388.05 219.533 379.349 206.737C370.642 193.935 356.18 184.026 334.791 179.658L332.267 179.136C279.634 168.09 249.316 152.273 229.783 136.064C209.92 119.581 201.202 102.708 191.434 89.7871L190.757 88.9046Z" stroke="url(#paint14_linear_428_21149)" stroke-miterlimit="10"/>
<path d="M193.832 83.534C186.414 73.8028 178.964 68.8414 171.467 67.7814C163.724 66.6867 156.064 69.7709 148.508 75.776C133.418 87.7683 118.475 111.625 103.653 138.372L100.834 143.439C86.6597 168.825 71.4362 194.942 62.659 215.037C57.9844 225.738 55.097 234.821 55.218 241.206C55.2787 244.41 56.0986 247.012 57.9101 248.78C59.6105 250.44 62.1059 251.289 65.4312 251.303L66.1075 251.295C83.2391 250.8 104.157 257.457 127.179 267.319C150.194 277.179 175.216 290.197 200.578 302.374C225.922 314.543 251.588 325.864 275.825 332.285C300.057 338.706 322.921 340.245 342.631 332.779L342.632 332.779C373.775 320.877 396.398 287.115 400.007 254.132C401.813 237.627 398.863 221.276 389.797 207.935C380.727 194.586 365.57 184.303 343.068 179.878L340.409 179.347C284.941 168.112 253.665 151.494 233.738 134.254C213.465 116.716 204.938 98.565 194.55 84.4903L193.832 83.534Z" stroke="url(#paint15_linear_428_21149)" stroke-miterlimit="10"/>
<path d="M196.875 78.1964C189.025 67.7087 180.924 62.29 172.658 60.9958C164.127 59.6601 155.543 62.7379 147.043 68.9209C130.066 81.2708 113.19 106.187 97.3027 134.161L94.2563 139.462C79.0124 166.049 63.7389 193.714 55.357 215.07C50.8932 226.442 48.3492 236.108 48.8612 242.89C49.1181 246.293 50.1493 249.035 52.1605 250.884C54.0484 252.62 56.7279 253.503 60.2377 253.487L60.9506 253.471C79.079 252.784 101.008 259.693 125.051 270.023C149.086 280.351 175.14 294.055 201.54 306.907C227.922 319.75 254.633 331.735 279.917 338.581C305.198 345.425 329.114 347.149 349.873 339.401L349.874 339.402C382.625 327.077 406.632 291.778 410.661 257.33C412.678 240.093 409.697 223.027 400.267 209.138C390.831 195.242 374.976 184.582 351.351 180.095L348.555 179.555C290.256 168.137 258.021 150.719 237.693 132.453C227.366 123.173 220.097 113.661 214.04 104.574C211.009 100.028 208.284 95.5924 205.627 91.3384C202.971 87.0882 200.383 83.0197 197.634 79.2268L196.875 78.1964Z" stroke="url(#paint16_linear_428_21149)" stroke-miterlimit="10"/>
<path d="M199.938 72.8397C191.656 61.5989 182.912 55.7286 173.892 54.2072C164.585 52.6374 155.094 55.7178 145.665 62.0829C126.827 74.799 108.015 100.774 90.953 129.938L89.3246 132.703C72.5141 161.341 56.4369 191.764 48.1658 215.123C43.9027 227.163 41.6835 237.406 42.5644 244.577C43.0064 248.174 44.2353 251.056 46.4359 252.986C48.5022 254.797 51.359 255.712 55.045 255.665L55.7932 255.642C74.9175 254.757 97.8562 261.918 122.919 272.72C147.975 283.52 175.062 297.916 202.499 311.448C229.92 324.971 257.676 337.625 284.01 344.894C309.93 352.049 334.529 354.004 356.099 346.39L357.124 346.02C391.482 333.275 416.857 296.459 421.299 260.559C423.521 242.595 420.509 224.817 410.716 210.377C400.918 195.929 384.372 184.88 359.641 180.313L359.64 180.312L356.708 179.768C295.576 168.225 262.381 150.007 241.655 130.696C231.124 120.885 223.797 110.777 217.653 101.084C211.527 91.4183 206.528 82.0747 200.738 73.9439L199.938 72.8397Z" stroke="url(#paint17_linear_428_21149)" stroke-miterlimit="10"/>
<path d="M202.989 67.4839C194.275 55.489 184.89 49.1658 175.116 47.417C165.031 45.6127 154.636 48.6966 144.279 55.2442C123.584 68.3268 102.841 95.364 84.6086 125.717L84.6077 125.716C66.0369 156.404 49.0979 189.726 40.9605 215.172C36.897 227.878 35.0024 238.697 36.2546 246.259C36.8827 250.051 38.3107 253.073 40.7044 255.085C42.952 256.975 45.9894 257.921 49.8557 257.844L50.64 257.815C70.7571 256.73 94.7047 264.14 120.788 275.413C146.863 286.682 174.982 301.768 203.459 315.978C231.918 330.181 260.723 343.502 288.106 351.196C315.486 358.89 341.506 360.975 364.371 352.639L364.372 352.639C400.33 339.468 427.08 301.108 431.939 263.741C434.371 245.045 431.328 226.552 421.172 211.567C411.012 196.575 393.771 185.155 367.926 180.535L367.925 180.535L364.857 179.981C300.893 168.239 266.744 149.226 245.619 128.892C234.886 118.561 227.498 107.872 221.266 97.5833C215.049 87.3186 209.94 77.373 203.83 68.6632L202.989 67.4839Z" stroke="url(#paint18_linear_428_21149)" stroke-miterlimit="10"/>
<path d="M206.918 63.3876C197.572 49.8285 187.26 42.6735 176.401 40.6348C165.548 38.5973 154.247 41.6896 142.957 48.4209C120.393 61.8729 97.6803 89.9715 78.2576 121.508L76.4135 124.511C57.4362 155.627 41.2254 189.284 33.7357 215.221C29.8745 228.592 28.3087 239.987 29.9357 247.936C30.7516 251.921 32.3791 255.086 34.9678 257.181C37.3987 259.148 40.6196 260.126 44.6675 260.018L45.4882 259.982C66.5935 258.698 91.5469 266.357 118.648 278.099C145.743 289.837 174.894 305.612 204.411 320.501C233.91 335.381 263.763 349.368 292.197 357.488C320.185 365.48 346.857 367.804 370.496 359.649L371.62 359.252C409.188 345.663 437.313 305.758 442.587 266.924C445.226 247.494 442.151 228.286 431.632 212.756C421.272 197.461 403.731 185.794 377.47 180.975L376.212 180.751L373.007 180.188C306.212 168.246 271.122 148.426 249.607 127.064C238.674 116.21 231.229 104.939 224.905 94.0585C218.594 83.1995 213.365 72.6587 206.918 63.3876Z" stroke="url(#paint19_linear_428_21149)" stroke-miterlimit="10"/>
<path d="M210.01 58.089C200.216 43.7358 189.234 36.1053 177.589 33.832C165.951 31.5602 153.743 34.6572 141.527 41.5687C117.112 55.3821 92.4847 84.5342 71.9095 117.256L69.9597 120.379C49.9269 152.749 33.6467 188.029 26.5397 215.254C22.8753 229.292 21.6293 241.262 23.6244 249.598C24.6244 253.777 26.449 257.084 29.2314 259.262C31.8441 261.308 35.2483 262.318 39.478 262.18L40.3351 262.137C62.4282 260.657 88.387 268.571 116.506 280.785C144.619 292.997 174.802 309.463 205.358 325.032C235.897 340.593 266.796 355.249 296.282 363.793C325.765 372.337 353.893 374.788 378.863 365.87L378.864 365.869C418.05 351.865 447.55 310.412 453.238 270.108C456.084 249.943 452.977 230.018 442.093 213.942C431.373 198.11 413.151 186.073 385.805 181.196L384.496 180.968L381.154 180.397C311.515 168.264 275.452 147.645 253.533 125.254C242.395 113.876 234.89 102.023 228.483 90.5437C222.088 79.085 216.756 67.9358 210.01 58.089Z" stroke="url(#paint20_linear_428_21149)" stroke-miterlimit="10"/>
<path d="M212.626 52.0999C202.418 37.2884 190.834 29.3891 178.49 26.9899C165.959 24.5546 152.731 27.8046 139.487 35.0833C113.012 49.6326 86.2915 80.372 64.526 114.675C42.7541 148.987 25.8891 186.946 19.1669 216.009C15.8088 230.527 14.9644 242.897 17.3631 251.494C18.5653 255.803 20.5928 259.199 23.5611 261.426C26.4409 263.587 30.1537 264.608 34.7329 264.352L35.1789 264.324C58.2617 262.64 85.2271 270.801 114.366 283.484C143.498 296.164 174.715 313.319 206.311 329.567C237.89 345.805 269.839 361.129 300.376 370.099C330.435 378.928 359.183 381.617 384.897 372.914L386.12 372.492C426.9 358.058 457.774 315.063 463.88 273.295C466.935 252.398 463.798 231.759 452.551 215.139C441.298 198.512 421.972 185.971 392.783 181.192L389.306 180.611C316.848 168.271 279.812 146.852 257.483 123.437C246.136 111.538 238.568 99.1033 232.075 87.0311C225.592 74.9783 220.155 63.2263 213.11 52.8102L212.626 52.0999Z" stroke="url(#paint21_linear_428_21149)" stroke-miterlimit="10"/>
</g>
<defs>
<filter id="filter0_d_428_21149" x="11.4932" y="25.6895" width="457.99" height="361.051" filterUnits="userSpaceOnUse" color-interpolation-filters="sRGB">
<feFlood flood-opacity="0" result="BackgroundImageFix"/>
<feColorMatrix in="SourceAlpha" type="matrix" values="0 0 0 0 0 0 0 0 0 0 0 0 0 0 0 0 0 0 127 0" result="hardAlpha"/>
<feOffset dy="4"/>
<feGaussianBlur stdDeviation="2"/>
<feComposite in2="hardAlpha" operator="out"/>
<feColorMatrix type="matrix" values="0 0 0 0 0 0 0 0 0 0 0 0 0 0 0 0 0 0 0.25 0"/>
<feBlend mode="normal" in2="BackgroundImageFix" result="effect1_dropShadow_428_21149"/>
<feBlend mode="normal" in="SourceGraphic" in2="effect1_dropShadow_428_21149" result="shape"/>
</filter>
<linearGradient id="paint0_linear_428_21149" x1="200.865" y1="168.014" x2="183.367" y2="232.083" gradientUnits="userSpaceOnUse">
<stop stop-color="#85E668"/>
<stop offset="1" stop-color="#30BFA4"/>
</linearGradient>
<linearGradient id="paint1_linear_428_21149" x1="207.151" y1="167.575" x2="187.999" y2="237.7" gradientUnits="userSpaceOnUse">
<stop stop-color="#85E668"/>
<stop offset="1" stop-color="#30BFA4"/>
</linearGradient>
<linearGradient id="paint2_linear_428_21149" x1="212.198" y1="166.405" x2="191.223" y2="243.205" gradientUnits="userSpaceOnUse">
<stop stop-color="#85E668"/>
<stop offset="1" stop-color="#30BFA4"/>
</linearGradient>
<linearGradient id="paint3_linear_428_21149" x1="216.059" y1="163.921" x2="192.697" y2="249.462" gradientUnits="userSpaceOnUse">
<stop stop-color="#85E668"/>
<stop offset="1" stop-color="#30BFA4"/>
</linearGradient>
<linearGradient id="paint4_linear_428_21149" x1="220.436" y1="159.114" x2="194.295" y2="254.834" gradientUnits="userSpaceOnUse">
<stop stop-color="#85E668"/>
<stop offset="1" stop-color="#30BFA4"/>
</linearGradient>
<linearGradient id="paint5_linear_428_21149" x1="225.005" y1="153.517" x2="196.174" y2="259.085" gradientUnits="userSpaceOnUse">
<stop stop-color="#85E668"/>
<stop offset="1" stop-color="#30BFA4"/>
</linearGradient>
<linearGradient id="paint6_linear_428_21149" x1="229.649" y1="147.779" x2="197.772" y2="264.498" gradientUnits="userSpaceOnUse">
<stop stop-color="#85E668"/>
<stop offset="1" stop-color="#30BFA4"/>
</linearGradient>
<linearGradient id="paint7_linear_428_21149" x1="234.258" y1="142.001" x2="199.318" y2="269.937" gradientUnits="userSpaceOnUse">
<stop stop-color="#85E668"/>
<stop offset="1" stop-color="#30BFA4"/>
</linearGradient>
<linearGradient id="paint8_linear_428_21149" x1="238.844" y1="136.196" x2="200.825" y2="275.406" gradientUnits="userSpaceOnUse">
<stop stop-color="#85E668"/>
<stop offset="1" stop-color="#30BFA4"/>
</linearGradient>
<linearGradient id="paint9_linear_428_21149" x1="243.393" y1="130.358" x2="202.285" y2="280.882" gradientUnits="userSpaceOnUse">
<stop stop-color="#85E668"/>
<stop offset="1" stop-color="#30BFA4"/>
</linearGradient>
<linearGradient id="paint10_linear_428_21149" x1="247.877" y1="124.5" x2="203.671" y2="286.366" gradientUnits="userSpaceOnUse">
<stop stop-color="#85E668"/>
<stop offset="1" stop-color="#30BFA4"/>
</linearGradient>
<linearGradient id="paint11_linear_428_21149" x1="252.308" y1="118.608" x2="204.995" y2="291.849" gradientUnits="userSpaceOnUse">
<stop stop-color="#85E668"/>
<stop offset="1" stop-color="#30BFA4"/>
</linearGradient>
<linearGradient id="paint12_linear_428_21149" x1="256.668" y1="112.7" x2="206.246" y2="297.327" gradientUnits="userSpaceOnUse">
<stop stop-color="#85E668"/>
<stop offset="1" stop-color="#30BFA4"/>
</linearGradient>
<linearGradient id="paint13_linear_428_21149" x1="260.962" y1="106.785" x2="207.427" y2="302.808" gradientUnits="userSpaceOnUse">
<stop stop-color="#85E668"/>
<stop offset="1" stop-color="#30BFA4"/>
</linearGradient>
<linearGradient id="paint14_linear_428_21149" x1="265.15" y1="100.824" x2="208.508" y2="308.224" gradientUnits="userSpaceOnUse">
<stop stop-color="#85E668"/>
<stop offset="1" stop-color="#30BFA4"/>
</linearGradient>
<linearGradient id="paint15_linear_428_21149" x1="269.309" y1="94.8354" x2="209.543" y2="313.673" gradientUnits="userSpaceOnUse">
<stop stop-color="#85E668"/>
<stop offset="1" stop-color="#30BFA4"/>
</linearGradient>
<linearGradient id="paint16_linear_428_21149" x1="273.345" y1="88.8471" x2="210.464" y2="319.095" gradientUnits="userSpaceOnUse">
<stop stop-color="#85E668"/>
<stop offset="1" stop-color="#30BFA4"/>
</linearGradient>
<linearGradient id="paint17_linear_428_21149" x1="277.352" y1="82.8317" x2="211.343" y2="324.53" gradientUnits="userSpaceOnUse">
<stop stop-color="#85E668"/>
<stop offset="1" stop-color="#30BFA4"/>
</linearGradient>
<linearGradient id="paint18_linear_428_21149" x1="281.274" y1="76.7928" x2="212.139" y2="329.937" gradientUnits="userSpaceOnUse">
<stop stop-color="#85E668"/>
<stop offset="1" stop-color="#30BFA4"/>
</linearGradient>
<linearGradient id="paint19_linear_428_21149" x1="285.129" y1="70.7254" x2="212.867" y2="335.321" gradientUnits="userSpaceOnUse">
<stop stop-color="#85E668"/>
<stop offset="1" stop-color="#30BFA4"/>
</linearGradient>
<linearGradient id="paint20_linear_428_21149" x1="288.937" y1="64.6494" x2="213.543" y2="340.711" gradientUnits="userSpaceOnUse">
<stop stop-color="#85E668"/>
<stop offset="1" stop-color="#30BFA4"/>
</linearGradient>
<linearGradient id="paint21_linear_428_21149" x1="292.681" y1="58.5709" x2="214.161" y2="346.084" gradientUnits="userSpaceOnUse">
<stop stop-color="#85E668"/>
<stop offset="1" stop-color="#30BFA4"/>
</linearGradient>
</defs>
</svg>
