<svg width="178" height="162" viewBox="0 0 178 162" fill="none" xmlns="http://www.w3.org/2000/svg">
<path d="M163.384 134.159C163.347 134.159 163.934 131.404 163.988 131.233C164.63 129.275 166.948 125.892 169.112 125.955C169.471 125.976 169.823 126.078 170.144 126.254C170.464 126.431 170.746 126.678 170.972 126.98C171.197 127.282 171.361 127.632 171.452 128.007C171.543 128.381 171.559 128.772 171.5 129.154C171.304 130.781 169.908 132.139 168.653 132.909C167.177 133.814 163.388 134.159 163.384 134.159Z" fill="#263238"/>
<path d="M163.626 122.948C163.588 122.948 164.555 120.314 164.635 120.157C165.548 118.32 168.311 115.353 170.441 115.77C170.794 115.849 171.127 116.007 171.418 116.234C171.71 116.461 171.954 116.751 172.135 117.086C172.315 117.42 172.428 117.792 172.466 118.177C172.504 118.562 172.466 118.951 172.355 119.319C171.938 120.901 170.358 122.007 169.02 122.568C167.423 123.226 163.63 122.948 163.626 122.948Z" fill="#263238"/>
<path d="M166.344 110.488C166.302 110.488 167.269 107.853 167.348 107.696C168.261 105.863 171.029 102.897 173.16 103.309C173.512 103.389 173.845 103.548 174.136 103.775C174.428 104.002 174.672 104.293 174.852 104.628C175.032 104.963 175.145 105.335 175.182 105.72C175.219 106.106 175.181 106.495 175.069 106.863C174.652 108.44 173.072 109.551 171.734 110.111C170.141 110.766 166.344 110.488 166.344 110.488Z" fill="#263238"/>
<path d="M168.374 98.6037C168.332 98.6037 169.299 95.969 169.379 95.8077C170.291 93.975 173.059 91.0086 175.19 91.4254C175.542 91.5046 175.875 91.6627 176.166 91.8893C176.458 92.116 176.702 92.4062 176.883 92.7409C177.063 93.0757 177.176 93.4476 177.214 93.8324C177.252 94.2172 177.214 94.6062 177.103 94.9742C176.686 96.556 175.102 97.6627 173.768 98.2229C172.171 98.8771 168.374 98.6037 168.374 98.6037Z" fill="#263238"/>
<path d="M167.511 88.2757C167.469 88.2757 167.757 85.4707 167.794 85.2959C168.211 83.2661 170.162 79.6187 172.322 79.417C172.681 79.3939 173.04 79.4524 173.377 79.5885C173.714 79.7247 174.02 79.9355 174.276 80.2072C174.532 80.479 174.732 80.8056 174.863 81.1659C174.993 81.5261 175.052 81.9119 175.035 82.2982C175.035 83.9427 173.785 85.4617 172.609 86.3803C171.242 87.4467 167.511 88.2757 167.511 88.2757Z" fill="#263238"/>
<path d="M162.334 133.855C162.371 133.855 161.954 131.068 161.917 130.897C161.396 128.894 159.291 125.354 157.127 125.265C156.767 125.26 156.41 125.338 156.079 125.492C155.749 125.645 155.452 125.872 155.209 126.158C154.965 126.443 154.78 126.781 154.666 127.148C154.552 127.515 154.512 127.904 154.547 128.289C154.643 129.929 155.956 131.381 157.16 132.237C158.569 133.245 162.329 133.855 162.334 133.855Z" fill="#263238"/>
<path d="M163.476 121.389C163.518 121.389 162.709 118.701 162.642 118.531C161.842 116.635 159.261 113.481 157.11 113.745C156.754 113.8 156.412 113.935 156.108 114.141C155.803 114.347 155.542 114.619 155.342 114.941C155.141 115.263 155.007 115.626 154.946 116.008C154.885 116.389 154.9 116.78 154.989 117.155C155.314 118.759 156.819 119.982 158.128 120.632C159.67 121.398 163.472 121.389 163.476 121.389Z" fill="#263238"/>
<path d="M166.06 109.641C166.098 109.641 165.293 106.952 165.226 106.787C164.43 104.891 161.85 101.737 159.699 102.001C159.343 102.055 159.001 102.189 158.696 102.395C158.391 102.6 158.13 102.873 157.929 103.194C157.729 103.515 157.593 103.878 157.532 104.259C157.471 104.641 157.485 105.031 157.573 105.406C157.902 107.015 159.403 108.234 160.716 108.888C162.254 109.65 166.056 109.641 166.06 109.641Z" fill="#263238"/>
<path d="M167.949 98.7073C167.99 98.7073 167.182 96.0187 167.115 95.8485C166.315 93.9575 163.739 90.803 161.583 91.0674C161.227 91.1215 160.885 91.2557 160.581 91.4613C160.276 91.6669 160.015 91.9393 159.815 92.2606C159.615 92.5819 159.48 92.9451 159.419 93.3262C159.358 93.7074 159.372 94.0981 159.462 94.4728C159.787 96.0815 161.292 97.3003 162.605 97.95C164.143 98.7162 167.949 98.7073 167.949 98.7073Z" fill="#263238"/>
<path d="M167.432 88.6121C167.473 88.6121 166.398 86.0266 166.31 85.8698C165.322 84.0774 162.438 81.25 160.324 81.7698C159.976 81.8658 159.65 82.0398 159.368 82.2804C159.086 82.5211 158.854 82.823 158.688 83.1663C158.522 83.5097 158.425 83.8869 158.404 84.2732C158.383 84.6595 158.438 85.0463 158.565 85.4083C159.053 86.9631 160.67 88.0027 162.042 88.4911C163.651 89.0691 167.432 88.6121 167.432 88.6121Z" fill="#263238"/>
<path d="M165.156 79.6765C165.189 79.6765 165.343 76.867 165.335 76.6878C165.222 74.6086 163.876 70.6655 161.779 70.0785C161.428 69.9914 161.065 69.9847 160.711 70.0588C160.358 70.1329 160.023 70.286 159.729 70.5084C159.434 70.7307 159.187 71.0172 159.002 71.3492C158.817 71.6812 158.7 72.0513 158.657 72.4354C158.423 74.062 159.415 75.7826 160.42 76.9163C161.6 78.2068 165.151 79.672 165.156 79.6765Z" fill="#263238"/>
<path d="M163.042 149.215C163.042 149.215 162.905 148.028 162.738 145.966C162.571 143.905 162.379 140.957 162.292 137.413C162.246 135.62 162.229 133.72 162.263 131.686C162.263 130.664 162.313 129.643 162.35 128.549C162.384 128.021 162.421 127.487 162.454 126.945C162.488 126.403 162.571 125.847 162.625 125.292C162.911 123.03 163.31 120.786 163.822 118.57C164.334 116.308 164.918 114.036 165.489 111.768C166.06 109.501 166.623 107.234 167.065 104.98C167.514 102.779 167.817 100.546 167.969 98.299C168.077 96.1952 168.01 94.0854 167.769 91.9944C167.572 90.0993 167.27 88.2185 166.865 86.3619C166.498 84.6458 166.069 83.0954 165.677 81.7287C165.285 80.362 164.881 79.1881 164.547 78.2247C163.868 76.2979 163.405 75.2314 163.405 75.2314C163.405 75.2314 163.888 76.2889 164.605 78.1978C164.964 79.1522 165.377 80.3217 165.81 81.6794C166.244 83.0371 166.694 84.583 167.094 86.2992C167.544 88.1427 167.894 90.0129 168.14 91.9003C168.427 94.0124 168.539 96.1477 168.474 98.281C168.362 100.559 168.102 102.826 167.694 105.065C167.277 107.35 166.777 109.645 166.248 111.93C165.718 114.215 165.164 116.505 164.701 118.745C164.242 120.937 163.894 123.154 163.659 125.386C163.617 125.928 163.542 126.443 163.526 126.99C163.509 127.537 163.476 128.07 163.451 128.599C163.451 129.62 163.422 130.678 163.43 131.677C163.43 133.689 163.492 135.589 163.576 137.341C163.73 140.849 163.993 143.766 164.189 145.801C164.384 147.835 164.551 148.982 164.551 148.982C164.566 149.088 164.561 149.197 164.536 149.301C164.512 149.405 164.469 149.503 164.409 149.589C164.349 149.675 164.275 149.748 164.189 149.803C164.103 149.858 164.008 149.894 163.909 149.91C163.81 149.925 163.71 149.92 163.613 149.894C163.516 149.867 163.425 149.821 163.345 149.757C163.265 149.693 163.197 149.612 163.146 149.52C163.095 149.428 163.061 149.326 163.046 149.22V149.215H163.042Z" fill="#263238"/>
<path d="M158.407 144.587H168.799V146.899H167.894L166.019 159.517H161.191L159.311 146.899H158.407V144.587Z" fill="#263238" stroke="#263238" stroke-linecap="round" stroke-linejoin="round"/>
<path d="M89.9291 153.024C89.9291 153.024 89.5706 155.296 89.8332 155.807C90.0959 156.318 90.5169 156.99 90.5169 156.99H93.8267L94.006 155.892C94.4624 156.437 95.0226 156.869 95.6484 157.16C96.528 157.496 97.3784 157.16 98.408 157.245C99.2793 157.317 101.326 157.245 101.326 157.245L101.268 156.058L95.2941 153.181L93.1556 151.389C93.1556 151.389 91.2797 153.208 89.9291 153.024Z" fill="#263238" stroke="#263238" stroke-linecap="round" stroke-linejoin="round"/>
<path d="M65.2762 153.024C65.2762 153.024 65.8431 154.875 65.6347 155.381C65.4263 155.888 65.0845 156.99 65.0845 156.99H61.7788L61.487 155.892C61.0845 156.439 60.5655 156.874 59.9738 157.16C59.14 157.496 58.2396 157.16 57.2225 157.245C56.3596 157.317 54.3045 157.245 54.3045 157.245L54.2461 156.058L59.9279 153.181L62.1831 151.837C62.1831 151.837 63.9423 153.208 65.2762 153.024Z" fill="#263238" stroke="#263238" stroke-linecap="round" stroke-linejoin="round"/>
<path d="M91.7134 65.665C91.7134 65.665 93.0807 84.6908 93.5559 93.787C94.0311 102.883 94.2521 107.01 94.3063 113.413C94.3604 119.816 94.6231 132.47 94.6231 137.225C94.6276 142.078 94.3338 146.926 93.7435 151.738L89.7458 154.028C89.7458 154.028 88.4535 141.822 87.9325 137.449C87.4614 133.492 85.7398 117.392 84.9603 112.414C84.1807 107.436 80.6291 90.1261 80.6291 90.1261C80.6291 90.1261 75.8894 108.287 74.6638 115.542C73.4382 122.796 68.8278 139.156 67.8398 143.135C66.8519 147.114 65.2761 153.015 65.2761 153.015C64.7205 153.19 64.137 153.239 63.5628 153.159C63.3052 153.137 63.0564 153.047 62.8384 152.898C62.6203 152.749 62.4397 152.544 62.3123 152.303C62.3123 152.303 63.4753 140.393 63.9547 134.603C64.5508 127.434 64.7384 117.917 65.4637 113.933C66.1891 109.95 66.164 102.319 67.0061 97.1969C67.4855 94.2889 69.9241 66.4671 69.9241 66.4671C69.9241 66.4671 83.4471 72.3505 91.7134 65.665Z" fill="#263238" stroke="#263238" stroke-linecap="round" stroke-linejoin="round"/>
<path d="M93.7436 151.738L90.6296 154.454" stroke="white" stroke-width="0.5" stroke-linecap="round" stroke-linejoin="round"/>
<path d="M62.1873 151.828L64.6592 153.867" stroke="white" stroke-width="0.5" stroke-linecap="round" stroke-linejoin="round"/>
<path d="M82.6717 72.0684L82.4216 83.163L84.1724 81.2855" stroke="white" stroke-width="0.5" stroke-linecap="round" stroke-linejoin="round"/>
<path d="M81.5796 89.8039L86.5527 83.1543" stroke="white" stroke-width="0.5" stroke-linecap="round" stroke-linejoin="round"/>
<path d="M87.9324 83.6377L83.7847 88.011" stroke="white" stroke-width="0.5" stroke-linecap="round" stroke-linejoin="round"/>
<path d="M78.6197 84.1265C77.3367 81.0732 75.1439 78.5664 72.3877 77.002" stroke="white" stroke-width="0.5" stroke-linecap="round" stroke-linejoin="round"/>
<path d="M84.9436 69.0664L84.706 70.3659L82.7717 70.8498L82.9927 69.2322" stroke="white" stroke-width="0.5" stroke-linecap="round" stroke-linejoin="round"/>
<path d="M82.7717 70.8492C82.7717 70.8492 79.1491 70.6879 77.3108 70.0381L77.6985 68.7432" stroke="white" stroke-width="0.5" stroke-linecap="round" stroke-linejoin="round"/>
<path d="M76.0228 68.4209L75.6559 70.0385C75.6559 70.0385 72.7838 69.8772 72.321 69.3932" stroke="white" stroke-width="0.5" stroke-linecap="round" stroke-linejoin="round"/>
<path d="M84.7061 70.3518C85.6921 70.3206 86.6579 70.0445 87.5282 69.5453L88.8413 68.7342L88.3327 67.6006" stroke="white" stroke-width="0.5" stroke-linecap="round" stroke-linejoin="round"/>
<path d="M93.4975 28.4336C93.4975 28.4336 96.1154 30.8757 96.8991 32.4888C97.6828 34.1019 107.971 56.6496 107.929 58.1911C107.888 59.7325 106.366 62.6719 103.681 62.6719C100.997 62.6719 90.8213 45.098 90.8213 45.098L93.4975 28.4336Z" fill="white"/>
<mask id="mask0_761_889" style="mask-type:luminance" maskUnits="userSpaceOnUse" x="90" y="28" width="18" height="35">
<path d="M93.4975 28.4336C93.4975 28.4336 96.1154 30.8757 96.8991 32.4888C97.6828 34.1019 107.971 56.6496 107.929 58.1911C107.888 59.7325 106.366 62.6719 103.681 62.6719C100.997 62.6719 90.8213 45.098 90.8213 45.098L93.4975 28.4336Z" fill="white"/>
</mask>
<g mask="url(#mask0_761_889)">
<g style="mix-blend-mode:multiply" opacity="0.5">
<path d="M93.8185 31.1401L93.9935 31.2432C94.302 31.4358 94.994 31.8705 95.7527 32.4127C96.6099 33.1195 97.3915 33.9265 98.0829 34.8189C98.0829 34.8189 97.1408 32.1304 95.761 30.8444C94.9937 30.1357 94.28 29.3625 93.6267 28.5322L93.8185 31.1401Z" fill="#92E3A9"/>
</g>
</g>
<path d="M93.4975 28.4336C93.4975 28.4336 96.1154 30.8757 96.8991 32.4888C97.6828 34.1019 107.971 56.6496 107.929 58.1911C107.888 59.7325 106.366 62.6719 103.681 62.6719C100.997 62.6719 90.8213 45.098 90.8213 45.098L93.4975 28.4336Z" stroke="#263238" stroke-linecap="round" stroke-linejoin="round"/>
<path opacity="0.5" d="M100.055 52.0121C99.7087 51.564 97.1367 47.1145 96.8741 45.4521C96.6115 43.7897 97.2909 41.6613 97.2909 40.55C97.2909 39.4388 95.6568 42.4902 95.5693 42.1228C95.4818 41.7554 94.4521 37.7764 94.4521 37.7764L91.2965 42.1631L90.8254 45.1071C90.8254 45.1071 94.8106 51.9852 98.454 57.1337C101.047 56.2376 104.961 54.8709 105.803 54.3242C107.108 53.4953 100.401 52.4781 100.055 52.0121Z" fill="#92E3A9"/>
<path d="M80.9293 25.3867L93.5143 28.4337C93.5143 28.4337 94.3897 35.3656 94.2896 39.1116C94.1896 42.8576 91.5967 66.0238 91.5967 66.0238C91.5967 66.0238 84.927 73.3365 69.9534 66.4718C69.9534 66.4718 69.4323 65.3919 69.2364 57.3174C69.0488 49.3549 63.4795 34.568 63.9256 32.8832C64.8427 29.4285 75.8561 26.1081 77.3026 26.014C78.5228 25.8894 79.7343 25.6798 80.9293 25.3867Z" fill="white" stroke="#263238" stroke-linecap="round" stroke-linejoin="round"/>
<g style="mix-blend-mode:multiply" opacity="0.5">
<path d="M82.0672 65.9836L70.541 61.1263L72.5336 37.5928L85.6439 44.1886L93.5017 40.3888L87.8824 64.9485L82.0672 65.9836Z" fill="#92E3A9"/>
</g>
<g style="mix-blend-mode:multiply" opacity="0.5">
<path d="M85.4771 29.4505C86.0148 29.4505 90.9879 30.5215 93.8143 31.1398C93.6517 29.5536 93.5099 28.4513 93.5099 28.4513L80.9249 25.4043C79.73 25.6989 78.5186 25.9099 77.2983 26.0361C75.8518 26.1302 64.8383 29.4505 63.9212 32.9053C63.7753 33.4654 64.2839 35.4549 65.0384 38.1569C66.1389 35.1054 67.1227 32.5916 67.4604 32.2376C68.2191 31.4221 75.7976 29.3071 75.7976 29.3071L85.4771 29.4505Z" fill="#92E3A9"/>
</g>
<path d="M84.3475 32.3055L82.6175 36.4637L86.411 65.2757L83.6305 69.3085L80.9918 66.0196L81.7296 36.8312L78.2363 32.4489L80.4707 27.9053L84.3475 32.3055Z" fill="#263238"/>
<path d="M97.7496 41.6165L87.6657 47.6298L74.6972 40.335L72.6421 60.9246L85.4855 67.5787L95.2109 61.2875L97.7496 41.6165Z" fill="#92E3A9" stroke="#263238" stroke-linecap="round" stroke-linejoin="round"/>
<path d="M87.2822 52.2542L87.6657 48.9473" stroke="#263238" stroke-width="0.5" stroke-linecap="round" stroke-linejoin="round"/>
<path d="M85.4856 67.5782L87.0697 54.0684" stroke="#263238" stroke-width="0.5" stroke-linecap="round" stroke-linejoin="round"/>
<path d="M82.1005 24.2309C82.1005 24.2309 84.3724 24.2309 85.3603 25.844C86.3483 27.4571 88.245 33.8334 88.245 33.8334L81.4085 31.7677L77.2649 36.3695C77.2649 36.3695 73.4673 30.3204 75.0139 26.4803C76.5604 22.6402 82.1005 24.2309 82.1005 24.2309Z" fill="white" stroke="#263238" stroke-linecap="round" stroke-linejoin="round"/>
<g style="mix-blend-mode:multiply" opacity="0.5">
<path d="M86.0523 27.336C85.8566 26.8207 85.6253 26.3219 85.3603 25.8438C84.3724 24.2083 82.1005 24.2307 82.1005 24.2307C82.1005 24.2307 76.5688 22.64 75.0139 26.4712C74.5136 27.7124 74.597 29.1866 74.8847 30.6115C75.1556 29.8497 75.7684 28.3218 76.5521 27.4749C77.6109 26.3367 77.736 27.327 77.736 27.327L83.6637 26.8207C84.4489 27.0471 85.2467 27.2192 86.0523 27.336Z" fill="#92E3A9"/>
</g>
<path d="M83.0761 20.5205C83.0761 20.5205 83.4596 28.9983 82.4633 30.6697C81.467 32.341 80.3332 31.7003 79.5036 30.6697C78.674 29.6391 77.7361 27.3359 77.7361 27.3359L76.7231 21.0627C76.7231 21.0627 82.6259 22.2322 83.0761 20.5205Z" fill="white" stroke="#263238" stroke-linecap="round" stroke-linejoin="round"/>
<g style="mix-blend-mode:multiply" opacity="0.5">
<path d="M80.9376 27.336C81.7961 27.0716 82.5586 26.5304 83.122 25.7856C83.122 25.3061 83.122 24.8312 83.122 24.3696C82.1507 23.1732 79.9205 20.9149 77.436 21.6408C77.2234 21.7035 77.0191 21.7752 76.8315 21.8469L77.732 27.336C77.732 27.336 78.6741 29.6571 79.4994 30.6698L78.6657 26.6683C78.9566 26.9842 79.3197 27.2121 79.7185 27.3293C80.1173 27.4465 80.5377 27.4488 80.9376 27.336Z" fill="#92E3A9"/>
</g>
<path d="M86.5527 12.809C86.5527 12.809 87.6949 12.7194 87.7199 14.7672C87.7449 16.8149 86.6235 18.5356 85.8524 17.8231C85.0812 17.1107 86.3401 11.877 86.5527 12.809Z" fill="white" stroke="#263238" stroke-linecap="round" stroke-linejoin="round"/>
<path d="M78.7116 2.20729C73.5134 3.52466 72.1211 7.13625 72.1628 10.4073C72.1628 11.6574 72.7005 13.8217 73.4133 16.1025L73.3216 15.8964C73.3216 15.8964 71.7584 12.9659 71.5291 14.7268C71.2999 16.4878 72.8464 18.3115 73.3591 18.8985C73.5014 19.0394 73.6849 19.1227 73.8781 19.1342C74.0713 19.1456 74.2621 19.0845 74.418 18.9613C75.4518 21.6498 76.6065 24.056 77.361 24.7102C78.9951 26.1307 81.292 26.861 83.1178 25.1583C84.9437 23.4556 86.7487 13.7455 86.7487 13.7455C87.1822 3.92346 83.9099 0.898873 78.7116 2.20729Z" fill="white"/>
<mask id="mask1_761_889" style="mask-type:luminance" maskUnits="userSpaceOnUse" x="71" y="1" width="16" height="26">
<path d="M78.7116 2.20729C73.5134 3.52466 72.1211 7.13625 72.1628 10.4073C72.1628 11.6574 72.7005 13.8217 73.4133 16.1025L73.3216 15.8964C73.3216 15.8964 71.7584 12.9659 71.5291 14.7268C71.2999 16.4878 72.8464 18.3115 73.3591 18.8985C73.5014 19.0394 73.6849 19.1227 73.8781 19.1342C74.0713 19.1456 74.2621 19.0845 74.418 18.9613C75.4518 21.6498 76.6065 24.056 77.361 24.7102C78.9951 26.1307 81.292 26.861 83.1178 25.1583C84.9437 23.4556 86.7487 13.7455 86.7487 13.7455C87.1822 3.92346 83.9099 0.898873 78.7116 2.20729Z" fill="white"/>
</mask>
<g mask="url(#mask1_761_889)">
<g style="mix-blend-mode:multiply" opacity="0.5">
<path d="M75.9437 12.5487C75.9437 12.5487 77.757 10.9222 79.5745 10.9222C81.392 10.9222 85.1771 12.7145 85.6273 14.1753C85.9025 15.0715 85.5773 17.9616 85.273 20.1573C86.1484 17.0655 86.7654 13.7586 86.7654 13.7586C87.1822 3.94098 83.9057 0.907427 78.7116 2.2248C73.5175 3.54218 72.1211 7.15376 72.1628 10.4248C72.1628 11.675 72.7005 13.8392 73.4133 16.12L73.3216 15.9139C73.3216 15.9139 71.7584 12.9834 71.5291 14.7444C71.2999 16.5053 72.8464 18.3291 73.3591 18.9161C73.5014 19.0569 73.6849 19.1402 73.8781 19.1517C74.0713 19.1631 74.2621 19.102 74.418 18.9788C75.4518 21.6673 76.6065 24.0735 77.361 24.7277C77.361 24.7277 75.6227 20.5202 75.0182 18.7323C74.4138 16.9445 74.5805 13.8347 75.9437 12.5487Z" fill="#92E3A9"/>
</g>
</g>
<path d="M78.7116 2.20729C73.5134 3.52466 72.1211 7.13625 72.1628 10.4073C72.1628 11.6574 72.7005 13.8217 73.4133 16.1025L73.3216 15.8964C73.3216 15.8964 71.7584 12.9659 71.5291 14.7268C71.2999 16.4878 72.8464 18.3115 73.3591 18.8985C73.5014 19.0394 73.6849 19.1227 73.8781 19.1342C74.0713 19.1456 74.2621 19.0845 74.418 18.9613C75.4518 21.6498 76.6065 24.056 77.361 24.7102C78.9951 26.1307 81.292 26.861 83.1178 25.1583C84.9437 23.4556 86.7487 13.7455 86.7487 13.7455C87.1822 3.92346 83.9099 0.898873 78.7116 2.20729Z" stroke="#263238" stroke-linecap="round" stroke-linejoin="round"/>
<path d="M84.8228 16.6045C84.5625 17.0253 84.1588 17.3193 83.6988 17.4232C83.2387 17.5272 82.7591 17.4327 82.3633 17.1601" stroke="#263238" stroke-linecap="round" stroke-linejoin="round"/>
<path d="M79.2742 17.1953C79.0139 17.6161 78.6102 17.9101 78.1502 18.014C77.6902 18.118 77.2105 18.0235 76.8147 17.7509" stroke="#263238" stroke-linecap="round" stroke-linejoin="round"/>
<path d="M79.5412 15.8423C78.8692 15.4799 78.142 15.2507 77.3943 15.1657C76.4022 15.1209 75.4268 15.9902 75.4268 15.9902" stroke="#263238" stroke-linecap="round" stroke-linejoin="round"/>
<path d="M81.9338 20.3682C81.8985 20.6404 81.7651 20.8869 81.5624 21.0546C81.3597 21.2222 81.1038 21.2975 80.8499 21.2643C80.5848 21.273 80.3226 21.2027 80.0923 21.0611C79.862 20.9196 79.6727 20.7123 79.5452 20.4623" stroke="#263238" stroke-linecap="round" stroke-linejoin="round"/>
<path d="M82.8092 22.5322C82.8092 22.5322 80.3747 23.3119 78.8115 22.6353C79.0158 23.0299 79.2951 23.374 79.6312 23.6449C79.9673 23.9159 80.3528 24.1078 80.7624 24.2081C81.6879 24.4724 82.8092 22.5322 82.8092 22.5322Z" fill="#263238"/>
<path d="M85.127 14.6637C85.127 14.6637 84.214 14.5786 83.3511 14.5876C82.5591 14.5876 81.7712 15.6943 81.7712 15.6943L81.4919 17.0386" stroke="#263238" stroke-linecap="round" stroke-linejoin="round"/>
<path d="M77.6152 9.829C79.5056 11.5307 81.5714 12.9936 83.7722 14.1889C87.3572 16.1157 90.1085 12.3965 88.4285 10.5683C86.7486 8.74015 90.617 12.5758 91.2257 10.2816C91.8343 7.98736 86.265 0.114471 80.6708 0.00244892C75.0765 -0.109573 73.7217 3.65884 73.7217 3.65884C73.7217 3.65884 73.0631 1.71862 72.567 2.78955C72.2785 3.3724 72.1134 4.01657 72.0835 4.676C72.0835 4.676 70.9496 5.57217 70.4494 6.1054C69.9491 6.63862 70.5911 7.20321 70.5911 7.20321C70.5911 7.20321 69.5906 9.89173 70.1242 11.9664L72.9964 16.4472C73.3429 16.4352 73.6821 16.3376 73.9879 16.162C74.2937 15.9864 74.5578 15.7375 74.7597 15.4346C75.51 14.3771 74.9598 11.0792 74.9598 11.0792C74.9598 11.0792 75.0056 14.628 75.8852 13.8483C76.7648 13.0687 75.4684 9.60048 75.4684 9.60048L77.6152 9.829Z" fill="#263238"/>
<path d="M75.1182 6.16406C75.1182 6.16406 77.6777 8.23422 79.5285 10.1252C81.3794 12.0161 84.2015 12.742 85.0394 12.3253" stroke="white" stroke-width="0.5" stroke-miterlimit="10" stroke-linecap="round"/>
<path d="M83.026 8.7671C83.026 8.7671 79.3576 7.87093 78.4947 6.15923C77.6318 4.44754 74.9597 4.64918 74.9597 4.64918C75.6272 3.98755 76.4416 3.52138 77.3248 3.2954C78.2081 3.06942 79.1306 3.09122 80.0037 3.35869" stroke="white" stroke-width="0.5" stroke-miterlimit="10" stroke-linecap="round"/>
<path d="M73.7258 7.01074C73.7258 7.01074 76.5938 11.6574 74.7847 13.0868" stroke="white" stroke-width="0.5" stroke-miterlimit="10" stroke-linecap="round"/>
<path d="M63.9255 32.8877C63.9255 32.8877 56.1428 55.6953 56.5013 58.2405C56.8598 60.7856 60.945 59.7729 62.2331 59.4279C63.5212 59.0829 68.486 50.614 68.5193 48.7903C68.8401 48.5747 69.1145 48.2881 69.3244 47.9498C69.5342 47.6114 69.6747 47.2289 69.7366 46.8277C70.0409 45.358 70.2493 40.1064 68.2734 36.1677" fill="white"/>
<mask id="mask2_761_889" style="mask-type:luminance" maskUnits="userSpaceOnUse" x="56" y="32" width="14" height="28">
<path d="M63.9255 32.8877C63.9255 32.8877 56.1428 55.6953 56.5013 58.2405C56.8598 60.7856 60.945 59.7729 62.2331 59.4279C63.5212 59.0829 68.486 50.614 68.5193 48.7903C68.8401 48.5747 69.1145 48.2881 69.3244 47.9498C69.5342 47.6114 69.6747 47.2289 69.7366 46.8277C70.0409 45.358 70.2493 40.1064 68.2734 36.1677" fill="white"/>
</mask>
<g mask="url(#mask2_761_889)">
<g style="mix-blend-mode:multiply" opacity="0.5">
<path d="M63.9255 32.8877C63.9255 32.8877 56.1428 55.6953 56.5013 58.2405C56.7014 59.634 58.0186 59.9566 59.3776 59.9118C60.328 57.0306 60.6991 51.7656 61.4119 49.1577C62.1997 46.2407 64.7676 38.6904 66.3308 34.7204L63.9255 32.8877Z" fill="#92E3A9"/>
</g>
</g>
<path d="M63.9255 32.8877C63.9255 32.8877 56.1428 55.6953 56.5013 58.2405C56.8598 60.7856 60.945 59.7729 62.2331 59.4279C63.5212 59.0829 68.486 50.614 68.5193 48.7903C68.8401 48.5747 69.1145 48.2881 69.3244 47.9498C69.5342 47.6114 69.6747 47.2289 69.7366 46.8277C70.0409 45.358 70.2493 40.1064 68.2734 36.1677" stroke="#263238" stroke-linecap="round" stroke-linejoin="round"/>
<path d="M69.8073 56.1567C69.8073 56.1567 59.8027 55.5025 58.5187 55.3904C57.2348 55.2784 55.6966 57.1828 56.9055 59.8175C58.1144 62.4523 60.0361 62.6046 62.3955 62.1252C64.755 61.6457 69.9657 58.2268 69.9657 58.2268L69.8073 56.1567Z" fill="white"/>
<mask id="mask3_761_889" style="mask-type:luminance" maskUnits="userSpaceOnUse" x="56" y="55" width="14" height="8">
<path d="M69.8073 56.1567C69.8073 56.1567 59.8027 55.5025 58.5187 55.3904C57.2348 55.2784 55.6966 57.1828 56.9055 59.8175C58.1144 62.4523 60.0361 62.6046 62.3955 62.1252C64.755 61.6457 69.9657 58.2268 69.9657 58.2268L69.8073 56.1567Z" fill="white"/>
</mask>
<g mask="url(#mask3_761_889)">
<path opacity="0.5" d="M69.8073 56.1567C69.8073 56.1567 59.8027 55.5025 58.5187 55.3904C57.2348 55.2784 55.6966 57.1828 56.9055 59.8175C58.1144 62.4523 60.0361 62.6046 62.3955 62.1252C64.755 61.6457 69.9657 58.2268 69.9657 58.2268L69.8073 56.1567Z" fill="#92E3A9" stroke="#263238" stroke-linecap="round" stroke-linejoin="round"/>
</g>
<path d="M69.8073 56.1567C69.8073 56.1567 59.8027 55.5025 58.5187 55.3904C57.2348 55.2784 55.6966 57.1828 56.9055 59.8175C58.1144 62.4523 60.0361 62.6046 62.3955 62.1252C64.755 61.6457 69.9657 58.2268 69.9657 58.2268L69.8073 56.1567Z" stroke="#263238" stroke-linecap="round" stroke-linejoin="round"/>
<path d="M71.404 53.5351C71.404 53.5351 72.6963 52.0609 73.0381 52.0923C73.3799 52.1237 75.8894 51.9758 76.102 52.6076C76.3146 53.2394 75.9769 52.9616 75.6309 53.1722C75.285 53.3828 73.5675 53.6203 73.5675 53.6203C73.5675 53.6203 75.0473 53.7502 75.4934 54.0325C75.9394 54.3148 77.8278 56.1878 77.8195 56.5552C77.8111 56.9227 77.5819 57.0033 77.1233 57.0033C76.6648 57.0033 77.0024 57.3573 76.8774 57.7113C76.7523 58.0653 75.8477 57.9891 75.8477 57.9891C75.8477 57.9891 75.9269 59.2169 75.2433 59.1541C74.5596 59.0914 73.3341 58.1325 73.3341 58.1325C73.3341 58.1325 70.8037 59.1273 69.895 59.0511C69.2981 59.0221 68.7049 59.166 68.1775 59.4678C68.9417 57.3127 70.0319 55.3082 71.404 53.5351Z" fill="white"/>
<mask id="mask4_761_889" style="mask-type:luminance" maskUnits="userSpaceOnUse" x="68" y="52" width="10" height="8">
<path d="M71.404 53.5351C71.404 53.5351 72.6963 52.0609 73.0381 52.0923C73.3799 52.1237 75.8894 51.9758 76.102 52.6076C76.3146 53.2394 75.9769 52.9616 75.6309 53.1722C75.285 53.3828 73.5675 53.6203 73.5675 53.6203C73.5675 53.6203 75.0473 53.7502 75.4934 54.0325C75.9394 54.3148 77.8278 56.1878 77.8195 56.5552C77.8111 56.9227 77.5819 57.0033 77.1233 57.0033C76.6648 57.0033 77.0024 57.3573 76.8774 57.7113C76.7523 58.0653 75.8477 57.9891 75.8477 57.9891C75.8477 57.9891 75.9269 59.2169 75.2433 59.1541C74.5596 59.0914 73.3341 58.1325 73.3341 58.1325C73.3341 58.1325 70.8037 59.1273 69.895 59.0511C69.2981 59.0221 68.7049 59.166 68.1775 59.4678C68.9417 57.3127 70.0319 55.3082 71.404 53.5351Z" fill="white"/>
</mask>
<g mask="url(#mask4_761_889)">
<g style="mix-blend-mode:multiply" opacity="0.5">
<path d="M71.404 53.5351C70.0354 55.296 68.9454 57.2866 68.1775 59.4275C68.7049 59.1257 69.2981 58.9818 69.895 59.0108C70.1938 59.0162 70.492 58.9816 70.7829 58.9077C70.964 58.0508 71.0714 57.1779 71.1038 56.2998C71.1038 54.9959 73.0381 52.0923 73.0381 52.0923C72.6921 52.0609 71.404 53.5351 71.404 53.5351Z" fill="#92E3A9"/>
</g>
</g>
<path d="M71.404 53.5351C71.404 53.5351 72.6963 52.0609 73.0381 52.0923C73.3799 52.1237 75.8894 51.9758 76.102 52.6076C76.3146 53.2394 75.9769 52.9616 75.6309 53.1722C75.285 53.3828 73.5675 53.6203 73.5675 53.6203C73.5675 53.6203 75.0473 53.7502 75.4934 54.0325C75.9394 54.3148 77.8278 56.1878 77.8195 56.5552C77.8111 56.9227 77.5819 57.0033 77.1233 57.0033C76.6648 57.0033 77.0024 57.3573 76.8774 57.7113C76.7523 58.0653 75.8477 57.9891 75.8477 57.9891C75.8477 57.9891 75.9269 59.2169 75.2433 59.1541C74.5596 59.0914 73.3341 58.1325 73.3341 58.1325C73.3341 58.1325 70.8037 59.1273 69.895 59.0511C69.2981 59.0221 68.7049 59.166 68.1775 59.4678C68.9417 57.3127 70.0319 55.3082 71.404 53.5351Z" stroke="#263238" stroke-linecap="round" stroke-linejoin="round"/>
<path d="M77.1232 56.963L74.8929 55.0587L73.0754 54.7764" stroke="#263238" stroke-linecap="round" stroke-linejoin="round"/>
<path d="M75.8434 57.9489L73.3714 56.5106L72.2375 56.291" stroke="#263238" stroke-linecap="round" stroke-linejoin="round"/>
<path d="M98.8 51.7205C98.8 51.7205 97.5078 50.2508 97.1659 50.2777C96.8241 50.3046 94.3146 50.1657 94.102 50.793C93.8894 51.4203 94.2271 51.147 94.5731 51.3621C95.2473 51.5716 95.938 51.7141 96.6365 51.7878C96.6365 51.7878 95.1567 51.9177 94.7106 52.2045C94.2646 52.4913 92.3762 54.3598 92.3845 54.7227C92.3929 55.0857 92.6222 55.1708 93.0807 55.1708C93.5393 55.1708 93.2016 55.5248 93.3267 55.8788C93.4517 56.2328 94.3563 56.1521 94.3563 56.1521C94.3563 56.1521 94.2771 57.3799 94.9608 57.3216C95.6444 57.2634 96.87 56.3 96.87 56.3C96.87 56.3 99.4003 57.2948 100.309 57.1962C100.907 57.1663 101.5 57.3119 102.027 57.6174C101.259 55.4748 100.169 53.4826 98.8 51.7205Z" fill="white" stroke="#263238" stroke-linecap="round" stroke-linejoin="round"/>
<path d="M93.0806 55.149L95.3066 53.2491L97.1241 52.9668" stroke="#263238" stroke-linecap="round" stroke-linejoin="round"/>
<path d="M94.3562 56.1345L96.8282 54.7006L97.962 54.4766" stroke="#263238" stroke-linecap="round" stroke-linejoin="round"/>
<path d="M100.288 53.9523C100.288 53.9523 104.578 53.4235 106.049 54.611C107.521 55.7984 107.275 58.823 107.275 58.823" stroke="#263238" stroke-linecap="round" stroke-linejoin="round"/>
<path d="M66.4016 151.456C66.4016 151.456 66.8602 150.475 68.3233 150.672C69.7865 150.869 70.7036 152.737 69.6948 153.324C68.686 153.911 66.4016 151.456 66.4016 151.456Z" fill="#92E3A9" stroke="#263238" stroke-linecap="round" stroke-linejoin="round"/>
<path d="M68.5652 105.822C68.5652 105.822 72.0085 106.566 73.6634 107.749C75.3184 108.932 75.5893 109.228 76.002 111.598C76.4147 113.969 74.9015 120.331 74.9015 123.589C74.9015 126.847 72.6963 146.683 72.6963 148.319C72.6963 149.954 74.2137 153.351 74.0761 154.534C74.0177 155.384 74.111 156.239 74.3513 157.052C74.3513 157.052 75.3142 157.791 74.0761 157.948C72.838 158.105 72.6963 158.244 71.5958 157.653C70.4953 157.061 69.9284 154.099 68.9779 153.212C68.0275 152.325 67.4647 151.29 67.4647 150.546C67.4647 149.802 69.6657 146.997 69.6657 146.997C69.6657 146.997 69.3906 142.852 69.2489 139.299C69.1072 135.746 67.5814 127.9 67.5814 124.512C67.5814 121.124 69.6657 113.113 69.6657 113.113C69.6657 113.113 64.3174 113.816 62.2331 112.337C60.1488 110.859 62.5083 104.344 68.5652 105.822Z" fill="white" stroke="#263238" stroke-linecap="round" stroke-linejoin="round"/>
<path d="M68.9777 153.194C68.9777 153.194 66.4766 150.887 66.4016 151.474C66.3265 152.061 66.3098 156.689 66.4933 157.178C66.6767 157.666 71.6165 158.163 74.1802 158.656C76.7438 159.149 75.7351 157.375 75.1848 156.981C74.6345 156.586 68.9777 153.194 68.9777 153.194Z" fill="#92E3A9" stroke="#263238" stroke-linecap="round" stroke-linejoin="round"/>
<path opacity="0.2" d="M68.9777 153.194C68.9777 153.194 66.4766 150.887 66.4016 151.474C66.3265 152.061 66.3098 156.689 66.4933 157.178C66.6767 157.666 71.6165 158.163 74.1802 158.656C76.7438 159.149 75.7351 157.375 75.1848 156.981C74.6345 156.586 68.9777 153.194 68.9777 153.194Z" fill="black"/>
<path d="M69.6948 155.803C70.1955 155.158 70.7811 154.595 71.4331 154.132C72.2076 153.54 73.0766 153.108 73.9968 152.854L75.1849 155.31C74.3657 155.518 73.5692 155.818 72.8088 156.206C72.2317 156.582 71.708 157.045 71.2539 157.582C71.2539 157.582 69.8782 156.592 69.6948 155.803Z" fill="#263238" stroke="#263238" stroke-linecap="round" stroke-linejoin="round"/>
<path d="M72.1669 153.051C72.0513 153.067 71.9398 153.108 71.8395 153.171C71.7391 153.235 71.6519 153.32 71.5831 153.421C71.5144 153.522 71.4657 153.637 71.4399 153.759C71.4141 153.881 71.4118 154.008 71.4332 154.131C71.5249 155.117 71.6166 158.262 71.9834 158.361C72.3503 158.46 76.9232 159.257 78.5698 159.342C80.2164 159.427 82.0464 159.441 82.0464 158.558C82.0464 157.675 81.7713 157.281 81.4086 157.281C81.046 157.281 80.2164 156.985 79.1201 156.3C78.0237 155.614 75.3683 152.957 74.5346 152.858C73.7009 152.76 72.6254 152.164 72.1669 153.051Z" fill="#92E3A9" stroke="#263238" stroke-linecap="round" stroke-linejoin="round"/>
<path opacity="0.2" d="M72.1669 153.051C72.0513 153.067 71.9398 153.108 71.8395 153.171C71.7391 153.235 71.6519 153.32 71.5831 153.421C71.5144 153.522 71.4657 153.637 71.4399 153.759C71.4141 153.881 71.4118 154.008 71.4332 154.131C71.5249 155.117 71.6166 158.262 71.9834 158.361C72.3503 158.46 76.9232 159.257 78.5698 159.342C80.2164 159.427 82.0464 159.441 82.0464 158.558C82.0464 157.675 81.7713 157.281 81.4086 157.281C81.046 157.281 80.2164 156.985 79.1201 156.3C78.0237 155.614 75.3683 152.957 74.5346 152.858C73.7009 152.76 72.6254 152.164 72.1669 153.051Z" fill="black"/>
<path d="M33.8073 157.281C33.8073 156.838 33.685 156.405 33.456 156.037C33.227 155.668 32.9015 155.381 32.5206 155.212C32.1397 155.042 31.7207 154.998 31.3163 155.084C30.912 155.171 30.5406 155.384 30.2491 155.697C29.9577 156.011 29.7591 156.41 29.6787 156.844C29.5983 157.279 29.6396 157.729 29.7973 158.139C29.9551 158.548 30.2222 158.898 30.565 159.144C30.9078 159.39 31.3107 159.522 31.723 159.522C32.2758 159.522 32.8059 159.286 33.1968 158.866C33.5877 158.446 33.8073 157.876 33.8073 157.281Z" fill="#263238" stroke="#263238" stroke-linecap="round" stroke-linejoin="round"/>
<path d="M31.7231 158.397C32.2986 158.397 32.7652 157.895 32.7652 157.276C32.7652 156.658 32.2986 156.156 31.7231 156.156C31.1475 156.156 30.6809 156.658 30.6809 157.276C30.6809 157.895 31.1475 158.397 31.7231 158.397Z" fill="white" stroke="#263238" stroke-linecap="round" stroke-linejoin="round"/>
<path d="M56.1427 157.281C56.1427 156.838 56.0205 156.405 55.7915 156.037C55.5624 155.668 55.2369 155.381 54.8561 155.212C54.4752 155.042 54.0561 154.998 53.6518 155.084C53.2475 155.171 52.8761 155.384 52.5846 155.697C52.2931 156.011 52.0946 156.41 52.0142 156.844C51.9337 157.279 51.975 157.729 52.1328 158.139C52.2905 158.548 52.5577 158.898 52.9004 159.144C53.2432 159.39 53.6462 159.522 54.0584 159.522C54.6112 159.522 55.1414 159.286 55.5322 158.866C55.9231 158.446 56.1427 157.876 56.1427 157.281Z" fill="#263238" stroke="#263238" stroke-linecap="round" stroke-linejoin="round"/>
<path d="M55.1007 157.281C55.1007 157.06 55.0395 156.843 54.925 156.659C54.8105 156.475 54.6477 156.331 54.4573 156.246C54.2669 156.162 54.0573 156.139 53.8552 156.183C53.653 156.226 53.4673 156.333 53.3216 156.489C53.1759 156.646 53.0766 156.846 53.0364 157.063C52.9962 157.28 53.0168 157.505 53.0957 157.71C53.1746 157.915 53.3081 158.09 53.4795 158.213C53.6509 158.336 53.8524 158.402 54.0585 158.402C54.3349 158.402 54.6 158.284 54.7954 158.073C54.9909 157.863 55.1007 157.578 55.1007 157.281Z" fill="white" stroke="#263238" stroke-linecap="round" stroke-linejoin="round"/>
<path d="M63.442 157.281C63.442 156.838 63.3198 156.405 63.0908 156.037C62.8617 155.668 62.5362 155.381 62.1554 155.212C61.7745 155.042 61.3554 154.998 60.9511 155.084C60.5468 155.171 60.1754 155.384 59.8839 155.697C59.5924 156.011 59.3939 156.41 59.3135 156.844C59.2331 157.279 59.2743 157.729 59.4321 158.139C59.5899 158.548 59.857 158.898 60.1998 159.144C60.5425 159.39 60.9455 159.522 61.3577 159.522C61.9105 159.522 62.4407 159.286 62.8316 158.866C63.2224 158.446 63.442 157.876 63.442 157.281Z" fill="#263238" stroke="#263238" stroke-linecap="round" stroke-linejoin="round"/>
<path d="M62.3998 157.282C62.4006 157.059 62.3398 156.841 62.2252 156.655C62.1105 156.469 61.9471 156.324 61.7558 156.239C61.5644 156.153 61.3537 156.13 61.1503 156.174C60.947 156.217 60.7602 156.324 60.6136 156.482C60.467 156.639 60.3673 156.84 60.327 157.059C60.2868 157.277 60.3079 157.504 60.3876 157.71C60.4673 157.915 60.602 158.091 60.7747 158.214C60.9474 158.337 61.1503 158.403 61.3576 158.402C61.634 158.402 61.8991 158.284 62.0945 158.074C62.29 157.864 62.3998 157.579 62.3998 157.282Z" fill="white" stroke="#263238" stroke-linecap="round" stroke-linejoin="round"/>
<path d="M50.8235 118.817H46.4131V154.714H50.8235V118.817Z" fill="#263238" stroke="#263238" stroke-linecap="round" stroke-linejoin="round"/>
<path d="M52.0034 137.574H45.2419V154.714H52.0034V137.574Z" fill="#263238" stroke="#263238" stroke-linecap="round" stroke-linejoin="round"/>
<path d="M31.2937 154.037H62.4456C62.8878 154.037 63.312 154.226 63.6247 154.562C63.9374 154.898 64.113 155.354 64.113 155.829V156.067H29.6262V155.829C29.6262 155.354 29.8019 154.898 30.1146 154.562C30.4273 154.226 30.8514 154.037 31.2937 154.037Z" fill="#263238" stroke="#263238" stroke-linecap="round" stroke-linejoin="round"/>
<path d="M44.1163 104.936H38.447V114.758H44.1163V104.936Z" fill="#263238" stroke="#263238" stroke-linecap="round" stroke-linejoin="round"/>
<path d="M66.9853 113.399H30.2516C28.5641 113.399 27.196 114.87 27.196 116.684V117.567C27.196 119.381 28.5641 120.851 30.2516 120.851H66.9853C68.6729 120.851 70.0409 119.381 70.0409 117.567V116.684C70.0409 114.87 68.6729 113.399 66.9853 113.399Z" fill="#92E3A9" stroke="#263238" stroke-linecap="round" stroke-linejoin="round"/>
<path opacity="0.1" d="M66.9853 113.399H30.2516C28.5641 113.399 27.196 114.87 27.196 116.684V117.567C27.196 119.381 28.5641 120.851 30.2516 120.851H66.9853C68.6729 120.851 70.0409 119.381 70.0409 117.567V116.684C70.0409 114.87 68.6729 113.399 66.9853 113.399Z" fill="black"/>
<path d="M70.0409 117.123C70.0409 116.136 69.6759 115.189 69.0263 114.49C68.3767 113.792 67.4956 113.4 66.5768 113.4H47.6764C47.2111 113.382 46.7473 113.466 46.3127 113.645C45.878 113.825 45.4815 114.096 45.1466 114.444C44.8117 114.792 44.5454 115.208 44.3635 115.669C44.1816 116.13 44.0879 116.625 44.0879 117.126C44.0879 117.626 44.1816 118.121 44.3635 118.582C44.5454 119.043 44.8117 119.459 45.1466 119.807C45.4815 120.155 45.878 120.426 46.3127 120.606C46.7473 120.785 47.2111 120.869 47.6764 120.851H66.5768C67.4959 120.85 68.377 120.457 69.0266 119.758C69.6761 119.059 70.0409 118.111 70.0409 117.123Z" fill="#92E3A9" stroke="#263238" stroke-miterlimit="10"/>
<path opacity="0.1" d="M70.0409 117.241C70.0409 116.752 69.9513 116.267 69.7772 115.816C69.6031 115.364 69.348 114.953 69.0263 114.608C68.7046 114.262 68.3228 113.987 67.9025 113.8C67.4822 113.613 67.0317 113.517 66.5768 113.517H47.6764C47.2111 113.5 46.7473 113.583 46.3127 113.763C45.878 113.942 45.4815 114.214 45.1466 114.561C44.8117 114.909 44.5454 115.326 44.3635 115.786C44.1816 116.247 44.0879 116.742 44.0879 117.243C44.0879 117.743 44.1816 118.239 44.3635 118.699C44.5454 119.16 44.8117 119.576 45.1466 119.924C45.4815 120.272 45.878 120.544 46.3127 120.723C46.7473 120.902 47.2111 120.986 47.6764 120.969H66.5768C67.0321 120.969 67.4829 120.872 67.9034 120.685C68.324 120.497 68.7061 120.223 69.0278 119.876C69.3495 119.53 69.6046 119.119 69.7784 118.667C69.9523 118.215 70.0415 117.73 70.0409 117.241Z" fill="black"/>
<path d="M52.4494 104.94H30.3558C29.8393 104.941 29.3279 104.83 28.852 104.614C28.376 104.398 27.945 104.082 27.5844 103.685C27.2239 103.287 26.941 102.816 26.7526 102.299C26.5642 101.782 26.474 101.23 26.4874 100.675L27.0335 77.522C27.0574 76.4367 27.4757 75.4047 28.1987 74.6468C28.9217 73.8889 29.892 73.4653 30.9019 73.4668H49.1312C50.0561 73.4651 50.9509 73.82 51.6531 74.467C52.3553 75.1141 52.8183 76.0105 52.958 76.9933L56.272 100.164C56.3548 100.755 56.3178 101.359 56.1638 101.934C56.0097 102.508 55.7421 103.041 55.3793 103.494C55.0164 103.947 54.5668 104.311 54.0612 104.561C53.5556 104.811 53.0058 104.94 52.4494 104.94Z" fill="#92E3A9" stroke="#263238" stroke-linecap="round" stroke-linejoin="round"/>
<path opacity="0.1" d="M52.4494 104.94H30.3558C29.8393 104.941 29.3279 104.83 28.852 104.614C28.376 104.398 27.945 104.082 27.5844 103.685C27.2239 103.287 26.941 102.816 26.7526 102.299C26.5642 101.782 26.474 101.23 26.4874 100.675L27.0335 77.522C27.0574 76.4367 27.4757 75.4047 28.1987 74.6468C28.9217 73.8889 29.892 73.4653 30.9019 73.4668H49.1312C50.0561 73.4651 50.9509 73.82 51.6531 74.467C52.3553 75.1141 52.8183 76.0105 52.958 76.9933L56.272 100.164C56.3548 100.755 56.3178 101.359 56.1638 101.934C56.0097 102.508 55.7421 103.041 55.3793 103.494C55.0164 103.947 54.5668 104.311 54.0612 104.561C53.5556 104.811 53.0058 104.94 52.4494 104.94Z" fill="black"/>
<path d="M45.2335 119.664L35.5457 126.52" stroke="#263238" stroke-linecap="round" stroke-linejoin="round"/>
<path d="M35.1789 125.467L33.5115 126.672C33.3809 126.768 33.2717 126.893 33.1916 127.04C33.1114 127.186 33.0625 127.35 33.0481 127.519C33.0338 127.688 33.0544 127.859 33.1086 128.018C33.1628 128.178 33.2491 128.322 33.3614 128.442L33.5031 128.585C33.6905 128.783 33.9394 128.9 34.2019 128.912C34.4644 128.925 34.7219 128.832 34.9246 128.653L36.4503 127.308C36.5636 127.208 36.6563 127.083 36.7225 126.942C36.7888 126.801 36.8273 126.646 36.8355 126.489C36.8437 126.331 36.8215 126.173 36.7703 126.025C36.7191 125.877 36.64 125.742 36.5379 125.628C36.3652 125.434 36.1343 125.311 35.8857 125.281C35.6372 125.252 35.3869 125.317 35.1789 125.467Z" fill="#263238" stroke="#263238" stroke-linecap="round" stroke-linejoin="round"/>
<path d="M46.7466 154.037H56.3052C56.7474 154.037 57.1715 154.226 57.4842 154.562C57.7969 154.898 57.9726 155.354 57.9726 155.829V156.067H46.7466V154.037Z" fill="#263238" stroke="#263238" stroke-linecap="round" stroke-linejoin="round"/>
<path d="M54.4002 93.0072C56.2857 93.0072 57.8142 92.0724 57.8142 90.9191C57.8142 89.7659 56.2857 88.8311 54.4002 88.8311C52.5146 88.8311 50.9861 89.7659 50.9861 90.9191C50.9861 92.0724 52.5146 93.0072 54.4002 93.0072Z" fill="white" stroke="#263238" stroke-linecap="round" stroke-linejoin="round"/>
<path d="M63.9004 108.045C63.9004 108.045 69.4071 108.341 70.6494 111.45C70.9052 112.515 71.0451 113.608 71.0662 114.708C71.0662 116.335 76.1602 147.719 76.2978 148.315C76.4354 148.91 79.4659 153.494 79.8786 154.529C80.2913 155.565 80.7124 156.456 80.7124 156.456C80.7124 156.456 81.9629 157.048 81.817 157.491C81.6711 157.935 78.7865 158.083 77.5484 158.083C76.3103 158.083 74.9305 154.83 74.1051 154.529C73.2797 154.229 72.3126 153.185 72.3126 152.607C72.3126 152.029 72.7295 147.723 72.7295 147.723C72.2012 144.21 71.2774 140.78 69.9782 137.507C68.1357 132.994 65.843 126.403 65.5678 123.298C65.2927 120.193 65.2927 117.226 65.2927 117.226L61.8161 116.63C61.8161 116.63 61.3992 108.932 63.9004 108.045Z" fill="white" stroke="#263238" stroke-linecap="round" stroke-linejoin="round"/>
<path d="M75.0933 155.999C75.0933 155.999 76.1938 151.182 79.0284 153.051L80.2165 155.211C80.2165 155.211 77.5652 155.211 76.7399 157.966C76.3368 157.808 75.9759 157.546 75.6889 157.203C75.4018 156.86 75.1973 156.447 75.0933 155.999Z" fill="#263238" stroke="#263238" stroke-linecap="round" stroke-linejoin="round"/>
<path d="M52.5035 99.0567L52.3701 99.0791C51.1195 93.6034 49.4312 88.0068 49.4312 88.0068C49.4312 88.0068 41.1482 90.3593 36.371 88.7641C36.371 88.7641 33.9407 101.629 33.9407 104.989C33.9407 107.678 33.4238 110.411 35.3164 111.988C35.4994 112.278 35.7347 112.525 36.0082 112.715C36.2817 112.905 36.588 113.035 36.9088 113.095C42.0737 114.139 50.9736 113.776 52.4577 114.094C53.9417 114.413 61.8162 116.631 61.8162 116.631C61.8162 116.631 62.2872 111.962 63.6212 108.933C64.9551 105.903 71.0454 106.419 71.0454 106.419L52.5035 99.0567Z" fill="#263238" stroke="#263238" stroke-linecap="round" stroke-linejoin="round"/>
<path d="M50.5901 63.1829C50.5901 63.1829 49.4479 61.6414 48.214 63.3397C46.9801 65.0379 47.9598 70.9348 48.5684 73.2917C49.177 75.6486 59.4568 85.4259 60.4239 86.1518C61.391 86.8777 73.9927 89.9381 75.0932 89.378C76.1937 88.8179 76.5105 85.9815 75.8852 84.4491C75.2599 82.9166 63.4836 79.6635 63.4836 79.6635L50.5901 63.1829Z" fill="white"/>
<mask id="mask5_761_889" style="mask-type:luminance" maskUnits="userSpaceOnUse" x="47" y="62" width="30" height="28">
<path d="M50.5901 63.1829C50.5901 63.1829 49.4479 61.6414 48.214 63.3397C46.9801 65.0379 47.9598 70.9348 48.5684 73.2917C49.177 75.6486 59.4568 85.4259 60.4239 86.1518C61.391 86.8777 73.9927 89.9381 75.0932 89.378C76.1937 88.8179 76.5105 85.9815 75.8852 84.4491C75.2599 82.9166 63.4836 79.6635 63.4836 79.6635L50.5901 63.1829Z" fill="white"/>
</mask>
<g mask="url(#mask5_761_889)">
<g style="mix-blend-mode:multiply" opacity="0.5">
<path d="M60.424 86.1608C61.3911 86.8822 73.9928 89.9471 75.0933 89.387C75.7269 89.0644 76.0979 87.98 76.1813 86.8284C74.2345 85.986 71.9251 85.4169 70.8538 85.4842C69.2989 85.5783 70.3411 87.1376 67.8482 86.6985C65.3554 86.2594 62.5124 84.9061 59.9279 83.3199C57.3434 81.7337 52.7037 77.0467 52.7037 77.0467L56.3429 77.4948L52.1952 76.1191L55.801 74.6628L52.7037 74.4657C52.9021 73.9383 52.9945 73.3718 52.9747 72.8033C52.9747 71.6517 50.9321 67.377 50.9321 67.377L48.7644 73.7801C50.2776 76.7016 59.5111 85.4752 60.424 86.1608Z" fill="#92E3A9"/>
</g>
</g>
<path d="M50.5901 63.1829C50.5901 63.1829 49.4479 61.6414 48.214 63.3397C46.9801 65.0379 47.9598 70.9348 48.5684 73.2917C49.177 75.6486 59.4568 85.4259 60.4239 86.1518C61.391 86.8777 73.9927 89.9381 75.0932 89.378C76.1937 88.8179 76.5105 85.9815 75.8852 84.4491C75.2599 82.9166 63.4836 79.6635 63.4836 79.6635L50.5901 63.1829Z" stroke="#263238" stroke-linecap="round" stroke-linejoin="round"/>
<path d="M54.6378 75.5635L51.8074 76.7419L56.5679 78.4447" stroke="#263238" stroke-width="0.5" stroke-linecap="round" stroke-linejoin="round"/>
<path d="M75.1223 84.4351C74.7585 84.5153 74.4257 84.7118 74.1675 84.9989C73.9094 85.2859 73.738 85.6501 73.6758 86.0438C73.4299 87.4463 74.7138 88.6427 74.7138 88.6427C74.7138 88.6427 77.4192 89.6419 78.2279 87.2984C79.0367 84.9549 76.4313 84.3455 75.1223 84.4351Z" fill="white"/>
<mask id="mask6_761_889" style="mask-type:luminance" maskUnits="userSpaceOnUse" x="73" y="84" width="6" height="5">
<path d="M75.1223 84.4351C74.7585 84.5153 74.4257 84.7118 74.1675 84.9989C73.9094 85.2859 73.738 85.6501 73.6758 86.0438C73.4299 87.4463 74.7138 88.6427 74.7138 88.6427C74.7138 88.6427 77.4192 89.6419 78.2279 87.2984C79.0367 84.9549 76.4313 84.3455 75.1223 84.4351Z" fill="white"/>
</mask>
<g mask="url(#mask6_761_889)">
<g style="mix-blend-mode:multiply" opacity="0.5">
<path d="M74.7138 88.6432C74.7138 88.6432 77.0232 89.4901 78.0112 87.7829C76.6542 86.9709 75.2035 86.3547 73.6967 85.9502C73.6878 85.981 73.6808 86.0125 73.6758 86.0443C73.4299 87.4468 74.7138 88.6432 74.7138 88.6432Z" fill="#92E3A9"/>
</g>
</g>
<path d="M75.1223 84.4351C74.7585 84.5153 74.4257 84.7118 74.1675 84.9989C73.9094 85.2859 73.738 85.6501 73.6758 86.0438C73.4299 87.4463 74.7138 88.6427 74.7138 88.6427C74.7138 88.6427 77.4192 89.6419 78.2279 87.2984C79.0367 84.9549 76.4313 84.3455 75.1223 84.4351Z" stroke="#263238" stroke-linecap="round" stroke-linejoin="round"/>
<path d="M83.1135 87.6753C83.8692 87.8056 84.5654 88.1955 85.0978 88.7865C85.8856 89.7409 85.2437 90.1308 84.7393 89.9919C84.2349 89.853 82.5758 87.2182 83.1135 87.6753Z" fill="white" stroke="#263238" stroke-linecap="round" stroke-linejoin="round"/>
<path d="M82.5883 87.5006C83.3204 87.7422 83.9597 88.2329 84.41 88.8987C85.0686 89.9562 84.3808 90.2429 83.9014 90.0368C83.422 89.8307 82.1131 86.9674 82.5883 87.5006Z" fill="white" stroke="#263238" stroke-linecap="round" stroke-linejoin="round"/>
<path d="M77.8695 85.4121C77.8695 85.4121 76.6189 85.905 76.4813 86.7564C76.4587 87.0221 76.4877 87.2901 76.5667 87.5431C76.6456 87.7962 76.7727 88.0288 76.9399 88.2261C76.9399 88.2261 78.1905 89.3015 78.6657 89.4135C79.1409 89.5256 80.2081 90.1798 80.3331 89.5569C80.4582 88.9341 79.1909 88.3829 79.1909 88.3829C79.1909 88.3829 81.6129 88.5398 81.6921 89.064C81.7713 89.5883 82.6467 90.1305 83.4221 90.1439C84.1974 90.1574 83.2595 88.4726 83.0719 88.0513C82.8843 87.6301 79.4202 85.4435 77.8695 85.4121Z" fill="white" stroke="#263238" stroke-linecap="round" stroke-linejoin="round"/>
<path d="M38.1719 59.002C38.1719 59.002 30.5517 63.7652 29.9556 64.0789C29.3595 64.3925 28.7676 69.3215 28.7676 69.7875C28.7676 70.2535 36.3878 88.764 36.3878 88.764C36.3878 88.764 38.2636 90.4712 43.7537 90.4712C49.2437 90.4712 49.6689 89.575 49.6689 89.575L50.1066 81.7649C50.1066 81.7649 51.9825 76.4864 52.1284 75.5544C52.2743 74.6224 50.5902 63.1827 50.5902 63.1827L42.7949 57.595C42.7949 57.595 39.6184 55.5876 38.1719 59.002Z" fill="white"/>
<mask id="mask7_761_889" style="mask-type:luminance" maskUnits="userSpaceOnUse" x="28" y="57" width="25" height="34">
<path d="M38.1719 59.002C38.1719 59.002 30.5517 63.7652 29.9556 64.0789C29.3595 64.3925 28.7676 69.3215 28.7676 69.7875C28.7676 70.2535 36.3878 88.764 36.3878 88.764C36.3878 88.764 38.2636 90.4712 43.7537 90.4712C49.2437 90.4712 49.6689 89.575 49.6689 89.575L50.1066 81.7649C50.1066 81.7649 51.9825 76.4864 52.1284 75.5544C52.2743 74.6224 50.5902 63.1827 50.5902 63.1827L42.7949 57.595C42.7949 57.595 39.6184 55.5876 38.1719 59.002Z" fill="white"/>
</mask>
<g mask="url(#mask7_761_889)">
<g style="mix-blend-mode:multiply" opacity="0.5">
<path d="M30.731 67.4666C31.3271 66.4404 36.813 62.5959 36.813 62.5959L38.8389 61.3143L41.436 57.0799C40.3938 56.8738 39.0015 57.0441 38.1719 59.0022C38.1719 59.0022 30.5351 63.7654 29.9556 64.0746C29.3762 64.3837 28.7676 69.3172 28.7676 69.7832C28.7676 69.8862 29.1261 70.8362 29.6847 72.2656C29.9014 70.1461 30.3141 68.1835 30.731 67.4666Z" fill="#92E3A9"/>
</g>
</g>
<path d="M38.1719 59.002C38.1719 59.002 30.5517 63.7652 29.9556 64.0789C29.3595 64.3925 28.7676 69.3215 28.7676 69.7875C28.7676 70.2535 36.3878 88.764 36.3878 88.764C36.3878 88.764 38.2636 90.4712 43.7537 90.4712C49.2437 90.4712 49.6689 89.575 49.6689 89.575L50.1066 81.7649C50.1066 81.7649 51.9825 76.4864 52.1284 75.5544C52.2743 74.6224 50.5902 63.1827 50.5902 63.1827L42.7949 57.595C42.7949 57.595 39.6184 55.5876 38.1719 59.002Z" stroke="#263238" stroke-linecap="round" stroke-linejoin="round"/>
<path d="M40.7273 66.391L42.9492 68.9675L42.4865 79.9232L45.738 80.8462L46.0798 76.0607L47.2762 81.03L49.6731 78.4535L44.4916 68.7837L45.1752 65.8398L42.2655 62.3447L40.3855 67.1303" fill="#263238"/>
<path d="M40.7273 66.391L42.9492 68.9675L42.4865 79.9232L45.738 80.8462L46.0798 76.0607L47.2762 81.03L49.6731 78.4535L44.4916 68.7837L45.1752 65.8398L42.2655 62.3447L40.3855 67.1303" stroke="#263238" stroke-linecap="round" stroke-linejoin="round"/>
<path d="M36.6836 59.0291C36.6836 59.0291 37.1588 62.4391 37.7924 63.9581C38.4261 65.4771 39.8559 68.0536 39.8559 68.0536L42.8698 64.8095L45.8879 67.0499C45.8879 67.0499 45.571 61.4219 44.458 58.8634C43.345 56.3048 37.9508 53.7417 36.6836 59.0291Z" fill="white" stroke="#263238" stroke-linecap="round" stroke-linejoin="round"/>
<g style="mix-blend-mode:multiply" opacity="0.5">
<path d="M38.8388 61.3145L41.8527 56.3856C41.3025 56.1266 40.7139 55.9749 40.1144 55.9375C39.5974 56.0495 39.0138 56.1884 38.3969 56.3363C37.6424 56.7844 37.0171 57.6268 36.6836 59.0248C36.6836 59.0248 36.9212 60.7455 37.288 62.2914L38.8388 61.3145Z" fill="#92E3A9"/>
</g>
<path d="M44.1413 58.0026C43.7333 58.9686 43.5174 60.0156 43.5077 61.0765C43.5077 62.7792 43.8245 64.6612 43.8245 65.5126V68.0712C43.8245 68.0712 41.9194 65.5126 40.4896 63.6351C39.0598 61.7576 37.9509 60.0504 38.1093 58.5179C38.2677 56.9855 39.6976 51.008 39.6976 51.008C40.4528 51.0007 41.195 51.2204 41.8402 51.6424C42.4855 52.0644 43.0082 52.6719 43.3493 53.3963C44.6165 55.9549 44.1413 58.0026 44.1413 58.0026Z" fill="white" stroke="#263238" stroke-linecap="round" stroke-linejoin="round"/>
<g style="mix-blend-mode:multiply" opacity="0.5">
<path d="M39.1973 55.0364L38.7221 55.2829C38.4303 56.6271 38.1718 57.9131 38.1093 58.5181C37.9551 59.9967 38.9847 61.6547 40.3395 63.447L40.5104 59.9206L44.1413 58.0162L41.2233 54.9199L39.1973 55.0364Z" fill="#92E3A9"/>
</g>
<path d="M47.2261 56.1697C47.2261 56.1697 46.1756 58.2623 47.3095 58.3474C48.4433 58.4326 48.1974 57.3885 48.3599 57.0435C48.5225 56.6985 49.252 57.4916 48.8477 59.1316C48.4433 60.7716 46.4174 61.9187 45.2001 60.6103C43.9829 59.3019 44.3122 57.9217 44.7166 56.8687C45.1209 55.8157 46.7509 55.3004 47.2261 56.1697Z" fill="#263238" stroke="#263238" stroke-linecap="round" stroke-linejoin="round"/>
<path d="M44.95 37.6731C44.5957 37.6193 44.2247 37.579 43.8412 37.5566C42.4447 37.4804 40.9232 37.579 39.8352 38.5155C37.5758 40.4602 37.9551 44.3675 38.1177 47.0874C38.3011 50.1747 38.2636 54.678 40.4188 56.914C44.058 60.6868 49.7481 56.6496 49.7481 52.1777C49.7481 50.2867 49.8148 47.4055 49.9315 46.7603C50.0835 45.9632 50.1879 45.1565 50.2442 44.3451C50.4943 40.2272 48.3224 38.1884 44.95 37.6731Z" fill="white" stroke="#263238" stroke-linecap="round" stroke-linejoin="round"/>
<g style="mix-blend-mode:multiply" opacity="0.5">
<path d="M46.2923 57.7203C45.2741 57.705 44.2577 57.6212 43.2492 57.4694C41.7027 57.214 39.5559 54.521 40.6272 50.8063C41.6985 47.0917 41.7027 45.1649 41.7027 45.1649L38.0552 42.7139C37.9715 44.1713 37.9938 45.6335 38.1219 47.0872C38.3053 50.1745 38.2678 54.6778 40.4229 56.9137C42.1904 58.7509 44.4414 58.733 46.2923 57.7203Z" fill="#92E3A9"/>
</g>
<path d="M44.2247 49.5919C44.4526 49.5919 44.6374 49.2508 44.6374 48.8301C44.6374 48.4094 44.4526 48.0684 44.2247 48.0684C43.9968 48.0684 43.812 48.4094 43.812 48.8301C43.812 49.2508 43.9968 49.5919 44.2247 49.5919Z" fill="#263238"/>
<path d="M48.2974 49.0188C48.2723 49.44 48.0639 49.7671 47.8388 49.7492C47.6137 49.7313 47.447 49.3818 47.472 48.9606C47.497 48.5394 47.7012 48.2123 47.9305 48.2302C48.1598 48.2481 48.3224 48.5976 48.2974 49.0188Z" fill="#263238"/>
<path d="M42.9448 47.0068C42.9448 47.0068 43.7785 45.1158 45.1167 46.0075L42.9448 47.0068Z" fill="white"/>
<path d="M42.9448 47.0068C42.9448 47.0068 43.7785 45.1158 45.1167 46.0075" stroke="#263238" stroke-linecap="round" stroke-linejoin="round"/>
<path d="M47.2886 46.3387C47.2886 46.3387 48.2765 45.1199 48.8393 47.1184L47.2886 46.3387Z" fill="white"/>
<path d="M47.2886 46.3387C47.2886 46.3387 48.2765 45.1199 48.8393 47.1184" stroke="#263238" stroke-linecap="round" stroke-linejoin="round"/>
<path d="M46.6467 50.3447C46.6467 50.4209 46.6467 50.4971 46.6467 50.5643C46.7509 51.344 47.2678 51.9085 47.0636 52.2312C46.8593 52.5538 45.813 52.6793 45.813 52.6793" fill="white"/>
<path d="M46.6467 50.3447C46.6467 50.4209 46.6467 50.4971 46.6467 50.5643C46.7509 51.344 47.2678 51.9085 47.0636 52.2312C46.8593 52.5538 45.813 52.6793 45.813 52.6793" stroke="#263238" stroke-linecap="round" stroke-linejoin="round"/>
<path d="M45.4252 54.4583C45.4252 54.4583 43.6036 55.0632 42.9241 53.4814L45.4252 54.4583Z" fill="white"/>
<path d="M45.4252 54.4583C45.4252 54.4583 43.6036 55.0632 42.9241 53.4814" stroke="#263238" stroke-linecap="round" stroke-linejoin="round"/>
<path d="M43.8704 50.6942C45.0538 50.6942 46.0131 49.6631 46.0131 48.3911C46.0131 47.1191 45.0538 46.0879 43.8704 46.0879C42.6871 46.0879 41.7278 47.1191 41.7278 48.3911C41.7278 49.6631 42.6871 50.6942 43.8704 50.6942Z" stroke="#263238" stroke-width="0.5" stroke-linecap="round" stroke-linejoin="round"/>
<path d="M48.7184 50.6942C49.7797 50.6942 50.6401 49.6631 50.6401 48.3911C50.6401 47.1191 49.7797 46.0879 48.7184 46.0879C47.657 46.0879 46.7966 47.1191 46.7966 48.3911C46.7966 49.6631 47.657 50.6942 48.7184 50.6942Z" stroke="#263238" stroke-width="0.5" stroke-linecap="round" stroke-linejoin="round"/>
<path d="M41.7277 48.3916L38.668 48.5305" stroke="#263238" stroke-width="0.5" stroke-linecap="round" stroke-linejoin="round"/>
<path d="M50.6401 48.3916H49.8564" stroke="#263238" stroke-width="0.5" stroke-linecap="round" stroke-linejoin="round"/>
<path d="M46.0088 47.6875H46.8967" stroke="#263238" stroke-width="0.5" stroke-linecap="round" stroke-linejoin="round"/>
<path d="M48.731 34.9532C47.1314 34.6529 45.5142 34.4732 43.8913 34.4155C43.8913 34.4155 41.0524 32.9771 37.2215 34.5947C31.7398 36.8979 31.8607 44.7663 33.2196 49.7804C33.6365 51.2949 34.6161 53.5936 33.7157 55.1126C33.1488 56.0715 31.5272 55.5607 31.7731 54.2433C32.0191 52.926 32.4193 53.374 32.7444 53.1993C33.0696 53.0245 32.5819 52.8498 31.8523 52.5899C31.1228 52.33 30.485 53.038 30.3933 54.7631C30.1516 59.468 36.6004 62.5822 39.0599 58.4688C40.0603 56.6764 39.1724 53.5622 38.7389 51.2994C38.6012 50.5161 38.5079 49.7245 38.4596 48.929C39.2378 48.8489 39.9595 48.457 40.4813 47.8312C40.8677 47.262 41.1974 46.6507 41.4651 46.0075C41.7569 46.0075 42.0612 46.0299 42.3947 46.0657C45.7296 46.4242 46.7384 40.3213 46.7384 40.3213C46.7384 40.3213 48.4058 43.7312 48.9061 44.9903L49.4063 46.245C49.4063 46.245 50.7444 46.4242 52.0784 43.3727C53.4123 40.3213 51.9033 35.5043 48.731 34.9532Z" fill="#263238" stroke="#263238" stroke-linecap="round" stroke-linejoin="round"/>
<path d="M46.5466 38.8877C46.5466 38.8877 50.6485 40.4022 50.7736 43.0191C50.8986 45.6359 50.2609 45.7703 50.2609 45.7703" stroke="white" stroke-width="0.5" stroke-miterlimit="10" stroke-linecap="round"/>
<path d="M46.0381 37.9239C46.0381 37.9239 49.8774 36.9605 51.1613 39.7162" stroke="white" stroke-width="0.5" stroke-miterlimit="10" stroke-linecap="round"/>
<path d="M41.2982 35.168C41.2982 35.168 45.1375 37.2337 45.7794 39.1649C46.4214 41.0962 43.0907 44.8063 40.9105 45.4964C38.7303 46.1864 37.0712 45.3575 35.533 46.5987C33.9948 47.8399 34.6368 51.2767 34.6368 51.2767" stroke="white" stroke-width="0.5" stroke-miterlimit="10" stroke-linecap="round"/>
<path d="M33.4697 47.424C33.4697 47.424 32.4442 44.8072 34.6244 43.4316C36.8046 42.0559 38.7221 43.4316 41.1566 41.7781C43.5911 40.1247 43.9746 38.0635 43.9746 38.0635" stroke="white" stroke-width="0.5" stroke-miterlimit="10" stroke-linecap="round"/>
<path d="M39.1097 49.7984C39.1097 49.7984 37.7632 46.2809 36.4126 47.5221C35.062 48.7633 37.3756 52.0747 38.9138 51.6624" fill="white"/>
<path d="M39.1097 49.7984C39.1097 49.7984 37.7632 46.2809 36.4126 47.5221C35.062 48.7633 37.3756 52.0747 38.9138 51.6624" stroke="#263238" stroke-linecap="round" stroke-linejoin="round"/>
<g opacity="0.37">
<path d="M39.1097 49.7984C39.1097 49.7984 37.7632 46.2809 36.4126 47.5221C35.062 48.7633 37.3756 52.0747 38.9138 51.6624" fill="#92E3A9"/>
<path d="M39.1097 49.7984C39.1097 49.7984 37.7632 46.2809 36.4126 47.5221C35.062 48.7633 37.3756 52.0747 38.9138 51.6624" stroke="#263238" stroke-linecap="round" stroke-linejoin="round"/>
</g>
<path d="M30.8853 64.4327C30.8853 64.4327 30.2308 63.904 28.776 65.0825C27.3211 66.2609 25.9663 71.62 26.8751 73.8918C27.7838 76.1636 30.21 87.9752 31.3397 88.6205C32.4693 89.2657 44.6166 89.2119 46.0506 88.849C47.4846 88.486 48.4851 86.4696 48.2433 84.7266C48.0015 82.9835 46.4008 82.531 45.9298 82.5175C45.4587 82.5041 35.7834 81.9126 35.7834 81.9126L32.7778 68.2639" fill="white"/>
<mask id="mask8_761_889" style="mask-type:luminance" maskUnits="userSpaceOnUse" x="26" y="64" width="23" height="26">
<path d="M30.8853 64.4327C30.8853 64.4327 30.2308 63.904 28.776 65.0825C27.3211 66.2609 25.9663 71.62 26.8751 73.8918C27.7838 76.1636 30.21 87.9752 31.3397 88.6205C32.4693 89.2657 44.6166 89.2119 46.0506 88.849C47.4846 88.486 48.4851 86.4696 48.2433 84.7266C48.0015 82.9835 46.4008 82.531 45.9298 82.5175C45.4587 82.5041 35.7834 81.9126 35.7834 81.9126L32.7778 68.2639" fill="white"/>
</mask>
<g mask="url(#mask8_761_889)">
<g style="mix-blend-mode:multiply" opacity="0.5">
<path d="M46.4342 85.9236C45.7422 85.005 34.7287 86.6047 33.5532 85.9236C32.3776 85.2425 31.8107 83.9475 32.6694 83.0737C33.5282 82.2 31.027 82.0028 31.0479 81.2321C31.0687 80.4614 32.5027 80.2508 32.411 79.2202C32.3193 78.1896 29.222 77.9745 29.297 75.0261C29.3721 72.0777 30.0599 68.5109 30.681 67.5027C31.025 67.0776 31.4203 66.7038 31.8566 66.3914L30.8853 64.4288C30.8853 64.4288 30.2308 63.9001 28.776 65.0785C27.3211 66.257 25.9663 71.6206 26.8751 73.8924C27.7838 76.1642 30.21 87.9758 31.3397 88.621C32.4693 89.2663 44.6166 89.2125 46.0506 88.8496C46.5142 88.6902 46.9355 88.4138 47.2792 88.0435C47.623 87.6732 47.8793 87.2198 48.0266 86.7212C47.2554 86.4837 46.6384 86.1924 46.4342 85.9236Z" fill="#92E3A9"/>
</g>
</g>
<path d="M30.8853 64.4327C30.8853 64.4327 30.2308 63.904 28.776 65.0825C27.3211 66.2609 25.9663 71.62 26.8751 73.8918C27.7838 76.1636 30.21 87.9752 31.3397 88.6205C32.4693 89.2657 44.6166 89.2119 46.0506 88.849C47.4846 88.486 48.4851 86.4696 48.2433 84.7266C48.0015 82.9835 46.4008 82.531 45.9298 82.5175C45.4587 82.5041 35.7834 81.9126 35.7834 81.9126L32.7778 68.2639" stroke="#263238" stroke-linecap="round" stroke-linejoin="round"/>
<path d="M32.1023 84.4313C32.8193 82.164 35.779 82.1192 35.779 82.1192C34.5986 81.7868 33.3643 81.7394 32.1648 81.9803" stroke="#263238" stroke-width="0.5" stroke-linecap="round" stroke-linejoin="round"/>
<path d="M47.718 83.082C47.28 83.2836 46.9062 83.6182 46.6426 84.0449C46.379 84.4715 46.237 84.9716 46.234 85.4838C46.184 87.3209 47.3179 87.6615 47.5972 87.8721C47.8765 88.0827 49.5606 89.055 50.2401 88.4591C50.9195 87.8631 51.7199 86.259 51.0738 84.9147C50.4276 83.5704 48.3809 83.1 47.718 83.082Z" fill="white"/>
<mask id="mask9_761_889" style="mask-type:luminance" maskUnits="userSpaceOnUse" x="46" y="83" width="6" height="6">
<path d="M47.718 83.082C47.28 83.2836 46.9062 83.6182 46.6426 84.0449C46.379 84.4715 46.237 84.9716 46.234 85.4838C46.184 87.3209 47.3179 87.6615 47.5972 87.8721C47.8765 88.0827 49.5606 89.055 50.2401 88.4591C50.9195 87.8631 51.7199 86.259 51.0738 84.9147C50.4276 83.5704 48.3809 83.1 47.718 83.082Z" fill="white"/>
</mask>
<g mask="url(#mask9_761_889)">
<g style="mix-blend-mode:multiply" opacity="0.5">
<path d="M50.2401 88.4591C50.4132 88.3011 50.5673 88.1205 50.6987 87.9214L49.2814 87.1103C47.9808 86.725 46.7427 86.3307 46.4342 85.9229C46.3805 85.8621 46.313 85.8173 46.2383 85.793C46.3175 87.3613 47.3305 87.6749 47.5972 87.8721C47.864 88.0693 49.5607 89.055 50.2401 88.4591Z" fill="#92E3A9"/>
</g>
</g>
<path d="M47.718 83.082C47.28 83.2836 46.9062 83.6182 46.6426 84.0449C46.379 84.4715 46.237 84.9716 46.234 85.4838C46.184 87.3209 47.3179 87.6615 47.5972 87.8721C47.8765 88.0827 49.5606 89.055 50.2401 88.4591C50.9195 87.8631 51.7199 86.259 51.0738 84.9147C50.4276 83.5704 48.3809 83.1 47.718 83.082Z" stroke="#263238" stroke-linecap="round" stroke-linejoin="round"/>
<path d="M50.065 84.7266C50.065 84.7266 49.0312 85.1522 48.8894 85.9902C48.7477 86.8281 48.7977 87.2807 48.977 87.3344C49.1562 87.3882 49.7523 87.6795 49.7523 87.6795L51.5907 88.7056C51.5907 88.7056 53.0497 90.4979 53.5291 90.6413C54.0085 90.7847 53.5958 90.4486 53.5291 90.0588C53.3204 89.5004 53.0503 88.9709 52.7245 88.4815L54.9005 90.5517C54.9005 90.5517 55.6175 90.8295 55.4508 90.2425C55.2841 89.6555 54.171 88.4502 54.171 88.4502L56.2262 90.4531C56.2262 90.4531 56.643 90.6592 56.643 90.3993C56.6664 90.2691 56.658 90.1346 56.6185 90.0089C56.5791 89.8833 56.51 89.7708 56.4179 89.6824C56.1845 89.4808 54.7838 87.7556 54.7838 87.7556L56.7347 89.0416C56.7347 89.0416 57.1516 89.6376 57.4434 89.6466C57.7352 89.6555 57.5684 89.4539 57.3475 88.7504C57.1266 88.0469 55.6426 87.0163 55.1131 86.613C54.5837 86.2097 51.6907 84.7759 50.065 84.7266Z" fill="white" stroke="#263238" stroke-linecap="round" stroke-linejoin="round"/>
<path d="M143.333 84.189H127.051L129.981 73.9727H146.264L143.333 84.189Z" fill="#263238" stroke="#263238" stroke-linecap="round" stroke-linejoin="round"/>
<path d="M142.053 85.1525H125.775L128.705 74.9316H144.984L142.053 85.1525Z" fill="white" stroke="#263238" stroke-linecap="round" stroke-linejoin="round"/>
<path d="M118.659 81.1064H145.488C146.152 81.1064 146.788 81.3897 147.257 81.8939C147.726 82.3981 147.989 83.0819 147.989 83.795V91.3139H118.659V81.1064Z" fill="#263238" stroke="#263238" stroke-linecap="round" stroke-linejoin="round"/>
<path d="M143.187 81.1064H113.844V91.3273H143.187V81.1064Z" fill="white" stroke="#263238" stroke-linecap="round" stroke-linejoin="round"/>
<path d="M136.584 88.585H113.144V89.9337H136.584V88.585Z" fill="white" stroke="#263238" stroke-linecap="round" stroke-linejoin="round"/>
<path d="M136.584 87.2363H118.146V88.5851H136.584V87.2363Z" fill="#263238" stroke="#263238" stroke-linecap="round" stroke-linejoin="round"/>
<path d="M113.24 90.332H94.7439V91.2596H113.24V90.332Z" fill="white" stroke="#263238" stroke-linecap="round" stroke-linejoin="round"/>
<path d="M127.463 57.501H87.5947V85.139H127.463V57.501Z" fill="white" stroke="#263238" stroke-linecap="round" stroke-linejoin="round"/>
<path d="M127.463 57.501H89.7708V85.139H127.463V57.501Z" fill="#263238" stroke="#263238" stroke-linecap="round" stroke-linejoin="round"/>
<path d="M113.669 70.3428H104.945V91.6807H113.669V70.3428Z" fill="white" stroke="#263238" stroke-linecap="round" stroke-linejoin="round"/>
<path d="M114.474 70.3428H105.749V91.6807H114.474V70.3428Z" fill="#263238" stroke="#263238" stroke-linecap="round" stroke-linejoin="round"/>
<path d="M105.17 70.5938H114.678V85.2059" stroke="white" stroke-linejoin="round"/>
<path d="M87.3195 89.835H60.6113V91.336H87.3195V89.835Z" fill="white" stroke="#263238" stroke-linecap="round" stroke-linejoin="round"/>
<path d="M94.2229 89.835H67.5146V91.336H94.2229V89.835Z" fill="white" stroke="#263238" stroke-linecap="round" stroke-linejoin="round"/>
<path d="M59.5819 93.8096H18.6588L16.7162 158.092C16.7055 158.27 16.7279 158.449 16.782 158.617C16.8362 158.786 16.921 158.941 17.0316 159.074C17.1422 159.208 17.2763 159.316 17.4261 159.392C17.576 159.469 17.7385 159.513 17.9043 159.522C18.2109 159.512 18.503 159.379 18.723 159.149C18.9429 158.92 19.0747 158.61 19.0923 158.28L22.9983 105.751C23.0479 104.814 23.422 103.931 24.0469 103.276C24.6718 102.621 25.5024 102.241 26.3749 102.211H51.8659C52.7379 102.241 53.568 102.621 54.1922 103.276C54.8165 103.932 55.1897 104.815 55.2383 105.751L59.1484 158.271C59.1659 158.6 59.2971 158.909 59.5162 159.139C59.7353 159.369 60.0264 159.502 60.3323 159.513C60.498 159.505 60.6607 159.461 60.8107 159.385C60.9607 159.309 61.0951 159.201 61.2061 159.069C61.317 158.936 61.4023 158.781 61.457 158.613C61.5117 158.444 61.5346 158.266 61.5245 158.088L59.5819 93.8096Z" fill="#92E3A9" stroke="#263238" stroke-linecap="round" stroke-linejoin="round"/>
<path d="M59.6735 96.7669L59.5817 93.8096H46.1964H32.044H18.6586L18.5669 96.7669H59.6735Z" fill="#263238" stroke="#263238" stroke-linecap="round" stroke-linejoin="round"/>
<path d="M152.775 93.8096H111.839L109.901 158.092C109.891 158.27 109.914 158.448 109.968 158.616C110.023 158.784 110.107 158.939 110.218 159.072C110.328 159.204 110.462 159.312 110.612 159.388C110.761 159.465 110.924 159.509 111.089 159.517C111.395 159.506 111.686 159.373 111.905 159.143C112.124 158.914 112.255 158.604 112.273 158.276L116.191 105.751C116.241 104.814 116.615 103.931 117.24 103.276C117.865 102.621 118.695 102.241 119.568 102.211H145.059C145.931 102.241 146.761 102.621 147.385 103.276C148.01 103.932 148.383 104.815 148.431 105.751L152.342 158.271C152.357 158.601 152.487 158.913 152.707 159.145C152.926 159.376 153.218 159.511 153.525 159.522C153.691 159.513 153.853 159.469 154.003 159.393C154.152 159.316 154.286 159.209 154.397 159.076C154.507 158.943 154.592 158.789 154.646 158.621C154.701 158.452 154.724 158.274 154.713 158.097L152.775 93.8096Z" fill="#92E3A9" stroke="#263238" stroke-linecap="round" stroke-linejoin="round"/>
<path d="M153.046 96.7669L152.958 93.8096H139.573H125.417H112.031L111.944 96.7669H153.046Z" fill="#263238" stroke="#263238" stroke-linecap="round" stroke-linejoin="round"/>
<path d="M155.472 91.3271H15.3406V94.7147H155.472V91.3271Z" fill="white" stroke="#263238" stroke-linecap="round" stroke-linejoin="round"/>
<path d="M155.476 91.3271H55.0381V94.7147H155.476V91.3271Z" fill="white" stroke="#263238" stroke-linecap="round" stroke-linejoin="round"/>
</svg>
