<svg width="434" height="435" viewBox="0 0 434 435" fill="none" xmlns="http://www.w3.org/2000/svg">
<path d="M217 434.071C336.846 434.071 434 377.992 434 308.815C434 239.638 336.846 183.56 217 183.56C97.1542 183.56 0 239.638 0 308.815C0 377.992 97.1542 434.071 217 434.071Z" fill="#F5F5F5"/>
<path d="M254.146 377.686C276.182 377.686 294.046 367.375 294.046 354.656C294.046 341.936 276.182 331.625 254.146 331.625C232.11 331.625 214.246 341.936 214.246 354.656C214.246 367.375 232.11 377.686 254.146 377.686Z" fill="#E0E0E0"/>
<path d="M357.947 364.044C379.983 364.044 397.847 353.733 397.847 341.014C397.847 328.295 379.983 317.983 357.947 317.983C335.911 317.983 318.047 328.295 318.047 341.014C318.047 353.733 335.911 364.044 357.947 364.044Z" fill="#E0E0E0"/>
<path d="M139.703 412.217C161.739 412.217 179.602 401.906 179.602 389.187C179.602 376.467 161.739 366.156 139.703 366.156C117.667 366.156 99.8027 376.467 99.8027 389.187C99.8027 401.906 117.667 412.217 139.703 412.217Z" fill="#E0E0E0"/>
<path d="M74.3069 313.452C74.3069 313.452 73.2655 289.101 63.0543 275.547C52.8432 261.993 40.3274 260.045 34.1274 263.863C29.5956 266.639 30.203 274.891 38.0422 280.251C45.8814 285.611 60.9909 299.349 63.3533 308.305L74.3069 313.452Z" fill="#37474F"/>
<path d="M67.5562 309.905C67.3908 309.893 67.2367 309.816 67.1268 309.692C67.017 309.568 66.96 309.406 66.968 309.24C68.019 287.145 48.6476 273.369 43.3733 270.891C43.2219 270.82 43.1047 270.692 43.0469 270.535C42.9892 270.378 42.9956 270.205 43.0647 270.052C43.1378 269.9 43.2676 269.783 43.4261 269.725C43.5847 269.668 43.7595 269.674 43.9132 269.744C49.3226 272.308 69.3111 286.508 68.2311 309.269C68.2212 309.436 68.1457 309.593 68.0212 309.704C67.8967 309.816 67.7331 309.875 67.5658 309.867L67.5562 309.905Z" fill="white"/>
<path d="M69.4849 305.76C68.0927 305.741 66.7542 305.221 65.7147 304.295C64.5287 302.993 64.6252 300.998 64.0755 299.32C63.1788 296.563 60.4597 294.693 57.6248 294.105C54.7505 293.657 51.8123 293.854 49.0239 294.683C43.335 296.081 37.8678 292.582 32.1692 292.996C30.113 293.062 28.1134 293.685 26.3838 294.799C25.5307 295.363 24.8318 296.131 24.3503 297.033C23.8688 297.936 23.6199 298.944 23.6261 299.966C23.8216 301.659 24.6647 303.21 25.9788 304.295C27.2965 305.377 28.7484 306.284 30.2986 306.994L35.3029 309.549C36.168 309.933 36.9657 310.453 37.6653 311.091C38.3264 311.799 38.8251 312.643 39.1265 313.564C39.4279 314.485 39.5249 315.46 39.4105 316.422C39.0248 318.35 37.4821 319.815 36.9903 321.705C36.3829 324.182 37.8967 326.834 40.0759 328.174C42.3393 329.399 44.923 329.903 47.4811 329.62C50.0364 329.475 52.5626 328.964 55.1178 328.916C56.8467 328.792 58.5744 329.17 60.0933 330.005C61.8085 331.247 63.0444 333.041 63.5934 335.086C63.9246 336.397 64.4512 337.652 65.1555 338.807C66.0239 339.904 67.1932 340.725 68.5206 341.169C71.0881 342.114 73.9081 342.114 76.4755 341.169C78.5872 340.359 79.6189 337.978 80.4096 335.915C81.1997 333.755 81.5759 331.466 81.5185 329.166C81.397 323.257 80.0612 317.436 77.5941 312.065C76.4081 309.597 74.7014 307.129 72.0787 306.281C71.2293 306.038 70.3619 305.864 69.4849 305.76Z" fill="#455A64"/>
<path d="M74.9598 332.25C74.8432 332.251 74.7294 332.215 74.6343 332.147C74.5392 332.08 74.4676 331.985 74.4294 331.875C68.4801 314.821 40.3342 299.985 30.0748 298.278C30.002 298.266 29.9323 298.24 29.8696 298.201C29.807 298.162 29.7526 298.111 29.7096 298.051C29.6666 297.991 29.6359 297.923 29.6192 297.851C29.6024 297.78 29.6 297.705 29.612 297.632C29.624 297.56 29.6503 297.49 29.6893 297.427C29.7282 297.365 29.7792 297.31 29.8392 297.267C29.8992 297.224 29.967 297.194 30.0389 297.177C30.1108 297.16 30.1852 297.158 30.258 297.17C40.7489 298.905 69.454 314.069 75.5769 331.499C75.6027 331.569 75.6141 331.643 75.6106 331.718C75.607 331.793 75.5885 331.866 75.5561 331.933C75.5238 332.001 75.4782 332.061 75.4221 332.111C75.3661 332.16 75.3007 332.198 75.2297 332.222C75.1431 332.251 75.0508 332.261 74.9598 332.25Z" fill="white"/>
<path d="M49.6605 322.9C49.5528 322.891 49.45 322.851 49.3645 322.785C49.2791 322.719 49.2146 322.629 49.1789 322.527C49.1432 322.425 49.1378 322.315 49.1634 322.21C49.189 322.105 49.2444 322.01 49.323 321.936C53.9252 318.753 59.3677 317.005 64.9629 316.913C65.0998 316.931 65.2255 316.998 65.3166 317.102C65.4076 317.206 65.4578 317.339 65.4578 317.477C65.4578 317.615 65.4076 317.748 65.3166 317.852C65.2255 317.956 65.0998 318.023 64.9629 318.041C59.6109 318.171 54.4106 319.844 49.9884 322.861C49.8851 322.906 49.7712 322.919 49.6605 322.9Z" fill="white"/>
<path d="M75.2717 345.439C74.6653 345.027 74.1644 344.478 73.8093 343.837C73.4542 343.195 73.2549 342.479 73.2275 341.747V140.854C73.2695 140.098 73.4886 139.364 73.8672 138.709C74.2458 138.054 74.7732 137.498 75.4067 137.084L311.797 0.626565C312.426 0.231315 313.15 0.0149367 313.892 0.00074589C314.634 -0.0134449 315.366 0.175089 316.009 0.546035C316.651 0.91698 317.181 1.45627 317.54 2.1058C317.899 2.75533 318.074 3.49048 318.046 4.23202V205.135C318.004 205.89 317.784 206.625 317.406 207.279C317.027 207.934 316.5 208.491 315.866 208.904L79.4758 345.362C78.8297 345.702 78.1129 345.886 77.3829 345.899C76.6529 345.913 75.9298 345.755 75.2717 345.439Z" fill="#455A64"/>
<path d="M79.0611 345.546H78.9744C78.9084 345.585 78.8369 345.614 78.7622 345.633H78.5983C78.5015 345.666 78.4013 345.689 78.2994 345.7C78.2347 345.726 78.1664 345.742 78.0969 345.748L77.7691 345.796C76.9087 345.913 76.0333 345.761 75.2621 345.363C74.6566 344.953 74.1566 344.405 73.803 343.765C73.4495 343.125 73.2523 342.411 73.2275 341.68V166.604L77.3159 168.965V344.1C77.3159 345.064 77.8076 345.661 78.5212 345.661C78.617 345.676 78.7146 345.676 78.8104 345.661C78.8994 345.636 78.984 345.597 79.0611 345.546Z" fill="#92E3A9"/>
<path opacity="0.81" d="M79.0611 345.546H78.9744C78.9084 345.585 78.8369 345.614 78.7622 345.633H78.5983C78.5015 345.666 78.4013 345.689 78.2994 345.7C78.2347 345.726 78.1664 345.742 78.0969 345.748L77.7691 345.796C76.9087 345.913 76.0333 345.761 75.2621 345.363C74.6566 344.953 74.1566 344.405 73.803 343.765C73.4495 343.125 73.2523 342.411 73.2275 341.68V166.604L77.3159 168.965V344.1C77.3159 345.064 77.8076 345.661 78.5212 345.661C78.617 345.676 78.7146 345.676 78.8104 345.661C78.8994 345.636 78.984 345.597 79.0611 345.546Z" fill="#E0E0E0"/>
<path d="M77.3061 168.965L73.2178 166.604V205.502L77.3061 207.883V168.965Z" fill="#92E3A9"/>
<path opacity="0.15" d="M77.3061 168.965L73.2178 166.604V205.502L77.3061 207.883V168.965Z" fill="black"/>
<path d="M77.9345 141.066C77.5486 141.715 77.333 142.451 77.3078 143.206V168.965L73.2194 166.603V140.854C73.2146 140.767 73.2146 140.68 73.2194 140.594C73.2381 140.412 73.2671 140.232 73.3062 140.054C73.4264 139.582 73.6079 139.128 73.8462 138.704L77.9345 141.066Z" fill="#263238"/>
<path d="M318.049 4.24169V15.8678L144.767 115.885C143.571 116.579 142.598 116.011 142.598 114.632V110.227C142.598 108.848 141.633 108.298 140.418 108.973L87.6461 139.446C87.0126 139.859 86.4852 140.416 86.1066 141.071C85.7281 141.726 85.5089 142.46 85.467 143.215V147.611C85.4261 148.366 85.2084 149.1 84.8316 149.755C84.4547 150.409 83.9292 150.966 83.2974 151.381L77.3096 154.87V143.302C77.3505 142.548 77.5681 141.814 77.945 141.159C78.3218 140.504 78.8473 139.947 79.4791 139.533L315.879 2.98846C317.075 2.29436 318.049 2.85349 318.049 4.24169Z" fill="#37474F"/>
<path d="M318.059 205.145C318.015 205.898 317.795 206.631 317.417 207.284C317.038 207.937 316.512 208.492 315.879 208.904L79.4791 345.362C78.2834 346.047 77.3096 345.487 77.3096 344.099V154.871L83.2974 151.42C84.4931 150.726 86.4408 140.179 87.6461 139.485L139.531 109.533C140.737 108.839 143.571 116.628 144.767 115.934L318.049 15.8682V205.145H318.059Z" fill="#92E3A9"/>
<path opacity="0.9" d="M318.059 205.145C318.015 205.898 317.795 206.631 317.417 207.284C317.038 207.937 316.512 208.492 315.879 208.904L79.4791 345.362C78.2834 346.047 77.3096 345.487 77.3096 344.099V154.871L83.2974 151.42C84.4931 150.726 86.4408 140.179 87.6461 139.485L139.531 109.533C140.737 108.839 143.571 116.628 144.767 115.934L318.049 15.8682V205.145H318.059Z" fill="white"/>
<g opacity="0.4">
<path d="M317.082 17.5349V205.144C317.035 205.722 316.858 206.283 316.564 206.784C316.27 207.285 315.867 207.713 315.385 208.036L78.994 344.522C78.8482 344.621 78.6781 344.678 78.5023 344.686C78.2805 344.686 78.2709 344.204 78.2709 344.098V155.381L83.7766 152.2C84.6251 151.708 85.1651 150.021 86.38 145.683C86.8212 143.814 87.4278 141.988 88.1928 140.226L139.654 110.525C140.27 111.364 140.824 112.247 141.312 113.166C142.71 115.615 143.482 116.887 144.6 116.887C144.826 116.887 145.048 116.83 145.246 116.723L317.082 17.5349ZM318.046 15.8672L144.764 115.885C144.71 115.898 144.654 115.898 144.6 115.885C143.385 115.885 140.917 109.397 139.692 109.397C139.639 109.383 139.582 109.383 139.528 109.397L87.6432 139.445C86.4379 140.14 84.4902 150.686 83.2945 151.38L77.3066 154.87V344.098C77.3066 345.062 77.7984 345.65 78.5023 345.65C78.8429 345.636 79.1744 345.537 79.4665 345.361L315.876 208.903C316.509 208.491 317.035 207.936 317.414 207.283C317.792 206.63 318.012 205.897 318.056 205.144V15.8672H318.046Z" fill="#92E3A9"/>
</g>
<path d="M77.3096 168.964V207.882L318.049 68.9371V30.0098L77.3096 168.964Z" fill="#92E3A9"/>
<path d="M318.049 15.8682V30.0104L77.3096 168.965V154.871L81.774 152.287C82.9696 151.593 83.3746 150.533 83.9435 148.518L85.467 143.254C85.9394 141.423 86.4312 140.179 87.6461 139.485L139.531 109.533C140.737 108.839 141.682 108.762 142.598 110.275L144.459 113.649C145.134 114.835 145.481 115.529 146.676 114.835L318.049 15.8682Z" fill="#F0F0F0"/>
<path d="M307.843 11.5295C309.357 10.6619 310.581 11.3656 310.581 13.1105C310.53 14.0606 310.255 14.9852 309.779 15.8093C309.304 16.6334 308.64 17.3337 307.843 17.8535C306.339 18.7211 305.114 18.0174 305.114 16.2725C305.166 15.3236 305.44 14.4001 305.914 13.5764C306.388 12.7526 307.049 12.0515 307.843 11.5295Z" fill="#92E3A9"/>
<path d="M298.01 17.2072C299.514 16.3396 300.739 17.0434 300.739 18.7882C300.687 19.7371 300.413 20.6606 299.939 21.4844C299.465 22.3082 298.804 23.0092 298.01 23.5312C296.496 24.3989 295.271 23.6951 295.271 21.9502C295.323 21.0001 295.598 20.0755 296.074 19.2515C296.549 18.4274 297.213 17.7271 298.01 17.2072Z" fill="#92E3A9"/>
<path d="M288.147 22.885C289.651 22.0174 290.885 22.7211 290.885 24.466C290.831 25.4156 290.555 26.3393 290.08 27.163C289.604 27.9867 288.942 28.6875 288.147 29.209C286.633 30.0862 285.408 29.3729 285.408 27.628C285.46 26.6779 285.735 25.7533 286.21 24.9292C286.686 24.1051 287.349 23.4048 288.147 22.885Z" fill="#92E3A9"/>
<path opacity="0.5" d="M87.2789 155.834L83.8655 157.762L85.1672 155.265C85.2187 155.17 85.2457 155.064 85.2457 154.956C85.2457 154.849 85.2187 154.743 85.1672 154.648C85.0708 154.532 84.8972 154.648 84.7815 154.831L82.9302 158.398C82.9262 158.443 82.9262 158.488 82.9302 158.533C82.926 158.594 82.926 158.655 82.9302 158.716C82.9243 158.771 82.9243 158.826 82.9302 158.88C82.9255 158.905 82.9255 158.932 82.9302 158.957L84.7815 160.384C84.809 160.401 84.8408 160.41 84.8731 160.41C84.9055 160.41 84.9372 160.401 84.9647 160.384C85.0531 160.312 85.1226 160.219 85.1672 160.114C85.2636 159.883 85.254 159.622 85.1672 159.536L83.8655 158.571L87.2789 156.643C87.3682 156.574 87.4401 156.485 87.4887 156.383C87.5372 156.281 87.5611 156.168 87.5585 156.055C87.5585 155.834 87.4332 155.757 87.2789 155.834Z" fill="#455A64"/>
<path opacity="0.5" d="M90.1333 154.196L93.5467 152.268L92.245 151.304C92.1293 151.217 92.1196 150.957 92.245 150.725C92.3703 150.494 92.515 150.369 92.6307 150.455L94.482 151.882C94.5063 151.9 94.5261 151.923 94.5398 151.95C94.55 152 94.55 152.053 94.5398 152.104C94.5499 152.164 94.5499 152.226 94.5398 152.287C94.5398 152.287 94.5398 152.287 94.5398 152.335C94.5247 152.382 94.5053 152.427 94.482 152.47L92.6307 155.998C92.5906 156.085 92.5271 156.158 92.4475 156.211C92.4204 156.237 92.3841 156.252 92.3462 156.252C92.3084 156.252 92.272 156.237 92.245 156.211C92.1908 156.117 92.1623 156.01 92.1623 155.902C92.1623 155.794 92.1908 155.687 92.245 155.594L93.5467 153.087L90.1333 155.063C89.979 155.15 89.8633 155.063 89.8633 154.793C89.8572 154.679 89.8786 154.566 89.9255 154.462C89.9725 154.358 90.0438 154.267 90.1333 154.196Z" fill="#455A64"/>
<path opacity="0.5" d="M101.306 144.363C101.306 144.16 101.104 144.189 101.017 144.411L100.544 145.558C99.7442 145.471 98.78 146.243 98.1243 147.631C97.2854 149.414 97.2854 151.487 98.1243 152.345C98.3303 152.538 98.5969 152.653 98.8784 152.67C99.1598 152.688 99.4387 152.607 99.6671 152.441C100.349 151.984 100.882 151.337 101.2 150.581C101.254 150.49 101.282 150.387 101.282 150.282C101.282 150.177 101.254 150.074 101.2 149.983C101.084 149.877 100.911 149.983 100.805 150.205C100.178 151.535 99.1464 152.133 98.5196 151.526C97.8929 150.918 97.8832 149.337 98.5196 147.997C98.9632 147.033 99.6092 146.484 100.178 146.455L99.8213 147.313C99.7345 147.534 99.8213 147.747 99.9563 147.65L101.354 146.744C101.408 146.696 101.45 146.636 101.476 146.569C101.503 146.502 101.514 146.43 101.509 146.358L101.306 144.363Z" fill="#455A64"/>
<path opacity="0.5" d="M138.033 115.944L139.277 113.302C139.35 113.178 139.388 113.037 139.388 112.893C139.388 112.749 139.35 112.607 139.277 112.483C139.132 112.348 138.891 112.483 138.746 112.791L137.503 115.423L136.249 114.228C136.104 114.083 135.863 114.228 135.719 114.536C135.646 114.661 135.607 114.802 135.607 114.946C135.607 115.09 135.646 115.231 135.719 115.356L136.963 116.551L135.719 119.202C135.646 119.326 135.607 119.468 135.607 119.612C135.607 119.756 135.646 119.897 135.719 120.022C135.757 120.053 135.804 120.07 135.854 120.07C135.903 120.07 135.951 120.053 135.989 120.022C136.108 119.947 136.2 119.835 136.249 119.703L137.503 117.062L138.746 118.267C138.783 118.298 138.829 118.314 138.877 118.314C138.924 118.314 138.97 118.298 139.007 118.267C139.127 118.191 139.221 118.08 139.277 117.949C139.35 117.825 139.388 117.683 139.388 117.539C139.388 117.395 139.35 117.254 139.277 117.129L138.033 115.944Z" fill="#455A64"/>
<path d="M105.866 147.601V143.205C105.911 142.451 106.132 141.717 106.512 141.064C106.892 140.411 107.421 139.857 108.055 139.445L303.649 26.6545C304.854 25.9604 305.828 26.5195 305.828 27.9077V32.2458C305.786 33.001 305.567 33.7357 305.189 34.3905C304.81 35.0453 304.283 35.6018 303.649 36.0151L108.055 148.864C106.84 149.558 105.866 148.989 105.866 147.601Z" fill="white"/>
<path d="M300.671 36.2962C300.62 36.3063 300.567 36.3063 300.516 36.2962C300.414 36.2452 300.332 36.1614 300.283 36.0583C300.234 35.9553 300.221 35.8388 300.246 35.7274L300.458 33.9054L299.571 33.2692C299.508 33.2229 299.457 33.1617 299.424 33.0911C299.39 33.0204 299.375 32.9425 299.379 32.8643C299.379 32.7317 299.409 32.6007 299.465 32.4808C299.522 32.3609 299.604 32.2548 299.706 32.1702L300.979 31.2062C301.022 31.1677 301.052 31.1173 301.066 31.0616L301.635 29.1914C301.667 29.0549 301.738 28.9307 301.839 28.8333C301.94 28.7359 302.066 28.6694 302.204 28.6419C302.29 28.6389 302.375 28.6611 302.448 28.7056C302.522 28.7501 302.581 28.815 302.618 28.8925L303.129 29.9915L304.286 29.548C304.368 29.5132 304.458 29.5047 304.545 29.5237C304.631 29.5428 304.709 29.5883 304.769 29.6541C304.844 29.7702 304.885 29.9058 304.885 30.0445C304.885 30.1832 304.844 30.3189 304.769 30.4349L303.804 32.1702C303.794 32.2211 303.794 32.2735 303.804 32.3244L304.026 33.8958C304.039 34.0244 304.024 34.1543 303.98 34.276C303.937 34.3978 303.867 34.5083 303.775 34.5995C303.724 34.6607 303.659 34.7085 303.585 34.7387C303.511 34.769 303.431 34.7807 303.351 34.7731L302.204 34.6284L301.095 36.113C301.041 36.172 300.976 36.2189 300.903 36.2505C300.829 36.2821 300.75 36.2977 300.671 36.2962ZM299.938 32.7582L300.825 33.3945C300.899 33.4568 300.956 33.538 300.988 33.6296C301.02 33.7212 301.027 33.8198 301.008 33.9151L300.902 35.4189L301.866 34.2043C301.921 34.126 301.995 34.0629 302.081 34.0207C302.167 33.9786 302.262 33.9588 302.358 33.9633L303.505 34.1079C303.505 34.1079 303.554 33.9536 303.505 33.8765L303.284 32.3052C303.268 32.1312 303.305 31.9567 303.39 31.8039L304.354 30.0686L303.293 30.4735C303.243 30.4956 303.188 30.5075 303.133 30.5083C303.078 30.5091 303.023 30.4988 302.972 30.4782C302.921 30.4575 302.874 30.4269 302.835 30.388C302.796 30.3491 302.765 30.3028 302.744 30.2518L302.271 29.2878L301.702 31.158C301.655 31.3299 301.554 31.482 301.413 31.5918L300.14 32.5558C300.05 32.5964 299.978 32.6684 299.938 32.7582Z" fill="#E0E0E0"/>
<g opacity="0.5">
<path d="M308.377 26.0576C308.21 26.0593 308.047 26.0054 307.914 25.9044C307.781 25.8034 307.686 25.661 307.643 25.4997C307.6 25.3385 307.611 25.1674 307.676 25.0136C307.741 24.8598 307.855 24.7319 308.001 24.6501L314.114 21.1218C314.2 21.0718 314.294 21.0391 314.392 21.0256C314.49 21.0121 314.59 21.018 314.686 21.0431C314.782 21.0682 314.872 21.1119 314.951 21.1717C315.029 21.2315 315.096 21.3063 315.146 21.3917C315.196 21.4772 315.229 21.5716 315.242 21.6697C315.256 21.7678 315.25 21.8676 315.225 21.9634C315.199 22.0592 315.156 22.1491 315.096 22.228C315.036 22.3069 314.961 22.3732 314.876 22.4232L308.753 25.9612C308.638 26.0257 308.509 26.0589 308.377 26.0576Z" fill="#455A64"/>
<path d="M308.376 29.5951C308.244 29.5949 308.114 29.5601 307.999 29.4942C307.884 29.4282 307.788 29.3334 307.721 29.2191C307.671 29.1332 307.638 29.0382 307.626 28.9396C307.613 28.8411 307.619 28.741 307.645 28.6451C307.671 28.5491 307.716 28.4593 307.777 28.3808C307.838 28.3023 307.914 28.2366 308 28.1876L314.114 24.6496C314.286 24.5706 314.481 24.5584 314.662 24.6157C314.842 24.6729 314.995 24.7953 315.09 24.9591C315.185 25.1229 315.216 25.3163 315.176 25.5015C315.137 25.6867 315.029 25.8504 314.875 25.9607L308.752 29.489C308.638 29.5565 308.509 29.593 308.376 29.5951Z" fill="#455A64"/>
<path d="M308.376 33.124C308.243 33.1238 308.113 33.089 307.998 33.0231C307.883 32.9571 307.787 32.8623 307.72 32.748C307.67 32.6628 307.638 32.5685 307.625 32.4707C307.613 32.3729 307.619 32.2736 307.645 32.1784C307.671 32.0833 307.716 31.9943 307.777 31.9166C307.838 31.839 307.914 31.7742 308 31.7262L314.113 28.1882C314.198 28.1382 314.293 28.1055 314.391 28.092C314.489 28.0785 314.589 28.0845 314.685 28.1095C314.781 28.1346 314.87 28.1783 314.949 28.2381C315.028 28.2979 315.095 28.3727 315.145 28.4581C315.195 28.5436 315.227 28.638 315.241 28.7361C315.254 28.8342 315.248 28.934 315.223 29.0298C315.198 29.1256 315.155 29.2155 315.095 29.2944C315.035 29.3733 314.96 29.4396 314.875 29.4896L308.752 33.0276C308.637 33.0921 308.507 33.1253 308.376 33.124Z" fill="#455A64"/>
</g>
<path d="M77.3061 154.822V168.964L73.2178 166.602V152.47L77.3061 154.822Z" fill="#E0E0E0"/>
<path opacity="0.1" d="M87.7495 217.06L154.33 178.624V287.144L87.5566 325.474L87.7495 217.06Z" fill="#92E3A9"/>
<path opacity="0.15" d="M169.007 172.155L249.327 125.795C250.947 124.831 252.22 125.563 252.22 127.366C252.159 128.363 251.866 129.333 251.364 130.196C250.862 131.06 250.164 131.794 249.327 132.34L168.997 179.221C167.387 180.185 166.104 179.414 166.104 177.553V177.216C166.159 176.204 166.45 175.219 166.954 174.34C167.458 173.461 168.161 172.712 169.007 172.155Z" fill="#92E3A9"/>
<path opacity="0.1" d="M168.167 186.2L301.076 109.483C302.233 108.818 303.169 109.29 303.169 110.534C303.118 111.236 302.902 111.917 302.538 112.52C302.174 113.123 301.674 113.632 301.076 114.005L168.167 190.722C167.019 191.387 166.084 190.914 166.084 189.671C166.135 188.97 166.35 188.29 166.711 187.687C167.073 187.084 167.572 186.575 168.167 186.2Z" fill="#92E3A9"/>
<path opacity="0.1" d="M168.167 195.282L301.076 118.565C302.233 117.9 303.169 118.372 303.169 119.616C303.118 120.318 302.902 120.999 302.538 121.602C302.174 122.205 301.674 122.714 301.076 123.087L168.167 199.804C167.019 200.469 166.084 199.996 166.084 198.743C166.136 198.044 166.352 197.366 166.713 196.765C167.075 196.164 167.573 195.656 168.167 195.282Z" fill="#92E3A9"/>
<path opacity="0.1" d="M168.167 204.354L301.076 127.637C302.233 126.972 303.169 127.444 303.169 128.698C303.116 129.398 302.899 130.077 302.536 130.678C302.172 131.279 301.672 131.786 301.076 132.159L168.167 208.856C167.019 209.521 166.084 209.049 166.084 207.796C166.14 207.1 166.358 206.427 166.72 205.83C167.081 205.232 167.576 204.727 168.167 204.354Z" fill="#92E3A9"/>
<path opacity="0.1" d="M168.167 213.436L301.076 136.719C302.233 136.053 303.169 136.526 303.169 137.769C303.118 138.472 302.902 139.152 302.538 139.755C302.174 140.358 301.674 140.867 301.076 141.24L168.167 217.957C167.019 218.622 166.084 218.15 166.084 216.906C166.135 216.205 166.35 215.525 166.711 214.923C167.073 214.32 167.572 213.81 168.167 213.436Z" fill="#92E3A9"/>
<path opacity="0.1" d="M168.167 222.516L260.906 168.531C262.054 167.866 262.989 168.338 262.989 169.591C262.937 170.291 262.721 170.968 262.36 171.569C261.998 172.171 261.5 172.678 260.906 173.052L168.167 227.037C167.019 227.703 166.084 227.23 166.084 225.977C166.136 225.277 166.352 224.6 166.713 223.999C167.075 223.398 167.573 222.89 168.167 222.516Z" fill="#92E3A9"/>
<path opacity="0.1" d="M168.167 240.669L301.076 163.952C302.233 163.287 303.169 163.759 303.169 165.003C303.118 165.705 302.902 166.385 302.538 166.988C302.174 167.592 301.674 168.1 301.076 168.473L168.167 245.19C167.019 245.856 166.084 245.383 166.084 244.14C166.135 243.438 166.35 242.759 166.711 242.156C167.073 241.553 167.572 241.044 168.167 240.669Z" fill="#92E3A9"/>
<path opacity="0.1" d="M168.167 249.749L301.076 173.032C302.233 172.367 303.169 172.839 303.169 174.083C303.118 174.785 302.902 175.466 302.538 176.069C302.174 176.672 301.674 177.18 301.076 177.553L168.167 254.27C167.019 254.936 166.084 254.463 166.084 253.21C166.136 252.51 166.352 251.833 166.713 251.232C167.075 250.631 167.573 250.123 168.167 249.749Z" fill="#92E3A9"/>
<path opacity="0.1" d="M168.167 258.821L301.076 182.104C302.233 181.439 303.169 181.911 303.169 183.164C303.116 183.865 302.899 184.544 302.536 185.145C302.172 185.746 301.672 186.253 301.076 186.625L168.167 263.352C167.019 264.017 166.084 263.545 166.084 262.292C166.136 261.591 166.352 260.912 166.713 260.309C167.075 259.707 167.573 259.197 168.167 258.821Z" fill="#92E3A9"/>
<path opacity="0.1" d="M168.165 267.902L217.013 239.406C218.16 238.741 219.096 239.213 219.096 240.466C219.043 241.166 218.828 241.843 218.466 242.444C218.104 243.046 217.607 243.553 217.013 243.927L168.175 272.424C167.027 273.089 166.092 272.616 166.092 271.373C166.141 270.672 166.355 269.994 166.715 269.391C167.075 268.788 167.572 268.278 168.165 267.902Z" fill="#92E3A9"/>
<path d="M345.772 215.797C352.839 192.873 359.714 177.766 352.704 173.091C346.186 174.305 343.265 177.535 341.876 186.134C340.42 195.148 337.392 207.719 335.628 214.968C334.103 221.026 331.92 226.9 329.119 232.484C328.697 233.258 328.014 233.856 327.191 234.171C325.012 235.029 323.97 236.099 322.196 237.411C320.798 238.375 319.776 238.51 319.843 238.924C319.958 239.389 320.25 239.791 320.658 240.043C321.065 240.296 321.555 240.378 322.023 240.274C323.07 240.076 324.09 239.752 325.06 239.31C324.226 241.422 322.928 243.32 321.261 244.862C317.838 247.755 318.368 250.579 323.855 250.907C325.783 251.023 330.382 249.229 334.615 242.028C336.047 239.344 337.306 236.572 338.386 233.728C341.336 226.344 344.354 220.424 345.772 215.797Z" fill="#FFA8A7"/>
<path d="M353.932 172.821C353.932 172.821 348.494 172.542 345.196 176.176C341.898 179.811 338.061 201.52 338.061 201.52C338.061 201.52 341.667 206.475 351.174 204.412L353.932 172.821Z" fill="#92E3A9"/>
<path opacity="0.3" d="M353.932 172.821C353.932 172.821 348.494 172.542 345.196 176.176C341.898 179.811 338.061 201.52 338.061 201.52C338.061 201.52 341.667 206.475 351.174 204.412L353.932 172.821Z" fill="black"/>
<path d="M379.396 326.833H372.097V339.847H379.396V326.833Z" fill="#FFA8A7"/>
<path d="M354.085 326.139L346.785 326.409L346.419 312.633L354.085 312.373V326.139Z" fill="#FFA8A7"/>
<path d="M380.429 214.159C380.429 221.418 379.358 279.838 379.358 279.838C379.522 281.93 381.402 285.786 380.997 293.807C380.448 304.7 379.705 333.332 379.705 333.332C378.453 333.977 377.07 334.327 375.661 334.357C374.253 334.387 372.856 334.096 371.577 333.505C371.577 333.505 364.673 293.836 363.371 283.029C362.224 273.61 360.286 241.875 360.286 241.875L356.332 278.768C357.175 282.739 357.48 286.805 357.239 290.857C356.892 295.85 354.549 321.869 354.549 321.869C353.287 322.613 351.872 323.059 350.412 323.175C348.952 323.29 347.484 323.071 346.121 322.535C346.121 322.535 341.965 283.357 341.879 278.768C341.782 273.543 344.309 214.072 344.309 214.072L380.429 214.159Z" fill="#37474F"/>
<path d="M372.097 336.107V335.018C371.393 335.336 369.773 341.766 366.88 344.542C364.576 346.721 361.432 349.247 360.632 351.686C359.832 354.125 365.01 355.629 367.16 355.233C369.657 354.771 373.996 352.939 375.076 351.233C376.156 349.526 376.677 347.03 377.564 345.786C378.451 344.542 380.457 343.154 380.958 341.708C381.228 340.918 380.958 339.182 380.543 337.717C380.129 336.252 379.84 334.892 379.396 335.018V335.847C378.373 336.696 377.081 337.153 375.751 337.139C374.681 337.168 372.087 336.946 372.097 336.107Z" fill="#263238"/>
<path d="M346.707 324.058C346.331 324.058 346.022 324.627 345.183 325.571C343.944 326.878 342.494 327.967 340.893 328.791C338.154 330.218 332.841 332.406 330.431 333.534C328.936 334.238 329.004 336.127 330.556 337.207C332.108 338.287 335.859 339.058 340.362 338.007C342.811 337.439 346.013 335.115 348.028 335.202C350.043 335.289 353.813 335.308 355.327 334.238C356.841 333.168 356.224 330.883 355.8 328.917C355.337 326.776 354.768 323.431 354.083 323.576V324.318C353.206 325.697 348.674 326.246 346.745 325.282L346.707 324.058Z" fill="#263238"/>
<path d="M360.286 241.883C356.487 240.643 353.015 238.567 350.123 235.81C350.123 235.81 352.052 239.666 357.914 243.194L356.67 276.144L360.286 241.883Z" fill="#263238"/>
<path d="M376.627 174.556C376.627 174.556 382.335 175.086 381.93 185.961L380.667 203.313V229.342C375.297 235.425 351.499 234.972 343.352 228.85C343.352 228.85 344.268 198.069 344.817 186.221C345.213 177.805 347.151 173.563 355.424 172.638L365.596 173.081L376.627 174.556Z" fill="#92E3A9"/>
<path opacity="0.3" d="M360.4 180.263L359.089 189.402L356.042 189.344L359.484 189.893L360.4 180.263Z" fill="black"/>
<path d="M368.019 150.051C368.078 152.993 366.967 155.839 364.93 157.963C362.892 160.087 360.095 161.315 357.152 161.378C351.145 161.378 346.545 156.298 346.275 150.061C345.803 139.003 351.145 138.733 357.152 138.733C360.093 138.797 362.889 140.024 364.926 142.146C366.963 144.267 368.075 147.11 368.019 150.051Z" fill="#263238"/>
<path d="M374.177 155.65C374.177 155.65 372.509 163.806 371.844 165.146C371.414 165.964 370.68 166.58 369.8 166.862L369.916 161.126L374.177 155.65Z" fill="#263238"/>
<path d="M372.116 143.968C372.116 143.968 373.311 143.669 374.584 145.655C375.674 147.352 375.924 151.169 374.208 155.652L371.074 156.028L372.116 143.968Z" fill="#263238"/>
<path d="M370.129 156.027C370.755 156.422 371.652 155.159 372.433 154.311C373.214 153.462 375.741 152.315 377.013 155.082C378.286 157.849 375.895 161.647 373.899 162.303C370.457 163.43 369.945 161.126 369.945 161.126L369.675 174.044C365.115 181.111 354.769 180.85 358.49 173.707V169.774C356.958 170.028 355.403 170.112 353.853 170.024C351.326 169.61 349.735 167.537 348.964 164.684C347.73 160.105 347.267 156.412 348.308 147.399C349.465 137.518 360.496 137.431 366.465 141.374C372.433 145.316 370.129 156.027 370.129 156.027Z" fill="#FFA8A7"/>
<path d="M369.733 171.153C368.672 173.324 367.148 175.235 365.269 176.754C363.671 177.934 361.818 178.72 359.859 179.048C361.475 180.143 362.799 181.616 363.716 183.338C364.864 185.845 372.896 178.933 372.819 174.026C372.819 174.026 371.565 169.1 369.83 168.791L369.733 171.153Z" fill="#263238"/>
<path d="M359.86 179.048C359.86 179.048 357.382 177.824 358.49 173.708V169.774L357.401 169.919C356.131 171.156 355.23 172.721 354.797 174.44C354.547 175.568 353.93 181.275 355.019 182.403C356.109 183.531 357.632 179.357 359.86 179.048Z" fill="#263238"/>
<path d="M365.906 145.23C366.188 145.169 366.481 145.185 366.754 145.279C367.719 145.703 367.892 148.614 368.056 149.453C368.606 152.277 369.068 157.069 370.129 157.088C370.447 157.088 371.653 155.015 372.434 154.273C373.523 153.242 372.115 143.929 372.115 143.929C372.403 143.125 372.458 142.256 372.273 141.422C372.089 140.588 371.673 139.823 371.074 139.215C369.146 136.978 366.041 136.477 363.235 136.323C359.928 136.14 356.572 136.39 353.313 135.667C352.289 135.383 351.249 135.161 350.198 135.002C350.154 134.983 350.107 134.974 350.059 134.974C350.011 134.974 349.963 134.983 349.919 135.002C349.813 135.089 349.832 135.253 349.861 135.388C350.065 136.364 350.409 137.306 350.883 138.183C348.943 138.03 347.027 137.652 345.175 137.056C345.068 137.022 344.954 137.022 344.847 137.056C344.625 137.123 344.587 137.412 344.606 137.644C344.731 139.977 345.84 143.505 347.74 144.874C349.423 145.976 351.378 146.593 353.39 146.657C358.5 146.85 361.644 145.77 365.906 145.23Z" fill="#263238"/>
<path d="M372.114 144.46L375.922 142.329C375.806 142.067 375.636 141.832 375.424 141.639C375.211 141.446 374.961 141.299 374.689 141.208C374.417 141.118 374.129 141.085 373.843 141.112C373.557 141.139 373.28 141.225 373.03 141.365C372.523 141.678 372.149 142.166 371.98 142.738C371.811 143.309 371.859 143.922 372.114 144.46Z" fill="#263238"/>
<path d="M358.5 169.775C358.5 169.775 364.141 168.589 366.117 167.5C367.288 166.856 368.239 165.875 368.846 164.685C368.552 165.881 368.025 167.008 367.294 168.001C365.857 169.929 358.5 171.336 358.5 171.336V169.775Z" fill="#F28F8F"/>
<path d="M359.857 154.564C359.878 154.781 359.961 154.988 360.097 155.159C360.233 155.33 360.415 155.458 360.622 155.528C360.829 155.597 361.052 155.605 361.264 155.55C361.475 155.495 361.666 155.38 361.813 155.219C361.961 155.058 362.058 154.857 362.094 154.642C362.129 154.426 362.102 154.205 362.014 154.005C361.926 153.805 361.782 153.634 361.6 153.514C361.417 153.394 361.204 153.33 360.986 153.329C360.83 153.334 360.677 153.37 360.535 153.435C360.393 153.5 360.266 153.593 360.161 153.708C360.056 153.823 359.975 153.958 359.923 154.105C359.871 154.252 359.848 154.408 359.857 154.564Z" fill="#263238"/>
<path d="M361.641 149.684L364.061 151.073C364.236 150.739 364.282 150.352 364.192 149.986C364.101 149.62 363.88 149.3 363.569 149.086C363.407 148.983 363.225 148.916 363.034 148.89C362.843 148.864 362.65 148.88 362.466 148.937C362.282 148.994 362.113 149.09 361.971 149.22C361.828 149.349 361.716 149.507 361.641 149.684Z" fill="#263238"/>
<path d="M359.013 162.698L356.429 163.663C356.48 163.841 356.567 164.006 356.684 164.149C356.802 164.291 356.947 164.408 357.112 164.492C357.276 164.576 357.456 164.626 357.641 164.638C357.825 164.649 358.01 164.623 358.184 164.56C358.527 164.407 358.802 164.132 358.955 163.788C359.108 163.445 359.129 163.056 359.013 162.698Z" fill="#F28F8F"/>
<path d="M349.473 150.715L351.681 148.941C351.581 148.785 351.45 148.653 351.295 148.552C351.141 148.451 350.966 148.384 350.784 148.356C350.602 148.328 350.415 148.339 350.237 148.388C350.06 148.437 349.894 148.524 349.752 148.642C349.458 148.892 349.266 149.242 349.214 149.625C349.163 150.008 349.255 150.396 349.473 150.715Z" fill="#263238"/>
<path d="M350.447 154.226C350.441 154.38 350.465 154.533 350.518 154.678C350.572 154.823 350.653 154.955 350.758 155.068C350.863 155.181 350.989 155.272 351.129 155.336C351.27 155.4 351.421 155.436 351.575 155.441C351.9 155.441 352.212 155.312 352.441 155.082C352.671 154.852 352.8 154.541 352.8 154.216C352.8 153.891 352.671 153.58 352.441 153.35C352.212 153.12 351.9 152.991 351.575 152.991C351.263 153.009 350.971 153.148 350.76 153.378C350.549 153.609 350.437 153.913 350.447 154.226Z" fill="#263238"/>
<path d="M356.504 153.279L356.369 160.423L352.31 159.488L356.504 153.279Z" fill="#F28F8F"/>
<path d="M387.738 160.462C389.368 158.303 392.665 163.094 394.189 166.401C395.712 169.707 395.741 171.577 394.488 172.888C393.234 174.2 390.872 173.409 388.509 170.276C386.147 167.143 386.803 162.053 387.738 160.462Z" fill="#92E3A9"/>
<path opacity="0.5" d="M387.738 160.462C389.368 158.303 392.665 163.094 394.189 166.401C395.712 169.707 395.741 171.577 394.488 172.888C393.234 174.2 390.872 173.409 388.509 170.276C386.147 167.143 386.803 162.053 387.738 160.462Z" fill="black"/>
<path d="M399.25 161.098C393.464 174.594 385.413 182.2 381.797 190.886C377.063 190.568 373.37 179.125 376.899 174.238C376.899 174.238 390.764 159.228 392.018 153.328C393.136 148.093 394.631 139.456 394.505 135.011C394.456 134.288 394.152 133.605 393.647 133.083C392.191 131.512 392.191 130.259 391.256 128.533C390.533 127.184 389.733 126.682 389.964 126.374C390.264 126.053 390.673 125.857 391.111 125.825C391.549 125.793 391.983 125.927 392.326 126.2C392.995 126.689 393.595 127.267 394.11 127.916C394.288 126.183 394.006 124.434 393.291 122.845C391.68 119.201 392.076 117.35 396.984 118.642C400.069 119.462 401.998 122.026 402.46 129.42C402.675 132.497 402.694 135.585 402.518 138.665C401.978 144.362 401.641 150.301 400.937 155.053C400.633 157.132 400.066 159.163 399.25 161.098Z" fill="#FFA8A7"/>
<path d="M375.449 174.402L387.676 160.424C387.676 160.424 386.22 163.827 389.402 168.792C392.584 173.756 394.474 172.889 394.474 172.889C394.474 172.889 387.252 183.425 385.323 186.954C383.395 190.482 381.379 193.461 381.379 193.461C381.166 193.873 380.835 194.211 380.427 194.432C380.02 194.654 379.556 194.749 379.094 194.705C377.301 194.705 372.547 186.742 375.449 174.402Z" fill="#92E3A9"/>
<path opacity="0.3" d="M375.449 174.402L387.676 160.424C387.676 160.424 386.22 163.827 389.402 168.792C392.584 173.756 394.474 172.889 394.474 172.889C394.474 172.889 387.252 183.425 385.323 186.954C383.395 190.482 381.379 193.461 381.379 193.461C381.166 193.873 380.835 194.211 380.427 194.432C380.02 194.654 379.556 194.749 379.094 194.705C377.301 194.705 372.547 186.742 375.449 174.402Z" fill="black"/>
<path d="M276.232 205.818L281.989 213.482L275.798 220.568L267.824 211.246L276.232 205.818Z" fill="#F28F8F"/>
<path d="M257.384 188.389C262.407 188.62 264.799 189.353 267.431 192.495C270.063 195.638 283.216 214.639 283.216 214.639C283.216 214.639 280.892 221.156 275.801 220.597L266.554 211.063L257.384 188.389Z" fill="#455A64"/>
<path d="M232.738 347.568C232.381 349.567 232.187 351.592 232.16 353.622C232.092 357.286 231.417 358.597 231.33 361.605C231.224 365.046 231.822 366.338 233.259 368.266C234.695 370.194 238.321 371.958 239.873 368.69C241.426 365.422 241.223 363.282 240.722 359.898C240.22 356.514 240.143 354.48 239.854 351.82C239.584 349.467 239.276 347.684 239.276 347.684L232.738 347.568Z" fill="#263238"/>
<path d="M243.161 318.754L231.06 318.532C231.243 326.611 232.525 340.049 232.737 347.617C232.737 349.044 232.737 358.694 233.239 361.634C234.049 366.039 239.275 365.442 239.554 362.81C239.834 360.178 239.217 348.899 239.236 347.733C239.188 342.912 241.464 330.207 242.659 321.482C242.717 321.01 243.103 319.12 243.161 318.754Z" fill="#FFBDA7"/>
<path d="M260.935 341.292C260.935 341.292 260.318 341.292 260.212 341.832C260.106 342.372 260.067 343.394 259.817 344.396C259.405 345.968 259.262 347.597 259.392 349.216C259.595 350.344 262.169 352.022 263.934 352.32C265.698 352.619 268.176 354.355 269.555 355.656C271.77 357.483 274.509 358.557 277.375 358.722C280.268 358.722 282.36 357.758 283.325 356.177C284.289 354.596 282.447 354.412 279.092 352.234L276.478 350.537C271.166 347.066 269.218 345.206 267.714 341.735L260.935 341.292Z" fill="#263238"/>
<path d="M267.748 339.403C267.662 336.896 268.934 318.483 268.934 318.483L258.53 319.66C260.999 334.332 261.192 339.335 260.912 341.475C260.86 341.673 260.837 341.878 260.844 342.083C260.844 344.975 264.075 346.479 266.63 348.378C267.594 349.13 270.169 351.443 273.158 352.456C275.086 353.121 278.663 353.42 279.117 352.195C276.07 349.862 271.904 346.816 269.474 344.146C268.279 342.854 267.835 341.89 267.748 339.403Z" fill="#FFBDA7"/>
<path d="M233.868 235.23C228.198 247.628 234.08 291.279 234.08 291.279C233.906 293.294 231.602 297.246 230.753 306.105C229.741 316.555 232.614 344.56 232.614 344.56C233.628 345.175 234.785 345.512 235.97 345.537C237.154 345.562 238.325 345.275 239.364 344.705C239.364 344.705 246.682 303.56 248.042 293.168C249.189 284.087 251.388 264.132 251.388 264.132L257.636 293.11C256.72 296.037 256.055 299.036 255.65 302.076C255.061 308.188 261.02 338.892 261.02 338.892C262.094 339.335 263.248 339.552 264.409 339.529C265.571 339.506 266.715 339.243 267.77 338.757C267.77 338.757 270.402 299.097 270.962 291.732C271.926 279.354 268.599 240.745 266.333 233.418L233.868 235.23Z" fill="#92E3A9"/>
<path opacity="0.5" d="M233.868 235.23C228.198 247.628 234.08 291.279 234.08 291.279C233.906 293.294 231.602 297.246 230.753 306.105C229.741 316.555 232.614 344.56 232.614 344.56C233.628 345.175 234.785 345.512 235.97 345.537C237.154 345.562 238.325 345.275 239.364 344.705C239.364 344.705 246.682 303.56 248.042 293.168C249.189 284.087 251.388 264.132 251.388 264.132L257.636 293.11C256.72 296.037 256.055 299.036 255.65 302.076C255.061 308.188 261.02 338.892 261.02 338.892C262.094 339.335 263.248 339.552 264.409 339.529C265.571 339.506 266.715 339.243 267.77 338.757C267.77 338.757 270.402 299.097 270.962 291.732C271.926 279.354 268.599 240.745 266.333 233.418L233.868 235.23Z" fill="black"/>
<path opacity="0.2" d="M251.367 264.133L253.209 252.622C253.209 252.622 261 251.012 264.539 247.687C262.098 250.548 258.905 252.668 255.321 253.808L253.247 262.677L256.873 289.506L251.367 264.133Z" fill="black"/>
<path d="M236.775 196.737L244.489 198.742V182.421C240.227 181.313 236.775 183.771 236.775 187.916V196.737Z" fill="#92E3A9"/>
<path opacity="0.6" d="M236.775 196.737L244.489 198.742V182.421C240.227 181.313 236.775 183.771 236.775 187.916V196.737Z" fill="black"/>
<path d="M252.052 184.754L249.285 184.697C240.838 184.494 234.147 177.216 234.33 168.424C234.33 158.841 241.754 151.071 250.953 150.985C260.152 150.936 267.654 158.697 267.702 168.241V169.205C267.47 178.006 260.48 184.938 252.052 184.754Z" fill="#92E3A9"/>
<path opacity="0.6" d="M252.052 184.754L249.285 184.697C240.838 184.494 234.147 177.216 234.33 168.424C234.33 158.841 241.754 151.071 250.953 150.985C260.152 150.936 267.654 158.697 267.702 168.241V169.205C267.47 178.006 260.48 184.938 252.052 184.754Z" fill="black"/>
<path d="M239.122 154.986C239.054 154.706 238.93 154.443 238.757 154.214C238.583 153.984 238.365 153.793 238.114 153.652C237.863 153.511 237.586 153.423 237.3 153.394C237.014 153.364 236.725 153.394 236.451 153.482L237.193 156.374C237.04 156.179 236.85 156.015 236.634 155.892C236.384 155.751 236.107 155.663 235.821 155.635C235.535 155.608 235.246 155.64 234.973 155.731C234.701 155.822 234.45 155.969 234.238 156.163C234.026 156.357 233.856 156.593 233.741 156.856L237.502 159.064C237.697 158.687 237.784 158.263 237.752 157.839C238.291 157.614 238.727 157.199 238.98 156.673C239.232 156.147 239.283 155.547 239.122 154.986Z" fill="#92E3A9"/>
<path opacity="0.6" d="M239.122 154.986C239.054 154.706 238.93 154.443 238.757 154.214C238.583 153.984 238.365 153.793 238.114 153.652C237.863 153.511 237.586 153.423 237.3 153.394C237.014 153.364 236.725 153.394 236.451 153.482L237.193 156.374C237.04 156.179 236.85 156.015 236.634 155.892C236.384 155.751 236.107 155.663 235.821 155.635C235.535 155.608 235.246 155.64 234.973 155.731C234.701 155.822 234.45 155.969 234.238 156.163C234.026 156.357 233.856 156.593 233.741 156.856L237.502 159.064C237.697 158.687 237.784 158.263 237.752 157.839C238.291 157.614 238.727 157.199 238.98 156.673C239.232 156.147 239.283 155.547 239.122 154.986Z" fill="black"/>
<path d="M243.686 189.054C241.089 189.406 238.514 189.902 235.972 190.538C238.961 197.865 234.275 209.183 234.275 209.183L238.701 222.804C235.644 229.061 233.127 232.165 232.086 237.265C234.901 242.76 254.774 248.004 267.714 237.988C267.714 237.988 267.3 224.077 265.651 215.969C269.884 207.708 269.199 205.278 268.331 202.396C266.316 195.696 262.247 193.122 257.397 188.398L254.504 188.09L243.686 189.054Z" fill="#37474F"/>
<path d="M239.19 228.261C241.591 225.802 246.682 225.099 246.682 225.099L242.006 222.438L236.78 209.819C238.973 205.523 240.057 200.748 239.933 195.927L236.924 195.204C237.291 201.885 234.263 209.192 234.263 209.192L238.689 222.814C235.632 229.07 233.116 232.174 232.074 237.274C234.003 241.034 243.925 244.678 254.145 243.386C240.453 242.461 236.886 230.642 239.19 228.261Z" fill="#263238"/>
<path d="M253.025 243.492L253.585 243.435C253.397 243.438 253.21 243.457 253.025 243.492Z" fill="#E6E6E6"/>
<path d="M261.494 159.525C263.152 161.049 265.225 164.346 265.061 173.986C264.917 182.18 262.381 184.214 261.098 184.802C259.816 185.39 257.357 185.053 254.956 184.648V188.041C254.956 188.041 258.119 191.55 257.926 193.825C257.733 196.1 253.413 197.016 250.299 194.789C248.105 193.128 246.157 191.165 244.514 188.957V178.652C244.514 178.652 243.106 180.088 240.657 177.929C238.728 176.136 237.995 173.108 239.528 171.47C239.922 171.082 240.405 170.796 240.935 170.638C241.464 170.481 242.025 170.455 242.567 170.565C243.109 170.674 243.615 170.915 244.042 171.266C244.469 171.617 244.803 172.068 245.015 172.578C248.69 172.194 252.268 171.163 255.583 169.532C257.447 168.635 259.004 167.206 260.056 165.425C261.108 163.644 261.609 161.591 261.494 159.525Z" fill="#FFBDA7"/>
<path d="M254.942 172.146C254.942 172.333 254.886 172.516 254.783 172.673C254.681 172.829 254.534 172.953 254.363 173.027C254.191 173.102 254.001 173.125 253.816 173.094C253.632 173.062 253.46 172.978 253.323 172.851C253.185 172.723 253.088 172.559 253.043 172.377C252.997 172.195 253.005 172.004 253.067 171.827C253.128 171.65 253.24 171.494 253.388 171.38C253.536 171.265 253.714 171.196 253.901 171.181C254.165 171.175 254.422 171.273 254.616 171.453C254.81 171.633 254.927 171.881 254.942 172.146Z" fill="#263238"/>
<path d="M255.32 178.97L257.895 179.809C257.854 179.985 257.777 180.151 257.669 180.296C257.562 180.441 257.426 180.562 257.269 180.653C257.113 180.743 256.94 180.801 256.76 180.822C256.581 180.842 256.399 180.826 256.226 180.774C255.876 180.643 255.588 180.384 255.42 180.05C255.252 179.715 255.216 179.329 255.32 178.97Z" fill="#F79776"/>
<path d="M264.26 168.454L261.917 167.654C261.954 167.497 262.023 167.35 262.121 167.222C262.218 167.094 262.341 166.988 262.482 166.911C262.623 166.834 262.778 166.787 262.939 166.773C263.099 166.76 263.26 166.781 263.412 166.834C263.728 166.952 263.989 167.182 264.146 167.482C264.302 167.781 264.343 168.127 264.26 168.454Z" fill="#263238"/>
<path d="M245.028 171.663V175.125C245.25 175.134 245.472 175.098 245.68 175.018C245.887 174.939 246.076 174.818 246.235 174.662C246.394 174.507 246.519 174.321 246.604 174.115C246.688 173.909 246.73 173.689 246.725 173.466C246.729 173.005 246.554 172.561 246.238 172.225C245.922 171.889 245.489 171.688 245.028 171.663Z" fill="#92E3A9"/>
<path opacity="0.6" d="M245.028 171.663V175.125C245.25 175.134 245.472 175.098 245.68 175.018C245.887 174.939 246.076 174.818 246.235 174.662C246.394 174.507 246.519 174.321 246.604 174.115C246.688 173.909 246.73 173.689 246.725 173.466C246.729 173.005 246.554 172.561 246.238 172.225C245.922 171.889 245.489 171.688 245.028 171.663Z" fill="black"/>
<path d="M263.413 171.807C263.434 172.085 263.345 172.359 263.164 172.571C262.983 172.783 262.726 172.914 262.449 172.936C262.236 172.957 262.023 172.913 261.835 172.812C261.647 172.71 261.494 172.555 261.396 172.365C261.297 172.176 261.257 171.961 261.281 171.749C261.305 171.537 261.392 171.337 261.531 171.175C261.67 171.013 261.854 170.895 262.06 170.839C262.265 170.782 262.483 170.788 262.686 170.856C262.888 170.924 263.065 171.051 263.195 171.22C263.325 171.39 263.401 171.594 263.413 171.807Z" fill="#263238"/>
<path d="M257.916 170.41L257.896 177.12L261.021 176.088L257.916 170.41Z" fill="#F79776"/>
<path d="M254.957 184.686C252.421 184.358 247.243 182.826 246.385 180.686C246.711 181.759 247.353 182.71 248.226 183.414C249.789 184.792 254.976 186.306 254.976 186.306L254.957 184.686Z" fill="#F79776"/>
<path d="M224.1 223.316C224.1 223.316 230.291 232.108 231.351 233.255C232.412 234.403 233.145 234.017 234.292 233.506C235.692 232.941 237.128 232.474 238.593 232.108C240.521 231.636 240.888 233.381 239.017 234.624C237.667 235.531 236.124 235.916 236.761 236.659C238.08 237.853 239.61 238.791 241.273 239.425C245.844 241.228 245.487 242.134 244.648 243.609C243.915 244.901 241.755 247.677 233.617 244.4C230.242 243.04 225.498 239.194 223.261 236.687C220.031 233.111 214.988 226.7 214.988 226.7L224.1 223.316Z" fill="#FFBDA7"/>
<path d="M237.155 190.22C234.918 190.364 230.705 190.904 225.421 199.677C220.783 207.389 213.599 217.81 212.269 221.541C211.729 223.054 213.831 226.187 216.54 229.398C220.233 229.234 223.598 226.679 225.344 224.635C224.886 223.548 224.317 222.511 223.647 221.541L234.485 209.182C234.485 209.182 238.602 205.413 239.46 200.506C240.386 195.184 240.096 191.001 237.155 190.22Z" fill="#455A64"/>
<path d="M297.833 206.859L271.114 213.897L263.757 244.119L289.164 236.744L297.833 206.859Z" fill="#92E3A9"/>
<path opacity="0.25" d="M297.833 206.859L271.114 213.897L263.757 244.119L289.164 236.744L297.833 206.859Z" fill="black"/>
<g opacity="0.1">
<path d="M285.765 228.262C286.212 229.195 286.924 229.976 287.812 230.508C288.7 231.04 289.725 231.298 290.759 231.251L290.952 230.586L285.765 228.262Z" fill="black"/>
</g>
<g opacity="0.1">
<path d="M289.785 211.66L290.007 210.638C290.132 210.079 288.561 210.05 286.507 210.638L282.563 211.602C280.509 212.142 278.706 213.029 278.619 213.588L278.407 214.61L289.785 211.66Z" fill="black"/>
</g>
<path d="M291.839 207.832C291.916 207.476 291.279 207.379 290.421 207.62L288.859 208.054C288.859 208.054 289.322 205.846 285.87 206.618C284.943 206.754 284.068 207.127 283.328 207.702C282.588 208.276 282.009 209.032 281.647 209.895L279.988 210.368C279.024 210.628 278.233 211.12 278.127 211.467L277.925 212.103L291.694 208.478L291.839 207.832Z" fill="#37474F"/>
<path d="M289.936 208.913C288.683 209.222 288.153 209.386 288.008 210.253C287.863 211.121 287.699 211.969 287.699 211.969L281.615 213.579C281.615 213.579 281.914 212.326 282.01 211.844C282.107 211.362 281.895 211.054 280.921 211.314L280.844 210.928L290.39 208.489L289.936 208.913Z" fill="#37474F"/>
<path d="M290.15 211.747L290.372 210.725C290.497 210.166 288.926 210.137 286.872 210.725L282.928 211.689C280.874 212.229 279.071 213.116 278.985 213.675L278.772 214.697L290.15 211.747Z" fill="#37474F"/>
<path d="M295.021 216.567C295.021 216.567 294.057 219.989 293.797 220.799C293.536 221.609 290.566 223.084 288.609 223.623C286.652 224.163 284.492 224.8 285.427 227.547C286.276 230.082 289.515 230.661 291.155 230.584C292.794 230.507 295.06 228.945 295.976 226.409C297.104 223.17 296.497 219.719 296.94 217.83C297.384 215.94 296.005 215.439 295.021 216.567Z" fill="#FFBDA7"/>
<path d="M193.801 217.37C190.137 213.678 188.826 215.114 188.363 219.163C188.192 220.862 187.779 222.527 187.138 224.109C187.024 223.268 186.794 222.447 186.454 221.67C186.293 221.249 185.979 220.905 185.574 220.707C185.17 220.508 184.706 220.47 184.275 220.6C183.918 220.744 184.361 221.564 184.275 223.174C184.207 225.179 183.551 226.287 184.024 228.418C184.188 229.219 184.062 230.053 183.667 230.77C181.739 234.433 175.384 241.201 170.93 246.079L154.007 230.799C148.222 225.593 146.351 223.251 140.769 223.627C142.515 224.289 144.124 225.27 145.513 226.519C148.106 228.707 147.489 241.23 147.489 241.23C147.489 241.23 166.697 254.996 168.702 256.307C168.992 256.5 169.29 256.673 169.58 256.837C170.528 257.331 171.615 257.491 172.665 257.29C173.716 257.088 174.667 256.538 175.365 255.729C179.463 251.044 185.441 241.818 188.864 237.027C190.429 234.708 191.825 232.278 193.039 229.758C196.472 222.942 196.096 219.684 193.801 217.37Z" fill="#914F4E"/>
<path d="M141.366 223.318C142.715 223.072 144.101 223.117 145.431 223.45C146.761 223.782 148.005 224.395 149.08 225.246C152.378 227.752 166.436 240.67 166.436 240.67C166.436 240.67 166.822 247.505 159.687 251.573L142.456 239.427L141.366 223.318Z" fill="#92E3A9"/>
<path opacity="0.3" d="M141.366 223.318C142.715 223.072 144.101 223.117 145.431 223.45C146.761 223.782 148.005 224.395 149.08 225.246C152.378 227.752 166.436 240.67 166.436 240.67C166.436 240.67 166.822 247.505 159.687 251.573L142.456 239.427L141.366 223.318Z" fill="black"/>
<path d="M124.734 377.522H117.435V390.537H124.734V377.522Z" fill="#914F4E"/>
<path d="M142.746 376.828L150.045 377.088L150.412 363.312L142.746 363.052V376.828Z" fill="#914F4E"/>
<path d="M116.405 264.839C116.405 272.098 117.475 330.527 117.475 330.527C117.312 332.61 115.431 336.466 115.836 344.486C116.386 355.389 117.128 384.011 117.128 384.011C118.382 384.653 119.765 385.002 121.174 385.03C122.582 385.058 123.978 384.766 125.257 384.175C125.257 384.175 132.161 344.506 133.472 333.709C134.61 324.28 136.548 292.545 136.548 292.545L140.501 329.448C139.659 333.415 139.354 337.478 139.595 341.527C139.942 346.52 142.285 372.539 142.285 372.539C143.547 373.286 144.964 373.735 146.426 373.852C147.888 373.969 149.357 373.751 150.722 373.214C150.722 373.214 154.868 334.027 154.955 329.448C155.052 324.223 152.525 264.742 152.525 264.742L116.405 264.839Z" fill="#37474F"/>
<path d="M124.73 386.778V385.698C125.434 386.016 127.054 392.446 129.946 395.213C132.251 397.401 135.394 399.927 136.195 402.366C136.995 404.805 131.817 406.299 129.667 405.904C127.17 405.441 122.83 403.609 121.751 401.913C120.671 400.216 120.15 397.7 119.263 396.456C118.376 395.213 116.37 393.825 115.869 392.379C115.725 391.034 115.867 389.674 116.283 388.388C116.621 387.048 116.987 385.573 117.431 385.698V386.527C118.461 387.37 119.754 387.824 121.085 387.809C122.146 387.848 124.74 387.626 124.73 386.778Z" fill="#263238"/>
<path d="M150.121 374.746C150.497 374.746 150.805 375.315 151.644 376.26C152.884 377.563 154.334 378.649 155.935 379.47C158.673 380.897 163.986 383.095 166.397 384.223C167.901 384.926 167.824 386.816 166.272 387.886C164.719 388.956 160.968 389.737 156.465 388.696C154.016 388.117 150.815 385.804 148.752 385.89C146.688 385.977 142.966 385.987 141.452 384.926C139.938 383.866 140.556 381.562 140.98 379.605C141.443 377.455 142.021 374.11 142.696 374.255V374.997C143.574 376.385 148.105 376.925 150.034 375.961L150.121 374.746Z" fill="#263238"/>
<path d="M136.546 292.564C140.345 291.323 143.817 289.248 146.709 286.49C146.709 286.49 144.78 290.346 138.918 293.875L140.162 326.835L136.546 292.564Z" fill="#263238"/>
<path d="M120.203 225.245C120.203 225.245 114.495 225.765 114.899 236.649L116.163 254.001L116.047 280.03C121.408 286.113 145.215 285.67 153.363 279.538C153.363 279.538 152.524 248.757 151.974 236.909C151.579 228.493 149.641 224.252 141.368 223.326L131.185 223.77L120.203 225.245Z" fill="#92E3A9"/>
<path opacity="0.3" d="M136.431 230.952L137.742 240.091L140.799 240.033L137.347 240.573L136.431 230.952Z" fill="black"/>
<path d="M102.084 262.611C105.044 238.8 111.861 226.942 120.163 225.573L119.575 240.805C116.118 248.928 113.47 257.372 111.669 266.014C110.579 271.875 109.316 282.065 109.644 287.068C109.709 287.95 110.085 288.78 110.704 289.411C112.344 291.079 112.835 292.525 113.934 294.405C114.802 295.88 115.689 296.4 115.458 296.757C115.16 297.132 114.727 297.376 114.252 297.437C113.776 297.498 113.296 297.372 112.912 297.085C112.042 296.468 111.246 295.753 110.54 294.954C110.435 297.224 110.844 299.488 111.736 301.577C113.665 305.587 113.356 307.698 107.976 306.513C104.601 305.78 102.19 302.223 101.226 293.923C100.972 290.825 100.918 287.715 101.062 284.61C101.428 276.676 101.496 267.373 102.084 262.611Z" fill="#914F4E"/>
<path d="M120.638 225.178C116.328 225.178 112.394 225.92 109.26 231.926C106.261 237.71 103.957 249.944 102.79 253.944C102.79 253.944 109.086 257.665 114.881 257.569L118.96 243.417C118.96 243.417 121.718 236.814 120.638 225.178Z" fill="#92E3A9"/>
<path opacity="0.3" d="M120.638 225.178C116.328 225.178 112.394 225.92 109.26 231.926C106.261 237.71 103.957 249.944 102.79 253.944C102.79 253.944 109.086 257.665 114.881 257.569L118.96 243.417C118.96 243.417 121.718 236.814 120.638 225.178Z" fill="black"/>
<path d="M129.533 200.673C129.62 202.803 130.332 204.861 131.579 206.59C132.826 208.319 134.554 209.644 136.548 210.399C138.542 211.154 140.714 211.306 142.794 210.837C144.874 210.368 146.77 209.298 148.247 207.76C149.724 206.222 150.716 204.284 151.1 202.187C151.483 200.09 151.242 197.927 150.406 195.966C149.57 194.005 148.176 192.332 146.397 191.157C144.618 189.982 142.533 189.355 140.4 189.355C137.459 189.419 134.663 190.646 132.626 192.768C130.589 194.889 129.476 197.732 129.533 200.673Z" fill="#263238"/>
<path d="M122.622 206.331C122.622 206.331 124.29 214.487 124.956 215.827C125.389 216.647 126.126 217.266 127.009 217.552L126.884 211.768L122.622 206.331Z" fill="#263238"/>
<path d="M124.713 194.647C124.713 194.647 123.479 194.397 122.245 196.325C121.155 198.021 120.914 201.839 122.621 206.322L125.755 206.698L124.713 194.647Z" fill="#263238"/>
<path d="M126.699 206.707C126.072 207.103 125.175 205.84 124.394 205.001C123.613 204.162 121.087 202.996 119.824 205.772C118.561 208.549 120.933 212.337 122.929 212.983C126.371 214.111 126.882 211.807 126.882 211.807L127.152 224.735C131.713 231.791 142.059 231.541 138.337 224.388V220.425C139.869 220.68 141.424 220.764 142.975 220.676C145.501 220.271 147.092 218.189 147.864 215.335C149.098 210.756 149.561 207.064 148.519 198.06C147.372 188.189 136.351 188.082 130.392 191.987C124.433 195.891 126.699 206.707 126.699 206.707Z" fill="#914F4E"/>
<path d="M127.097 221.834C128.158 224.004 129.682 225.916 131.561 227.435C133.16 228.613 135.013 229.402 136.971 229.739C135.357 230.831 134.033 232.3 133.114 234.019C131.976 236.535 123.934 229.623 124.011 224.716C124.011 224.716 125.274 219.79 127 219.472L127.097 221.834Z" fill="#263238"/>
<path d="M136.979 229.738C136.979 229.738 139.458 228.504 138.349 224.388V220.426L139.438 220.57C140.708 221.807 141.609 223.373 142.042 225.092C142.292 226.22 142.91 231.927 141.82 233.055C140.73 234.182 139.197 230.066 136.979 229.738Z" fill="#263238"/>
<path d="M126.701 207.816C126.382 207.816 125.177 205.743 124.396 205.001C123.306 203.97 124.714 194.648 124.714 194.648C124.43 193.843 124.377 192.975 124.561 192.142C124.745 191.309 125.159 190.544 125.756 189.933C127.25 188.227 129.738 188.005 133.98 187.35C135.674 187.142 137.355 186.836 139.014 186.434C140.765 185.779 142.451 184.959 144.047 183.985C144.549 183.66 145.151 183.523 145.744 183.6C146.018 183.692 146.263 183.855 146.454 184.071C146.645 184.288 146.776 184.551 146.834 184.834C146.93 185.398 146.93 185.975 146.834 186.54C147.37 186.041 148.082 185.775 148.814 185.801C149.546 185.826 150.238 186.14 150.739 186.675C151.212 187.239 151.521 187.923 151.63 188.651C151.738 189.379 151.644 190.123 151.356 190.801C150.74 192.15 149.732 193.282 148.463 194.05C143.131 197.655 136.835 196.653 130.856 195.978C130.574 195.915 130.279 195.935 130.008 196.036C129.044 196.46 128.87 199.362 128.706 200.2C128.224 202.996 127.761 207.797 126.701 207.816Z" fill="#263238"/>
<path d="M124.713 195.14L120.914 193.009C121.029 192.746 121.198 192.509 121.411 192.316C121.623 192.122 121.873 191.975 122.146 191.884C122.419 191.793 122.707 191.76 122.993 191.788C123.28 191.816 123.557 191.903 123.807 192.045C124.312 192.359 124.683 192.848 124.851 193.419C125.018 193.99 124.969 194.603 124.713 195.14Z" fill="#263238"/>
<path d="M138.331 220.425C138.331 220.425 132.69 219.239 130.713 218.15C129.54 217.509 128.589 216.527 127.984 215.335C128.278 216.532 128.806 217.659 129.537 218.651C130.973 220.579 138.331 221.996 138.331 221.996V220.425Z" fill="#783736"/>
<path d="M136.286 204.905C136.293 205.059 136.269 205.214 136.215 205.359C136.162 205.504 136.081 205.637 135.976 205.751C135.871 205.865 135.745 205.957 135.605 206.022C135.464 206.087 135.313 206.123 135.158 206.13C134.846 206.112 134.553 205.973 134.342 205.742C134.132 205.512 134.019 205.208 134.03 204.895C134.03 204.596 134.149 204.309 134.36 204.097C134.572 203.885 134.859 203.767 135.158 203.767C135.457 203.767 135.744 203.885 135.956 204.097C136.167 204.309 136.286 204.596 136.286 204.895V204.905Z" fill="#263238"/>
<path d="M134.347 200.007L131.927 201.396C131.753 201.052 131.714 200.656 131.817 200.284C131.921 199.913 132.16 199.594 132.486 199.39C132.647 199.3 132.825 199.245 133.009 199.228C133.192 199.21 133.378 199.231 133.553 199.289C133.727 199.347 133.888 199.441 134.025 199.565C134.162 199.688 134.272 199.839 134.347 200.007Z" fill="#263238"/>
<path d="M137.819 213.379L140.403 214.392C140.352 214.57 140.265 214.735 140.147 214.877C140.03 215.019 139.884 215.136 139.719 215.219C139.554 215.303 139.374 215.351 139.19 215.361C139.006 215.372 138.821 215.344 138.648 215.28C138.296 215.126 138.014 214.845 137.861 214.492C137.707 214.14 137.692 213.742 137.819 213.379Z" fill="#783736"/>
<path d="M147.585 201.358L145.039 200.124C145.101 199.951 145.2 199.794 145.327 199.662C145.454 199.53 145.608 199.427 145.779 199.358C145.949 199.29 146.132 199.258 146.315 199.266C146.498 199.273 146.678 199.319 146.842 199.401C147.186 199.577 147.453 199.875 147.59 200.237C147.727 200.598 147.725 200.998 147.585 201.358Z" fill="#263238"/>
<path d="M145.915 204.905C145.93 205.063 145.911 205.222 145.861 205.372C145.811 205.522 145.73 205.66 145.623 205.777C145.516 205.894 145.387 205.987 145.242 206.051C145.097 206.115 144.941 206.148 144.782 206.148C144.624 206.148 144.468 206.115 144.323 206.051C144.178 205.987 144.048 205.894 143.942 205.777C143.835 205.66 143.754 205.522 143.704 205.372C143.653 205.222 143.635 205.063 143.649 204.905C143.643 204.751 143.667 204.598 143.72 204.453C143.774 204.308 143.855 204.176 143.96 204.063C144.065 203.95 144.191 203.859 144.332 203.795C144.472 203.731 144.623 203.695 144.777 203.69C145.089 203.703 145.382 203.837 145.595 204.065C145.808 204.292 145.923 204.594 145.915 204.905Z" fill="#263238"/>
<path d="M139.504 204.027L139.629 211.171L143.689 210.245L139.504 204.027Z" fill="#783736"/>
<path d="M134.54 201.954C133.791 201.954 133.072 202.252 132.543 202.782C132.013 203.311 131.715 204.03 131.715 204.779C131.715 205.528 132.013 206.247 132.543 206.776C133.072 207.306 133.791 207.604 134.54 207.604H135.051C135.801 207.604 136.519 207.306 137.049 206.776C137.579 206.247 137.877 205.528 137.877 204.779C137.877 204.03 137.579 203.311 137.049 202.782C136.519 202.252 135.801 201.954 135.051 201.954H134.54ZM131.194 204.779C131.187 203.886 131.534 203.026 132.159 202.388C132.784 201.75 133.637 201.386 134.531 201.376H135.051C135.87 201.483 136.622 201.885 137.167 202.506C137.712 203.127 138.012 203.924 138.012 204.75C138.012 205.576 137.712 206.374 137.167 206.994C136.622 207.615 135.87 208.017 135.051 208.124H134.54C133.655 208.119 132.806 207.765 132.18 207.139C131.554 206.513 131.2 205.665 131.194 204.779Z" fill="#263238"/>
<path d="M144.694 201.954C143.945 201.954 143.226 202.252 142.696 202.782C142.166 203.311 141.869 204.03 141.869 204.779C141.869 205.528 142.166 206.247 142.696 206.776C143.226 207.306 143.945 207.604 144.694 207.604H145.205C145.954 207.604 146.673 207.306 147.203 206.776C147.732 206.247 148.03 205.528 148.03 204.779C148.03 204.03 147.732 203.311 147.203 202.782C146.673 202.252 145.954 201.954 145.205 201.954H144.694ZM141.358 204.779C141.35 203.886 141.697 203.026 142.322 202.388C142.948 201.75 143.8 201.386 144.694 201.376H145.205C146.024 201.483 146.776 201.885 147.321 202.506C147.865 203.127 148.166 203.924 148.166 204.75C148.166 205.576 147.865 206.374 147.321 206.994C146.776 207.615 146.024 208.017 145.205 208.124H144.694C143.813 208.112 142.972 207.754 142.352 207.129C141.732 206.503 141.382 205.66 141.377 204.779H141.358Z" fill="#263238"/>
<path d="M138.349 204.106C138.551 203.826 138.816 203.597 139.123 203.438C139.429 203.278 139.769 203.193 140.114 203.189C140.399 203.158 140.687 203.197 140.953 203.301C141.22 203.405 141.458 203.572 141.647 203.788L142.1 203.44C141.859 203.146 141.549 202.917 141.197 202.773C140.845 202.63 140.463 202.577 140.085 202.62C139.647 202.624 139.217 202.735 138.831 202.941C138.445 203.148 138.114 203.445 137.867 203.807L138.349 204.106Z" fill="#263238"/>
<path d="M131.502 204.075H125.755V204.645H131.502V204.075Z" fill="#263238"/>
</svg>
