<svg width="51" height="51" viewBox="0 0 51 51" fill="none" xmlns="http://www.w3.org/2000/svg">
<g filter="url(#filter0_d_816_916)">
<path d="M4.91092 21.2429C4.90992 24.8557 5.85392 28.3834 7.64892 31.4927L4.73926 42.1164L15.6113 39.2657C18.6183 40.9027 21.9875 41.7604 25.4113 41.7607H25.4203C36.7228 41.7607 45.9233 32.5635 45.9281 21.259C45.9303 15.7812 43.7989 10.6302 39.9266 6.75485C36.0549 2.87985 30.9058 0.744688 25.4194 0.742188C14.1156 0.742188 4.91576 9.93885 4.91109 21.2429" fill="url(#paint0_linear_816_916)"/>
<path d="M4.17833 21.236C4.17717 24.9788 5.155 28.6327 7.014 31.8533L4 42.8578L15.2618 39.905C18.3648 41.5968 21.8585 42.4888 25.4135 42.4902H25.4227C37.1307 42.4902 46.6617 32.9622 46.6667 21.253C46.6687 15.5783 44.4607 10.2422 40.45 6.228C36.4388 2.21433 31.1055 0.00233333 25.4227 0C13.7127 0 4.183 9.52667 4.17833 21.236ZM10.8852 31.2987L10.4647 30.6312C8.697 27.8205 7.764 24.5725 7.76533 21.2373C7.769 11.5048 15.6897 3.58667 25.4293 3.58667C30.146 3.58867 34.5787 5.42733 37.9127 8.76333C41.2465 12.0997 43.081 16.5347 43.0798 21.2517C43.0755 30.9842 35.1547 38.9033 25.4227 38.9033H25.4157C22.2468 38.9017 19.139 38.0507 16.4287 36.4425L15.7837 36.06L9.10067 37.8122L10.8852 31.2987Z" fill="url(#paint1_linear_816_916)"/>
<path d="M20.1129 12.3582C19.7153 11.4744 19.2968 11.4566 18.9186 11.4411C18.6089 11.4277 18.2549 11.4287 17.9013 11.4287C17.5473 11.4287 16.9721 11.5619 16.4859 12.0927C15.9993 12.6241 14.6279 13.9081 14.6279 16.5196C14.6279 19.1311 16.5301 21.6551 16.7953 22.0096C17.0608 22.3634 20.4674 27.8941 25.8628 30.0217C30.3468 31.7899 31.2593 31.4382 32.2324 31.3496C33.2058 31.2612 35.3731 30.0659 35.8153 28.8264C36.2578 27.5871 36.2578 26.5247 36.1251 26.3027C35.9924 26.0816 35.6384 25.9487 35.1076 25.6834C34.5768 25.4181 31.9669 24.1337 31.4804 23.9566C30.9938 23.7796 30.6399 23.6912 30.2859 24.2227C29.9319 24.7534 28.9154 25.9487 28.6056 26.3027C28.2961 26.6576 27.9863 26.7017 27.4556 26.4362C26.9244 26.1699 25.2149 25.6101 23.1868 23.8019C21.6088 22.3949 20.5434 20.6574 20.2338 20.1259C19.9241 19.5952 20.2006 19.3076 20.4668 19.0431C20.7053 18.8052 20.9978 18.4232 21.2634 18.1134C21.5281 17.8034 21.6164 17.5822 21.7934 17.2282C21.9706 16.8739 21.8819 16.5639 21.7494 16.2984C21.6164 16.0329 20.5849 13.4077 20.1129 12.3582Z" fill="white"/>
</g>
<defs>
<filter id="filter0_d_816_916" x="0" y="0" width="50.667" height="51" filterUnits="userSpaceOnUse" color-interpolation-filters="sRGB">
<feFlood flood-opacity="0" result="BackgroundImageFix"/>
<feColorMatrix in="SourceAlpha" type="matrix" values="0 0 0 0 0 0 0 0 0 0 0 0 0 0 0 0 0 0 127 0" result="hardAlpha"/>
<feOffset dy="4"/>
<feGaussianBlur stdDeviation="2"/>
<feComposite in2="hardAlpha" operator="out"/>
<feColorMatrix type="matrix" values="0 0 0 0 0 0 0 0 0 0 0 0 0 0 0 0 0 0 0.25 0"/>
<feBlend mode="normal" in2="BackgroundImageFix" result="effect1_dropShadow_816_916"/>
<feBlend mode="normal" in="SourceGraphic" in2="effect1_dropShadow_816_916" result="shape"/>
</filter>
<linearGradient id="paint0_linear_816_916" x1="2064.18" y1="4138.16" x2="2064.18" y2="0.742188" gradientUnits="userSpaceOnUse">
<stop stop-color="#1FAF38"/>
<stop offset="1" stop-color="#60D669"/>
</linearGradient>
<linearGradient id="paint1_linear_816_916" x1="2137.33" y1="4285.78" x2="2137.33" y2="0" gradientUnits="userSpaceOnUse">
<stop stop-color="#F9F9F9"/>
<stop offset="1" stop-color="white"/>
</linearGradient>
</defs>
</svg>
