<svg width="157" height="121" viewBox="0 0 157 121" fill="none" xmlns="http://www.w3.org/2000/svg">
<g filter="url(#filter0_d_1804_1159)">
<g filter="url(#filter1_i_1804_1159)">
<path d="M101.245 72.6671L99.0195 73.236C106.248 57.5121 112.328 48.559 130.637 32.325L96.8151 9.61565C91.8758 12.8393 89.2645 14.7653 84.7935 18.7088L77.2271 16.4395C83.568 9.89254 87.6995 6.43632 96.8181 0.52692L146.217 32.3192C124.927 45.1281 115.22 53.6597 101.245 72.6671Z" fill="url(#paint0_linear_1804_1159)"/>
</g>
<g filter="url(#filter2_i_1804_1159)">
<path d="M23.7405 95.283L20.6343 95.2842C22.8312 73.8888 26.2904 59.9539 40.1803 33.3199L95.6498 33.2994C80.8835 55.815 75.2323 67.1941 70.3384 85.0343L66.788 86.1724C69.4363 69.579 73.0856 59.234 81.8905 41.8306L43.2837 41.845C32.3354 61.852 28.8614 73.7708 23.7405 95.283Z" fill="url(#paint1_linear_1804_1159)"/>
</g>
<g filter="url(#filter3_d_1804_1159)">
<path d="M17.7635 84.5362L17.7646 81.1277C10.9883 86.9783 4.95581 93.6303 4.4501 97.6071C2.96554 109.281 17.8202 113.562 38.6052 111.797C72.2965 108.944 99.442 96.5454 134.887 73.6991L137.99 79.3788L152.641 48.1286L124.689 56.0922L128.679 62.9078C78.9689 92.468 31.0181 108.77 11.9919 97.6043C10.7019 96.4686 10.7026 94.1963 11.55 92.4917C13.7811 88.4125 15.171 86.715 17.7635 84.5362Z" fill="#0F1A49"/>
</g>
<g filter="url(#filter4_i_1804_1159)">
<path d="M83.9981 80.9221L81.3293 80.9231C87.6546 61.7489 92.5398 51.2973 105.365 33.9871L68.0045 21.9831C63.9159 26.2076 61.5619 28.5101 58.2147 33.4323L50.6528 33.4351C56.4051 24.2909 59.5536 20.2678 66.6731 12.8271L120.935 30.5477C101.451 48.6175 93.6226 59.7742 83.9981 80.9221Z" fill="url(#paint2_linear_1804_1159)"/>
</g>
</g>
<g filter="url(#filter5_i_1804_1159)">
<path d="M45.1665 55.5952C45.4255 55.5951 45.674 55.7029 45.8571 55.8948C46.0402 56.0868 46.143 56.3471 46.143 56.6187L46.1426 57.6425L50.05 57.641L50.0503 56.6172C50.0504 56.3457 50.1534 56.0852 50.3367 55.8932C50.5199 55.7011 50.7684 55.5932 51.0275 55.5931C51.2866 55.593 51.535 55.7007 51.7181 55.8927C51.9013 56.0846 52.0041 56.345 52.004 56.6165L52.0036 57.6403L55.911 57.6389L55.9114 56.6151C55.9114 56.3435 56.0144 56.0831 56.1977 55.891C56.381 55.6989 56.6295 55.591 56.8885 55.5909C57.1476 55.5908 57.396 55.6986 57.5792 55.8905C57.7623 56.0824 57.8651 56.3428 57.865 56.6143L57.8647 57.6381C58.6419 57.6378 59.3872 57.9612 59.9366 58.537C60.486 59.1128 60.7945 59.8939 60.7942 60.7085L60.7924 65.9012C59.7779 66.086 58.8427 66.5956 58.1154 67.3601L55.4946 70.109C55.3291 69.9879 55.1319 69.9236 54.9301 69.9249L47.1153 69.9278C46.8563 69.9279 46.6078 70.0358 46.4245 70.2279C46.2413 70.42 46.1383 70.6804 46.1382 70.9519C46.1381 71.2235 46.2409 71.4838 46.424 71.6758C46.6072 71.8677 46.8556 71.9755 47.1147 71.9754L53.7161 71.9729L49.7351 76.1434C49.4915 76.4001 49.266 76.6732 49.0589 76.9626C49.0285 76.7158 48.9135 76.4891 48.7352 76.3249C48.5569 76.1606 48.3276 76.0701 48.0901 76.0702L47.1133 76.0706C46.8542 76.0707 46.6057 76.1787 46.4225 76.3707C46.2392 76.5628 46.1362 76.8232 46.1361 77.0948C46.136 77.3663 46.2388 77.6267 46.422 77.8186C46.6051 78.0105 46.8535 78.1183 47.1126 78.1182L48.0894 78.1179C48.1936 78.118 48.2972 78.1007 48.3962 78.0666C48.1349 78.5976 47.9328 79.1583 47.7939 79.7376L47.2011 82.2175C47.0369 82.8965 47.0846 83.6127 47.3372 84.261L44.18 84.2621C43.4028 84.2624 42.6575 83.9391 42.1081 83.3633C41.5588 82.7875 41.2503 82.0064 41.2505 81.1918L41.2574 60.7157C41.2577 59.9011 41.5667 59.1198 42.1164 58.5436C42.6662 57.9674 43.4117 57.6435 44.1889 57.6432L44.1893 56.6194C44.1894 56.3479 44.2924 56.0874 44.4756 55.8954C44.6589 55.7033 44.9074 55.5953 45.1665 55.5952ZM46.1402 64.8091C46.1401 65.0806 46.243 65.341 46.4261 65.5329C46.6092 65.7249 46.8576 65.8327 47.1167 65.8326L54.9314 65.8297C55.1905 65.8296 55.439 65.7216 55.6223 65.5295C55.8055 65.3375 55.9085 65.077 55.9086 64.8055C55.9087 64.534 55.8059 64.2736 55.6227 64.0817C55.4396 63.8897 55.1912 63.782 54.9321 63.7821L47.1174 63.7849C46.8583 63.785 46.6098 63.893 46.4266 64.0851C46.2433 64.2771 46.1403 64.5376 46.1402 64.8091ZM59.4981 68.8072C60.0701 68.2078 60.8457 67.8708 61.6543 67.8705C62.463 67.8702 63.2383 68.2066 63.8099 68.8056C64.3815 69.4047 64.7024 70.2174 64.7022 71.0649C64.7019 71.9123 64.3804 72.7252 63.8084 73.3247L55.4261 82.108C54.7294 82.8355 53.8586 83.3529 52.9054 83.6057L50.5393 84.227C50.3395 84.2796 50.1302 84.277 49.9318 84.2195C49.7333 84.162 49.5525 84.0516 49.407 83.8991C49.2614 83.7465 49.1561 83.557 49.1012 83.349C49.0464 83.1411 49.0439 82.9217 49.0941 82.7123L49.6888 80.2345C49.9275 79.2331 50.4201 78.3197 51.1159 77.5926L59.4981 68.8072Z" fill="url(#paint3_linear_1804_1159)"/>
</g>
<defs>
<filter id="filter0_d_1804_1159" x="0.347961" y="0.527344" width="156.293" height="119.652" filterUnits="userSpaceOnUse" color-interpolation-filters="sRGB">
<feFlood flood-opacity="0" result="BackgroundImageFix"/>
<feColorMatrix in="SourceAlpha" type="matrix" values="0 0 0 0 0 0 0 0 0 0 0 0 0 0 0 0 0 0 127 0" result="hardAlpha"/>
<feOffset dy="4"/>
<feGaussianBlur stdDeviation="2"/>
<feComposite in2="hardAlpha" operator="out"/>
<feColorMatrix type="matrix" values="0 0 0 0 0 0 0 0 0 0 0 0 0 0 0 0 0 0 0.25 0"/>
<feBlend mode="normal" in2="BackgroundImageFix" result="effect1_dropShadow_1804_1159"/>
<feBlend mode="normal" in="SourceGraphic" in2="effect1_dropShadow_1804_1159" result="shape"/>
</filter>
<filter id="filter1_i_1804_1159" x="77.2271" y="0.527344" width="68.9899" height="76.709" filterUnits="userSpaceOnUse" color-interpolation-filters="sRGB">
<feFlood flood-opacity="0" result="BackgroundImageFix"/>
<feBlend mode="normal" in="SourceGraphic" in2="BackgroundImageFix" result="shape"/>
<feColorMatrix in="SourceAlpha" type="matrix" values="0 0 0 0 0 0 0 0 0 0 0 0 0 0 0 0 0 0 127 0" result="hardAlpha"/>
<feOffset dy="4"/>
<feGaussianBlur stdDeviation="2"/>
<feComposite in2="hardAlpha" operator="arithmetic" k2="-1" k3="1"/>
<feColorMatrix type="matrix" values="0 0 0 0 0 0 0 0 0 0 0 0 0 0 0 0 0 0 0.25 0"/>
<feBlend mode="normal" in2="shape" result="effect1_innerShadow_1804_1159"/>
</filter>
<filter id="filter2_i_1804_1159" x="20.6343" y="33.2998" width="75.0156" height="65.9844" filterUnits="userSpaceOnUse" color-interpolation-filters="sRGB">
<feFlood flood-opacity="0" result="BackgroundImageFix"/>
<feBlend mode="normal" in="SourceGraphic" in2="BackgroundImageFix" result="shape"/>
<feColorMatrix in="SourceAlpha" type="matrix" values="0 0 0 0 0 0 0 0 0 0 0 0 0 0 0 0 0 0 127 0" result="hardAlpha"/>
<feOffset dy="4"/>
<feGaussianBlur stdDeviation="2"/>
<feComposite in2="hardAlpha" operator="arithmetic" k2="-1" k3="1"/>
<feColorMatrix type="matrix" values="0 0 0 0 0 0 0 0 0 0 0 0 0 0 0 0 0 0 0.25 0"/>
<feBlend mode="normal" in2="shape" result="effect1_innerShadow_1804_1159"/>
</filter>
<filter id="filter3_d_1804_1159" x="0.347961" y="48.1289" width="156.293" height="72.0508" filterUnits="userSpaceOnUse" color-interpolation-filters="sRGB">
<feFlood flood-opacity="0" result="BackgroundImageFix"/>
<feColorMatrix in="SourceAlpha" type="matrix" values="0 0 0 0 0 0 0 0 0 0 0 0 0 0 0 0 0 0 127 0" result="hardAlpha"/>
<feOffset dy="4"/>
<feGaussianBlur stdDeviation="2"/>
<feComposite in2="hardAlpha" operator="out"/>
<feColorMatrix type="matrix" values="0 0 0 0 0.876822 0 0 0 0 0.876822 0 0 0 0 0.876822 0 0 0 1 0"/>
<feBlend mode="normal" in2="BackgroundImageFix" result="effect1_dropShadow_1804_1159"/>
<feBlend mode="normal" in="SourceGraphic" in2="effect1_dropShadow_1804_1159" result="shape"/>
</filter>
<filter id="filter4_i_1804_1159" x="50.6528" y="12.8271" width="70.2819" height="72.0957" filterUnits="userSpaceOnUse" color-interpolation-filters="sRGB">
<feFlood flood-opacity="0" result="BackgroundImageFix"/>
<feBlend mode="normal" in="SourceGraphic" in2="BackgroundImageFix" result="shape"/>
<feColorMatrix in="SourceAlpha" type="matrix" values="0 0 0 0 0 0 0 0 0 0 0 0 0 0 0 0 0 0 127 0" result="hardAlpha"/>
<feOffset dy="4"/>
<feGaussianBlur stdDeviation="2"/>
<feComposite in2="hardAlpha" operator="arithmetic" k2="-1" k3="1"/>
<feColorMatrix type="matrix" values="0 0 0 0 0 0 0 0 0 0 0 0 0 0 0 0 0 0 0.25 0"/>
<feBlend mode="normal" in2="shape" result="effect1_innerShadow_1804_1159"/>
</filter>
<filter id="filter5_i_1804_1159" x="41.2505" y="55.5908" width="23.4516" height="32.6738" filterUnits="userSpaceOnUse" color-interpolation-filters="sRGB">
<feFlood flood-opacity="0" result="BackgroundImageFix"/>
<feBlend mode="normal" in="SourceGraphic" in2="BackgroundImageFix" result="shape"/>
<feColorMatrix in="SourceAlpha" type="matrix" values="0 0 0 0 0 0 0 0 0 0 0 0 0 0 0 0 0 0 127 0" result="hardAlpha"/>
<feOffset dy="4"/>
<feGaussianBlur stdDeviation="2"/>
<feComposite in2="hardAlpha" operator="arithmetic" k2="-1" k3="1"/>
<feColorMatrix type="matrix" values="0 0 0 0 0 0 0 0 0 0 0 0 0 0 0 0 0 0 0.25 0"/>
<feBlend mode="normal" in2="shape" result="effect1_innerShadow_1804_1159"/>
</filter>
<linearGradient id="paint0_linear_1804_1159" x1="77.2338" y1="-3.81817" x2="122.203" y2="66.5197" gradientUnits="userSpaceOnUse">
<stop stop-color="#70F390"/>
<stop offset="1" stop-color="#26EDD9"/>
</linearGradient>
<linearGradient id="paint1_linear_1804_1159" x1="39.7251" y1="33.3201" x2="64.8383" y2="92.4205" gradientUnits="userSpaceOnUse">
<stop stop-color="#79F486"/>
<stop offset="1" stop-color="#14EBEB"/>
</linearGradient>
<linearGradient id="paint2_linear_1804_1159" x1="53.2298" y1="16.4163" x2="94.9595" y2="74.3021" gradientUnits="userSpaceOnUse">
<stop stop-color="#6EF493"/>
<stop offset="1" stop-color="#2DEDD2"/>
</linearGradient>
<linearGradient id="paint3_linear_1804_1159" x1="41.2591" y1="55.5967" x2="58.5144" y2="82.0952" gradientUnits="userSpaceOnUse">
<stop stop-color="#AFFA50"/>
<stop offset="1" stop-color="#20ECDF"/>
</linearGradient>
</defs>
</svg>
