<svg width="178" height="163" viewBox="0 0 178 163" fill="none" xmlns="http://www.w3.org/2000/svg">
<path d="M104.07 103.412C104.764 103.839 106.635 104.13 106.639 104.13C106.643 104.13 106.482 102.981 106.458 102.908C106.223 102.082 105.211 100.603 104.129 100.544C103.949 100.538 103.77 100.566 103.603 100.625C103.437 100.685 103.286 100.775 103.161 100.89C103.037 101.004 102.94 101.141 102.879 101.291C102.818 101.441 102.794 101.6 102.807 101.759C102.839 102.432 103.478 103.044 104.07 103.412Z" fill="#263238"/>
<path d="M103.634 108.301C104.419 108.544 106.16 108.412 106.301 108.398C106.386 109.289 106.536 110.174 106.752 111.047C106.878 111.558 107.019 112.065 107.168 112.575C107.062 112.353 106.964 112.151 106.944 112.127C106.47 111.381 105.054 110.193 103.991 110.391C103.816 110.428 103.652 110.497 103.509 110.593C103.366 110.69 103.248 110.812 103.162 110.952C103.076 111.092 103.025 111.247 103.011 111.405C102.997 111.564 103.021 111.724 103.082 111.874C103.309 112.516 104.109 112.957 104.788 113.172C105.466 113.387 106.98 113.301 107.38 113.273C107.439 113.471 107.494 113.665 107.556 113.86C107.847 114.793 108.141 115.724 108.396 116.637C108.49 116.96 108.564 117.283 108.643 117.606C108.545 117.408 108.462 117.241 108.447 117.217C107.972 116.474 106.556 115.283 105.493 115.481C105.319 115.518 105.155 115.587 105.012 115.684C104.87 115.781 104.752 115.903 104.666 116.043C104.58 116.183 104.528 116.337 104.514 116.495C104.5 116.654 104.524 116.813 104.584 116.963C104.811 117.609 105.611 118.047 106.293 118.262C106.976 118.477 108.337 118.401 108.811 118.37C108.878 118.717 108.945 119.033 108.996 119.359C109.023 119.581 109.066 119.793 109.082 120.019C109.098 120.244 109.117 120.46 109.137 120.678C109.156 121.099 109.176 121.533 109.184 121.942C109.184 122.23 109.184 122.501 109.184 122.775C109.098 122.453 108.913 121.821 108.894 121.769C108.549 120.97 107.352 119.606 106.27 119.654C106.091 119.667 105.916 119.713 105.759 119.789C105.601 119.866 105.463 119.971 105.354 120.098C105.245 120.225 105.168 120.37 105.127 120.525C105.086 120.68 105.083 120.841 105.117 120.998C105.231 121.664 105.948 122.21 106.584 122.512C107.282 122.859 108.976 122.953 109.184 122.963C109.184 123.418 109.184 123.859 109.184 124.275C109.164 125.123 109.125 125.883 109.078 126.539L109.772 126.661C109.803 125.966 109.827 125.178 109.827 124.282C109.827 123.821 109.827 123.328 109.827 122.824C110.357 122.734 110.88 122.618 111.396 122.477C111.823 123.091 113.078 123.949 113.239 124.057C112.957 124.435 112.678 124.803 112.411 125.143C111.898 125.796 111.423 126.372 110.996 126.879L111.741 127.011C112.11 126.553 112.525 126.036 112.941 125.466C113.227 125.081 113.529 124.668 113.831 124.237C114.023 124.31 115.592 124.893 116.384 124.876C117.106 124.876 118.024 124.661 118.467 124.112C118.576 123.986 118.655 123.841 118.697 123.686C118.739 123.532 118.744 123.371 118.712 123.214C118.679 123.058 118.61 122.909 118.508 122.778C118.406 122.647 118.275 122.536 118.122 122.453C117.18 121.973 115.42 122.716 114.702 123.293C114.663 123.324 114.251 123.737 113.996 124.005L114.365 123.477C114.612 123.13 114.847 122.751 115.102 122.359L115.451 121.776C115.572 121.581 115.674 121.366 115.788 121.158C116.039 120.675 116.267 120.172 116.486 119.661C116.839 119.852 118.114 120.519 118.839 120.599C119.565 120.678 120.49 120.599 121.024 120.123C121.154 120.013 121.257 119.88 121.325 119.733C121.394 119.585 121.426 119.427 121.421 119.268C121.415 119.108 121.372 118.952 121.293 118.808C121.215 118.665 121.103 118.538 120.965 118.436C120.122 117.838 118.251 118.335 117.435 118.807C117.384 118.835 116.847 119.234 116.561 119.456C116.686 119.147 116.816 118.842 116.933 118.529C117.275 117.62 117.588 116.689 117.906 115.752C118 115.467 118.102 115.186 118.2 114.905C118.326 114.974 119.824 115.79 120.628 115.88C121.345 115.964 122.283 115.88 122.816 115.405C122.946 115.295 123.048 115.162 123.116 115.015C123.184 114.868 123.217 114.71 123.211 114.551C123.205 114.392 123.162 114.236 123.084 114.093C123.006 113.95 122.894 113.823 122.757 113.721C121.91 113.12 120.039 113.616 119.228 114.089C119.169 114.127 118.4 114.696 118.212 114.852C118.431 114.231 118.655 113.613 118.902 113.012C119.238 112.2 119.631 111.407 120.079 110.638C120.137 110.672 121.694 111.53 122.518 111.624C123.236 111.707 124.173 111.624 124.706 111.148C124.836 111.038 124.939 110.905 125.007 110.757C125.075 110.61 125.107 110.452 125.101 110.293C125.096 110.134 125.053 109.977 124.974 109.834C124.896 109.69 124.785 109.563 124.648 109.461C123.8 108.863 121.93 109.36 121.118 109.832C121.055 109.87 120.228 110.485 120.086 110.606C120.114 110.565 120.137 110.516 120.165 110.471C120.637 109.711 121.186 108.991 121.804 108.318C122.138 107.943 122.483 107.6 122.828 107.277C123.098 107.464 124.349 108.318 125.079 108.461C125.808 108.603 126.722 108.627 127.314 108.2C127.457 108.104 127.575 107.982 127.661 107.842C127.747 107.702 127.799 107.548 127.813 107.389C127.827 107.231 127.803 107.072 127.743 106.922C127.683 106.772 127.587 106.635 127.463 106.52C126.699 105.843 124.777 106.152 123.934 106.544C123.887 106.565 123.44 106.829 123.118 107.027C123.275 106.881 123.436 106.728 123.589 106.593C124.165 106.079 124.73 105.638 125.232 105.253C125.522 105.037 125.789 104.846 126.04 104.669C126.412 104.728 127.922 104.954 128.64 104.798C129.358 104.641 130.185 104.277 130.487 103.655C130.564 103.511 130.605 103.355 130.608 103.195C130.612 103.036 130.578 102.878 130.508 102.732C130.438 102.585 130.334 102.453 130.203 102.344C130.071 102.235 129.916 102.152 129.746 102.1C128.714 101.815 127.169 102.871 126.608 103.572C126.561 103.631 125.93 104.652 125.95 104.655H125.969C125.726 104.822 125.463 105.003 125.185 105.204C124.671 105.579 124.095 106.006 123.502 106.513C122.857 107.05 122.248 107.62 121.679 108.221C121.036 108.889 120.462 109.607 119.965 110.367C119.966 110.376 119.966 110.385 119.965 110.395C120.032 110.12 120.192 109.353 120.196 109.287C120.263 108.433 119.824 106.749 118.816 106.395C118.647 106.34 118.467 106.317 118.288 106.328C118.108 106.339 117.933 106.383 117.775 106.458C117.616 106.532 117.477 106.636 117.366 106.762C117.256 106.887 117.176 107.032 117.133 107.186C116.922 107.836 117.314 108.593 117.749 109.103C118.239 109.679 119.788 110.429 119.91 110.492C119.424 111.275 119 112.087 118.639 112.922C118.424 113.408 118.224 113.901 118.031 114.401C118.082 114.162 118.126 113.946 118.126 113.915C118.192 113.064 117.753 111.381 116.745 111.023C116.576 110.968 116.396 110.945 116.217 110.956C116.038 110.967 115.863 111.011 115.704 111.086C115.545 111.161 115.406 111.264 115.296 111.39C115.185 111.515 115.106 111.66 115.063 111.815C114.851 112.464 115.243 113.221 115.678 113.731C116.114 114.241 117.427 114.912 117.773 115.082C117.702 115.273 117.627 115.464 117.557 115.658C117.22 116.578 116.882 117.498 116.525 118.39C116.396 118.706 116.259 119.012 116.133 119.317C116.176 119.106 116.212 118.925 116.212 118.897C116.278 118.047 115.839 116.363 114.835 116.005C114.666 115.951 114.486 115.928 114.307 115.94C114.127 115.951 113.952 115.995 113.793 116.069C113.634 116.144 113.495 116.247 113.384 116.373C113.273 116.498 113.193 116.642 113.149 116.797C112.941 117.446 113.333 118.203 113.765 118.713C114.196 119.224 115.384 119.828 115.8 120.033C115.647 120.345 115.498 120.654 115.337 120.949C115.219 121.147 115.125 121.349 114.996 121.543L114.631 122.119C114.384 122.466 114.133 122.852 113.882 123.199L113.372 123.893C113.502 123.581 113.741 122.963 113.765 122.911C113.917 122.171 113.853 121.408 113.58 120.696C113.603 120.614 113.616 120.53 113.619 120.446C113.632 120.287 113.607 120.128 113.546 119.978C113.485 119.829 113.389 119.692 113.264 119.578C113.139 119.463 112.989 119.373 112.823 119.313C112.656 119.254 112.477 119.225 112.298 119.231C111.215 119.293 110.207 120.772 109.968 121.602C109.968 121.651 109.87 122.196 109.823 122.539C109.823 122.335 109.823 122.133 109.803 121.921C109.784 121.501 109.752 121.081 109.721 120.63L109.651 119.97C109.631 119.751 109.58 119.519 109.545 119.293C109.454 118.765 109.329 118.234 109.196 117.703C109.611 117.703 111.086 117.62 111.737 117.356C112.388 117.092 113.121 116.554 113.266 115.891C113.309 115.735 113.313 115.572 113.279 115.415C113.245 115.257 113.174 115.107 113.069 114.976C112.965 114.845 112.831 114.735 112.675 114.653C112.518 114.571 112.345 114.52 112.164 114.502C111.086 114.415 109.835 115.741 109.458 116.529C109.435 116.578 109.239 117.172 109.137 117.498C109.05 117.179 108.968 116.859 108.87 116.54C108.588 115.616 108.27 114.689 107.956 113.762L107.674 112.912C107.823 112.912 109.58 112.86 110.309 112.54C110.956 112.259 111.694 111.742 111.839 111.075C111.881 110.919 111.884 110.757 111.85 110.599C111.816 110.442 111.744 110.293 111.64 110.162C111.536 110.03 111.402 109.92 111.246 109.838C111.09 109.756 110.917 109.704 110.737 109.686C109.658 109.603 108.407 110.929 108.031 111.717C108.003 111.776 107.717 112.63 107.658 112.849C107.454 112.224 107.266 111.599 107.09 110.978C106.86 110.138 106.692 109.285 106.588 108.426C106.658 108.426 108.49 108.381 109.239 108.054C109.886 107.773 110.619 107.252 110.764 106.589C110.806 106.433 110.81 106.272 110.776 106.114C110.742 105.957 110.671 105.808 110.567 105.677C110.463 105.546 110.329 105.436 110.174 105.353C110.019 105.271 109.846 105.219 109.666 105.2C108.588 105.117 107.337 106.443 106.96 107.232C106.929 107.294 106.623 108.211 106.568 108.381C106.568 108.329 106.548 108.28 106.544 108.228C106.465 107.365 106.474 106.496 106.572 105.634C106.615 105.155 106.69 104.704 106.772 104.263C107.117 104.284 108.682 104.374 109.392 104.148C110.102 103.923 110.866 103.485 111.09 102.84C111.149 102.689 111.172 102.53 111.156 102.371C111.141 102.213 111.088 102.059 111.001 101.919C110.914 101.78 110.795 101.659 110.652 101.563C110.508 101.467 110.343 101.4 110.168 101.364C109.109 101.173 107.701 102.371 107.227 103.117C107.203 103.159 106.992 103.596 106.835 103.916C106.874 103.718 106.913 103.513 106.956 103.326C107.117 102.631 107.317 101.972 107.494 101.406C107.599 101.083 107.701 100.795 107.803 100.527C108.152 100.392 109.552 99.8328 110.054 99.3606C110.556 98.8885 111.019 98.1732 110.882 97.5066C110.855 97.351 110.793 97.202 110.697 97.069C110.602 96.9361 110.477 96.8221 110.33 96.7342C110.182 96.6464 110.016 96.5867 109.841 96.5589C109.666 96.5311 109.486 96.5358 109.313 96.5727C108.274 96.8365 107.646 98.4753 107.615 99.3294C107.615 99.4023 107.721 100.562 107.741 100.555H107.76C107.662 100.812 107.556 101.09 107.446 101.395C107.254 101.961 107.054 102.6 106.858 103.308C106.657 104.072 106.505 104.845 106.403 105.624C106.286 106.496 106.255 107.376 106.313 108.252C106.313 108.252 106.313 108.273 106.313 108.284C106.199 108.023 105.85 107.298 105.815 107.242C105.337 106.499 103.921 105.308 102.862 105.506C102.687 105.543 102.523 105.612 102.381 105.709C102.238 105.806 102.12 105.928 102.034 106.068C101.948 106.208 101.897 106.362 101.883 106.521C101.868 106.679 101.892 106.839 101.952 106.989C102.156 107.648 102.956 108.089 103.634 108.301Z" fill="#263238"/>
<path d="M122.832 107.103C122.832 107.103 123.416 106.062 123.444 105.996C123.762 105.187 123.836 103.461 122.977 102.871C122.831 102.779 122.664 102.714 122.488 102.683C122.312 102.651 122.13 102.653 121.955 102.687C121.779 102.722 121.614 102.789 121.47 102.884C121.326 102.979 121.206 103.1 121.118 103.239C120.726 103.815 120.871 104.628 121.138 105.232C121.452 105.944 122.832 107.1 122.832 107.103Z" fill="#263238"/>
<path d="M63.8282 38.1352C64.5695 38.2289 66.1813 37.788 66.1813 37.788C66.1813 37.788 65.5421 36.9339 65.495 36.8853C64.9342 36.3159 63.4753 35.4965 62.5968 35.8437C62.4528 35.9027 62.3244 35.9878 62.2199 36.0935C62.1154 36.1992 62.0372 36.3232 61.9902 36.4574C61.9433 36.5916 61.9287 36.733 61.9473 36.8725C61.966 37.012 62.0176 37.1465 62.0987 37.2672C62.4203 37.7949 63.2007 38.0518 63.8282 38.1352Z" fill="#263238"/>
<path d="M65.6793 42.1427C66.3892 42.0628 67.7187 41.3406 67.8245 41.2851C68.288 41.9578 68.8029 42.6017 69.3658 43.212C69.6913 43.5592 70.0286 43.9238 70.3737 44.271C70.1894 44.1321 70.0247 44.0106 69.9815 43.9967C69.2756 43.5766 67.6285 43.1356 66.8755 43.6495C66.7542 43.7401 66.6558 43.8523 66.5867 43.9787C66.5175 44.1051 66.4791 44.243 66.4739 44.3834C66.4687 44.5238 66.4969 44.6636 66.5566 44.7938C66.6163 44.9239 66.7063 45.0415 66.8206 45.139C67.2912 45.566 68.1187 45.632 68.7501 45.5625C69.3815 45.4931 70.5384 44.8959 70.8365 44.7362C70.9698 44.8681 71.1032 45.0036 71.2287 45.1355C71.8758 45.7674 72.5229 46.3993 73.1386 47.0346C73.3543 47.2603 73.5582 47.486 73.7622 47.729C73.5974 47.604 73.4602 47.5034 73.4366 47.4895C72.7268 47.0694 71.0836 46.6284 70.3306 47.1423C70.2088 47.2326 70.1099 47.3446 70.0404 47.4711C69.9708 47.5976 69.9322 47.7356 69.927 47.8761C69.9219 48.0167 69.9502 48.1567 70.0103 48.2869C70.0704 48.4171 70.1608 48.5346 70.2757 48.6317C70.7424 49.0588 71.5699 49.1248 72.2052 49.0553C72.8405 48.9859 73.8798 48.4477 74.2367 48.2568C74.4367 48.4963 74.6289 48.7324 74.825 48.972C74.9465 49.1386 75.076 49.2914 75.1897 49.4615L75.527 49.9615C75.7309 50.2879 75.9427 50.6212 76.1309 50.9441C76.2643 51.1663 76.3858 51.3815 76.5231 51.5968C76.3074 51.3711 75.8838 50.9406 75.8407 50.9024C75.2132 50.392 73.6602 49.7358 72.8288 50.1559C72.6934 50.2289 72.5769 50.3262 72.4869 50.4416C72.3968 50.5569 72.3351 50.6878 72.3059 50.8257C72.2767 50.9635 72.2806 51.1053 72.3173 51.2417C72.354 51.3781 72.4227 51.5062 72.5189 51.6176C72.9111 52.1037 73.7151 52.2808 74.3543 52.312C75.0524 52.312 76.4368 51.819 76.6094 51.7565C76.8094 52.1037 77.0016 52.4509 77.182 52.7981C77.5467 53.4716 77.8526 54.0862 78.1114 54.6209L78.7115 54.4716C78.4291 53.923 78.0918 53.2842 77.6918 52.5793C77.4879 52.2322 77.2604 51.8294 77.0212 51.4371C77.4032 51.1777 77.7685 50.8995 78.1153 50.6038C78.8021 50.8918 79.5306 51.094 80.2802 51.2045C80.2253 51.6037 80.1704 51.9891 80.1116 52.3537C79.9978 53.0481 79.8802 53.6695 79.7703 54.2146L80.4174 54.0549C80.5037 53.5654 80.59 53.0133 80.6724 52.4196C80.7273 52.0134 80.7783 51.5829 80.8253 51.1385C81.0057 51.1385 82.5038 51.0378 83.1235 50.7427C83.6843 50.4753 84.3 49.9997 84.4216 49.4095C84.4519 49.2717 84.449 49.1298 84.4131 48.9931C84.3772 48.8564 84.3091 48.7279 84.2132 48.6162C84.1173 48.5044 83.9958 48.4118 83.8567 48.3445C83.7175 48.2772 83.5639 48.2366 83.4059 48.2255C82.4529 48.1769 81.394 49.3817 81.0881 50.083C81.0685 50.1247 80.9312 50.5969 80.8488 50.8955C80.8488 50.7114 80.8881 50.5483 80.9037 50.3504C80.9351 49.9789 80.9587 49.6108 80.9861 49.2116V48.6283C80.9861 48.4338 80.9861 48.2255 80.9861 48.0242C80.9861 47.552 80.9234 47.0763 80.8685 46.5972C81.2332 46.625 82.5352 46.7013 83.1392 46.5139C83.7431 46.3264 84.4451 45.9375 84.6491 45.3681C84.7026 45.2368 84.7246 45.0971 84.7135 44.9579C84.7024 44.8187 84.6584 44.683 84.5846 44.5598C84.5107 44.4365 84.4085 44.3282 84.2845 44.242C84.1605 44.1558 84.0175 44.0935 83.8647 44.0592C82.9274 43.8856 81.6763 44.9341 81.2528 45.5868C81.2293 45.6285 80.9822 46.1285 80.8606 46.4062C80.8214 46.1215 80.7861 45.8334 80.739 45.5452C80.6018 44.7084 80.4331 43.8648 80.2684 43.0245C80.2174 42.7676 80.1704 42.5107 80.1233 42.2538C80.2527 42.2538 81.7979 42.3822 82.4764 42.1739C83.0764 41.9864 83.7824 41.5976 83.9902 41.0282C84.0438 40.8969 84.0657 40.7572 84.0546 40.618C84.0435 40.4787 83.9996 40.3431 83.9257 40.2198C83.8518 40.0965 83.7496 39.9883 83.6256 39.9021C83.5016 39.8159 83.3587 39.7536 83.2059 39.7192C82.2725 39.5457 81.0214 40.5942 80.5979 41.2469C80.5665 41.299 80.2057 42.0177 80.1351 42.2052C80.0292 41.6392 79.9311 41.0733 79.8606 40.5143C79.7578 39.7563 79.7106 38.9932 79.7194 38.2298C79.7821 38.2298 81.394 38.3687 82.0725 38.1499C82.6725 37.9624 83.3784 37.5771 83.5863 37.0077C83.6396 36.8752 83.6608 36.7343 83.6485 36.5941C83.6361 36.454 83.5905 36.3177 83.5147 36.1941C83.4388 36.0706 83.3344 35.9627 83.2082 35.8773C83.082 35.7919 82.9369 35.7311 82.7823 35.6987C81.8489 35.5251 80.5939 36.5702 80.1743 37.2264C80.139 37.2785 79.7821 38.0562 79.7076 38.1985C79.7076 38.1569 79.7076 38.1083 79.7076 38.0666C79.7437 37.3016 79.8539 36.5408 80.037 35.7925C80.1351 35.3793 80.2527 34.9905 80.3782 34.612C80.6763 34.6641 82.0372 34.8863 82.6843 34.7509C83.3313 34.6155 84.053 34.3099 84.3275 33.7649C84.3983 33.6382 84.438 33.4997 84.4441 33.3584C84.4503 33.2172 84.4226 33.0764 84.363 32.9453C84.3034 32.8142 84.2132 32.6957 84.0982 32.5976C83.9833 32.4995 83.8463 32.424 83.6961 32.3761C82.7862 32.1122 81.4136 33.0323 80.9116 33.6433C80.8841 33.6746 80.6488 34.0391 80.4802 34.3099C80.539 34.1398 80.5979 33.9628 80.6567 33.7996C80.8841 33.192 81.1312 32.6504 81.3587 32.1678C81.4881 31.8969 81.6097 31.6539 81.7313 31.4248C82.0528 31.3414 83.3431 30.9908 83.8373 30.6123C84.3314 30.2339 84.8256 29.661 84.7824 29.0638C84.7783 28.9236 84.7409 28.7857 84.6726 28.6591C84.6044 28.5324 84.5068 28.42 84.3862 28.3289C84.2656 28.2379 84.1247 28.1703 83.9727 28.1307C83.8207 28.091 83.661 28.0801 83.5039 28.0986C82.5588 28.2375 81.8175 29.6124 81.692 30.3589C81.692 30.4248 81.6371 31.4491 81.6567 31.4456H81.6763C81.5548 31.6643 81.4293 31.8969 81.2842 32.14C81.0489 32.6156 80.7861 33.1573 80.5429 33.7649C80.2748 34.4144 80.0509 35.0776 79.8723 35.7508C79.6655 36.5029 79.5343 37.2697 79.4801 38.0423V38.0701C79.4095 37.8305 79.1899 37.1674 79.1664 37.1153C78.837 36.4209 77.7389 35.2474 76.7859 35.3203C76.6279 35.3358 76.4755 35.3807 76.3385 35.4521C76.2016 35.5235 76.0833 35.6198 75.9914 35.7346C75.8995 35.8494 75.8362 35.9801 75.8054 36.1181C75.7747 36.2562 75.7774 36.3984 75.8133 36.5355C75.9387 37.1222 76.5976 37.5771 77.1545 37.8305C77.8016 38.1117 79.3586 38.1777 79.4801 38.1777C79.4493 38.9666 79.4768 39.7564 79.5625 40.5421C79.6135 41.0004 79.6762 41.4587 79.7468 41.9309C79.6801 41.726 79.6174 41.542 79.6056 41.5177C79.2762 40.8233 78.1742 39.6498 77.2251 39.7227C77.0675 39.7384 76.9153 39.7832 76.7786 39.8544C76.6418 39.9255 76.5236 40.0214 76.4314 40.1357C76.3393 40.25 76.2754 40.3802 76.2439 40.5178C76.2124 40.6554 76.214 40.7974 76.2486 40.9344C76.3741 41.5212 77.0329 41.976 77.5938 42.2329C78.1546 42.4899 79.4998 42.5489 79.8488 42.5628C79.8802 42.7364 79.9076 42.91 79.9351 43.0905C80.0802 43.9342 80.2292 44.7779 80.3469 45.6077C80.3861 45.8993 80.4135 46.191 80.4449 46.4791C80.3861 46.2951 80.3312 46.1319 80.3194 46.1319C79.99 45.4376 78.8919 44.2606 77.9389 44.3335C77.7812 44.3495 77.6291 44.3948 77.4924 44.4663C77.3558 44.5379 77.2378 44.6341 77.146 44.7488C77.0543 44.8634 76.9908 44.9939 76.9598 45.1317C76.9289 45.2696 76.9311 45.4116 76.9663 45.5487C77.0918 46.1354 77.7506 46.5902 78.3075 46.8437C78.8644 47.0971 80.0841 47.1562 80.5037 47.17C80.5233 47.4686 80.5429 47.7672 80.5469 48.0554C80.5469 48.2533 80.5469 48.4443 80.5469 48.6422C80.5469 48.8401 80.5273 49.031 80.5155 49.2254C80.4841 49.5935 80.4527 49.9754 80.4096 50.3365C80.3822 50.5899 80.3508 50.826 80.3194 51.0691C80.2802 50.7774 80.1939 50.208 80.1821 50.1594C79.973 49.5216 79.5828 48.9419 79.0487 48.4755C79.0278 48.4042 79.0003 48.3345 78.9664 48.2672C78.9056 48.1373 78.8145 48.0202 78.6991 47.9236C78.5837 47.8269 78.4466 47.753 78.2967 47.7064C78.1468 47.6599 77.9875 47.6419 77.8292 47.6536C77.6709 47.6652 77.5172 47.7063 77.3781 47.7742C76.5545 48.2012 76.4211 49.7185 76.5937 50.458C76.5937 50.4996 76.7819 50.9614 76.8996 51.2496C76.8015 51.0899 76.7074 50.9336 76.6015 50.767C76.4015 50.4441 76.1897 50.1247 75.9623 49.7775L75.6093 49.2845C75.4956 49.1178 75.3544 48.9546 75.2171 48.7845C74.9073 48.4026 74.574 48.0276 74.2288 47.6561C74.5504 47.4999 75.6838 46.927 76.0682 46.4757C76.4525 46.0243 76.8015 45.3577 76.6172 44.7848C76.5785 44.6491 76.508 44.5222 76.4104 44.4121C76.3128 44.302 76.1901 44.2113 76.0504 44.1459C75.9106 44.0804 75.7569 44.0417 75.5992 44.0321C75.4415 44.0226 75.2833 44.0424 75.1348 44.0904C74.2445 44.4029 73.8524 45.8854 73.9073 46.6388C73.9073 46.6875 74.021 47.2221 74.0877 47.5172C73.8759 47.295 73.668 47.0728 73.4484 46.8541C72.8131 46.2257 72.1464 45.6077 71.4875 44.9862L70.8875 44.4133C71.0012 44.3578 72.366 43.7189 72.7974 43.1981C73.1896 42.7468 73.5308 42.0802 73.3464 41.5073C73.3078 41.3712 73.2372 41.2438 73.1393 41.1334C73.0414 41.0231 72.9184 40.9322 72.7782 40.8667C72.638 40.8012 72.4838 40.7625 72.3256 40.7533C72.1674 40.744 72.0088 40.7643 71.8601 40.8129C70.9737 41.1219 70.5816 42.6079 70.6365 43.3613C70.6365 43.4169 70.7973 44.1911 70.8482 44.3855C70.409 43.9654 69.9737 43.5419 69.5619 43.1079C69.0061 42.5251 68.4926 41.9116 68.0246 41.2712C68.0795 41.2469 69.507 40.5768 69.9462 40.0526C70.3384 39.6012 70.6796 38.9346 70.4953 38.3617C70.4566 38.226 70.3861 38.099 70.2885 37.989C70.1908 37.8789 70.0682 37.7882 69.9284 37.7228C69.7887 37.6573 69.635 37.6186 69.4773 37.609C69.3196 37.5995 69.1613 37.6193 69.0128 37.6673C68.1265 37.9763 67.7304 39.4623 67.7892 40.2157C67.7892 40.2748 67.9618 41.1046 68.0049 41.2573L67.9187 41.1462C67.4703 40.4923 67.0884 39.8045 66.7774 39.0908C66.6009 38.6985 66.4558 38.3166 66.3264 37.9381C66.6049 37.8374 67.8951 37.3583 68.3383 36.9313C68.7815 36.5042 69.205 35.8897 69.0913 35.3029C69.0705 35.1637 69.0168 35.0299 68.9337 34.9102C68.8506 34.7906 68.7399 34.6878 68.609 34.6085C68.478 34.5292 68.3296 34.4753 68.1735 34.4501C68.0174 34.425 67.8571 34.4293 67.703 34.4627C66.7813 34.6849 66.2088 36.1223 66.1695 36.8931C66.1695 36.9347 66.2009 37.3548 66.2284 37.6604C66.1695 37.4903 66.1107 37.3132 66.0597 37.15C65.8676 36.532 65.7381 35.9591 65.6244 35.4487C65.5617 35.1571 65.5146 34.8932 65.4715 34.6467C65.6872 34.4176 66.546 33.494 66.7264 32.9385C66.9068 32.383 66.9539 31.6609 66.55 31.2026C66.4591 31.0872 66.3419 30.9901 66.2058 30.9176C66.0697 30.8451 65.9178 30.7988 65.7602 30.7817C65.6025 30.7647 65.4426 30.7773 65.2908 30.8187C65.139 30.8601 64.9988 30.9294 64.8793 31.022C64.1773 31.5949 64.4165 33.1052 64.7734 33.7996C64.8048 33.8586 65.4126 34.7335 65.4205 34.7231C65.4558 34.9627 65.495 35.2161 65.5499 35.4939C65.6479 36.0077 65.7656 36.5875 65.9421 37.209C66.123 37.8821 66.3482 38.5452 66.6166 39.195C66.9136 39.9241 67.2837 40.6283 67.7226 41.299C67.7233 41.3071 67.7233 41.3152 67.7226 41.3233C67.5147 41.1566 66.9382 40.7088 66.8676 40.681C66.1578 40.2609 64.5145 39.8199 63.7616 40.3338C63.6398 40.4241 63.5409 40.5362 63.4714 40.6626C63.4018 40.7891 63.3632 40.9271 63.358 41.0676C63.3528 41.2082 63.3812 41.3482 63.4413 41.4784C63.5014 41.6086 63.5918 41.7261 63.7067 41.8232C64.2204 42.1461 65.044 42.2121 65.6793 42.1427Z" fill="#263238"/>
<path d="M80.2722 34.4618C80.2722 34.4618 80.2722 33.4202 80.2722 33.3716C80.1624 32.6252 79.4526 31.2364 78.5113 31.0836C78.3545 31.0625 78.1944 31.0709 78.0413 31.1081C77.8883 31.1453 77.7459 31.2105 77.6231 31.2995C77.5004 31.3885 77.4001 31.4994 77.3289 31.6248C77.2576 31.7503 77.2168 31.8877 77.2093 32.028C77.1544 32.6217 77.6446 33.2154 78.1192 33.5904C78.6682 34.0313 80.2722 34.4618 80.2722 34.4618Z" fill="#263238"/>
<path d="M13.9387 136.775C14.6368 136.574 15.8408 135.581 15.8408 135.581C15.8408 135.581 14.8603 135.077 14.7937 135.053C14.0093 134.765 12.3425 134.612 11.7307 135.24C11.6331 135.348 11.562 135.472 11.5219 135.605C11.4818 135.738 11.4737 135.877 11.4981 136.013C11.5225 136.149 11.5789 136.279 11.6635 136.395C11.7481 136.511 11.8592 136.609 11.9896 136.685C12.5504 137.018 13.3348 136.945 13.9387 136.775Z" fill="#263238"/>
<path d="M17.5312 139.593C18.1195 139.246 18.9352 138.103 18.998 138.01C19.7361 138.425 20.5052 138.795 21.3001 139.117C21.7628 139.308 22.2335 139.485 22.708 139.662L22.2413 139.562C21.4138 139.464 19.747 139.711 19.3431 140.461C19.2808 140.587 19.2493 140.724 19.2504 140.862C19.2515 141 19.2853 141.136 19.3497 141.262C19.414 141.387 19.5073 141.5 19.6238 141.591C19.7402 141.683 19.877 141.752 20.0255 141.794C20.649 141.989 21.4099 141.728 21.9315 141.426C22.4531 141.124 23.1786 140.152 23.3629 139.895L23.912 140.089C24.7905 140.402 25.6729 140.707 26.5239 141.03C26.8259 141.145 27.1161 141.266 27.4102 141.378L27.0181 141.291C26.1906 141.194 24.5238 141.44 24.1198 142.19C24.0576 142.316 24.026 142.453 24.0271 142.591C24.0283 142.729 24.0621 142.865 24.1264 142.991C24.1907 143.116 24.2841 143.229 24.4005 143.32C24.5169 143.412 24.6538 143.481 24.8022 143.523C25.4258 143.718 26.1866 143.457 26.7082 143.155C27.2298 142.853 27.8848 141.975 28.1044 141.669C28.3985 141.801 28.6966 141.933 28.975 142.072C29.1633 142.173 29.3672 142.256 29.5358 142.364L30.0771 142.676C30.4183 142.884 30.7673 143.096 31.0889 143.308C31.3163 143.45 31.5281 143.593 31.7438 143.735C31.4458 143.62 30.8575 143.388 30.8065 143.388C30.0025 143.183 28.3122 143.2 27.7867 143.888C27.7016 144.005 27.6456 144.137 27.6223 144.275C27.599 144.413 27.609 144.553 27.6516 144.688C27.6943 144.822 27.7685 144.946 27.8696 145.053C27.9706 145.16 28.0961 145.247 28.2377 145.308C28.8182 145.586 29.6143 145.429 30.1986 145.2C30.8261 144.943 31.7909 143.964 31.9125 143.843C32.2654 144.079 32.6105 144.311 32.9282 144.537C33.5792 144.992 34.1479 145.412 34.6381 145.783L35.093 145.436C34.5793 145.061 33.9636 144.631 33.2694 144.162C32.9086 143.919 32.5203 143.669 32.1164 143.412C32.3303 143.039 32.5163 142.654 32.6733 142.259C33.4178 142.251 34.1571 142.149 34.8695 141.957C35.0185 142.329 35.1597 142.69 35.2852 143.034C35.5284 143.686 35.7323 144.28 35.9009 144.801L36.3912 144.415C36.2264 143.95 36.0343 143.433 35.8107 142.877C35.6617 142.499 35.497 142.1 35.3205 141.69C35.4735 141.61 36.748 140.954 37.1481 140.457C37.5481 139.961 37.8344 139.346 37.6383 138.787C37.5974 138.655 37.5252 138.531 37.4266 138.424C37.328 138.318 37.205 138.231 37.0659 138.169C36.9267 138.108 36.7744 138.073 36.6189 138.067C36.4635 138.061 36.3083 138.084 36.1637 138.135C35.3009 138.458 34.9558 139.923 35.0342 140.662C35.0342 140.704 35.1479 141.173 35.2225 141.468L35.0028 140.968C34.8499 140.621 34.6891 140.294 34.5165 139.926C34.4263 139.753 34.3322 139.579 34.242 139.405C34.1518 139.232 34.0381 139.058 33.9361 138.878C33.689 138.472 33.4145 138.069 33.1517 137.673C33.4851 137.555 34.6695 137.121 35.1126 136.722C35.5558 136.322 35.9794 135.715 35.897 135.135C35.8789 134.998 35.8284 134.866 35.7488 134.747C35.6692 134.629 35.5623 134.526 35.435 134.447C35.3078 134.367 35.163 134.312 35.0102 134.285C34.8573 134.259 34.6998 134.261 34.5479 134.291C33.642 134.496 33.0537 135.899 33.0027 136.638C33.0027 136.687 33.0302 137.222 33.0537 137.513C32.8811 137.274 32.7086 137.034 32.5243 136.798C31.9909 136.104 31.4301 135.44 30.8732 134.763C30.7006 134.555 30.5359 134.347 30.3673 134.139C30.4849 134.1 31.9046 133.611 32.3948 133.166C32.8851 132.722 33.2655 132.16 33.1792 131.58C33.1611 131.443 33.1106 131.311 33.031 131.192C32.9514 131.073 32.8445 130.971 32.7172 130.891C32.59 130.812 32.4452 130.757 32.2924 130.73C32.1395 130.703 31.982 130.705 31.8301 130.736C30.9242 130.941 30.332 132.344 30.2614 133.083C30.2614 133.139 30.3045 133.906 30.3281 134.104C29.9359 133.646 29.5908 133.184 29.2535 132.715C28.7907 132.089 28.3753 131.436 28.0103 130.76C28.0652 130.739 29.5515 130.236 30.0535 129.781C30.4888 129.385 30.9242 128.774 30.8379 128.195C30.8229 128.05 30.7716 127.91 30.6878 127.785C30.6041 127.66 30.4899 127.553 30.3535 127.471C30.2172 127.39 30.0622 127.337 29.8997 127.316C29.7372 127.294 29.5714 127.305 29.4143 127.347C28.5044 127.552 27.9161 128.955 27.8652 129.694C27.8652 129.753 27.9122 130.58 27.9318 130.736C27.9318 130.698 27.8848 130.66 27.8652 130.618C27.5187 129.933 27.2431 129.222 27.0416 128.493C26.9239 128.09 26.8337 127.702 26.7592 127.323C27.0455 127.254 28.3554 126.927 28.8613 126.559C29.3672 126.191 29.8496 125.643 29.8221 125.056C29.8209 124.918 29.787 124.782 29.7226 124.657C29.6582 124.531 29.5647 124.419 29.4482 124.328C29.3317 124.237 29.1948 124.168 29.0464 124.126C28.898 124.085 28.7414 124.072 28.5868 124.087C27.6612 124.202 26.9004 125.542 26.7592 126.271C26.7592 126.309 26.72 126.722 26.7043 127.021C26.6769 126.851 26.6376 126.674 26.6141 126.507C26.5121 125.886 26.4651 125.309 26.4298 124.802C26.4298 124.511 26.3984 124.25 26.3906 124.004C26.6337 123.806 27.5985 123.001 27.8495 122.48C28.1005 121.959 28.2417 121.261 27.9201 120.744C27.8469 120.622 27.7456 120.516 27.6228 120.432C27.5001 120.347 27.3586 120.286 27.2076 120.254C27.0566 120.221 26.8995 120.217 26.7466 120.241C26.5936 120.266 26.4483 120.319 26.32 120.397C25.5591 120.879 25.5788 122.376 25.8337 123.08C25.8572 123.139 26.3239 124.059 26.3357 124.049C26.3357 124.285 26.3357 124.539 26.3357 124.816C26.3592 125.327 26.3945 125.903 26.4808 126.528C26.5672 127.203 26.6981 127.873 26.8729 128.535C27.063 129.277 27.3255 130.003 27.6573 130.705C27.6581 130.713 27.6581 130.721 27.6573 130.729C27.4769 130.545 26.9592 130.035 26.9122 130.007C26.2808 129.524 24.7356 128.913 23.9355 129.344C23.805 129.418 23.6936 129.517 23.6086 129.632C23.5236 129.747 23.4669 129.877 23.4421 130.012C23.4174 130.148 23.4251 130.287 23.4648 130.42C23.5045 130.553 23.5754 130.677 23.6728 130.785C24.0649 131.253 24.8493 131.41 25.4925 131.41C26.1984 131.41 27.5906 130.854 27.7004 130.809C28.0582 131.514 28.4697 132.198 28.9319 132.854C29.1986 133.239 29.4809 133.618 29.7672 133.996C29.6064 133.843 29.4653 133.705 29.4417 133.687C28.8103 133.201 27.2651 132.594 26.4651 133.021C26.3335 133.095 26.2211 133.193 26.1353 133.308C26.0496 133.424 25.9924 133.554 25.9676 133.691C25.9428 133.827 25.9509 133.966 25.9913 134.1C26.0318 134.233 26.1037 134.358 26.2023 134.465C26.5945 134.934 27.3789 135.086 28.0181 135.09C28.6574 135.093 29.8535 134.635 30.1673 134.51L30.5045 134.944C31.0457 135.638 31.587 136.315 32.0968 137.003C32.2772 137.242 32.4458 137.489 32.6105 137.732C32.4694 137.593 32.3478 137.479 32.3282 137.465C31.6968 136.979 30.1516 136.368 29.3515 136.798C29.22 136.872 29.1077 136.97 29.022 137.085C28.9363 137.2 28.8791 137.33 28.8543 137.466C28.8294 137.602 28.8375 137.742 28.8779 137.875C28.9183 138.008 28.9902 138.132 29.0888 138.239C29.4809 138.708 30.2653 138.864 30.9085 138.864C31.5517 138.864 32.6223 138.454 32.9988 138.308C33.1596 138.562 33.3243 138.815 33.4694 139.069C33.5675 139.242 33.6733 139.416 33.7557 139.586C33.8381 139.756 33.9322 139.933 34.0185 140.11C34.1675 140.457 34.3283 140.805 34.4656 141.131C34.5675 141.364 34.6538 141.586 34.744 141.808C34.5714 141.568 34.2146 141.114 34.1793 141.062C33.6824 140.582 33.0544 140.223 32.3556 140.02C32.3038 139.963 32.2445 139.912 32.1791 139.867C32.0644 139.782 31.9312 139.719 31.7879 139.681C31.6445 139.643 31.494 139.631 31.3454 139.647C31.1968 139.662 31.0532 139.704 30.9235 139.77C30.7938 139.836 30.6806 139.924 30.5908 140.03C30.0731 140.725 30.7006 142.114 31.2222 142.69C31.2536 142.721 31.6379 143.061 31.8811 143.27L31.3869 142.957C31.0497 142.749 30.7045 142.551 30.3359 142.332L29.7868 142.034C29.6025 141.93 29.3947 141.843 29.1986 141.742C28.7397 141.523 28.2652 141.322 27.7789 141.131C27.9828 140.867 28.7005 139.93 28.8182 139.395C28.9358 138.86 28.9162 138.131 28.473 137.697C28.3726 137.592 28.2482 137.506 28.1079 137.446C27.9676 137.386 27.8146 137.353 27.6589 137.349C27.5031 137.344 27.3481 137.369 27.2039 137.421C27.0597 137.474 26.9296 137.552 26.822 137.652C26.1945 138.267 26.5749 139.735 26.9945 140.364C27.0181 140.405 27.3867 140.836 27.5828 141.058C27.2887 140.944 26.9945 140.829 26.6965 140.711C25.8258 140.402 24.9356 140.11 24.0492 139.819L23.2374 139.548C23.3119 139.454 24.1904 138.353 24.3238 137.742C24.4414 137.197 24.4218 136.479 23.9787 136.041C23.8778 135.936 23.7533 135.851 23.6131 135.791C23.4728 135.732 23.32 135.698 23.1644 135.694C23.0089 135.69 22.854 135.715 22.7099 135.767C22.5657 135.819 22.4355 135.897 22.3276 135.996C21.7001 136.611 22.0805 138.079 22.5001 138.711C22.5315 138.76 23.0492 139.378 23.1904 139.53C22.5943 139.329 22.0138 139.124 21.4295 138.902C20.6561 138.602 19.9043 138.26 19.1784 137.878C19.2097 137.833 20.1353 136.69 20.2686 136.062C20.3863 135.52 20.3667 134.798 19.9235 134.364C19.8233 134.259 19.6991 134.173 19.559 134.112C19.4189 134.052 19.266 134.018 19.1102 134.014C18.9545 134.009 18.7994 134.034 18.655 134.086C18.5107 134.138 18.3803 134.216 18.2724 134.316C17.6449 134.934 18.0293 136.399 18.445 137.031C18.4803 137.083 19.0372 137.746 19.147 137.86L19.0176 137.798C18.3018 137.395 17.6284 136.936 17.0057 136.427C16.6566 136.149 16.339 135.868 16.0409 135.586C16.237 135.388 17.1233 134.479 17.3155 133.927C17.5077 133.375 17.5704 132.677 17.1822 132.191C17.0957 132.076 16.983 131.979 16.8514 131.906C16.7197 131.833 16.5721 131.785 16.4181 131.766C16.2642 131.746 16.1074 131.756 15.9579 131.794C15.8084 131.832 15.6697 131.897 15.5507 131.986C14.8487 132.534 15.0487 134.02 15.3821 134.701C15.3821 134.736 15.6331 135.093 15.8095 135.354C15.6762 135.222 15.535 135.093 15.4174 134.968C14.9467 134.5 14.5506 134.041 14.2016 133.635C14.0055 133.406 13.833 133.191 13.6761 132.989C13.7545 132.708 14.0683 131.562 13.9388 131.003C13.8094 130.444 13.5153 129.795 12.9231 129.531C12.7863 129.463 12.6346 129.421 12.4781 129.408C12.3216 129.396 12.1639 129.413 12.0155 129.459C11.8671 129.504 11.7313 129.577 11.6173 129.673C11.5033 129.769 11.4137 129.885 11.3544 130.014C11.0171 130.788 11.9701 132.024 12.6211 132.489C12.676 132.531 13.6408 133.069 13.6447 133.055V133.038C13.7937 133.232 13.9545 133.444 14.1349 133.67C14.4761 134.083 14.8644 134.545 15.3115 135.027C15.8012 135.549 16.325 136.046 16.8802 136.513C17.4983 137.044 18.169 137.523 18.8842 137.947H18.9117C18.6489 137.881 17.8999 137.718 17.841 137.711C17.0135 137.614 15.3468 137.86 14.9428 138.61C14.8806 138.737 14.849 138.873 14.8501 139.011C14.8513 139.149 14.8851 139.286 14.9494 139.411C15.0137 139.537 15.1071 139.649 15.2235 139.741C15.3399 139.833 15.4768 139.902 15.6252 139.944C16.2488 140.155 17.0096 139.895 17.5312 139.593Z" fill="#263238"/>
<path d="M26.61 127.223C26.6296 127.223 26.108 126.324 26.0688 126.268C25.6021 125.654 24.2961 124.706 23.3941 124.931C23.2455 124.973 23.1083 125.041 22.9915 125.132C22.8748 125.224 22.7811 125.336 22.7167 125.461C22.6523 125.587 22.6186 125.723 22.6177 125.861C22.6168 125.999 22.6489 126.135 22.7117 126.261C22.9549 126.806 23.6765 127.143 24.2805 127.303C24.9864 127.463 26.61 127.223 26.61 127.223Z" fill="#263238"/>
<path d="M81.1785 40.6494L77.6685 43.3818" stroke="#263238" stroke-linecap="round" stroke-linejoin="round"/>
<path d="M112.416 16.3398L91.9949 32.231" stroke="#263238" stroke-linecap="round" stroke-linejoin="round"/>
<path d="M109.36 15.6621L89.5042 22.0852" stroke="#263238" stroke-linecap="round" stroke-linejoin="round"/>
<path d="M91.1751 13.0342L78.4292 13.9716" stroke="#263238" stroke-linecap="round" stroke-linejoin="round"/>
<path d="M105.921 11.9443L92.5986 12.9269" stroke="#263238" stroke-linecap="round" stroke-linejoin="round"/>
<path d="M100.274 4.93719L86.9944 1" stroke="#263238" stroke-linecap="round" stroke-linejoin="round"/>
<path d="M104.776 6.19612L102.121 5.45312" stroke="#263238" stroke-linecap="round" stroke-linejoin="round"/>
<path d="M158.159 40.6494L161.669 43.3818" stroke="#263238" stroke-linecap="round" stroke-linejoin="round"/>
<path d="M126.922 16.3398L155.999 38.97" stroke="#263238" stroke-linecap="round" stroke-linejoin="round"/>
<path d="M129.978 15.6621L149.834 22.0852" stroke="#263238" stroke-linecap="round" stroke-linejoin="round"/>
<path d="M148.159 13.0342L160.905 13.9716" stroke="#263238" stroke-linecap="round" stroke-linejoin="round"/>
<path d="M133.413 11.9443L146.739 12.9269" stroke="#263238" stroke-linecap="round" stroke-linejoin="round"/>
<path d="M139.064 4.93684L149.209 2.08984" stroke="#263238" stroke-linecap="round" stroke-linejoin="round"/>
<path d="M134.558 6.19612L137.217 5.45312" stroke="#263238" stroke-linecap="round" stroke-linejoin="round"/>
<path d="M120.051 13.4131H117.949V21.3361H120.051V13.4131Z" fill="#92E3A9" stroke="#263238" stroke-linecap="round" stroke-linejoin="round"/>
<path d="M122.106 23.0317H115.894L116.627 19.959H121.373L122.106 23.0317Z" fill="#92E3A9" stroke="#263238" stroke-linecap="round" stroke-linejoin="round"/>
<path d="M125.848 24.3248H112.153L113.611 21.4951H124.389L125.848 24.3248Z" fill="#92E3A9" stroke="#263238" stroke-linecap="round" stroke-linejoin="round"/>
<path d="M112.059 5.02423C111.079 5.00769 110.116 5.24971 109.292 5.71947C108.469 6.18923 107.822 6.86545 107.434 7.66195C107.046 8.45844 106.935 9.33915 107.114 10.1918C107.294 11.0445 107.756 11.8305 108.442 12.4497C109.128 13.0689 110.007 13.4932 110.967 13.6686C111.926 13.844 112.923 13.7625 113.83 13.4345C114.737 13.1066 115.513 12.5469 116.06 11.827C116.606 11.107 116.898 10.2593 116.898 9.39195C116.904 8.82383 116.784 8.2602 116.544 7.73324C116.304 7.20627 115.95 6.72629 115.5 6.32071C115.051 5.91512 114.515 5.59187 113.925 5.36942C113.334 5.14697 112.7 5.02968 112.059 5.02423ZM112.059 12.6625C111.328 12.6742 110.61 12.4932 109.997 12.1424C109.383 11.7916 108.901 11.2869 108.612 10.6928C108.324 10.0986 108.242 9.44183 108.376 8.80616C108.511 8.17049 108.856 7.5847 109.368 7.12346C109.88 6.66221 110.536 6.3464 111.252 6.21628C111.967 6.08615 112.71 6.1476 113.386 6.3928C114.063 6.63799 114.641 7.05583 115.048 7.59305C115.454 8.13028 115.671 8.76255 115.67 9.4093C115.674 10.2618 115.295 11.0806 114.619 11.687C113.942 12.2933 113.021 12.6378 112.059 12.6452V12.6625Z" fill="#92E3A9" stroke="#263238" stroke-linecap="round" stroke-linejoin="round"/>
<path d="M126.675 5.02423C125.696 5.00769 124.733 5.24971 123.909 5.71947C123.085 6.18923 122.438 6.86545 122.051 7.66195C121.663 8.45844 121.551 9.33915 121.731 10.1918C121.911 11.0445 122.373 11.8305 123.059 12.4497C123.745 13.0689 124.624 13.4932 125.583 13.6686C126.543 13.844 127.54 13.7625 128.447 13.4345C129.354 13.1066 130.13 12.5469 130.676 11.827C131.223 11.107 131.515 10.2593 131.515 9.39195C131.521 8.82383 131.401 8.2602 131.161 7.73324C130.921 7.20627 130.566 6.72629 130.117 6.32071C129.667 5.91512 129.132 5.59187 128.542 5.36942C127.951 5.14697 127.317 5.02968 126.675 5.02423ZM126.675 12.6625C125.945 12.6749 125.226 12.4944 124.612 12.1441C123.998 11.7937 123.515 11.2893 123.226 10.6952C122.937 10.1011 122.854 9.44428 122.989 8.80838C123.123 8.17249 123.468 7.58638 123.98 7.12478C124.492 6.66319 125.147 6.34703 125.863 6.21661C126.579 6.0862 127.322 6.14743 127.998 6.39252C128.675 6.6376 129.253 7.05542 129.66 7.59271C130.067 8.13 130.284 8.76241 130.283 9.4093C130.286 10.2612 129.909 11.0795 129.233 11.6858C128.557 12.292 127.637 12.6369 126.675 12.6452V12.6625Z" fill="#92E3A9" stroke="#263238" stroke-linecap="round" stroke-linejoin="round"/>
<path d="M119 15.5928C118.197 15.5932 117.401 15.4536 116.659 15.1818C115.917 14.9099 115.242 14.5113 114.674 14.0086C114.106 13.506 113.655 12.9091 113.348 12.2522C113.04 11.5953 112.882 10.8911 112.882 10.18V4.60059H125.106V10.18C125.106 11.6144 124.463 12.9901 123.318 14.005C122.173 15.0199 120.62 15.5909 119 15.5928Z" fill="#92E3A9" stroke="#263238" stroke-linecap="round" stroke-linejoin="round"/>
<path d="M118.831 6.38281L119.619 8.52848H122.169L120.106 9.85476L120.894 12.0004L118.831 10.6741L116.768 12.0004L117.557 9.85476L115.494 8.52848H118.043L118.831 6.38281Z" fill="#263238"/>
<path d="M139.209 24.3516H99.0498V56.7657H139.209V24.3516Z" fill="#263238" stroke="#263238" stroke-linejoin="round"/>
<path d="M125.742 24.3516H99.0498V56.7657H125.742V24.3516Z" fill="white" stroke="#263238" stroke-linejoin="round"/>
<path d="M108.293 40.4551H68.1338V72.8692H108.293V40.4551Z" fill="#263238" stroke="#263238" stroke-linejoin="round"/>
<path d="M94.8256 40.4551H68.1338V72.8692H94.8256V40.4551Z" fill="white" stroke="#263238" stroke-linejoin="round"/>
<path d="M86.2807 49.6388V47.0488H84.4492C84.3094 46.5966 84.101 46.1632 83.8295 45.7607L84.9629 44.7538L82.8922 42.9206L81.7627 43.9205C81.2562 43.6487 80.7062 43.4463 80.1313 43.3199V42.1221H77.2017V43.3199C76.5693 43.4636 75.9678 43.6982 75.4212 44.0143L74.6133 43.2991L72.5544 45.1218L73.4289 45.8961C73.102 46.4152 72.8778 46.98 72.7661 47.5661H71.6523V50.1596H72.9858C73.1885 50.6956 73.4864 51.1995 73.8682 51.6526L72.9661 52.4511L75.0251 54.2739L76.1428 53.2844C76.6652 53.4997 77.22 53.647 77.79 53.7219V55.0724H80.7156V53.458C81.2019 53.3019 81.6633 53.0906 82.0883 52.8296L83.3079 53.9093L85.3787 52.0761L84.0178 50.8714C84.2448 50.4776 84.4148 50.0599 84.5237 49.6284L86.2807 49.6388ZM78.6684 51.722C77.9438 51.7227 77.2352 51.5331 76.6323 51.1772C76.0295 50.8213 75.5594 50.3151 75.2815 49.7226C75.0037 49.1301 74.9306 48.478 75.0715 47.8487C75.2124 47.2194 75.5609 46.6413 76.073 46.1874C76.5852 45.7336 77.2378 45.4244 77.9485 45.299C78.6591 45.1736 79.3958 45.2376 80.0654 45.4829C80.7349 45.7283 81.3072 46.1439 81.7099 46.6772C82.1126 47.2106 82.3275 47.8377 82.3275 48.4792C82.3254 49.3374 81.9391 50.16 81.2533 50.7665C80.5674 51.373 79.6379 51.7142 78.6684 51.7151V51.722Z" fill="#92E3A9"/>
<path d="M88.9594 59.9142V58.0081H87.6142C87.5085 57.6758 87.3542 57.3571 87.1553 57.0602L87.9907 56.3207L86.469 54.9666L85.6376 55.7027C85.265 55.5029 84.8604 55.3543 84.4375 55.2618V54.3799H82.2845V55.2618C81.8194 55.3644 81.3768 55.5345 80.9746 55.7652L80.3981 55.2444L78.8764 56.5915L79.5196 57.1609C79.28 57.5436 79.1143 57.959 79.0294 58.39H78.2136V60.2961H79.1941C79.3423 60.69 79.5608 61.0604 79.8412 61.3932L79.1784 61.98L80.7001 63.3271L81.5236 62.6015C81.9073 62.7577 82.3139 62.8653 82.7315 62.9209V63.9139H84.8846V62.7299C85.2406 62.611 85.578 62.4523 85.8886 62.2577L86.7867 63.0528L88.3083 61.7057L87.3083 60.8204C87.4745 60.5311 87.5984 60.2242 87.6769 59.9072L88.9594 59.9142ZM83.363 61.4384C82.8308 61.4384 82.3107 61.2987 81.8683 61.037C81.4258 60.7753 81.081 60.4033 80.8774 59.9681C80.6738 59.5329 80.6205 59.054 80.7243 58.5919C80.8281 58.1299 81.0843 57.7055 81.4606 57.3724C81.8368 57.0393 82.3162 56.8125 82.8381 56.7206C83.36 56.6287 83.9009 56.6759 84.3925 56.8561C84.8841 57.0364 85.3043 57.3417 85.5999 57.7334C85.8955 58.125 86.0533 58.5855 86.0533 59.0566C86.0533 59.3694 85.9837 59.6791 85.8485 59.9681C85.7133 60.257 85.5151 60.5196 85.2653 60.7408C85.0155 60.9619 84.7189 61.1374 84.3925 61.2571C84.0661 61.3768 83.7163 61.4384 83.363 61.4384Z" fill="#92E3A9"/>
<path d="M130.499 61.3701H90.3396V93.7842H130.499V61.3701Z" fill="#263238" stroke="#263238" stroke-linejoin="round"/>
<path d="M117.031 61.3701H90.3396V93.7842H117.031V61.3701Z" fill="white" stroke="#263238" stroke-linejoin="round"/>
<path d="M110.49 67.015L108.172 65.5013C107.734 65.2147 107.208 65.0529 106.664 65.0374C106.119 65.0219 105.583 65.1534 105.125 65.4145L100.528 67.8448C100.286 67.9765 100.108 68.1838 100.03 68.426C99.9512 68.6681 99.9782 68.9274 100.105 69.1528C100.232 69.3782 100.45 69.5532 100.716 69.6434C100.981 69.7335 101.276 69.7323 101.54 69.6398L105.835 68.3344L110.988 73.0562L114.192 72.0667V66.2929L110.49 67.015Z" fill="#92E3A9"/>
<path d="M105.266 68.9736L100.987 70.2791C100.203 70.5777 99.3519 69.425 99.3519 68.675C99.3519 67.7064 100.395 67.439 101.215 66.7967L101.999 66.1856C101.576 65.8451 101.048 65.6247 100.483 65.5529C99.917 65.4811 99.34 65.5612 98.8264 65.7829C97.5944 66.3171 96.1777 66.4116 94.8693 66.0468L93.7319 65.7308V72.147L95.183 72.3067L95.3203 72.2025C95.7945 71.8424 96.4079 71.659 97.0316 71.6907C97.6554 71.7224 98.241 71.9668 98.6656 72.3727L103.811 77.2716C103.928 77.3819 104.087 77.449 104.257 77.4593C104.428 77.4696 104.596 77.4224 104.729 77.3271C104.799 77.2763 104.856 77.2136 104.898 77.1426C104.939 77.0716 104.965 76.9939 104.972 76.9141C104.979 76.8344 104.967 76.7542 104.938 76.6784C104.909 76.6026 104.863 76.5327 104.803 76.473L103.517 75.1954L105.301 76.2369C105.473 76.329 105.677 76.3632 105.875 76.3335C106.074 76.3037 106.253 76.2119 106.381 76.0748C106.51 75.9377 106.578 75.7644 106.574 75.5865C106.57 75.4085 106.494 75.2377 106.36 75.1051L105.325 74.1538L106.894 75.0322C107.082 75.1332 107.306 75.1711 107.523 75.1392C107.741 75.1073 107.939 75.0075 108.081 74.858C108.223 74.7084 108.3 74.5189 108.298 74.3236C108.296 74.1283 108.215 73.94 108.07 73.7927L107.141 72.8726L108.843 73.7857C108.971 73.8546 109.12 73.8865 109.27 73.8772C109.419 73.8678 109.562 73.8177 109.678 73.7337C109.758 73.6761 109.823 73.6043 109.869 73.5229C109.914 73.4415 109.94 73.3523 109.944 73.2614C109.948 73.1705 109.931 73.0798 109.892 72.9954C109.854 72.911 109.795 72.8349 109.721 72.7719L105.266 68.9736Z" fill="#92E3A9"/>
<path d="M97.2613 74.6295L97.9202 73.8934C98.0528 73.7349 98.1106 73.5369 98.0814 73.3413C98.0521 73.1457 97.9382 72.9678 97.7636 72.8453C97.5889 72.7227 97.3674 72.665 97.1456 72.6843C96.9238 72.7037 96.7192 72.7986 96.575 72.9491L95.9162 73.6851C95.7836 73.8437 95.7258 74.0417 95.755 74.2373C95.7842 74.4329 95.8982 74.6107 96.0728 74.7333C96.2474 74.8559 96.469 74.9136 96.6908 74.8942C96.9126 74.8749 97.1171 74.7799 97.2613 74.6295Z" fill="#92E3A9"/>
<path d="M98.532 75.7029L99.1909 74.9668C99.3153 74.8079 99.3666 74.6129 99.3344 74.4216C99.3022 74.2303 99.1888 74.0571 99.0174 73.9372C98.846 73.8173 98.6294 73.7597 98.4117 73.7762C98.194 73.7927 97.9916 73.882 97.8457 74.0259L97.1868 74.7585C97.0624 74.9175 97.0111 75.1125 97.0433 75.3038C97.0756 75.4951 97.1889 75.6683 97.3604 75.7882C97.5318 75.9081 97.7484 75.9656 97.966 75.9492C98.1837 75.9327 98.3861 75.8434 98.532 75.6994V75.7029Z" fill="#92E3A9"/>
<path d="M99.7914 76.7754L100.446 76.0429C100.579 75.8843 100.637 75.6863 100.607 75.4907C100.578 75.2951 100.464 75.1173 100.29 74.9947C100.115 74.8721 99.8935 74.8144 99.6717 74.8338C99.4499 74.8531 99.2453 74.9481 99.1011 75.0985L98.4384 75.8345C98.2974 75.9922 98.2327 76.1928 98.2585 76.3926C98.2842 76.5923 98.3982 76.7749 98.5756 76.9004C98.6644 76.9636 98.7664 77.0106 98.8759 77.0385C98.9853 77.0665 99.0999 77.0749 99.2131 77.0633C99.3262 77.0516 99.4356 77.0202 99.5349 76.9708C99.6342 76.9214 99.7214 76.855 99.7914 76.7754Z" fill="#92E3A9"/>
<path d="M101.575 76.049C101.487 75.987 101.386 75.941 101.278 75.9137C101.169 75.8864 101.056 75.8783 100.944 75.8899C100.832 75.9015 100.724 75.9326 100.626 75.9814C100.527 76.0301 100.441 76.0956 100.371 76.174L99.7125 76.9066C99.638 76.9843 99.5819 77.0745 99.5476 77.1719C99.5133 77.2692 99.5014 77.3717 99.5127 77.4732C99.524 77.5747 99.5583 77.6731 99.6134 77.7626C99.6686 77.8521 99.7435 77.9309 99.8338 77.9943C99.924 78.0576 100.028 78.1043 100.139 78.1314C100.25 78.1586 100.366 78.1657 100.48 78.1523C100.594 78.1389 100.704 78.1054 100.803 78.0536C100.903 78.0018 100.989 77.9329 101.058 77.8509L101.717 77.1149C101.787 77.0368 101.839 76.9472 101.869 76.8513C101.9 76.7554 101.909 76.655 101.896 76.556C101.883 76.4569 101.848 76.3611 101.793 76.2741C101.738 76.1871 101.664 76.1106 101.575 76.049Z" fill="#92E3A9"/>
<path d="M95.5362 82.0732H55.377V114.487H95.5362V82.0732Z" fill="#263238" stroke="#263238" stroke-linejoin="round"/>
<path d="M82.0687 82.0732H55.377V114.487H82.0687V82.0732Z" fill="white" stroke="#263238" stroke-linejoin="round"/>
<path d="M62.3652 98.3115H59.4121V102.648H62.3652V98.3115Z" fill="#92E3A9"/>
<path d="M65.9502 96.458H62.9971V102.652H65.9502V96.458Z" fill="#92E3A9"/>
<path d="M69.5381 95.1904H66.585V102.648H69.5381V95.1904Z" fill="#92E3A9"/>
<path d="M73.123 93.5029H70.1699V102.652H73.123V93.5029Z" fill="#92E3A9"/>
<path d="M71.378 90.7803L68.9975 91.4399L69.6289 91.9538L67.9386 93.5856L63.9698 94.2522L59.797 97.0888C59.7144 97.1446 59.6601 97.2271 59.6461 97.3182C59.6322 97.4093 59.6596 97.5016 59.7224 97.5749C59.786 97.6475 59.8795 97.6948 59.9824 97.7065C60.0853 97.7182 60.1892 97.6934 60.2715 97.6374L64.3188 94.8945L68.3583 94.2001L70.225 92.4017L70.8564 92.9155L71.378 90.7803Z" fill="#92E3A9"/>
<path d="M119.871 106.679H79.7114V139.093H119.871V106.679Z" fill="#263238" stroke="#263238" stroke-linejoin="round"/>
<path d="M106.403 106.679H79.7114V139.093H106.403V106.679Z" fill="white" stroke="#263238" stroke-linejoin="round"/>
<path d="M97.3636 118.12L94.9085 116.686V116.276C95.4284 115.665 95.7179 114.924 95.736 114.158C95.736 112.28 94.8693 112.075 93.7947 112.075C92.7201 112.075 91.8534 112.485 91.8534 114.158C91.8739 114.94 92.1763 115.696 92.7162 116.314V116.554L90.0259 118.12C89.8004 118.251 89.6153 118.43 89.4873 118.64C89.3593 118.851 89.2923 119.086 89.2925 119.325V119.838L93.5672 121.498L98.1087 119.838V119.325C98.1076 119.085 98.0388 118.849 97.9087 118.639C97.7786 118.428 97.5912 118.25 97.3636 118.12Z" fill="#92E3A9"/>
<path d="M100.058 116.005C100.06 114.926 99.713 113.87 99.0569 112.961C98.4007 112.052 97.4635 111.33 96.3566 110.879C95.2498 110.428 94.0201 110.269 92.8137 110.419C91.6074 110.57 90.4753 111.024 89.5522 111.728C88.629 112.431 87.9538 113.355 87.6067 114.389C87.2596 115.423 87.2554 116.523 87.5945 117.559C87.9337 118.595 88.6018 119.523 89.5196 120.232C90.4373 120.941 91.5659 121.402 92.771 121.56V126C92.5899 126.112 92.4418 126.26 92.3393 126.433C92.2369 126.606 92.1832 126.798 92.1827 126.993V134.528C92.1827 134.85 92.3274 135.159 92.5848 135.387C92.8422 135.615 93.1913 135.743 93.5554 135.743C93.9194 135.743 94.2686 135.615 94.526 135.387C94.7834 135.159 94.928 134.85 94.928 134.528V126.993C94.9286 126.798 94.8753 126.605 94.7728 126.432C94.6703 126.259 94.5216 126.111 94.3397 126V121.605C95.9066 121.463 97.3584 120.812 98.4146 119.778C99.4707 118.743 100.056 117.399 100.058 116.005ZM88.5198 116.005C88.519 115.097 88.8222 114.21 89.391 113.456C89.9598 112.701 90.7686 112.113 91.7152 111.765C92.6618 111.417 93.7036 111.326 94.7088 111.503C95.714 111.679 96.6375 112.116 97.3624 112.757C98.0873 113.398 98.5811 114.215 98.7813 115.105C98.9816 115.995 98.8792 116.917 98.4872 117.756C98.0952 118.594 97.4312 119.31 96.5791 119.814C95.7271 120.319 94.7253 120.588 93.7005 120.588C92.3278 120.586 91.0119 120.103 90.0409 119.244C89.0698 118.385 88.5229 117.22 88.5198 116.005Z" fill="#92E3A9"/>
<path d="M71.7974 130.065H31.6382V162.48H71.7974V130.065Z" fill="#263238" stroke="#263238" stroke-linejoin="round"/>
<path d="M58.33 130.065H31.6382V162.48H58.33V130.065Z" fill="white" stroke="#263238" stroke-linejoin="round"/>
<path d="M54.3216 149.971C54.3213 149.731 54.2538 149.495 54.1251 149.284C53.9964 149.074 53.8106 148.894 53.5843 148.763L51.1175 147.322V146.912C51.6386 146.301 51.9295 145.56 51.9489 144.794C51.9489 142.919 51.0783 142.711 49.988 142.711C48.8978 142.711 48.0467 143.121 48.0467 144.794C48.0642 145.576 48.3669 146.333 48.9095 146.95V147.193L46.2192 148.756C45.9929 148.887 45.8071 149.067 45.6784 149.277C45.5497 149.488 45.4822 149.724 45.4819 149.964V151.276C45.2519 151.237 45.0179 151.22 44.7838 151.224C44.5822 151.222 44.3809 151.239 44.1838 151.276V149.964C44.1834 149.724 44.1159 149.488 43.9872 149.277C43.8585 149.067 43.6727 148.887 43.4465 148.756L40.9993 147.322V146.912C41.5204 146.301 41.8112 145.56 41.8307 144.794C41.8307 143.353 41.3169 142.895 40.5875 142.76L41.8464 141.489H43.9837L44.5563 148.749H44.8112L45.6348 141.485H48.537L49.639 142.61L49.5645 141.485H50.9842V132H38.9795V141.496H40.7287L40.5679 142.763C40.3438 142.729 40.1167 142.712 39.8894 142.714C38.8148 142.714 37.9481 143.124 37.9481 144.798C37.965 145.589 38.2735 146.353 38.8266 146.975V147.218L36.1362 148.78C35.91 148.912 35.7241 149.091 35.5955 149.302C35.4668 149.513 35.3992 149.748 35.3989 149.988V152.182H43.0739C42.9311 152.55 42.8646 152.937 42.8778 153.325C42.8967 154.107 43.1992 154.863 43.7406 155.481V155.72L41.0502 157.286C40.8238 157.417 40.6378 157.595 40.509 157.806C40.3803 158.016 40.3129 158.252 40.3129 158.491V160.696H49.1331V158.491C49.1332 158.252 49.0658 158.016 48.937 157.806C48.8083 157.595 48.6222 157.417 48.3958 157.286L45.929 155.852V155.443C46.4501 154.831 46.7409 154.09 46.7604 153.325C46.7723 152.939 46.7181 152.554 46.5996 152.182H54.3373L54.3216 149.971ZM39.2384 141.267V132.24H50.7332V141.267H49.2939L49.337 141.961L48.6546 141.267H45.3995L44.7093 147.402L44.2269 141.267H41.7287L40.913 142.114L41.0149 141.284L39.2384 141.267Z" fill="#92E3A9"/>
<path d="M43.627 139.555H46.2624V139.201H43.6309L43.627 139.555Z" fill="#92E3A9"/>
<path d="M43.8074 140.176H46.082C46.1975 140.07 46.2621 139.928 46.2624 139.78H43.627C43.6273 139.928 43.6919 140.07 43.8074 140.176Z" fill="#92E3A9"/>
<path d="M44.608 140.933H45.2747C45.3605 140.933 45.4456 140.919 45.5251 140.89C45.6045 140.861 45.6767 140.819 45.7376 140.765C45.7985 140.712 45.8468 140.648 45.8797 140.578C45.9127 140.508 45.9297 140.432 45.9297 140.356H43.9688C43.9677 140.508 44.0344 140.653 44.1541 140.761C44.2739 140.869 44.4371 140.931 44.608 140.933Z" fill="#92E3A9"/>
<path d="M43.2429 137.431C43.6313 137.846 43.8436 138.368 43.843 138.906V139.014H46.0549V138.906C46.0544 138.367 46.2682 137.845 46.6588 137.431C46.9956 137.077 47.1803 136.63 47.1804 136.167C47.1806 135.897 47.1181 135.63 46.9966 135.382C46.8752 135.134 46.6975 134.911 46.4746 134.727C46.2517 134.543 45.9883 134.401 45.7009 134.311C45.4135 134.22 45.1081 134.183 44.8038 134.202C44.3937 134.225 43.999 134.349 43.6632 134.559C43.3275 134.769 43.0638 135.056 42.9015 135.391C42.7391 135.725 42.6843 136.092 42.7432 136.452C42.8021 136.812 42.9723 137.151 43.2351 137.431H43.2429Z" fill="#92E3A9"/>
<path d="M47.5254 136.181C47.5254 136.23 47.5477 136.278 47.5874 136.313C47.6271 136.348 47.681 136.368 47.7372 136.368H48.8549C48.9111 136.368 48.9649 136.348 49.0046 136.313C49.0444 136.278 49.0667 136.23 49.0667 136.181C49.0667 136.131 49.0444 136.083 49.0046 136.048C48.9649 136.013 48.9111 135.993 48.8549 135.993H47.7372C47.681 135.993 47.6271 136.013 47.5874 136.048C47.5477 136.083 47.5254 136.131 47.5254 136.181Z" fill="#92E3A9"/>
<path d="M42.2933 136.181C42.2933 136.131 42.271 136.083 42.2312 136.048C42.1915 136.013 42.1377 135.993 42.0815 135.993H40.952C40.8958 135.993 40.842 136.013 40.8023 136.048C40.7625 136.083 40.7402 136.131 40.7402 136.181C40.7402 136.23 40.7625 136.278 40.8023 136.313C40.842 136.348 40.8958 136.368 40.952 136.368H42.0815C42.1377 136.368 42.1915 136.348 42.2312 136.313C42.271 136.278 42.2933 136.23 42.2933 136.181Z" fill="#92E3A9"/>
<path d="M44.9095 133.862C44.9657 133.862 45.0195 133.842 45.0592 133.807C45.099 133.772 45.1213 133.724 45.1213 133.675V132.682C45.1218 132.657 45.1168 132.633 45.1066 132.61C45.0964 132.587 45.0812 132.567 45.0618 132.549C45.0424 132.532 45.0194 132.518 44.9939 132.508C44.9684 132.499 44.9411 132.494 44.9134 132.494C44.8579 132.495 44.8051 132.515 44.7662 132.55C44.7273 132.585 44.7056 132.632 44.7056 132.682V133.671C44.7055 133.72 44.7266 133.767 44.7645 133.803C44.8025 133.838 44.8544 133.859 44.9095 133.862Z" fill="#92E3A9"/>
<path d="M46.9291 134.576C46.985 134.576 47.0385 134.556 47.0781 134.521L47.8625 133.826C47.8824 133.809 47.8983 133.789 47.9091 133.766C47.9199 133.743 47.9255 133.719 47.9255 133.694C47.9255 133.67 47.9199 133.645 47.9091 133.623C47.8983 133.6 47.8824 133.58 47.8625 133.562C47.8222 133.527 47.768 133.508 47.7115 133.508C47.655 133.508 47.6008 133.527 47.5605 133.562L46.7762 134.257C46.7369 134.292 46.7148 134.339 46.7148 134.389C46.7148 134.438 46.7369 134.486 46.7762 134.521C46.8177 134.555 46.8721 134.575 46.9291 134.576Z" fill="#92E3A9"/>
<path d="M42.749 137.829L41.9646 138.523C41.9254 138.558 41.9033 138.606 41.9033 138.655C41.9033 138.704 41.9254 138.752 41.9646 138.787C41.984 138.805 42.0072 138.819 42.0328 138.828C42.0584 138.838 42.0859 138.843 42.1137 138.843C42.1414 138.843 42.1689 138.838 42.1945 138.828C42.2201 138.819 42.2433 138.805 42.2627 138.787L43.047 138.093C43.0804 138.057 43.0974 138.011 43.0949 137.964C43.0923 137.918 43.0703 137.874 43.0331 137.841C42.9959 137.808 42.9462 137.789 42.8937 137.786C42.8412 137.784 42.7896 137.799 42.749 137.829Z" fill="#92E3A9"/>
<path d="M42.7093 134.499C42.7293 134.517 42.7531 134.531 42.7794 134.541C42.8057 134.551 42.8338 134.555 42.8622 134.555C42.9039 134.555 42.9446 134.544 42.9791 134.523C43.0137 134.502 43.0406 134.473 43.0565 134.439C43.0724 134.405 43.0766 134.367 43.0686 134.331C43.0605 134.295 43.0406 134.262 43.0113 134.236L42.2622 133.572C42.2434 133.552 42.2201 133.536 42.1937 133.524C42.1673 133.512 42.1384 133.505 42.1089 133.504C42.0794 133.503 42.0499 133.507 42.0223 133.516C41.9947 133.526 41.9696 133.54 41.9487 133.559C41.9278 133.577 41.9115 133.599 41.9009 133.624C41.8903 133.648 41.8855 133.674 41.887 133.701C41.8884 133.727 41.896 133.752 41.9093 133.776C41.9226 133.799 41.9413 133.82 41.9641 133.836L42.7093 134.499Z" fill="#92E3A9"/>
<path d="M47.0977 137.861C47.0573 137.826 47.0031 137.807 46.9467 137.807C46.8902 137.807 46.836 137.826 46.7957 137.861C46.7564 137.896 46.7344 137.944 46.7344 137.993C46.7344 138.043 46.7564 138.09 46.7957 138.125L47.5408 138.785C47.5602 138.802 47.5834 138.816 47.609 138.826C47.6346 138.836 47.6621 138.841 47.6899 138.841C47.7176 138.841 47.7452 138.836 47.7707 138.826C47.7963 138.816 47.8195 138.802 47.8389 138.785C47.8782 138.75 47.9002 138.702 47.9002 138.653C47.9002 138.603 47.8782 138.556 47.8389 138.521L47.0977 137.861Z" fill="#92E3A9"/>
<path d="M60.8826 57.0304C60.8826 57.0304 62.165 58.3324 61.9728 58.7872C61.8416 59.2315 61.777 59.6891 61.7807 60.1482C61.7807 60.1482 63.4435 60.9433 63.4435 61.3391C63.3824 61.7149 63.2498 62.0789 63.0513 62.4154C63.0513 62.4154 63.4435 64.6826 63.1808 65.2485C62.918 65.8145 60.1688 66.2137 60.1688 66.2137L59.1452 68.9913L53.2625 67.4046L54.2234 64.6271C54.2234 64.6271 52.7527 61.3391 52.4938 60.2628C52.235 59.1865 54.0939 57.086 56.4156 56.5756C57.9213 56.3022 59.4863 56.4615 60.8826 57.0304Z" fill="white" stroke="#263238" stroke-linejoin="round"/>
<path d="M58.8982 62.1891C58.8982 62.1891 59.9218 62.2446 59.7963 61.7898C59.6708 61.335 59.2825 61.0954 59.4747 60.8836C59.6668 60.6718 60.8826 59.9774 60.4983 59.5226C60.1139 59.0678 58.9609 58.731 59.4747 58.2206C59.9884 57.7103 62.9337 56.5749 62.9337 56.5749C62.9337 56.5749 59.9217 55.3285 59.4747 55.3285C59.0276 55.3285 61.2669 54.707 60.4983 54.1966C59.7296 53.6863 54.7999 53.6863 52.8154 56.009C50.831 58.3317 51.0859 59.6927 51.8546 61.6197C52.6233 63.5466 54.094 65.8173 54.8626 65.9874C55.6313 66.1575 58.1922 66.2686 58.3217 65.477C58.4511 64.6854 58.8982 62.1891 58.8982 62.1891Z" fill="#263238" stroke="#263238" stroke-linejoin="round"/>
<path d="M59.7297 62.7016C59.7297 62.7016 57.9178 60.7191 57.808 61.476C57.6982 62.2329 58.3414 64.9479 59.514 64.3056" fill="white"/>
<path d="M59.7297 62.7016C59.7297 62.7016 57.9178 60.7191 57.808 61.476C57.6982 62.2329 58.3414 64.9479 59.514 64.3056" stroke="#263238" stroke-linejoin="round"/>
<path d="M49.6782 68.4812C49.6782 68.4812 51.0862 68.877 54.4785 69.502C57.8709 70.1269 60.7534 70.7484 60.7534 70.7484C60.7534 70.7484 59.8592 68.3667 58.8984 67.9153C57.9375 67.464 52.8157 66.5543 52.1764 66.6099C51.5372 66.6654 49.6782 68.4812 49.6782 68.4812Z" fill="white" stroke="#263238" stroke-linejoin="round"/>
<path d="M71.3777 84.2949C71.3777 84.2949 77.2055 79.6495 77.5231 79.3648C77.8408 79.0801 77.131 76.8719 77.131 76.5316C77.131 76.1914 78.4761 75.622 78.4761 75.622C78.4761 75.622 78.6683 74.7158 79.3076 74.7158C79.9468 74.7158 81.0371 75.4519 81.0371 75.4519L81.1665 76.0768C81.1665 76.0768 82.0607 77.8336 82.0607 78.1183C81.9716 78.7209 81.6567 79.2796 81.1665 79.705C80.5272 80.2709 79.0526 81.4618 79.0526 81.4618C79.0526 81.4618 73.9308 87.5829 72.7778 88.4335C71.6247 89.2841 70.0874 90.1903 69.5109 89.173C68.9344 88.1557 71.3777 84.2949 71.3777 84.2949Z" fill="white" stroke="#263238" stroke-linejoin="round"/>
<path d="M78.492 75.624L78.6842 76.0788L78.1704 76.4191" stroke="#263238" stroke-linejoin="round"/>
<path d="M34.568 77.6631C34.568 77.6631 32.3247 79.7046 32.4541 80.5552C32.5835 81.4058 37.7682 90.8704 37.7682 90.8704C37.7682 90.8704 38.1603 92.2904 38.4074 92.4015C38.6545 92.5126 39.2388 93.3667 39.2388 93.3667C39.2388 93.3667 39.2388 94.1028 40.1997 93.3077C41.1605 92.5126 42.5057 91.6099 42.443 90.8773C42.3678 90.3885 42.1208 89.933 41.737 89.5753C41.737 89.5753 41.4194 88.881 41.0978 88.8393C40.7762 88.7976 39.3055 88.7803 39.3055 88.7803L37.6505 81.0656L34.568 77.6631Z" fill="white" stroke="#263238" stroke-linejoin="round"/>
<path d="M39.8154 90.1353L40.6508 90.5311C40.6508 90.5311 39.6233 91.8921 40.0076 92.1768C40.3919 92.4615 41.5449 90.42 41.6744 90.1353C41.8038 89.8506 41.4822 89.5693 41.4822 89.5693" fill="white"/>
<path d="M39.8154 90.1353L40.6508 90.5311C40.6508 90.5311 39.6233 91.8921 40.0076 92.1768C40.3919 92.4615 41.5449 90.42 41.6744 90.1353C41.8038 89.8506 41.4822 89.5693 41.4822 89.5693" stroke="#263238" stroke-linejoin="round"/>
<path d="M40.3289 90.6455L38.6621 91.951" stroke="#263238" stroke-linejoin="round"/>
<path d="M43.0619 119.237L38.9087 122.425C39.0676 122.797 39.3596 123.112 39.7401 123.324C40.2931 123.57 42.6932 125.615 43.4305 126.021C44.7597 126.769 46.2887 127.192 47.8622 127.247C49.8231 127.247 50.1721 126.594 50.1721 126.348C50.1721 126.101 46.3876 123.897 46.3876 123.897L45.5561 120.956L43.0619 119.237Z" fill="white" stroke="#263238" stroke-linejoin="round"/>
<path d="M39.744 121.785L38.9087 122.424C39.0676 122.796 39.3596 123.112 39.7401 123.323C40.2931 123.57 42.6932 125.615 43.4305 126.021C44.7597 126.769 46.2887 127.191 47.8622 127.247C48.9995 127.247 49.5917 127.024 49.8937 126.788C49.0565 126.611 48.2058 126.488 47.3484 126.42C46.0777 126.42 44.6777 125.41 44.6777 125.41L39.744 121.785Z" fill="white" stroke="#263238" stroke-linejoin="round"/>
<path d="M41.7366 87.4131C41.7366 87.4131 40.8346 91.5794 41.6464 92.8953C42.298 93.8934 43.0211 94.8537 43.8113 95.7701L55.3178 108.832L42.8661 119.497L45.7408 122.098C45.7408 122.098 61.428 110.64 62.3575 110.151C63.2869 109.661 62.3575 105.596 62.0869 105.238C61.8163 104.88 56.4081 94.4056 56.4081 94.4056L56.914 89.7393L41.7366 87.4131Z" fill="#263238" stroke="#263238" stroke-linejoin="round"/>
<path d="M50.0819 124.903C50.0819 124.903 52.8782 127.659 53.3252 127.941C53.7723 128.222 56.9451 129.854 56.9451 129.854C56.9451 129.854 56.8823 130.246 56.6274 130.305C56.3725 130.364 50.0819 130.416 49.6387 130.36C49.1956 130.305 45.4934 128.572 45.062 128.388C44.4276 128.081 43.8123 127.744 43.2188 127.378L46.015 123.382L50.0819 124.903Z" fill="white" stroke="#263238" stroke-linejoin="round"/>
<path d="M45.3486 94.8954L48.0155 96.5863L51.8314 107.641L45.3486 123.848L50.9882 125.237L51.3529 123.424L52.4745 121.522C52.4745 121.522 59.3612 108.148 59.4554 107.051C59.5495 105.954 56.4081 94.392 56.4081 94.392L55.8355 89.4966L45.9173 88.6494" fill="#263238"/>
<path d="M45.3486 94.8954L48.0155 96.5863L51.8314 107.641L45.3486 123.848L50.9882 125.237L51.3529 123.424L52.4745 121.522C52.4745 121.522 59.3612 108.148 59.4554 107.051C59.5495 105.954 56.4081 94.392 56.4081 94.392L55.8355 89.4966L45.9173 88.6494" stroke="#263238" stroke-linejoin="round"/>
<path d="M56.6274 130.31C56.8823 130.251 56.9451 129.859 56.9451 129.859L56.3842 129.567C53.9645 129.404 49.9054 129.126 49.6387 129.126C49.3721 129.126 45.415 127.078 43.9678 126.311L43.2188 127.383C43.8123 127.749 44.4276 128.086 45.062 128.394C45.5052 128.564 49.1917 130.31 49.6387 130.366C50.0858 130.421 56.3725 130.362 56.6274 130.31Z" fill="white" stroke="#263238" stroke-linejoin="round"/>
<path d="M50.5096 68.3115C50.5096 68.3115 44.172 68.8775 44.1053 69.1066C44.0386 69.3358 35.6538 77.3803 35.6538 77.3803L37.8971 81.1786L43.2739 79.1405L41.7365 87.4142C41.7365 87.4142 40.7129 87.7614 42.5679 88.6051C44.423 89.4488 48.7173 90.532 51.6626 90.532C54.6079 90.532 56.2707 90.532 56.9139 89.7404C57.3317 89.2506 57.5563 88.6529 57.5532 88.0391C57.6159 87.5843 60.6278 80.6682 60.6278 80.6682C60.6278 80.6682 67.3498 88.3065 67.6047 88.494C67.8597 88.6815 69.0793 88.8412 70.1029 87.7544C71.1265 86.6677 70.9343 84.1853 70.9343 84.1853C70.9343 84.1853 67.1576 78.1198 66.9655 77.2692C66.7733 76.4185 66.1811 73.7972 65.8125 73.1306C65.4438 72.464 64.9183 72.3945 63.8908 71.9397C62.8633 71.4849 60.0513 70.6377 60.0513 70.6377L50.5096 68.3115Z" fill="white" stroke="#263238" stroke-linejoin="round"/>
<path d="M44.7485 70.8066L43.2739 79.1393L43.9132 71.258" stroke="#263238" stroke-linejoin="round"/>
<path d="M43.0823 78.9104L41.4194 75.2822" stroke="#263238" stroke-linejoin="round"/>
<path d="M38.9483 76.8305L37.96 76.3027" stroke="#263238" stroke-linejoin="round"/>
<path d="M43.2736 79.1393L39.7832 77.2783" stroke="#263238" stroke-linejoin="round"/>
<path d="M63.624 76.5433L65.2359 74.3213" stroke="#263238" stroke-linejoin="round"/>
<path d="M60.6279 80.6675L63.1144 77.2441" stroke="#263238" stroke-linejoin="round"/>
<path d="M65.4751 77.9377L66.1967 77.5488" stroke="#263238" stroke-linejoin="round"/>
<path d="M61.0127 80.3307L64.6011 78.4072" stroke="#263238" stroke-linejoin="round"/>
<path d="M60.6904 80.2723L66.9653 79.3105" stroke="#263238" stroke-linejoin="round"/>
<path d="M42.5679 87.6422L48.8467 86.2812" stroke="#263238" stroke-linejoin="round"/>
<path d="M53.1255 84.388C53.5298 84.2488 53.9229 84.0852 54.302 83.8984" stroke="#263238" stroke-linejoin="round"/>
<path d="M45.1963 86.2812C47.5522 85.8851 49.8783 85.361 52.1614 84.7119" stroke="#263238" stroke-linejoin="round"/>
<path d="M70.8717 83.7857C70.7431 84.7062 70.2694 85.5619 69.5265 86.216C68.7958 86.9133 67.835 87.3884 66.7812 87.5736C66.7812 87.5736 67.3578 89.504 68.0637 89.504C68.7696 89.504 69.9854 89.8512 71.0717 88.5388C72.158 87.2264 72.4169 85.0251 72.0953 84.4557C71.7737 83.8863 71.5776 83.6155 70.8717 83.7857Z" fill="white" stroke="#263238" stroke-linejoin="round"/>
<path d="M36.6148 76.0771C36.6148 76.0771 39.6895 81.1774 39.4307 81.2851C39.1718 81.3927 38.0894 82.2503 37.7051 82.3058C37.3207 82.3614 35.5912 80.8302 34.9598 79.5283C34.3284 78.2263 34.1284 77.7124 34.3205 77.4868C34.5127 77.2611 36.2305 76.0771 36.6148 76.0771Z" fill="white" stroke="#263238" stroke-linejoin="round"/>
<path d="M176.651 49.0971C176.996 47.3611 177.494 43.0732 174.541 40.9658C170.795 38.2924 168.136 43.1045 164.874 39.3617C161.611 35.619 160.646 27.4877 150.99 27.5918C141.335 27.696 140.598 32.515 140.598 34.1191C140.598 35.7231 137.699 36.8966 137.095 36.8966C136.491 36.8966 133.107 35.5079 131.899 38.6083C130.691 41.7088 131.507 43.5038 129.589 43.5697C127.671 43.6357 125.275 41.3164 122.671 42.4761C120.067 43.6357 120.055 46.0973 118.969 46.9514C117.882 47.8055 116.067 46.3126 113.651 47.1667C112.188 47.684 111.745 48.5173 111.623 49.0936L176.651 49.0971Z" fill="white" stroke="black" stroke-miterlimit="10"/>
<path d="M70.8562 15.5475C71.064 14.5059 71.3621 11.9055 69.5776 10.6312C67.3148 9.01332 65.7068 11.9228 63.7302 9.6591C61.7537 7.39539 61.1811 2.47911 55.3258 2.54161C49.4706 2.6041 49.0509 5.51707 49.0509 6.48921C49.0509 7.46136 47.294 8.17311 46.9292 8.17311C46.5645 8.17311 44.5173 7.32943 43.7918 9.21469C43.0663 11.1 43.5565 12.1763 42.3956 12.2145C41.2348 12.2527 39.7916 10.8535 38.2111 11.5548C36.6306 12.2561 36.6424 13.7421 35.9717 14.2594C35.3011 14.7768 34.2187 13.8706 32.7558 14.3914C32.4531 14.4714 32.1798 14.6213 31.9641 14.8257C31.7483 15.0301 31.5979 15.2816 31.5283 15.5545L70.8562 15.5475Z" fill="white" stroke="black" stroke-miterlimit="10"/>
<path d="M39.8074 29.4351C39.9329 28.8067 40.1133 27.2512 39.023 26.4874C37.6661 25.5153 36.7013 27.2616 35.5169 25.9041C34.3326 24.5466 34.0031 21.5989 30.497 21.6371C26.9909 21.6753 26.7282 23.4217 26.7282 24.005C26.7282 24.5882 25.6771 25.0118 25.4575 25.0118C25.2379 25.0118 24.0143 24.5084 23.5751 25.6333C23.1358 26.7582 23.4339 27.4075 22.7358 27.4318C22.0377 27.4561 21.1671 26.6159 20.2258 27.036C19.2846 27.4561 19.2807 28.3484 18.8846 28.6608C18.4885 28.9733 17.8335 28.4247 16.959 28.7372C16.7774 28.7844 16.6133 28.8736 16.4837 28.9957C16.3541 29.1177 16.2636 29.2682 16.2217 29.4316L39.8074 29.4351Z" fill="white" stroke="black" stroke-miterlimit="10"/>
<path d="M163.344 89.8472C163.469 89.2188 163.65 87.6633 162.579 86.8995C161.222 85.9274 160.257 87.6738 159.073 86.3162C157.889 84.9587 157.54 82.011 154.033 82.0492C150.527 82.0874 150.265 83.8338 150.265 84.4171C150.265 85.0004 149.214 85.4239 148.994 85.4239C148.774 85.4239 147.551 84.9205 147.111 86.0454C146.672 87.1703 146.97 87.8196 146.272 87.8439C145.574 87.8682 144.703 87.028 143.762 87.4481C142.821 87.8682 142.817 88.7605 142.421 89.073C142.025 89.3854 141.37 88.8369 140.495 89.1493C140.314 89.1965 140.15 89.2857 140.02 89.4078C139.89 89.5298 139.8 89.6804 139.758 89.8437L163.344 89.8472Z" fill="white" stroke="black" stroke-miterlimit="10"/>
<path d="M152.308 31.5706C152.418 31.022 152.575 29.6645 151.641 28.9978C150.465 28.1507 149.614 29.6922 148.578 28.4875C147.543 27.2827 147.241 24.7273 144.178 24.7621C141.115 24.7968 140.888 26.321 140.888 26.8452C140.888 27.3695 139.97 27.7271 139.778 27.7271C139.586 27.7271 138.515 27.2862 138.135 28.2687C137.754 29.2513 138.009 29.8207 137.401 29.8415C136.793 29.8624 136.04 29.1263 135.213 29.4943C134.385 29.8624 134.385 30.6401 134.036 30.9109C133.687 31.1817 133.119 30.7095 132.35 30.9803C132.192 31.0217 132.049 31.0999 131.936 31.2068C131.824 31.3136 131.746 31.4453 131.711 31.5879L152.308 31.5706Z" fill="white" stroke="black" stroke-miterlimit="10"/>
</svg>
