<svg width="110" height="110" viewBox="0 0 110 110" fill="none" xmlns="http://www.w3.org/2000/svg">
<path d="M50.4095 73.4294C48.2295 74.8896 45.9895 75.1796 43.8195 73.4993C41.6595 71.8291 41.4596 69.5587 42.2996 66.7582C39.4696 67.3683 36.9196 67.3583 35.2496 64.8279C33.8196 62.6676 34.1595 60.5472 35.5795 58.5069C35.7595 58.3369 35.9296 58.1668 36.1096 57.9968C37.1196 57.2667 38.2995 56.5666 39.4695 56.7966C41.6195 57.2267 41.2295 56.2265 41.3395 54.7163C41.4995 52.6259 41.2796 51.7658 38.9296 52.1058C38.0796 52.2259 37.0996 51.4657 36.1696 51.1057C35.9196 50.8556 35.6796 50.6156 35.4296 50.3656C34.1796 48.2852 33.7996 46.1549 35.3096 44.0445C36.9796 41.7041 39.3495 41.5041 42.2595 42.2842C41.5195 39.4238 41.6295 36.9133 44.1495 35.2531C46.2995 33.8328 48.4096 34.1929 50.4396 35.5931C50.6096 35.7732 50.7795 35.9432 50.9495 36.1232C51.3595 37.1434 52.2596 38.2336 52.0996 39.1537C51.6796 41.6341 52.8595 41.1841 54.5795 41.3241C56.6495 41.4941 56.8295 40.934 56.7695 39.1637C56.7395 38.1636 57.5196 37.1334 57.9396 36.1232C58.1196 35.9332 58.3096 35.7532 58.4896 35.5631C60.6596 34.0429 62.8895 33.7828 65.0695 35.4331C67.2395 37.0834 67.4995 39.3538 66.6595 42.1342C69.4195 41.6541 71.9996 41.5341 73.6796 44.0845C75.1096 46.2449 74.7896 48.3552 73.4296 50.4156C73.2196 50.6256 73.0096 50.8356 72.7996 51.0357C71.7696 51.4357 70.6895 52.2659 69.7195 52.1558C67.6195 51.9158 67.6396 52.6659 67.6696 54.4462C67.6996 56.1665 67.5896 57.0067 69.7296 56.7666C70.6996 56.6566 71.7796 57.4867 72.7996 57.8968C73.0096 58.1068 73.2296 58.3169 73.4396 58.5369C74.8896 60.7073 75.1795 62.9376 73.5095 65.098C71.8595 67.2383 69.6295 67.5784 66.8295 66.6682C67.3995 69.5587 67.2995 72.1891 64.6395 73.8494C62.5895 75.1196 60.5596 74.7695 58.6196 73.5293C58.3596 73.2693 58.0895 72.9993 57.8295 72.7392C56.7995 71.219 56.5395 69.5087 56.8195 67.7284C53.8895 67.3983 51.4496 67.4784 51.7496 71.369C51.7896 71.8391 51.2695 72.3392 51.0095 72.8292C50.7995 73.0393 50.6096 73.2393 50.4095 73.4294ZM64.4595 64.4879C62.7795 63.4677 66.3096 60.2572 62.5596 60.2472C60.6396 60.2372 60.1995 60.8973 60.2095 62.6676C60.2395 66.3782 63.3995 62.8576 64.4595 64.4879ZM44.5496 64.5279C45.5796 63.1176 49.3296 66.4582 48.6796 61.8774C48.1596 58.2368 45.8495 61.1073 44.5695 60.1672C45.0895 61.6874 44.5396 62.9576 44.5496 64.5279ZM64.5895 44.5646C60.1495 45.0247 60.2596 45.0347 60.1296 46.0749C59.6896 49.6554 62.3996 48.4352 64.4996 48.9953C63.8696 47.335 64.3495 45.9748 64.5895 44.5646ZM44.5095 44.3646C44.7595 45.9849 44.9096 47.3651 44.6696 48.9353C45.8896 47.8351 48.3495 50.5456 48.7595 46.945C49.2695 42.4843 45.4995 46.0249 44.5095 44.3646ZM52.7496 54.2162C52.8196 55.1663 52.1096 56.5166 54.0496 56.1465C55.0296 55.9565 56.2996 56.6566 56.1296 54.6063C56.0196 53.216 55.9496 52.6759 54.3596 52.7759C53.1696 52.856 52.3096 52.7359 52.7496 54.2162Z" fill="#5EEEB7"/>
<path d="M50.9505 36.133C50.7805 35.953 50.6106 35.783 50.4406 35.6029C50.4106 35.3829 50.4406 35.1329 50.3506 34.9428C49.2206 32.4524 49.1806 30.092 51.5006 28.2717C53.3806 26.7915 55.5106 26.7815 57.4006 28.2517C59.7306 30.052 59.7006 32.4224 58.5906 34.9128C58.5006 35.1129 58.5206 35.3529 58.4906 35.5729C58.3106 35.763 58.1206 35.943 57.9406 36.133C55.6106 37.0932 53.2805 37.0632 50.9505 36.133Z" fill="#5EEEB7"/>
<path d="M73.43 58.5569C73.22 58.3469 73 58.1368 72.79 57.9168C71.81 55.6264 71.83 53.346 72.79 51.0557C73 50.8456 73.21 50.6356 73.42 50.4356C74.16 50.2055 74.89 49.9155 75.65 49.7755C77.81 49.3654 79.67 49.8855 80.91 51.8058C82.04 53.5561 82.04 55.4064 80.92 57.1667C79.68 59.087 77.83 59.6171 75.67 59.217C74.91 59.077 74.18 58.7769 73.43 58.5569Z" fill="#5EEEB7"/>
<path d="M57.8093 72.7495C58.0693 73.0195 58.3393 73.2796 58.5993 73.5396C58.7393 74.0797 58.8893 74.6098 59.0293 75.1499C59.6293 77.4302 59.2693 79.4606 57.2393 80.8708C55.3793 82.151 53.3793 82.131 51.5493 80.8008C49.5593 79.3506 49.2393 77.3102 49.9093 75.0398C50.0693 74.4998 50.2393 73.9697 50.3993 73.4396C50.5893 73.2395 50.7893 73.0495 50.9793 72.8495C53.2493 71.8893 55.5293 71.9093 57.8093 72.7495Z" fill="#5EEEB7"/>
<path d="M36.1008 58.0071C35.9208 58.1771 35.7508 58.3471 35.5708 58.5172C32.8408 59.3873 30.1008 60.1674 28.0608 57.2269C26.8708 55.5167 26.8508 53.6464 27.9808 51.8861C29.9208 48.8756 32.6708 49.5457 35.4308 50.3758C35.6808 50.6259 35.9208 50.8659 36.1708 51.116C37.0808 53.4263 36.9908 55.7167 36.1008 58.0071Z" fill="#5EEEB7"/>
<path d="M81.5302 69.3384C81.5802 71.8688 79.3102 74.1492 76.7802 74.0992C74.3802 74.0492 72.2403 71.9188 72.1903 69.5184C72.1403 66.978 74.4003 64.7076 76.9403 64.7576C79.3403 64.8077 81.4802 66.938 81.5302 69.3384Z" fill="#5EEEB7"/>
<path d="M32.0998 74.0596C29.5998 74.0896 27.3498 71.7993 27.4298 69.2989C27.4998 66.9185 29.6398 64.8181 32.0198 64.7981C34.5198 64.7681 36.7698 67.0585 36.6898 69.5589C36.6098 71.9393 34.4798 74.0396 32.0998 74.0596Z" fill="#5EEEB7"/>
<path d="M44.1702 76.7405C44.2702 79.2409 42.0401 81.5513 39.5201 81.5513C37.1401 81.5513 34.9802 79.4609 34.8802 77.0706C34.7802 74.5701 37.0102 72.2598 39.5302 72.2598C41.9102 72.2598 44.0702 74.3401 44.1702 76.7405Z" fill="#5EEEB7"/>
<path d="M76.5995 44.2141C74.0695 44.0541 71.9695 41.6137 72.2195 39.1333C72.4695 36.7229 74.7495 34.7525 77.1195 34.9026C79.6495 35.0626 81.7595 37.503 81.4995 39.9834C81.2495 42.3938 78.9595 44.3641 76.5995 44.2141Z" fill="#5EEEB7"/>
<path d="M31.8899 34.9228C34.2499 34.8328 36.48 36.8332 36.67 39.2236C36.87 41.704 34.7299 44.0843 32.2099 44.1844C29.7099 44.2844 27.41 42.054 27.42 39.5436C27.43 37.1732 29.5099 35.0229 31.8899 34.9228Z" fill="#5EEEB7"/>
<path d="M74.0505 32.1124C74.0405 34.6428 71.7205 36.8632 69.2005 36.7532C66.8005 36.6432 64.7205 34.4728 64.7305 32.0724C64.7405 29.542 67.0705 27.3216 69.5805 27.4317C71.9805 27.5417 74.0605 29.722 74.0505 32.1124Z" fill="#5EEEB7"/>
<path d="M39.5394 27.4621C42.0494 27.4721 44.2694 29.7924 44.1494 32.2828C44.0394 34.6732 41.8695 36.7336 39.4995 36.7236C36.9895 36.7136 34.7694 34.3932 34.8894 31.9028C34.9994 29.5124 37.1694 27.4421 39.5394 27.4621Z" fill="#5EEEB7"/>
<path d="M74.0505 76.8397C74.0805 79.3601 71.8005 81.6204 69.2805 81.5504C66.8805 81.4804 64.7705 79.3501 64.7405 76.9497C64.7105 74.4192 66.9805 72.1689 69.5105 72.2389C71.9105 72.3089 74.0105 74.4393 74.0505 76.8397Z" fill="#5EEEB7"/>
<path d="M42.6699 84.1009C43.0499 81.4705 44.5299 80.0603 47.1799 80.0903C49.7099 80.1203 51.5599 82.2706 51.2399 84.8111C50.8999 87.4715 49.2399 88.8017 46.6299 88.6117C43.9499 88.4217 42.7499 86.6914 42.6699 84.1009Z" fill="#5EEEB7"/>
<path d="M84.3206 66.3081C81.6906 66.0781 80.1506 64.7078 80.0206 62.0374C79.9006 59.497 81.9607 57.4767 84.5007 57.6667C87.1507 57.8667 88.6506 59.417 88.6106 62.0574C88.5606 64.7278 86.9406 66.0881 84.3206 66.3081Z" fill="#5EEEB7"/>
<path d="M28.8698 61.9179C28.6698 64.5484 27.3298 66.1686 24.6298 66.1886C21.9598 66.2086 20.3898 64.6984 20.3598 62.018C20.3298 59.3475 21.8498 57.7873 24.5298 57.7472C27.2298 57.6972 28.6098 59.2775 28.8698 61.9179Z" fill="#5EEEB7"/>
<path d="M66.27 84.3209C66.08 86.9313 64.74 88.5716 62.07 88.6516C59.43 88.7316 57.8501 87.2514 57.6201 84.6009C57.4001 82.0605 59.4001 79.9802 61.9401 80.0702C64.6101 80.1602 66 81.6805 66.27 84.3209Z" fill="#5EEEB7"/>
<path d="M84.2498 51.3662C81.6098 51.0861 80.0998 49.6859 80.0198 47.0154C79.9398 44.475 82.0498 42.4847 84.5798 42.7247C87.2298 42.9748 88.6998 44.555 88.5998 47.1955C88.5098 49.8659 86.8598 51.1861 84.2498 51.3662Z" fill="#5EEEB7"/>
<path d="M24.7605 42.7441C27.3905 43.0642 28.9106 44.5144 28.8106 47.1949C28.7106 49.8753 27.0805 51.3456 24.4205 51.2455C21.7405 51.1555 20.2805 49.5253 20.3605 46.8648C20.4505 44.1644 22.1205 42.8842 24.7605 42.7441Z" fill="#5EEEB7"/>
<path d="M51.3104 24.5217C51.0304 27.3322 49.6304 28.9024 46.9304 28.8624C44.2404 28.8224 42.7204 27.2422 42.7504 24.5617C42.7804 21.8713 44.3704 20.3611 47.0504 20.3811C49.7704 20.3911 51.0604 22.0713 51.3104 24.5217Z" fill="#5EEEB7"/>
<path d="M66.2401 24.6715C65.9901 27.2919 64.6101 28.8122 61.9501 28.9022C59.4101 28.9922 57.4401 26.9419 57.6501 24.4015C57.8701 21.751 59.4302 20.2908 62.0602 20.3608C64.7302 20.4308 66.0501 22.0611 66.2401 24.6715Z" fill="#5EEEB7"/>
<path d="M32.1702 88.3016C29.8202 88.0315 28.2602 86.8013 28.2102 84.4509C28.1602 82.1006 29.6402 80.5803 31.9702 80.5203C34.3102 80.4603 35.8402 81.9505 35.9002 84.2809C35.9602 86.6413 34.4302 87.9115 32.1702 88.3016Z" fill="#5EEEB7"/>
<path d="M54.5211 95.7928C52.2111 95.5227 50.6411 94.2825 50.5911 91.9221C50.5411 89.5617 52.0311 88.0315 54.3711 87.9715C56.7311 87.9115 58.261 89.4117 58.321 91.7521C58.391 94.1225 56.8511 95.4127 54.5211 95.7928Z" fill="#5EEEB7"/>
<path d="M92.0692 50.5557C94.1592 50.8958 95.5792 52.146 95.7092 54.4963C95.8192 56.6167 93.6292 58.687 91.5392 58.407C89.2492 58.0969 87.9092 56.6667 87.8792 54.3263C87.8492 52.316 89.8892 50.5057 92.0692 50.5557Z" fill="#5EEEB7"/>
<path d="M21.0408 54.4657C20.6608 56.8761 19.3808 58.3863 17.0308 58.3263C14.7008 58.2663 13.2308 56.7461 13.2908 54.4157C13.3508 52.0853 14.8708 50.6251 17.2008 50.6751C19.5608 50.7051 20.7408 52.3053 21.0408 54.4657Z" fill="#5EEEB7"/>
<path d="M54.4011 13.2295C56.7011 13.4995 58.2611 14.7297 58.3011 17.0801C58.3411 19.4305 56.8611 20.9508 54.5311 21.0008C52.1811 21.0508 50.6711 19.5605 50.6111 17.2301C50.5511 14.8698 52.0811 13.5896 54.4011 13.2295Z" fill="#5EEEB7"/>
<path d="M35.9603 24.5618C35.7003 26.8521 34.4802 28.4024 32.1402 28.4524C29.8002 28.5024 28.2903 27.0322 28.2303 24.7118C28.1703 22.3814 29.6503 20.8612 31.9703 20.8012C34.3203 20.7312 35.6003 22.2414 35.9603 24.5618Z" fill="#5EEEB7"/>
<path d="M80.81 84.4409C80.43 86.7713 79.14 88.3015 76.77 88.2415C74.43 88.1715 72.93 86.6413 72.99 84.2809C73.05 81.9405 74.59 80.4502 76.94 80.5002C79.31 80.5503 80.54 82.1305 80.81 84.4409Z" fill="#5EEEB7"/>
<path d="M76.7897 20.6709C79.0997 20.9409 80.6697 22.1812 80.7197 24.5415C80.7697 26.9019 79.2797 28.4322 76.9297 28.4922C74.5697 28.5522 73.0397 27.052 72.9797 24.7116C72.9297 22.3312 74.4697 21.051 76.7897 20.6709Z" fill="#5EEEB7"/>
<path d="M24.5506 72.9795C26.9606 73.3496 28.4706 74.6298 28.4206 76.9801C28.3606 79.3105 26.8506 80.7808 24.5106 80.7308C22.1906 80.6808 20.7206 79.1605 20.7606 76.8201C20.8006 74.4697 22.3906 73.2895 24.5506 72.9795Z" fill="#5EEEB7"/>
<path d="M84.3798 36.0432C82.0698 35.7632 80.4998 34.523 80.4598 32.1626C80.4198 29.8022 81.9098 28.2719 84.2498 28.2219C86.6098 28.1719 88.1298 29.6722 88.1898 32.0125C88.2498 34.3829 86.7098 35.6731 84.3798 36.0432Z" fill="#5EEEB7"/>
<path d="M28.5011 31.9728C28.2311 34.3132 27.011 35.8734 24.671 35.9134C22.331 35.9634 20.821 34.4932 20.761 32.1628C20.711 29.8324 22.181 28.3122 24.511 28.2522C26.861 28.2022 28.1211 29.7324 28.5011 31.9728Z" fill="#5EEEB7"/>
<path d="M88.2898 76.9893C87.9098 79.2797 86.6499 80.6999 84.3099 80.8199C82.1799 80.9299 80.1198 78.7196 80.4198 76.6392C80.7398 74.3489 82.1798 72.8986 84.5098 73.0186C86.8198 73.1287 88.0498 74.6889 88.2898 76.9893Z" fill="#5EEEB7"/>
<path d="M91.9008 35.9629C94.1908 36.2029 95.4408 37.4631 95.3308 39.7535C95.2108 42.0739 93.7708 43.2341 91.5008 43.0941C89.3708 42.964 88.2108 41.6438 88.2408 39.5235C88.2808 37.2031 89.6408 36.0829 91.9008 35.9629Z" fill="#5EEEB7"/>
<path d="M91.8894 73.0589C89.4994 72.8388 88.1894 71.6586 88.2294 69.3783C88.2594 67.1079 89.5794 65.8377 91.8494 65.8677C94.1194 65.8977 95.3794 67.2179 95.3694 69.4783C95.3494 71.7887 93.9394 72.8588 91.8894 73.0589Z" fill="#5EEEB7"/>
<path d="M16.9709 72.9894C14.7109 72.7394 13.4809 71.4792 13.6109 69.2088C13.7409 66.9084 15.1809 65.7782 17.4209 65.9282C19.5309 66.0683 20.6609 67.3785 20.6209 69.4888C20.5909 71.7992 19.2209 72.8794 16.9709 72.9894Z" fill="#5EEEB7"/>
<path d="M69.39 13.5801C71.65 13.7601 72.97 14.9303 72.92 17.2307C72.87 19.541 71.51 20.7513 69.23 20.6712C67.11 20.6012 65.9 19.361 65.87 17.2307C65.83 14.9403 67.12 13.7601 69.39 13.5801Z" fill="#5EEEB7"/>
<path d="M17.3494 43.1244C14.9594 42.9844 13.6094 41.8642 13.6094 39.5638C13.6194 37.2735 14.9193 36.0233 17.1993 36.0533C19.3093 36.0733 20.5394 37.2735 20.6294 39.3938C20.7294 41.6942 19.4294 42.8544 17.3494 43.1244Z" fill="#5EEEB7"/>
<path d="M73.0008 91.8422C72.7308 94.2626 71.4608 95.5128 69.1708 95.3828C66.8508 95.2527 65.7108 93.7925 65.8608 91.5321C66.0008 89.4018 67.3307 88.2616 69.4507 88.2916C71.7907 88.3216 72.8308 89.7519 73.0008 91.8422Z" fill="#5EEEB7"/>
<path d="M39.6407 95.4226C37.2207 95.2125 35.9308 94.0123 36.0008 91.722C36.0708 89.4116 37.4507 88.2214 39.7207 88.3114C41.8407 88.3914 43.0207 89.6616 43.0507 91.782C43.0907 94.1223 41.7107 95.2125 39.6407 95.4226Z" fill="#5EEEB7"/>
<path d="M43.081 17.3001C42.831 19.5604 41.571 20.7906 39.301 20.6606C37.001 20.5306 35.871 19.0904 36.021 16.85C36.161 14.7396 37.471 13.6095 39.581 13.6495C41.891 13.6895 42.971 15.0497 43.081 17.3001Z" fill="#5EEEB7"/>
<path d="M99.2293 65.2076C97.1893 64.8075 95.9293 63.6873 96.0993 61.727C96.2693 59.8167 97.5893 58.6265 99.5693 58.8265C101.339 59.0066 102.469 60.2368 102.409 62.0471C102.349 64.0174 101.009 64.9675 99.2293 65.2076Z" fill="#5EEEB7"/>
<path d="M9.65958 65.0878C7.75958 64.8878 6.52959 63.8376 6.57959 61.8573C6.61959 60.057 7.78957 58.8968 9.58957 58.8868C11.5596 58.8768 12.7596 60.097 12.7296 62.0673C12.6896 63.8676 11.5196 64.8678 9.65958 65.0878Z" fill="#5EEEB7"/>
<path d="M61.8306 6.52832C63.5706 6.64834 64.8406 7.54849 65.0106 9.35879C65.2006 11.3591 64.0406 12.6693 62.0806 12.7793C60.1106 12.8894 58.8406 11.6592 58.8206 9.67885C58.8006 7.85855 59.9706 6.82837 61.8306 6.52832Z" fill="#5EEEB7"/>
<path d="M102.48 46.9153C102.29 48.8157 101.28 50.1459 99.3198 50.1859C97.3598 50.2259 96.1199 48.9657 96.0999 47.0054C96.0799 45.2051 97.2599 43.9849 99.0299 43.8649C101 43.7348 102.11 44.965 102.48 46.9153Z" fill="#5EEEB7"/>
<path d="M9.57033 43.9043C11.2903 44.0143 12.5403 44.8945 12.7103 46.7048C12.8903 48.6851 11.7703 49.9853 9.81032 50.0953C7.85032 50.2053 6.60034 48.9951 6.58034 47.0248C6.56034 45.2145 7.70033 44.1743 9.57033 43.9043Z" fill="#5EEEB7"/>
<path d="M50.1797 99.2335C49.9797 101.124 48.9696 102.424 47.0096 102.434C45.0696 102.444 43.8397 101.194 43.8497 99.2435C43.8497 97.4532 45.0197 96.263 46.7897 96.163C48.7497 96.063 49.8497 97.2732 50.1797 99.2335Z" fill="#5EEEB7"/>
<path d="M50.1395 9.62869C49.9995 11.389 49.0595 12.6392 47.2595 12.7792C45.2795 12.9292 43.9595 11.759 43.8895 9.78872C43.8195 7.80839 45.0695 6.56818 47.0495 6.57819C48.8695 6.58819 49.8795 7.77838 50.1395 9.62869Z" fill="#5EEEB7"/>
<path d="M61.9305 102.504C60.0105 102.254 58.7405 101.194 58.7905 99.2433C58.8405 97.303 60.1205 96.1028 62.0705 96.1728C63.8405 96.2328 65.0205 97.423 65.0605 99.2033C65.1005 101.164 63.8605 102.224 61.9305 102.504Z" fill="#5EEEB7"/>
<path d="M91.7602 87.232C89.9202 87.082 88.8802 86.0918 88.9702 84.2015C89.0502 82.4812 90.0803 81.5311 91.8003 81.5511C93.7003 81.5711 94.6903 82.6713 94.6203 84.5416C94.5503 86.2719 93.4902 87.122 91.7602 87.232Z" fill="#5EEEB7"/>
<path d="M84.0596 14.2998C86.0596 14.3998 87.1496 15.31 87.1296 17.2003C87.1096 18.9106 86.1496 19.9107 84.4396 19.9507C82.5696 19.9907 81.5196 18.9806 81.5196 17.1003C81.5096 15.36 82.5596 14.5298 84.0596 14.2998Z" fill="#5EEEB7"/>
<path d="M84.3611 88.9717C86.0911 89.1217 87.121 90.0019 87.151 91.7321C87.181 93.6225 86.151 94.6726 84.261 94.6526C82.541 94.6326 81.5411 93.6525 81.5011 91.9222C81.4611 90.0319 82.5311 89.0817 84.3611 88.9717Z" fill="#5EEEB7"/>
<path d="M91.5408 21.751C93.5408 21.851 94.6408 22.7611 94.6208 24.6715C94.6008 26.3917 93.6308 27.4019 91.9108 27.4419C90.0208 27.4819 88.9708 26.4617 88.9708 24.5614C88.9608 22.8211 90.0108 21.971 91.5408 21.751Z" fill="#5EEEB7"/>
<path d="M27.3905 17.2201C27.2205 18.9104 26.3406 19.9305 24.6106 19.9205C22.7106 19.9105 21.7205 18.7904 21.8305 16.9301C21.9305 15.2198 23.0206 14.3096 24.7306 14.3896C26.4606 14.4696 27.2905 15.5198 27.3905 17.2201Z" fill="#5EEEB7"/>
<path d="M17.2305 81.5508C18.9305 81.7408 19.9405 82.651 19.9005 84.3912C19.8705 86.3216 18.7205 87.2817 16.8505 87.1517C15.1205 87.0317 14.2405 85.9115 14.3305 84.1912C14.4405 82.4409 15.5205 81.6208 17.2305 81.5508Z" fill="#5EEEB7"/>
<path d="M79.5202 9.5886C79.3802 11.1289 78.5702 12.199 77.0302 12.279C75.3102 12.3691 74.2303 11.3189 74.2503 9.60861C74.2703 8.06836 75.2902 7.0882 76.8402 7.0782C78.4102 7.0682 79.2502 8.07836 79.5202 9.5886Z" fill="#5EEEB7"/>
<path d="M34.6994 9.69875C34.4794 11.209 33.6594 12.2592 32.1194 12.2692C30.4294 12.2792 29.3694 11.199 29.4694 9.50874C29.5594 8.00849 30.5994 7.03833 32.1394 7.09834C33.6894 7.15835 34.4894 8.18851 34.6994 9.69875Z" fill="#5EEEB7"/>
<path d="M24.5795 89.0117C26.2895 89.1317 27.3395 90.0019 27.3695 91.7422C27.3995 93.6525 26.3295 94.6927 24.4295 94.6126C22.6995 94.5426 21.7695 93.4825 21.7995 91.7622C21.8395 90.0119 22.8695 89.1417 24.5795 89.0117Z" fill="#5EEEB7"/>
<path d="M99.2405 79.6002C97.6005 79.3702 96.5305 78.47 96.6205 76.7398C96.7005 75.1995 97.7005 74.2293 99.2505 74.2493C100.961 74.2793 101.98 75.3295 101.9 77.0498C101.84 78.6101 100.801 79.4202 99.2405 79.6002Z" fill="#5EEEB7"/>
<path d="M9.45056 74.2393C11.1006 74.4193 12.1606 75.2294 12.2306 76.7496C12.3006 78.4399 11.2506 79.5201 9.55057 79.4801C8.03057 79.4501 7.07055 78.4199 7.06055 76.8897C7.06055 75.3194 8.14056 74.5693 9.45056 74.2393Z" fill="#5EEEB7"/>
<path d="M17.2297 27.4522C15.3597 27.2522 14.3397 26.3621 14.3597 24.6318C14.3797 22.7315 15.4997 21.7413 17.3597 21.8613C19.0697 21.9713 19.9596 23.0715 19.8896 24.7718C19.8096 26.5321 18.6897 27.2822 17.2297 27.4522Z" fill="#5EEEB7"/>
<path d="M99.0894 34.7731C97.4994 34.4331 96.4493 33.5029 96.6393 31.7926C96.8093 30.3024 97.8394 29.3422 99.3794 29.4622C101.059 29.5923 102.039 30.6924 101.869 32.3827C101.719 33.883 100.659 34.6731 99.0894 34.7731Z" fill="#5EEEB7"/>
<path d="M34.7193 99.4133C34.4393 100.924 33.5993 101.934 32.0293 101.914C30.4793 101.894 29.4593 100.914 29.4493 99.3633C29.4393 97.6431 30.5193 96.6029 32.2393 96.7029C33.7793 96.7929 34.5893 97.8631 34.7193 99.4133Z" fill="#5EEEB7"/>
<path d="M76.6803 96.5938C78.4703 96.8438 79.5503 97.7239 79.4803 99.4342C79.4203 100.954 78.4202 101.935 76.8902 101.925C75.2002 101.915 74.1803 100.864 74.2303 99.1641C74.2703 97.6239 75.3703 96.8938 76.6803 96.5938Z" fill="#5EEEB7"/>
<path d="M12.1826 32.6379C11.8926 34.1682 11.0426 35.1883 9.47258 35.1283C7.93258 35.0583 6.94258 34.0381 7.00258 32.4779C7.06258 30.9376 8.09261 29.9475 9.65261 30.0075C11.2126 30.0575 12.0126 31.1177 12.1826 32.6379Z" fill="#5EEEB7"/>
<path d="M109.08 54.4362C108.93 55.9565 108.14 56.8266 106.7 56.8066C105.26 56.7866 104.4 55.9065 104.41 54.4662C104.43 53.026 105.31 52.1659 106.75 52.1759C108.2 52.1959 108.93 53.106 109.08 54.4362Z" fill="#5EEEB7"/>
<path d="M71.4409 106.504C71.3909 107.875 70.7909 108.665 69.6309 108.775C68.3109 108.905 67.4309 108.205 67.3909 106.844C67.3409 105.494 68.1409 104.744 69.4909 104.764C70.6909 104.774 71.2309 105.594 71.4409 106.504Z" fill="#5EEEB7"/>
<path d="M52.1602 106.815C52.3702 105.204 53.2201 104.414 54.6501 104.534C56.1101 104.654 56.8302 105.645 56.6902 107.065C56.5602 108.325 55.7102 109.065 54.4102 109.025C52.9402 108.985 52.2802 108.055 52.1602 106.815Z" fill="#5EEEB7"/>
<path d="M41.551 106.755C41.411 108.025 40.731 108.815 39.401 108.755C38.251 108.705 37.541 107.965 37.541 106.815C37.541 105.495 38.331 104.735 39.651 104.785C40.801 104.835 41.401 105.595 41.551 106.755Z" fill="#5EEEB7"/>
<path d="M41.5192 2.22719C41.3592 3.37738 40.7492 4.15751 39.5792 4.16751C38.2492 4.17752 37.4593 3.34738 37.5593 2.02716C37.6493 0.896979 38.4293 0.176862 39.6193 0.246874C40.7893 0.316885 41.3892 1.08701 41.5192 2.22719Z" fill="#5EEEB7"/>
<path d="M56.7003 2.22768C56.5103 3.84794 55.6104 4.56807 54.1704 4.41804C52.8604 4.28802 52.1704 3.40788 52.2504 2.09767C52.3404 0.58742 53.3004 -0.122698 54.7504 0.017325C56.0604 0.137345 56.6603 1.04749 56.7003 2.22768Z" fill="#5EEEB7"/>
<path d="M71.4407 2.13801C71.2007 3.57825 70.4607 4.33837 69.1507 4.19835C68.0307 4.07833 67.3207 3.30822 67.4007 2.14802C67.4907 0.827808 68.3207 0.117688 69.6307 0.237708C70.7807 0.337724 71.3007 1.18786 71.4407 2.13801Z" fill="#5EEEB7"/>
<path d="M4.18952 39.5536C4.04952 40.7038 3.43954 41.494 2.26954 41.514C0.939538 41.544 0.139529 40.7138 0.229529 39.3936C0.309529 38.2534 1.07953 37.5433 2.25953 37.5933C3.43953 37.6433 4.03952 38.4134 4.18952 39.5536Z" fill="#5EEEB7"/>
<path d="M108.8 39.3441C108.7 40.8144 108.039 41.5845 106.699 41.5945C105.529 41.5945 104.799 40.9344 104.699 39.7842C104.589 38.484 105.239 37.6338 106.579 37.5338C107.939 37.4338 108.59 38.2339 108.8 39.3441Z" fill="#5EEEB7"/>
<path d="M4.3901 54.5068C4.3001 55.907 3.54009 56.7272 2.06009 56.6772C0.750086 56.6272 0.0100883 55.847 8.82782e-05 54.5468C-0.00991172 53.0666 0.830106 52.2764 2.30011 52.3265C3.62011 52.3565 4.2901 53.1566 4.3901 54.5068Z" fill="#5EEEB7"/>
<path d="M4.19061 69.4786C4.01061 70.6188 3.39061 71.3989 2.22061 71.3889C0.890606 71.3789 0.110625 70.5388 0.240625 69.2085C0.350625 68.0884 1.15062 67.3682 2.33062 67.4682C3.48062 67.5582 4.08061 68.3284 4.19061 69.4786Z" fill="#5EEEB7"/>
<path d="M108.789 69.3881C108.699 70.6883 108.049 71.4584 106.699 71.4684C105.529 71.4684 104.799 70.8083 104.699 69.6581C104.589 68.3579 105.239 67.4978 106.579 67.4077C107.909 67.3177 108.629 68.0579 108.789 69.3881Z" fill="#5EEEB7"/>
</svg>
