<svg width="369" height="495" viewBox="0 0 369 495" fill="none" xmlns="http://www.w3.org/2000/svg">
<g filter="url(#filter0_d_428_21209)">
<path d="M62.0088 217.565C86.6224 210.309 115.49 210.135 138.6 213.121C150.34 214.638 160.615 216.973 168.109 219.621C171.854 220.944 174.924 222.352 177.139 223.787C179.325 225.204 180.789 226.717 181.117 228.294L181.146 228.456C181.264 229.263 181.003 230.007 180.465 230.672C179.904 231.365 179.034 231.986 177.94 232.558C175.751 233.702 172.509 234.727 168.555 235.714C160.642 237.689 149.684 239.555 138.185 241.874C126.664 244.198 114.571 246.982 104.309 250.803C94.3474 254.511 86.2059 259.163 81.9482 265.232L81.5488 265.824C80.6413 267.221 80.22 268.581 80.1992 269.909C80.1784 271.239 80.5585 272.57 81.3076 273.908C82.8146 276.599 85.7877 279.269 89.8184 281.883C97.8695 287.103 109.912 291.963 122.054 296.3C134.15 300.621 146.404 304.442 154.695 307.54C158.839 309.089 162.076 310.485 163.85 311.709C164.297 312.018 164.67 312.328 164.945 312.642C165.217 312.952 165.425 313.301 165.475 313.684C165.527 314.09 165.394 314.462 165.125 314.774C164.933 314.998 164.672 315.19 164.36 315.361L164.032 315.525C162.252 316.335 158.834 317.083 154.243 317.732C149.631 318.385 143.777 318.947 137.086 319.366C123.702 320.205 106.944 320.476 90.0186 319.755C73.0957 319.034 55.987 317.322 41.9092 314.191C34.8706 312.626 28.575 310.703 23.4336 308.364C18.4593 306.101 14.5272 303.431 12.0596 300.285L11.8252 299.979C3.04828 288.221 4.60821 270.941 13.6406 255.056C22.6853 239.149 39.2807 224.508 60.8398 217.916L62.0088 217.565Z" stroke="url(#paint0_linear_428_21209)" stroke-miterlimit="10"/>
<path d="M48.8428 214.392C77.9648 207.972 108.493 207.007 132.611 208.592C144.862 209.397 155.47 210.86 163.409 212.604C167.377 213.477 170.69 214.421 173.211 215.394C174.472 215.88 175.544 216.376 176.404 216.879C177.153 217.316 177.762 217.77 178.196 218.242L178.372 218.445L178.373 218.446L178.453 218.552C178.632 218.802 178.749 219.077 178.779 219.372C178.814 219.713 178.727 220.035 178.56 220.327C178.239 220.887 177.601 221.377 176.797 221.826C175.169 222.737 172.542 223.65 169.249 224.626C165.944 225.605 161.919 226.66 157.471 227.841C153.019 229.023 148.136 230.334 143.102 231.828C133.028 234.819 122.368 238.539 113.366 243.421C104.637 248.155 97.528 253.947 93.9873 261.164L93.6562 261.867C92.1226 265.252 92.3746 268.609 93.9941 271.945C95.6234 275.301 98.6364 278.63 102.61 281.884C110.557 288.39 122.203 294.488 133.78 299.845C139.564 302.521 145.32 305.007 150.576 307.265C155.828 309.521 160.587 311.551 164.364 313.308C168.119 315.054 170.974 316.563 172.365 317.785C172.717 318.094 173.004 318.409 173.186 318.729C173.369 319.055 173.466 319.429 173.353 319.812C173.241 320.187 172.957 320.463 172.615 320.666C172.272 320.87 171.822 321.029 171.281 321.159L171.282 321.16C161.633 323.48 124.487 327.333 86.6338 326.967C67.701 326.784 48.5642 325.545 32.5801 322.524C24.5878 321.014 17.3698 319.056 11.3545 316.554C5.53154 314.132 0.805055 311.188 -2.40137 307.62L-2.70703 307.273C-13.9576 294.205 -13.9906 273.885 -4.97656 255.483C4.04756 237.061 22.1785 220.448 47.457 214.702L48.8428 214.392Z" stroke="url(#paint1_linear_428_21209)" stroke-miterlimit="10"/>
<path d="M127.425 203.936C140.293 204.005 151.275 204.587 159.554 205.455C163.692 205.889 167.161 206.395 169.855 206.945C172.48 207.482 174.425 208.071 175.528 208.707C175.855 208.792 176.136 208.891 176.358 209.011C176.586 209.134 176.828 209.321 176.93 209.612C177.042 209.935 176.931 210.231 176.78 210.443C176.635 210.648 176.417 210.832 176.175 210.998C175.218 211.655 173.266 212.444 170.687 213.393C165.467 215.311 157.429 217.965 148.694 221.646C139.963 225.325 130.573 230.016 122.686 235.984C115.042 241.768 108.846 248.726 105.998 257.091L105.732 257.904C103.238 265.934 107.51 274.049 115.326 281.837C123.123 289.605 134.308 296.905 145.272 303.255C150.751 306.428 156.165 309.358 161.062 311.988C165.956 314.616 170.342 316.948 173.749 318.917C175.453 319.902 176.921 320.8 178.09 321.604C179.249 322.4 180.148 323.126 180.687 323.769C180.955 324.089 181.166 324.425 181.252 324.771C181.344 325.14 181.29 325.513 181.047 325.832C180.822 326.126 180.474 326.324 180.076 326.466C179.773 326.574 179.411 326.659 178.994 326.724L178.559 326.782C165.694 328.238 124.63 333.431 82.877 334.152C62.0018 334.513 40.9347 333.756 23.1221 330.851C5.61549 327.995 -8.85828 323.047 -16.8711 314.94L-17.2471 314.553C-30.9468 300.169 -32.5431 276.807 -23.5459 255.894C-14.539 234.958 5.11278 216.38 34.0645 211.499L37.2793 210.967C70.4615 205.59 102.493 203.801 127.425 203.936Z" stroke="url(#paint2_linear_428_21209)" stroke-miterlimit="10"/>
<path d="M155.308 198.386C163.895 198.363 169.903 198.61 172.74 199.052C173.65 198.964 174.322 198.935 174.744 198.983C174.856 198.996 174.967 199.017 175.069 199.05C175.165 199.081 175.296 199.137 175.403 199.247C175.529 199.376 175.598 199.554 175.578 199.746C175.561 199.91 175.484 200.037 175.424 200.117C175.304 200.277 175.119 200.423 174.929 200.555C174.727 200.694 174.473 200.847 174.177 201.013C173.583 201.345 172.785 201.747 171.824 202.218C167.972 204.106 161.369 207.165 154.036 211.522C139.573 220.116 122.437 233.669 118.041 253.031L117.841 253.958C115.943 263.27 120.326 272.51 127.844 281.259C135.354 289.999 145.911 298.153 156.15 305.265C161.267 308.818 166.297 312.105 170.819 315.073C175.337 318.038 179.356 320.689 182.438 322.959C183.978 324.094 185.294 325.141 186.324 326.09C187.347 327.032 188.121 327.907 188.544 328.702C188.97 329.504 189.091 330.337 188.58 331.049C188.17 331.62 187.421 332.003 186.424 332.261L185.981 332.363C170.694 335.564 125.7 342.078 79.8428 343.232C56.9136 343.81 33.749 343.048 13.9658 339.855C-5.48538 336.717 -21.7622 331.214 -31.3018 322.239L-31.751 321.81C-47.8982 306.1 -51.0528 279.712 -42.0791 256.299C-33.0954 232.86 -11.9342 212.319 20.665 208.268L24.3203 207.819C61.9689 203.246 95.8621 200.631 121.879 199.361C135.307 198.706 146.639 198.409 155.308 198.386Z" stroke="url(#paint3_linear_428_21209)" stroke-miterlimit="10"/>
<path d="M174.003 188.986C174.259 189.002 174.517 189.044 174.726 189.154C174.836 189.213 174.95 189.3 175.034 189.43C175.121 189.564 175.157 189.713 175.152 189.857C175.144 190.119 175.008 190.35 174.882 190.521C174.617 190.881 174.141 191.31 173.538 191.794C172.316 192.775 170.384 194.129 168.03 195.834C165.667 197.546 162.856 199.63 159.842 202.092C147.77 211.951 132.527 227.818 129.877 250.049V250.05C128.6 260.637 133.208 271.185 140.609 281.144C148.006 291.096 158.141 300.39 167.79 308.45C177.407 316.484 186.598 323.336 191.976 328.314C193.326 329.564 194.452 330.711 195.293 331.74C196.126 332.76 196.715 333.708 196.939 334.561C197.053 334.994 197.078 335.422 196.976 335.829C196.872 336.241 196.647 336.597 196.314 336.894C195.751 337.396 194.882 337.724 193.746 337.92L193.243 337.996C173.92 340.531 125.001 348.376 75.4678 350.567C50.7005 351.663 25.7581 351.347 4.26855 348.242C-16.8665 345.189 -34.7468 339.428 -45.8135 329.581L-46.335 329.108C-64.875 312.063 -69.557 282.653 -60.5977 256.748C-51.6276 230.812 -28.9661 208.315 7.2627 205.083L67.8672 199.686C86.1979 198.048 102.544 196.573 116.562 195.267C144.612 192.652 163.309 190.711 169.949 189.478L170.875 189.312C171.748 189.162 172.464 189.062 173.031 189.014C173.409 188.981 173.734 188.97 174.003 188.986Z" stroke="url(#paint4_linear_428_21209)" stroke-miterlimit="10"/>
<path d="M173.697 178.263C174.001 178.252 174.284 178.273 174.525 178.351C174.775 178.431 175.013 178.585 175.149 178.85C175.281 179.105 175.274 179.381 175.222 179.62C175.169 179.861 175.06 180.115 174.921 180.372C174.374 181.38 173.125 182.86 171.48 184.744C169.817 186.65 167.709 189.013 165.379 191.83C156.06 203.097 143.278 221.538 141.95 246.147C141.317 258.006 146.139 270.093 153.422 281.558C160.701 293.017 170.403 303.802 179.452 313.045C188.474 322.26 196.899 329.992 201.514 335.251C202.672 336.571 203.607 337.754 204.258 338.779C204.898 339.788 205.31 340.713 205.327 341.506C205.336 341.918 205.238 342.308 205 342.643C204.764 342.973 204.42 343.21 204.005 343.373C203.295 343.652 202.305 343.742 201.045 343.676L200.487 343.638C188.882 342.668 169.903 344.461 147.119 347.03C124.36 349.597 97.8437 352.931 71.2305 355.019C44.6178 357.106 17.8797 357.949 -5.33398 355.528C-28.5311 353.109 -48.2958 347.422 -60.8828 336.376V336.377C-81.8285 318 -88.0449 285.578 -79.1045 257.187C-70.153 228.76 -45.993 204.307 -6.12988 201.877L-1.58887 201.595C93.1995 195.608 151.672 185.044 167.237 179.922L168.384 179.549C169.478 179.199 170.417 178.921 171.211 178.714C172.262 178.44 173.089 178.284 173.697 178.263Z" stroke="url(#paint5_linear_428_21209)" stroke-miterlimit="10"/>
<path d="M172.718 167.398C173.607 167.24 174.354 167.226 174.925 167.43C175.22 167.535 175.475 167.7 175.67 167.936C175.864 168.17 175.977 168.448 176.031 168.747C176.137 169.328 176.026 170.033 175.796 170.812C175.563 171.604 175.188 172.531 174.708 173.583C173.749 175.684 172.335 178.351 170.704 181.515C164.167 194.197 153.957 215.201 153.997 242.2L154.014 243.432C154.332 256.159 159.237 269.111 166.136 281.397C173.255 294.076 182.475 306.008 190.893 316.204C199.289 326.375 206.931 334.867 210.813 340.59C211.787 342.025 212.54 343.308 213.012 344.416C213.477 345.509 213.702 346.507 213.516 347.338C213.316 348.229 212.675 348.815 211.698 349.106C210.752 349.389 209.453 349.414 207.797 349.211V349.21C194.514 347.586 173.723 349.383 149.062 352.271C124.431 355.155 95.9711 359.124 67.4395 361.814C38.9047 364.505 10.2581 365.922 -14.7754 363.695C-39.7944 361.47 -61.2863 355.6 -75.4404 343.649H-75.4414C-98.7788 323.919 -106.524 288.488 -97.6045 257.617C-88.6736 226.707 -63.022 200.308 -19.5332 198.679L-14.5498 198.481C89.3657 194.154 146.224 178.257 164.539 170.302L165.886 169.726C168.914 168.453 171.15 167.678 172.718 167.398Z" stroke="url(#paint6_linear_428_21209)" stroke-miterlimit="10"/>
<path d="M171.75 156.593C174.123 156.014 175.875 156.147 176.925 157.27C177.44 157.82 177.732 158.557 177.868 159.421C178.004 160.284 177.991 161.305 177.867 162.464C177.62 164.779 176.923 167.739 175.992 171.26C172.262 185.37 164.668 208.912 166.061 238.287L166.138 239.636C167.066 253.58 172.131 267.785 178.878 281.251C185.841 295.148 194.581 308.225 202.37 319.377C210.14 330.502 217.002 339.763 220.143 345.953C220.93 347.506 221.498 348.892 221.784 350.083C222.069 351.265 222.093 352.324 221.708 353.174C221.309 354.054 220.52 354.607 219.416 354.864C218.465 355.086 217.251 355.097 215.767 354.911L215.114 354.819C200.187 352.504 177.595 354.282 151.061 357.479C124.567 360.67 94.1408 365.276 63.6865 368.573C33.2189 371.872 2.65064 373.869 -24.2109 371.846C-50.6409 369.854 -73.5578 363.965 -89.2539 351.519L-89.9961 350.921C-115.713 329.857 -124.989 291.418 -116.097 258.064C-107.193 224.667 -80.0616 196.312 -32.9482 195.473L-30.2246 195.42C84.616 193.058 140.509 171.608 161.859 160.713L163.406 159.937C166.906 158.214 169.646 157.106 171.75 156.593Z" stroke="url(#paint7_linear_428_21209)" stroke-miterlimit="10"/>
<path d="M170.798 145.802C173.807 144.956 176.125 144.987 177.829 145.979C179.542 146.977 180.493 148.862 180.973 151.379C181.453 153.899 181.478 157.152 181.252 161.029C180.345 176.584 175.378 202.614 178.12 234.385L178.258 235.852C181.405 266.683 199.764 298.704 213.88 322.56C221.027 334.638 227.114 344.666 229.504 351.324C230.104 352.995 230.482 354.482 230.579 355.754C230.676 357.024 230.496 358.13 229.922 358.988C229.34 359.859 228.405 360.395 227.161 360.624C226.082 360.823 224.748 360.797 223.146 360.553L222.443 360.435C205.898 357.416 181.522 359.17 153.122 362.672C138.932 364.422 123.756 366.605 108.072 368.841C92.3905 371.076 76.2025 373.363 59.9971 375.317C27.5902 379.226 -4.91083 381.808 -33.6113 379.99C-61.8528 378.201 -86.4875 372.148 -103.729 358.832L-104.544 358.192C-132.673 335.784 -143.477 294.338 -134.604 258.506C-130.165 240.578 -120.794 224.027 -106.174 211.951C-91.55 199.872 -71.7022 192.294 -46.3555 192.268L-43.4082 192.26C80.8162 191.717 134.897 164.94 159.197 151.122L160.081 150.624C164.443 148.19 167.968 146.597 170.798 145.802Z" stroke="url(#paint8_linear_428_21209)" stroke-miterlimit="10"/>
<path d="M169.845 135.006C173.481 133.899 176.421 133.813 178.779 134.745C181.15 135.682 182.843 137.61 184.057 140.33C185.267 143.041 186.02 146.577 186.502 150.81C187.466 159.27 187.36 170.686 187.526 184.201C187.693 197.734 188.131 213.416 190.173 230.472L190.372 232.056C194.781 265.345 212.514 299.988 225.401 325.719C231.928 338.751 237.241 349.549 238.874 356.674C239.284 358.462 239.469 360.048 239.374 361.397C239.279 362.749 238.898 363.896 238.146 364.761C236.725 366.392 234.179 366.816 230.516 366.173L229.768 366.03C211.631 362.294 185.482 364.016 155.219 367.822C140.098 369.724 123.968 372.144 107.32 374.653C90.6744 377.163 73.511 379.763 56.332 382.024C21.978 386.548 -12.4665 389.723 -43.0127 388.116C-73.0724 386.535 -99.4282 380.321 -118.208 366.138L-119.096 365.456C-149.617 341.702 -161.967 297.26 -153.126 258.957C-148.703 239.793 -138.97 222.137 -123.524 209.361C-108.075 196.582 -86.942 188.711 -59.7705 189.069L-56.5986 189.106C9.6811 189.743 55.9394 182.163 89.0498 172.32C122.68 162.323 142.766 149.986 156.521 141.517L157.503 140.918C162.363 137.993 166.434 136.044 169.845 135.006Z" stroke="url(#paint9_linear_428_21209)" stroke-miterlimit="10"/>
<path d="M168.894 124.227C173.148 122.862 176.725 122.654 179.746 123.55C185.811 125.348 189.354 131.488 191.733 140.62C194.121 149.783 195.39 162.171 196.74 176.79C198.092 191.424 199.528 208.325 202.242 226.566L202.504 228.267C208.182 264.011 225.291 301.273 236.95 328.883C239.909 335.889 242.517 342.276 244.494 347.854C246.469 353.425 247.824 358.218 248.261 362.028C248.694 365.809 248.241 368.782 246.391 370.527C244.532 372.28 241.453 372.623 237.098 371.639V371.638C217.402 367.178 189.5 368.867 157.387 372.976C125.269 377.084 89.0861 383.589 52.749 388.732C16.4441 393.871 -19.9542 397.639 -52.3604 396.245C-84.2518 394.874 -112.346 388.501 -132.684 373.449L-133.646 372.726C-166.573 347.622 -180.44 300.17 -171.615 259.389C-167.2 238.985 -157.099 220.221 -140.831 206.746C-124.559 193.268 -102.152 185.11 -73.1826 185.864L-69.7881 185.945C1.13684 187.495 49.2895 179.066 83.4902 167.778C118.23 156.313 138.597 141.892 153.864 131.921L154.944 131.224C160.296 127.811 164.906 125.506 168.894 124.227Z" stroke="url(#paint10_linear_428_21209)" stroke-miterlimit="10"/>
<path d="M152.382 121.51C164.441 113.466 173.595 110.667 180.733 112.348C188.134 114.09 193.161 120.59 196.965 130.435C200.774 140.292 203.413 153.652 205.945 169.369C208.481 185.111 210.909 203.208 214.294 222.642L214.617 224.46C221.566 262.671 238.053 302.55 248.49 332.04C251.139 339.524 253.398 346.341 255.009 352.287C256.618 358.227 257.588 363.328 257.641 367.368C257.693 371.391 256.837 374.493 254.64 376.269C252.578 377.934 249.483 378.313 245.279 377.421L244.424 377.226C223.155 372.043 193.492 373.699 159.523 378.11C125.557 382.522 87.4111 389.668 49.1318 395.428C10.8777 401.184 -27.4697 405.547 -61.7305 404.368C-95.4486 403.208 -125.276 396.679 -147.166 380.761L-148.202 379.995C-183.494 353.541 -198.892 303.086 -190.099 259.83C-185.699 238.189 -175.239 218.318 -158.153 204.144C-141.063 189.965 -117.381 181.517 -86.5996 182.659L-82.9814 182.785C-7.41124 185.247 42.6395 175.971 77.9326 163.237C113.786 150.301 134.431 133.793 151.205 122.305L152.382 121.51Z" stroke="url(#paint11_linear_428_21209)" stroke-miterlimit="10"/>
<path d="M149.828 111.809C162.912 102.764 173.286 99.5311 181.732 101.165C190.473 102.856 196.972 109.72 202.2 120.259C207.43 130.802 211.443 145.13 215.159 161.948C218.876 178.769 222.309 198.137 226.363 218.755L226.749 220.689C234.976 261.342 250.845 303.825 260.064 335.206C264.735 351.104 267.717 364.21 267.054 372.725C266.722 376.987 265.467 380.222 262.924 382.034C260.54 383.732 257.155 384.087 252.681 383.071L251.771 382.85C228.952 376.932 197.538 378.548 161.717 383.258C125.901 387.967 85.7937 395.75 45.5605 402.124C5.34973 408.495 -34.9574 413.453 -71.0811 412.488C-106.634 411.539 -138.201 404.852 -161.643 388.065L-162.753 387.258C-200.43 359.472 -217.362 306.016 -208.597 260.285C-204.212 237.407 -193.39 216.428 -175.482 201.552C-157.57 186.672 -132.609 177.931 -100.013 179.462L-96.1719 179.633C-15.9553 183.012 35.9901 172.887 72.375 158.707C109.344 144.299 130.267 125.705 148.554 112.702L149.828 111.809Z" stroke="url(#paint12_linear_428_21209)" stroke-miterlimit="10"/>
<path d="M147.262 102.127C161.374 92.078 172.977 88.4148 182.738 90.0156C192.829 91.6705 200.795 98.9229 207.444 110.157C214.094 121.392 219.476 136.689 224.374 154.597C229.273 172.509 233.697 193.074 238.418 214.854L238.866 216.904C243.541 238.099 249.611 259.795 255.525 280.33C261.628 301.52 267.569 321.485 271.627 338.364C275.679 355.219 277.883 369.094 276.448 378.067C275.729 382.564 274.081 385.93 271.192 387.781C268.395 389.574 264.557 389.865 259.576 388.587L259.09 388.458C234.739 381.814 201.586 383.397 163.919 388.41C126.258 393.423 84.1929 401.846 42.002 408.838C-0.168154 415.826 -42.4403 421.379 -80.4326 420.626C-117.826 419.885 -151.137 413.036 -176.135 395.375L-177.318 394.526C-217.374 365.372 -235.835 308.914 -227.097 260.714C-222.725 236.601 -211.541 214.52 -192.812 198.946C-174.077 183.369 -147.837 174.339 -113.427 176.256L-109.362 176.473C-24.4994 180.768 29.3412 169.799 66.8164 154.178C104.9 138.303 126.094 117.63 145.888 103.119L147.262 102.127Z" stroke="url(#paint13_linear_428_21209)" stroke-miterlimit="10"/>
<path d="M144.748 92.4238C159.884 81.3753 172.715 77.2772 183.791 78.8428C195.232 80.4601 204.66 88.1002 212.728 100.022C220.795 111.944 227.547 128.209 233.626 147.21C239.707 166.216 245.125 187.994 250.512 210.956L251.538 215.29C256.731 236.997 262.759 259.157 268.354 280.17C274.321 302.577 279.798 323.685 283.238 341.521C286.673 359.333 288.096 373.974 285.892 383.402C284.786 388.128 282.75 391.628 279.516 393.521C276.382 395.355 272.236 395.616 266.975 394.202L266.462 394.061C240.586 386.674 205.712 388.206 166.22 393.508C126.734 398.808 82.7356 407.859 38.6006 415.462C-5.51467 423.061 -49.7464 429.211 -89.6211 428.684C-129.491 428.157 -165.07 420.955 -191.832 401.795L-191.833 401.794C-234.187 371.246 -254.191 311.788 -245.513 261.125C-241.171 235.78 -229.647 212.6 -210.113 196.334C-190.575 180.063 -163.069 170.748 -126.845 173.052L-122.558 173.313C-33.0607 178.532 22.6765 166.719 61.2529 149.652C100.465 132.305 121.948 109.545 143.275 93.5146L144.748 92.4238Z" stroke="url(#paint14_linear_428_21209)" stroke-miterlimit="10"/>
<path d="M142.156 82.6914C158.315 70.6475 172.378 66.1147 184.771 67.6465C197.567 69.2282 208.456 77.26 217.941 89.8672C236.893 115.056 250.435 158.769 262.527 207.03L264.837 216.176C276.486 262.028 289.49 309.439 294.779 344.662C297.598 363.431 298.244 378.837 295.269 388.721C293.777 393.675 291.353 397.311 287.771 399.25C284.3 401.128 279.84 401.359 274.296 399.811L273.756 399.655C246.355 391.525 209.742 393.017 168.401 398.619C127.067 404.22 81.1098 413.914 35.0117 422.139C-11.0673 430.36 -57.268 437.11 -99.0117 436.8C-140.751 436.49 -178.098 429.123 -206.425 409.05L-206.426 409.049C-251.152 377.157 -272.678 314.701 -264.021 261.568C-259.69 234.989 -247.8 210.705 -227.443 193.74C-207.082 176.771 -178.297 167.164 -140.258 169.854L-135.748 170.16C-41.61 176.295 16.0234 163.637 55.6895 145.121C96.0182 126.296 117.766 101.445 140.586 83.8809L142.156 82.6914Z" stroke="url(#paint15_linear_428_21209)" stroke-miterlimit="10"/>
<path d="M138.771 73.6611C156.29 60.1432 171.877 54.9851 185.832 56.5049C200.009 58.049 212.387 66.4731 223.309 79.7627C245.132 106.319 261.315 152.519 274.58 203.152H274.581C288.3 254.238 302.125 308.335 306.499 347.825C308.684 367.552 308.523 383.725 304.749 394.062C302.857 399.243 300.037 403.016 296.095 405.001C292.151 406.987 287.181 407.135 281.09 405.271H281.089C252.169 396.413 213.82 397.866 170.632 403.766C127.451 409.664 79.5324 419.99 31.4697 428.827C-16.5745 437.661 -64.7468 445.005 -108.361 444.911C-151.972 444.818 -191.089 437.29 -220.979 416.325L-220.98 416.324C-268.106 383.081 -291.18 317.623 -282.556 262.017C-278.241 234.2 -265.989 208.811 -244.807 191.146C-223.619 173.475 -193.546 163.575 -153.676 166.649L-148.943 167.001C-50.1709 174.059 9.35945 160.558 50.123 140.603C70.8307 130.465 86.7127 118.653 100.45 106.997C107.321 101.167 113.652 95.3792 119.789 89.8535C125.923 84.3307 131.863 79.071 137.936 74.3115L138.771 73.6611Z" stroke="url(#paint16_linear_428_21209)" stroke-miterlimit="10"/>
<path d="M136.158 64.0059C154.711 49.4613 171.547 43.8537 186.839 45.3418C202.371 46.8533 216.205 55.6752 228.539 69.6484C253.19 97.5747 272.019 146.262 286.648 199.257H286.649C301.695 252.814 314.899 309.576 318.041 350.979C319.611 371.662 318.677 388.599 314.144 399.388C311.872 404.794 308.675 408.707 304.389 410.741C300.235 412.713 295.14 412.882 289.032 411.064L288.438 410.882C258.003 401.286 217.918 402.702 172.882 408.904C127.852 415.106 77.9709 426.076 27.9404 435.534C-22.0716 444.989 -72.2174 452.931 -117.705 453.052C-163.189 453.173 -204.079 445.475 -235.533 423.594L-235.534 423.593C-285.058 389.002 -309.664 320.583 -301.064 262.523C-296.762 233.48 -284.146 206.99 -262.141 188.616C-240.129 170.238 -208.777 160.025 -167.093 163.444H-167.092L-162.137 163.846C-58.7552 171.923 2.67142 157.579 44.5371 136.153C65.8051 125.269 82.0441 112.549 96.1855 99.9795C110.303 87.4321 122.403 74.9626 135.273 64.7051L136.158 64.0059Z" stroke="url(#paint17_linear_428_21209)" stroke-miterlimit="10"/>
<path d="M133.554 54.3574C153.14 38.7828 171.225 32.7244 187.854 34.1797C204.742 35.6578 220.027 44.8775 233.771 59.5342C261.244 88.8296 282.712 140.006 298.7 195.36H298.701C315.086 251.38 327.686 310.812 329.6 354.127C330.556 375.768 328.85 393.469 323.552 404.71C320.897 410.342 317.321 414.395 312.686 416.48C308.193 418.501 302.78 418.64 296.39 416.688L295.769 416.491C263.825 406.156 222.007 407.532 175.124 414.034C128.248 420.535 76.4041 432.143 24.4053 442.221C-27.5754 452.295 -79.6966 460.835 -127.058 461.173C-174.415 461.511 -217.075 453.649 -250.091 430.861L-250.092 430.86C-302.001 394.918 -328.14 323.489 -319.567 262.954C-315.279 232.673 -302.3 205.077 -279.474 186.007C-256.641 166.932 -224.011 156.432 -180.513 160.246H-180.512L-177.914 160.474C-68.3182 169.909 -4.33889 154.671 38.959 131.629C60.7822 120.015 77.3718 106.409 91.916 92.9443C106.44 79.499 118.985 66.131 132.62 55.1064L133.554 54.3574Z" stroke="url(#paint18_linear_428_21209)" stroke-miterlimit="10"/>
<path d="M130.954 44.7227C151.517 28.1025 170.821 21.5842 188.771 23.0049C206.999 24.4476 223.738 34.0702 238.901 49.415C269.214 80.0895 293.378 133.774 310.76 191.487L311.588 194.231C328.889 251.911 340.528 312.776 341.196 357.289C341.536 379.883 339.051 398.344 332.983 410.033C329.944 415.889 325.985 420.082 320.998 422.217C316.163 424.286 310.43 424.391 303.755 422.303L303.106 422.094C269.66 411.023 226.116 412.36 177.388 419.161C128.667 425.961 74.8608 438.207 20.8926 448.901C-33.0577 459.592 -87.1564 468.729 -136.394 469.283C-184.859 469.829 -228.673 462.06 -263.014 439.221L-264.643 438.122C-318.958 400.835 -346.628 326.397 -338.078 263.386C-333.801 231.866 -320.457 203.164 -296.807 183.396C-273.15 163.622 -239.24 152.834 -193.927 157.041L-191.217 157.291C-76.8985 167.661 -11.03 151.557 33.3584 127.057C55.7319 114.708 72.6704 100.214 87.6211 85.8623C102.553 71.5283 115.556 57.2784 129.974 45.5215L130.954 44.7227Z" stroke="url(#paint19_linear_428_21209)" stroke-miterlimit="10"/>
<path d="M127.326 35.8926C149.324 17.6327 170.242 10.424 189.845 11.8369C209.441 13.2494 227.635 23.2713 244.206 39.2949C277.334 71.3286 304.114 127.482 322.827 187.543L323.715 190.403C342.237 250.528 353.274 314.016 352.744 360.412C352.475 383.964 349.225 403.189 342.398 415.328C338.979 421.408 334.644 425.744 329.307 427.93C324.132 430.049 318.079 430.121 311.118 427.897L310.442 427.676C275.493 415.875 230.22 417.178 179.647 424.284C129.082 431.39 73.3137 444.28 17.376 455.596C-38.5438 466.908 -94.6202 476.644 -145.733 477.414C-196.046 478.172 -241.608 470.245 -277.495 446.531L-279.196 445.39C-335.931 406.758 -365.133 329.306 -356.603 263.813C-352.336 231.054 -338.623 201.244 -314.146 180.777C-289.664 160.306 -254.472 149.231 -207.345 153.837L-204.522 154.109C-85.4678 165.432 -17.6599 148.492 27.8408 122.538C50.7754 109.456 68.0648 94.0714 83.4102 78.8184C98.7393 63.5814 112.176 48.4218 127.326 35.8926Z" stroke="url(#paint20_linear_428_21209)" stroke-miterlimit="10"/>
<path d="M125.753 25.3896C148.615 6.59025 170.617 -0.785659 191.402 0.729492C212.509 2.26808 232.275 12.9682 250.34 30.0088C286.456 64.0778 315.902 123.614 335.834 186.658C355.769 249.713 366.215 316.369 364.27 364.739C363.298 388.91 359.229 408.59 351.643 420.966C347.843 427.163 343.144 431.558 337.483 433.743C331.996 435.862 325.664 435.881 318.475 433.54L317.776 433.306C281.325 420.761 234.324 422.023 181.906 429.427C129.496 436.83 71.7653 450.358 13.8574 462.291C-44.0327 474.221 -102.088 484.554 -155.079 485.54C-207.24 486.51 -254.554 478.426 -291.99 453.841L-293.766 452.657C-352.872 412.67 -383.606 332.213 -375.104 264.249C-370.852 230.253 -356.778 199.34 -331.481 178.176C-306.179 157.007 -269.707 145.644 -220.763 150.639L-217.829 150.933C-94.0712 163.173 -24.3243 145.393 22.2959 117.996C45.7954 104.186 63.442 87.9189 79.1855 71.7734C94.9139 55.6436 108.786 39.5849 124.664 26.293L125.753 25.3896Z" stroke="url(#paint21_linear_428_21209)" stroke-miterlimit="10"/>
</g>
<defs>
<filter id="filter0_d_428_21209" x="-381" y="0.0371094" width="750" height="494.079" filterUnits="userSpaceOnUse" color-interpolation-filters="sRGB">
<feFlood flood-opacity="0" result="BackgroundImageFix"/>
<feColorMatrix in="SourceAlpha" type="matrix" values="0 0 0 0 0 0 0 0 0 0 0 0 0 0 0 0 0 0 127 0" result="hardAlpha"/>
<feOffset dy="4"/>
<feGaussianBlur stdDeviation="2"/>
<feComposite in2="hardAlpha" operator="out"/>
<feColorMatrix type="matrix" values="0 0 0 0 0 0 0 0 0 0 0 0 0 0 0 0 0 0 0.25 0"/>
<feBlend mode="normal" in2="BackgroundImageFix" result="effect1_dropShadow_428_21209"/>
<feBlend mode="normal" in="SourceGraphic" in2="effect1_dropShadow_428_21209" result="shape"/>
</filter>
<linearGradient id="paint0_linear_428_21209" x1="93.5844" y1="211.801" x2="93.5844" y2="319.671" gradientUnits="userSpaceOnUse">
<stop stop-color="#85E668"/>
<stop offset="1" stop-color="#30BFA4"/>
</linearGradient>
<linearGradient id="paint1_linear_428_21209" x1="83.6606" y1="208.423" x2="83.6606" y2="326.491" gradientUnits="userSpaceOnUse">
<stop stop-color="#85E668"/>
<stop offset="1" stop-color="#30BFA4"/>
</linearGradient>
<linearGradient id="paint2_linear_428_21209" x1="76.064" y1="204.429" x2="76.064" y2="333.736" gradientUnits="userSpaceOnUse">
<stop stop-color="#85E668"/>
<stop offset="1" stop-color="#30BFA4"/>
</linearGradient>
<linearGradient id="paint3_linear_428_21209" x1="70.9495" y1="198.885" x2="70.9495" y2="342.909" gradientUnits="userSpaceOnUse">
<stop stop-color="#85E668"/>
<stop offset="1" stop-color="#30BFA4"/>
</linearGradient>
<linearGradient id="paint4_linear_428_21209" x1="66.0181" y1="189.479" x2="66.0181" y2="350.642" gradientUnits="userSpaceOnUse">
<stop stop-color="#85E668"/>
<stop offset="1" stop-color="#30BFA4"/>
</linearGradient>
<linearGradient id="paint5_linear_428_21209" x1="61.1284" y1="178.76" x2="61.1284" y2="356.502" gradientUnits="userSpaceOnUse">
<stop stop-color="#85E668"/>
<stop offset="1" stop-color="#30BFA4"/>
</linearGradient>
<linearGradient id="paint6_linear_428_21209" x1="56.1876" y1="167.778" x2="56.1876" y2="364.296" gradientUnits="userSpaceOnUse">
<stop stop-color="#85E668"/>
<stop offset="1" stop-color="#30BFA4"/>
</linearGradient>
<linearGradient id="paint7_linear_428_21209" x1="51.3055" y1="156.756" x2="51.3055" y2="372.16" gradientUnits="userSpaceOnUse">
<stop stop-color="#85E668"/>
<stop offset="1" stop-color="#30BFA4"/>
</linearGradient>
<linearGradient id="paint8_linear_428_21209" x1="46.4854" y1="145.699" x2="46.4854" y2="380.084" gradientUnits="userSpaceOnUse">
<stop stop-color="#85E668"/>
<stop offset="1" stop-color="#30BFA4"/>
</linearGradient>
<linearGradient id="paint9_linear_428_21209" x1="41.739" y1="134.605" x2="41.739" y2="388.039" gradientUnits="userSpaceOnUse">
<stop stop-color="#85E668"/>
<stop offset="1" stop-color="#30BFA4"/>
</linearGradient>
<linearGradient id="paint10_linear_428_21209" x1="37.0983" y1="123.508" x2="37.0983" y2="396.038" gradientUnits="userSpaceOnUse">
<stop stop-color="#85E668"/>
<stop offset="1" stop-color="#30BFA4"/>
</linearGradient>
<linearGradient id="paint11_linear_428_21209" x1="32.5604" y1="112.38" x2="32.5604" y2="404.062" gradientUnits="userSpaceOnUse">
<stop stop-color="#85E668"/>
<stop offset="1" stop-color="#30BFA4"/>
</linearGradient>
<linearGradient id="paint12_linear_428_21209" x1="28.1407" y1="101.258" x2="28.1407" y2="412.109" gradientUnits="userSpaceOnUse">
<stop stop-color="#85E668"/>
<stop offset="1" stop-color="#30BFA4"/>
</linearGradient>
<linearGradient id="paint13_linear_428_21209" x1="23.8304" y1="90.1543" x2="23.8304" y2="420.194" gradientUnits="userSpaceOnUse">
<stop stop-color="#85E668"/>
<stop offset="1" stop-color="#30BFA4"/>
</linearGradient>
<linearGradient id="paint14_linear_428_21209" x1="19.7214" y1="79.0215" x2="19.7214" y2="428.215" gradientUnits="userSpaceOnUse">
<stop stop-color="#85E668"/>
<stop offset="1" stop-color="#30BFA4"/>
</linearGradient>
<linearGradient id="paint15_linear_428_21209" x1="15.6566" y1="67.8594" x2="15.6566" y2="436.311" gradientUnits="userSpaceOnUse">
<stop stop-color="#85E668"/>
<stop offset="1" stop-color="#30BFA4"/>
</linearGradient>
<linearGradient id="paint16_linear_428_21209" x1="11.7902" y1="56.748" x2="11.7902" y2="444.412" gradientUnits="userSpaceOnUse">
<stop stop-color="#85E668"/>
<stop offset="1" stop-color="#30BFA4"/>
</linearGradient>
<linearGradient id="paint17_linear_428_21209" x1="7.99713" y1="45.6104" x2="7.99713" y2="452.553" gradientUnits="userSpaceOnUse">
<stop stop-color="#85E668"/>
<stop offset="1" stop-color="#30BFA4"/>
</linearGradient>
<linearGradient id="paint18_linear_428_21209" x1="4.33972" y1="34.4697" x2="4.33972" y2="460.683" gradientUnits="userSpaceOnUse">
<stop stop-color="#85E668"/>
<stop offset="1" stop-color="#30BFA4"/>
</linearGradient>
<linearGradient id="paint19_linear_428_21209" x1="0.80896" y1="23.3154" x2="0.80896" y2="468.809" gradientUnits="userSpaceOnUse">
<stop stop-color="#85E668"/>
<stop offset="1" stop-color="#30BFA4"/>
</linearGradient>
<linearGradient id="paint20_linear_428_21209" x1="-2.65088" y1="12.165" x2="-2.65088" y2="476.963" gradientUnits="userSpaceOnUse">
<stop stop-color="#85E668"/>
<stop offset="1" stop-color="#30BFA4"/>
</linearGradient>
<linearGradient id="paint21_linear_428_21209" x1="-6" y1="1.03711" x2="-6" y2="485.116" gradientUnits="userSpaceOnUse">
<stop stop-color="#85E668"/>
<stop offset="1" stop-color="#30BFA4"/>
</linearGradient>
</defs>
</svg>
