<svg width="178" height="160" viewBox="0 0 178 160" fill="none" xmlns="http://www.w3.org/2000/svg">
<path d="M157.352 114.984H93.2973C92.7467 114.983 92.219 114.725 91.8296 114.265C91.4403 113.806 91.2212 113.183 91.2202 112.534V2.44994C91.2221 1.80117 91.4416 1.17966 91.8309 0.721296C92.2201 0.262934 92.7474 0.00500773 93.2973 0.00390625H157.352C157.902 0.00500773 158.429 0.262934 158.818 0.721296C159.208 1.17966 159.427 1.80117 159.429 2.44994V112.534C159.428 113.183 159.209 113.806 158.82 114.265C158.43 114.725 157.902 114.983 157.352 114.984ZM93.2973 0.108438C93.0353 0.106233 92.7755 0.165139 92.5328 0.281772C92.2902 0.398404 92.0694 0.570464 91.8833 0.788057C91.6972 1.00565 91.5494 1.26449 91.4484 1.54969C91.3474 1.83489 91.2951 2.14084 91.2946 2.44994V112.534C91.2946 113.156 91.5042 113.753 91.8771 114.193C92.25 114.632 92.7558 114.88 93.2832 114.88H157.352C157.879 114.88 158.385 114.632 158.758 114.193C159.131 113.753 159.34 113.156 159.34 112.534V2.44994C159.34 1.82782 159.131 1.23119 158.758 0.791292C158.385 0.351391 157.879 0.104255 157.352 0.104255L93.2973 0.108438Z" fill="#F0F0F0"/>
<path d="M83.4719 114.984H19.4033C18.8527 114.983 18.3249 114.725 17.9356 114.266C17.5463 113.806 17.3271 113.184 17.3262 112.534V2.45021C17.3271 1.80072 17.5463 1.17814 17.9356 0.718873C18.3249 0.259608 18.8527 0.00110553 19.4033 0H83.4719C84.0225 0.00110553 84.5503 0.259608 84.9397 0.718873C85.329 1.17814 85.5481 1.80072 85.5491 2.45021V112.534C85.5481 113.184 85.329 113.806 84.9397 114.266C84.5503 114.725 84.0225 114.983 83.4719 114.984ZM19.4033 0.108713C18.8765 0.108712 18.3713 0.355273 17.9985 0.794269C17.6256 1.23327 17.4157 1.82883 17.4148 2.45021V112.534C17.4148 113.156 17.6243 113.753 17.9972 114.193C18.3701 114.633 18.8759 114.88 19.4033 114.88H83.4719C83.9993 114.88 84.5051 114.633 84.878 114.193C85.251 113.753 85.4605 113.156 85.4605 112.534V2.45021C85.4605 1.8281 85.251 1.23147 84.878 0.791568C84.5051 0.351667 83.9993 0.104531 83.4719 0.104531L19.4033 0.108713Z" fill="#F0F0F0"/>
<path d="M177.23 140.52H0V140.624H177.23V140.52Z" fill="#E0E0E0"/>
<path d="M31.2811 51.7178H20.0908C19.7971 51.7178 19.5591 51.9986 19.5591 52.345V55.3262C19.5591 55.6726 19.7971 55.9534 20.0908 55.9534H31.2811C31.5747 55.9534 31.8128 55.6726 31.8128 55.3262V52.345C31.8128 51.9986 31.5747 51.7178 31.2811 51.7178Z" fill="#F0F0F0"/>
<path d="M44.6512 51.7178H33.4609C33.1672 51.7178 32.9292 51.9986 32.9292 52.345V55.3262C32.9292 55.6726 33.1672 55.9534 33.4609 55.9534H44.6512C44.9448 55.9534 45.1829 55.6726 45.1829 55.3262V52.345C45.1829 51.9986 44.9448 51.7178 44.6512 51.7178Z" fill="#F0F0F0"/>
<path d="M37.9661 57.1162H26.7758C26.4822 57.1162 26.2441 57.397 26.2441 57.7434V60.7246C26.2441 61.071 26.4822 61.3518 26.7758 61.3518H37.9661C38.2598 61.3518 38.4978 61.071 38.4978 60.7246V57.7434C38.4978 57.397 38.2598 57.1162 37.9661 57.1162Z" fill="#F0F0F0"/>
<path d="M87.7962 76.3076H76.6059C76.3123 76.3076 76.0742 76.5884 76.0742 76.9348V79.916C76.0742 80.2624 76.3123 80.5432 76.6059 80.5432H87.7962C88.0899 80.5432 88.3279 80.2624 88.3279 79.916V76.9348C88.3279 76.5884 88.0899 76.3076 87.7962 76.3076Z" fill="#F0F0F0"/>
<path d="M101.166 76.3076H89.976C89.6824 76.3076 89.4443 76.5884 89.4443 76.9348V79.916C89.4443 80.2624 89.6824 80.5432 89.976 80.5432H101.166C101.46 80.5432 101.698 80.2624 101.698 79.916V76.9348C101.698 76.5884 101.46 76.3076 101.166 76.3076Z" fill="#F0F0F0"/>
<path d="M94.4813 81.71H83.291C82.9973 81.71 82.7593 81.9908 82.7593 82.3371V85.3184C82.7593 85.6648 82.9973 85.9456 83.291 85.9456H94.4813C94.7749 85.9456 95.013 85.6648 95.013 85.3184V82.3371C95.013 81.9908 94.7749 81.71 94.4813 81.71Z" fill="#F0F0F0"/>
<path d="M31.2601 98.126H20.0698C19.7761 98.126 19.5381 98.4068 19.5381 98.7532V101.734C19.5381 102.081 19.7761 102.362 20.0698 102.362H31.2601C31.5537 102.362 31.7918 102.081 31.7918 101.734V98.7532C31.7918 98.4068 31.5537 98.126 31.2601 98.126Z" fill="#F0F0F0"/>
<path d="M37.9451 103.527H26.7548C26.4612 103.527 26.2231 103.808 26.2231 104.155V107.136C26.2231 107.482 26.4612 107.763 26.7548 107.763H37.9451C38.2388 107.763 38.4768 107.482 38.4768 107.136V104.155C38.4768 103.808 38.2388 103.527 37.9451 103.527Z" fill="#F0F0F0"/>
<path d="M141.926 32.2998H130.735C130.442 32.2998 130.204 32.5806 130.204 32.927V35.9082C130.204 36.2546 130.442 36.5354 130.735 36.5354H141.926C142.219 36.5354 142.457 36.2546 142.457 35.9082V32.927C142.457 32.5806 142.219 32.2998 141.926 32.2998Z" fill="#F0F0F0"/>
<path d="M155.296 32.2998H144.106C143.812 32.2998 143.574 32.5806 143.574 32.927V35.9082C143.574 36.2546 143.812 36.5354 144.106 36.5354H155.296C155.59 36.5354 155.828 36.2546 155.828 35.9082V32.927C155.828 32.5806 155.59 32.2998 155.296 32.2998Z" fill="#F0F0F0"/>
<path d="M148.611 37.6982H137.421C137.127 37.6982 136.889 37.979 136.889 38.3254V41.3067C136.889 41.653 137.127 41.9338 137.421 41.9338H148.611C148.905 41.9338 149.143 41.653 149.143 41.3067V38.3254C149.143 37.979 148.905 37.6982 148.611 37.6982Z" fill="#F0F0F0"/>
<path d="M31.236 37.4138C34.2039 35.9637 35.6133 31.95 34.3839 28.449C33.1546 24.9479 29.752 23.2854 26.7841 24.7356C23.8161 26.1857 22.4067 30.1995 23.6361 33.7005C24.8655 37.2015 28.268 38.864 31.236 37.4138Z" fill="#E6E6E6"/>
<path d="M28.3959 28.4951H27.0454V33.6506H28.3959V28.4951Z" fill="white"/>
<path d="M30.9657 28.4951H29.6152V33.6506H30.9657V28.4951Z" fill="white"/>
<path d="M143.574 17.1052C142.902 17.1052 142.257 16.7902 141.782 16.2296C141.307 15.6689 141.04 14.9085 141.04 14.1156V8.75522C141.04 7.96233 141.307 7.20192 141.782 6.64126C142.257 6.0806 142.902 5.76563 143.574 5.76563C143.907 5.76508 144.237 5.842 144.545 5.992C144.853 6.14199 145.133 6.36211 145.368 6.63978C145.604 6.91744 145.791 7.2472 145.919 7.61019C146.046 7.97317 146.112 8.36227 146.112 8.75522V14.1156C146.112 14.5085 146.046 14.8976 145.919 15.2606C145.791 15.6236 145.604 15.9534 145.368 16.231C145.133 16.5087 144.853 16.7288 144.545 16.8788C144.237 17.0288 143.907 17.1057 143.574 17.1052Z" fill="#E6E6E6"/>
<path d="M148.873 13.0459C148.873 13.2299 148.873 16.1442 147.25 18.0634C146.39 19.0637 145.242 19.6446 144.035 19.6899V23.0098H143.103V19.6899C141.898 19.6413 140.753 19.0607 139.895 18.0634C138.282 16.1358 138.275 13.2215 138.275 13.0459H139.207C139.207 13.071 139.207 15.6759 140.568 17.2899C140.965 17.7414 141.436 18.0917 141.953 18.319C142.469 18.5463 143.02 18.6458 143.571 18.6111C144.123 18.6425 144.676 18.5416 145.195 18.3145C145.714 18.0875 146.189 17.7389 146.591 17.2899C147.93 15.6885 147.941 13.1337 147.941 13.0459H148.873Z" fill="#E6E6E6"/>
<path d="M162.538 97.9922H158.819V140.52H162.538V97.9922Z" fill="#E0E0E0"/>
<path d="M150.823 97.9922H147.104V140.52H150.823V97.9922Z" fill="#F0F0F0"/>
<path d="M105.434 97.9922H101.716V140.52H105.434V97.9922Z" fill="#E0E0E0"/>
<path d="M93.7158 97.9922H89.9976V140.52H93.7158V97.9922Z" fill="#F0F0F0"/>
<path d="M90.001 97.9878V105.493H162.541V97.9878H90.001Z" fill="#F0F0F0"/>
<path d="M162.538 97.9922H147.119V105.498H162.538V97.9922Z" fill="#E0E0E0"/>
<path d="M42.2195 4.86684V10.0223C42.2202 10.373 42.1276 10.715 41.9545 11.0001C41.7815 11.2852 41.5369 11.499 41.2553 11.6112L41.3546 14.1199L39.4972 11.7074H31.6991C31.3231 11.7074 30.9624 11.5312 30.6965 11.2175C30.4306 10.9038 30.2812 10.4784 30.2812 10.0349V4.86684C30.2812 4.42326 30.4306 3.99786 30.6965 3.6842C30.9624 3.37055 31.3231 3.19434 31.6991 3.19434H40.8087C41.1835 3.19655 41.5423 3.37373 41.8067 3.68715C42.0711 4.00056 42.2195 4.42471 42.2195 4.86684Z" fill="#92E3A9"/>
<path opacity="0.5" d="M42.2195 4.86684V10.0223C42.2202 10.373 42.1276 10.715 41.9545 11.0001C41.7815 11.2852 41.5369 11.499 41.2553 11.6112L41.3546 14.1199L39.4972 11.7074H31.6991C31.3231 11.7074 30.9624 11.5312 30.6965 11.2175C30.4306 10.9038 30.2812 10.4784 30.2812 10.0349V4.86684C30.2812 4.42326 30.4306 3.99786 30.6965 3.6842C30.9624 3.37055 31.3231 3.19434 31.6991 3.19434H40.8087C41.1835 3.19655 41.5423 3.37373 41.8067 3.68715C42.0711 4.00056 42.2195 4.42471 42.2195 4.86684Z" fill="white"/>
<path d="M33.4396 8.28296C33.8037 8.28296 34.0989 7.93477 34.0989 7.50525C34.0989 7.07573 33.8037 6.72754 33.4396 6.72754C33.0755 6.72754 32.7803 7.07573 32.7803 7.50525C32.7803 7.93477 33.0755 8.28296 33.4396 8.28296Z" fill="#92E3A9"/>
<path d="M39.0362 8.28296C39.4004 8.28296 39.6955 7.93477 39.6955 7.50525C39.6955 7.07573 39.4004 6.72754 39.0362 6.72754C38.6721 6.72754 38.377 7.07573 38.377 7.50525C38.377 7.93477 38.6721 8.28296 39.0362 8.28296Z" fill="#92E3A9"/>
<path d="M36.2643 8.28296C36.6284 8.28296 36.9236 7.93477 36.9236 7.50525C36.9236 7.07573 36.6284 6.72754 36.2643 6.72754C35.9002 6.72754 35.605 7.07573 35.605 7.50525C35.605 7.93477 35.9002 8.28296 36.2643 8.28296Z" fill="#92E3A9"/>
<path d="M72.7744 19.4927V26.8224C72.774 27.0754 72.8158 27.3259 72.8975 27.5598C72.9792 27.7936 73.0993 28.0061 73.2507 28.1852C73.4022 28.3642 73.5821 28.5063 73.7801 28.6032C73.9782 28.7001 74.1905 28.75 74.4049 28.75H108.717L110.134 32.4128L111.62 28.75H113.346C113.56 28.75 113.773 28.7001 113.971 28.6032C114.169 28.5063 114.349 28.3642 114.5 28.1852C114.652 28.0061 114.772 27.7936 114.853 27.5598C114.935 27.3259 114.977 27.0754 114.976 26.8224V19.4927C114.977 19.24 114.935 18.9896 114.853 18.756C114.771 18.5224 114.651 18.3102 114.5 18.1315C114.348 17.9527 114.168 17.8111 113.97 17.7146C113.772 17.6182 113.56 17.5688 113.346 17.5693H74.4049C74.1907 17.5688 73.9784 17.6182 73.7804 17.7146C73.5824 17.8111 73.4024 17.9527 73.2509 18.1315C73.0994 18.3102 72.9794 18.5224 72.8976 18.756C72.8158 18.9896 72.774 19.24 72.7744 19.4927Z" fill="#92E3A9"/>
<path opacity="0.5" d="M72.7744 19.4927V26.8224C72.774 27.0754 72.8158 27.3259 72.8975 27.5598C72.9792 27.7936 73.0993 28.0061 73.2507 28.1852C73.4022 28.3642 73.5821 28.5063 73.7801 28.6032C73.9782 28.7001 74.1905 28.75 74.4049 28.75H108.717L110.134 32.4128L111.62 28.75H113.346C113.56 28.75 113.773 28.7001 113.971 28.6032C114.169 28.5063 114.349 28.3642 114.5 28.1852C114.652 28.0061 114.772 27.7936 114.853 27.5598C114.935 27.3259 114.977 27.0754 114.976 26.8224V19.4927C114.977 19.24 114.935 18.9896 114.853 18.756C114.771 18.5224 114.651 18.3102 114.5 18.1315C114.348 17.9527 114.168 17.8111 113.97 17.7146C113.772 17.6182 113.56 17.5688 113.346 17.5693H74.4049C74.1907 17.5688 73.9784 17.6182 73.7804 17.7146C73.5824 17.8111 73.4024 17.9527 73.2509 18.1315C73.0994 18.3102 72.9794 18.5224 72.8976 18.756C72.8158 18.9896 72.774 19.24 72.7744 19.4927Z" fill="white"/>
<path d="M80.328 22.9718C80.3287 23.5839 80.1755 24.1825 79.8877 24.6919C79.5999 25.2013 79.1905 25.5985 78.7113 25.8334C78.232 26.0682 77.7045 26.1301 77.1955 26.0111C76.6864 25.8922 76.2187 25.5979 75.8515 25.1653C75.4844 24.7328 75.2342 24.1815 75.1327 23.5811C75.0312 22.9808 75.0829 22.3585 75.2814 21.7929C75.4798 21.2272 75.816 20.7438 76.2474 20.4036C76.6788 20.0634 77.1861 19.8818 77.705 19.8818C78.4001 19.8818 79.0667 20.2072 79.5585 20.7866C80.0503 21.366 80.3271 22.1519 80.328 22.9718Z" fill="#92E3A9"/>
<path d="M76.9854 21.5127V24.4312L79.1759 22.7922L76.9854 21.5127Z" fill="white"/>
<path d="M82.3484 21.002H81.9443V25.2543H82.3484V21.002Z" fill="#92E3A9"/>
<path d="M83.8758 21.7754H83.4717V24.4807H83.8758V21.7754Z" fill="#92E3A9"/>
<path d="M85.4036 21.002H84.9995V25.2543H85.4036V21.002Z" fill="#92E3A9"/>
<path d="M86.928 21.7754H86.5239V24.4807H86.928V21.7754Z" fill="#92E3A9"/>
<path d="M89.9832 21.7754H89.5791V24.4807H89.9832V21.7754Z" fill="#92E3A9"/>
<path d="M93.0354 21.7754H92.6313V24.4807H93.0354V21.7754Z" fill="#92E3A9"/>
<path d="M96.0906 21.7754H95.6865V24.4807H96.0906V21.7754Z" fill="#92E3A9"/>
<path d="M99.1424 21.7754H98.7383V24.4807H99.1424V21.7754Z" fill="#92E3A9"/>
<path d="M102.194 21.7754H101.79V24.4807H102.194V21.7754Z" fill="#92E3A9"/>
<path d="M105.25 21.7754H104.846V24.4807H105.25V21.7754Z" fill="#92E3A9"/>
<path d="M111.368 21.7754H110.964V24.4807H111.368V21.7754Z" fill="#92E3A9"/>
<path d="M108.383 21.7754H107.979V24.4807H108.383V21.7754Z" fill="#92E3A9"/>
<path d="M88.4554 21.002H88.0513V25.2543H88.4554V21.002Z" fill="#92E3A9"/>
<path d="M91.511 21.002H91.1069V25.2543H91.511V21.002Z" fill="#92E3A9"/>
<path d="M94.5628 21.002H94.1587V25.2543H94.5628V21.002Z" fill="#92E3A9"/>
<path d="M97.615 21.002H97.2109V25.2543H97.615V21.002Z" fill="#92E3A9"/>
<path d="M100.67 21.002H100.266V25.2543H100.67V21.002Z" fill="#92E3A9"/>
<path d="M103.722 21.002H103.318V25.2543H103.722V21.002Z" fill="#92E3A9"/>
<path d="M106.778 21.002H106.374V25.2543H106.778V21.002Z" fill="#92E3A9"/>
<path d="M109.83 21.002H109.426V25.2543H109.83V21.002Z" fill="#92E3A9"/>
<path opacity="0.8" d="M93.0354 21.7754H92.6313V24.4807H93.0354V21.7754Z" fill="white"/>
<path opacity="0.8" d="M96.0906 21.7754H95.6865V24.4807H96.0906V21.7754Z" fill="white"/>
<path opacity="0.8" d="M99.1424 21.7754H98.7383V24.4807H99.1424V21.7754Z" fill="white"/>
<path opacity="0.8" d="M102.194 21.7754H101.79V24.4807H102.194V21.7754Z" fill="white"/>
<path opacity="0.8" d="M105.25 21.7754H104.846V24.4807H105.25V21.7754Z" fill="white"/>
<path opacity="0.8" d="M111.368 21.7754H110.964V24.4807H111.368V21.7754Z" fill="white"/>
<path opacity="0.8" d="M108.383 21.7754H107.979V24.4807H108.383V21.7754Z" fill="white"/>
<path opacity="0.8" d="M94.5628 21.002H94.1587V25.2543H94.5628V21.002Z" fill="white"/>
<path opacity="0.8" d="M97.615 21.002H97.2109V25.2543H97.615V21.002Z" fill="white"/>
<path opacity="0.8" d="M100.67 21.002H100.266V25.2543H100.67V21.002Z" fill="white"/>
<path opacity="0.8" d="M103.722 21.002H103.318V25.2543H103.722V21.002Z" fill="white"/>
<path opacity="0.8" d="M106.778 21.002H106.374V25.2543H106.778V21.002Z" fill="white"/>
<path opacity="0.8" d="M109.83 21.002H109.426V25.2543H109.83V21.002Z" fill="white"/>
<path d="M103.169 2.00248V9.33639C103.17 9.58913 103.128 9.83949 103.046 10.0731C102.964 10.3067 102.844 10.5189 102.693 10.6977C102.541 10.8764 102.361 11.018 102.163 11.1145C101.965 11.2109 101.753 11.2603 101.539 11.2598H67.2271L65.8092 14.9267L64.324 11.2598H62.5978C62.3836 11.2603 62.1713 11.2109 61.9733 11.1145C61.7752 11.018 61.5953 10.8764 61.4438 10.6977C61.2923 10.5189 61.1722 10.3067 61.0905 10.0731C61.0087 9.83949 60.9668 9.58913 60.9673 9.33639V2.00248C60.9673 1.49237 61.1391 1.00315 61.4449 0.642444C61.7506 0.281741 62.1654 0.0791016 62.5978 0.0791016H101.553C101.983 0.0835122 102.394 0.288097 102.697 0.648323C102.999 1.00855 103.169 1.49525 103.169 2.00248Z" fill="#92E3A9"/>
<path opacity="0.5" d="M103.169 2.00248V9.33639C103.17 9.58913 103.128 9.83949 103.046 10.0731C102.964 10.3067 102.844 10.5189 102.693 10.6977C102.541 10.8764 102.361 11.018 102.163 11.1145C101.965 11.2109 101.753 11.2603 101.539 11.2598H67.2271L65.8092 14.9267L64.324 11.2598H62.5978C62.3836 11.2603 62.1713 11.2109 61.9733 11.1145C61.7752 11.018 61.5953 10.8764 61.4438 10.6977C61.2923 10.5189 61.1722 10.3067 61.0905 10.0731C61.0087 9.83949 60.9668 9.58913 60.9673 9.33639V2.00248C60.9673 1.49237 61.1391 1.00315 61.4449 0.642444C61.7506 0.281741 62.1654 0.0791016 62.5978 0.0791016H101.553C101.983 0.0835122 102.394 0.288097 102.697 0.648323C102.999 1.00855 103.169 1.49525 103.169 2.00248Z" fill="white"/>
<path d="M65.8587 2.80566H65.802C65.293 2.80566 64.8804 3.29239 64.8804 3.89279V5.97087C64.8804 6.57127 65.293 7.058 65.802 7.058H65.8587C66.3677 7.058 66.7803 6.57127 66.7803 5.97087V3.89279C66.7803 3.29239 66.3677 2.80566 65.8587 2.80566Z" fill="#92E3A9"/>
<path d="M67.819 5.53516C67.814 6.22838 67.5976 6.89631 67.2093 7.41672C66.8871 7.79204 66.4567 8.01006 66.0041 8.02718V9.28156H65.6497V8.02718C65.1983 8.00902 64.7693 7.79107 64.4481 7.41672C64.0598 6.89631 63.8434 6.22838 63.8384 5.53516H64.1928C64.2011 6.11869 64.3816 6.68056 64.7033 7.12403C64.8521 7.2939 65.029 7.42576 65.2229 7.51137C65.4168 7.59698 65.6237 7.6345 65.8304 7.6216C66.0376 7.6331 66.2447 7.59494 66.439 7.50942C66.6333 7.4239 66.811 7.2928 66.9612 7.12403C67.2815 6.67998 67.4608 6.11817 67.4681 5.53516H67.819Z" fill="#92E3A9"/>
<path d="M71.1863 3.57422H70.7822V7.82655H71.1863V3.57422Z" fill="#92E3A9"/>
<path d="M72.7102 4.34863H72.3062V7.0539H72.7102V4.34863Z" fill="#92E3A9"/>
<path d="M74.2381 3.57422H73.834V7.82655H74.2381V3.57422Z" fill="#92E3A9"/>
<path d="M75.7659 4.34863H75.3618V7.0539H75.7659V4.34863Z" fill="#92E3A9"/>
<path d="M78.8177 4.34863H78.4136V7.0539H78.8177V4.34863Z" fill="#92E3A9"/>
<path d="M81.8699 4.34863H81.4658V7.0539H81.8699V4.34863Z" fill="#92E3A9"/>
<path d="M84.9251 4.34863H84.521V7.0539H84.9251V4.34863Z" fill="#92E3A9"/>
<path d="M87.9768 4.34863H87.5728V7.0539H87.9768V4.34863Z" fill="#92E3A9"/>
<path d="M91.0325 4.34863H90.6284V7.0539H91.0325V4.34863Z" fill="#92E3A9"/>
<path d="M94.0843 4.34863H93.6802V7.0539H94.0843V4.34863Z" fill="#92E3A9"/>
<path d="M100.202 4.34863H99.7983V7.0539H100.202V4.34863Z" fill="#92E3A9"/>
<path d="M97.218 4.34863H96.814V7.0539H97.218V4.34863Z" fill="#92E3A9"/>
<path d="M77.2903 3.57422H76.8862V7.82655H77.2903V3.57422Z" fill="#92E3A9"/>
<path d="M80.3455 3.57422H79.9414V7.82655H80.3455V3.57422Z" fill="#92E3A9"/>
<path d="M83.3973 3.57422H82.9932V7.82655H83.3973V3.57422Z" fill="#92E3A9"/>
<path d="M86.4529 3.57422H86.0488V7.82655H86.4529V3.57422Z" fill="#92E3A9"/>
<path d="M89.5047 3.57422H89.1006V7.82655H89.5047V3.57422Z" fill="#92E3A9"/>
<path d="M92.5564 3.57422H92.1523V7.82655H92.5564V3.57422Z" fill="#92E3A9"/>
<path d="M95.6121 3.57422H95.208V7.82655H95.6121V3.57422Z" fill="#92E3A9"/>
<path d="M98.6643 3.57422H98.2603V7.82655H98.6643V3.57422Z" fill="#92E3A9"/>
<path opacity="0.8" d="M81.8699 4.34863H81.4658V7.0539H81.8699V4.34863Z" fill="white"/>
<path opacity="0.8" d="M84.9251 4.34863H84.521V7.0539H84.9251V4.34863Z" fill="white"/>
<path opacity="0.8" d="M87.9768 4.34863H87.5728V7.0539H87.9768V4.34863Z" fill="white"/>
<path opacity="0.8" d="M91.0325 4.34863H90.6284V7.0539H91.0325V4.34863Z" fill="white"/>
<path opacity="0.8" d="M94.0843 4.34863H93.6802V7.0539H94.0843V4.34863Z" fill="white"/>
<path opacity="0.8" d="M100.202 4.34863H99.7983V7.0539H100.202V4.34863Z" fill="white"/>
<path opacity="0.8" d="M97.218 4.34863H96.814V7.0539H97.218V4.34863Z" fill="white"/>
<path opacity="0.8" d="M83.3973 3.57422H82.9932V7.82655H83.3973V3.57422Z" fill="white"/>
<path opacity="0.8" d="M86.4529 3.57422H86.0488V7.82655H86.4529V3.57422Z" fill="white"/>
<path opacity="0.8" d="M89.5047 3.57422H89.1006V7.82655H89.5047V3.57422Z" fill="white"/>
<path opacity="0.8" d="M92.5564 3.57422H92.1523V7.82655H92.5564V3.57422Z" fill="white"/>
<path opacity="0.8" d="M95.6121 3.57422H95.208V7.82655H95.6121V3.57422Z" fill="white"/>
<path opacity="0.8" d="M98.6643 3.57422H98.2603V7.82655H98.6643V3.57422Z" fill="white"/>
<path d="M88.9691 134.913C88.9691 134.913 86.2078 129.795 79.505 125.145C74.773 121.859 72.0117 112.602 72.0117 112.602C72.0117 112.602 81.0824 113.066 85.0275 119.58C88.9726 126.094 88.9691 134.913 88.9691 134.913Z" fill="#92E3A9"/>
<g opacity="0.2">
<path d="M88.9691 134.913C88.9691 134.913 86.2078 129.795 79.505 125.145C74.773 121.859 72.0117 112.602 72.0117 112.602C72.0117 112.602 81.0824 113.066 85.0275 119.58C88.9726 126.094 88.9691 134.913 88.9691 134.913Z" fill="black"/>
</g>
<path opacity="0.2" d="M89.0012 135.05C88.9715 135.05 88.9425 135.039 88.9187 135.018C88.895 134.997 88.8779 134.967 88.8701 134.933C87.7694 130.273 85.6341 126.044 82.6847 122.682C81.3852 121.148 79.9318 119.807 78.3568 118.689C78.3414 118.679 78.3279 118.665 78.3171 118.648C78.3062 118.631 78.2983 118.613 78.2937 118.592C78.2891 118.572 78.2879 118.551 78.2902 118.53C78.2925 118.51 78.2983 118.49 78.3072 118.471C78.3153 118.453 78.3265 118.437 78.3401 118.424C78.3537 118.411 78.3694 118.401 78.3863 118.395C78.4032 118.389 78.4208 118.387 78.4383 118.39C78.4558 118.392 78.4726 118.399 78.4879 118.409C80.0847 119.541 81.5583 120.899 82.8762 122.452C85.8587 125.853 88.0173 130.131 89.1288 134.845C89.1336 134.866 89.135 134.887 89.1328 134.908C89.1305 134.929 89.1248 134.949 89.1159 134.967C89.107 134.985 89.0951 135.002 89.0809 135.014C89.0667 135.027 89.0504 135.036 89.0331 135.042L89.0012 135.05Z" fill="black"/>
<path d="M87.7818 134.796C87.7818 134.796 86.9913 132.935 83.4432 133.403C79.8951 133.872 77.9207 136.192 71.6113 132.007C71.6113 132.007 76.3434 127.353 81.4724 128.286C86.6014 129.218 86.9913 131.543 87.7818 134.796Z" fill="#92E3A9"/>
<g opacity="0.2">
<path d="M87.7818 134.796C87.7818 134.796 86.9913 132.935 83.4432 133.403C79.8951 133.872 77.9207 136.192 71.6113 132.007C71.6113 132.007 76.3434 127.353 81.4724 128.286C86.6014 129.218 86.9913 131.543 87.7818 134.796Z" fill="black"/>
</g>
<path opacity="0.2" d="M87.8 134.954C87.7766 134.954 87.7535 134.948 87.733 134.934C87.7125 134.921 87.6953 134.902 87.683 134.879C87.683 134.849 86.0808 131.91 83.5287 131.362C79.0661 130.405 76.0284 132.085 76 132.102C75.9843 132.112 75.967 132.118 75.9492 132.12C75.9315 132.122 75.9136 132.119 75.8966 132.113C75.8797 132.106 75.8641 132.095 75.8508 132.081C75.8375 132.067 75.8268 132.05 75.8192 132.031C75.8114 132.012 75.8069 131.992 75.8059 131.971C75.8049 131.95 75.8074 131.929 75.8133 131.909C75.8193 131.889 75.8285 131.871 75.8405 131.855C75.8524 131.839 75.8669 131.827 75.883 131.818C75.9114 131.818 79.0235 130.07 83.5748 131.049C86.2474 131.621 87.846 134.586 87.9134 134.711C87.9321 134.748 87.9382 134.791 87.9302 134.832C87.9223 134.874 87.901 134.91 87.8709 134.933C87.8486 134.945 87.8245 134.952 87.8 134.954Z" fill="black"/>
<path d="M89.3311 134.348C89.3311 134.348 89.0227 132.299 92.1029 130.167C95.1832 128.034 97.9444 128.515 100.886 120.713C100.886 120.713 94.7366 120.295 91.0927 124.673C87.4489 129.05 88.3138 131.179 89.3311 134.348Z" fill="#92E3A9"/>
<g opacity="0.2">
<path d="M89.3311 134.348C89.3311 134.348 89.0227 132.299 92.1029 130.167C95.1832 128.034 97.9444 128.515 100.886 120.713C100.886 120.713 94.7366 120.295 91.0927 124.673C87.4489 129.05 88.3138 131.179 89.3311 134.348Z" fill="black"/>
</g>
<path opacity="0.2" d="M89.3167 134.519C89.2827 134.519 89.25 134.504 89.225 134.477C89.2 134.45 89.1847 134.413 89.182 134.373C89.182 134.222 88.9516 130.719 90.8054 128.377C93.9636 124.388 97.3346 123.581 97.3665 123.573C97.4022 123.565 97.4389 123.575 97.4687 123.599C97.4985 123.623 97.5191 123.66 97.526 123.702C97.5322 123.743 97.5246 123.786 97.5047 123.82C97.4848 123.854 97.4543 123.878 97.4196 123.886C97.3842 123.886 94.0983 124.685 91.0039 128.594C89.2316 130.836 89.4478 134.31 89.4514 134.348C89.4528 134.369 89.4508 134.39 89.4453 134.41C89.4399 134.43 89.4311 134.448 89.4196 134.464C89.408 134.48 89.394 134.493 89.3781 134.502C89.3623 134.512 89.345 134.518 89.3273 134.519H89.3167Z" fill="black"/>
<path d="M88.6896 159.665C81.6394 159.665 77.1519 158.344 77.875 152.481C78.3323 148.764 80.7887 145.122 82.5255 142.957C82.7701 142.651 82.9969 142.375 83.2061 142.12C83.8512 141.372 84.2695 140.941 84.2695 140.941L84.2872 140.803L84.4112 139.967L84.553 139.022L84.8791 136.86L84.989 136.103L88.6754 135.911L92.5213 136.103L92.6099 136.86L92.7481 138.044L92.9714 139.967L93.0672 140.803V140.941C93.0672 140.941 93.5031 141.359 94.1305 142.12C94.3397 142.363 94.5701 142.639 94.8146 142.957C96.5479 145.122 99.0079 148.764 99.4652 152.481C100.217 158.331 95.7291 159.665 88.6896 159.665Z" fill="#92E3A9"/>
<path d="M93.8892 136.877H83.3901V134.23H93.8892V136.877Z" fill="#92E3A9"/>
<g opacity="0.4">
<path d="M93.8892 136.877H83.3901V134.23H93.8892V136.877Z" fill="white"/>
</g>
<g opacity="0.3">
<path d="M93.0705 140.804H84.2905L84.4146 139.984H92.9748L93.0705 140.804Z" fill="black"/>
</g>
<g opacity="0.3">
<path d="M94.8463 142.94H82.5146C82.7592 142.635 82.9861 142.359 83.1952 142.104H94.1622C94.3607 142.363 94.6017 142.639 94.8463 142.94Z" fill="black"/>
</g>
<path d="M126.181 44.3543C124.915 47.3063 123.572 50.1286 122.072 52.9217C121.324 54.3141 120.548 55.6981 119.698 57.0695C119.272 57.7511 118.826 58.4326 118.34 59.1183C118.092 59.4612 117.837 59.8082 117.55 60.1595C117.234 60.5492 116.896 60.9137 116.539 61.2508C116.289 61.4831 116.022 61.6901 115.742 61.8696C115.526 62.0006 115.301 62.1083 115.068 62.1916C114.694 62.326 114.302 62.3715 113.913 62.3254C113.785 62.3083 113.658 62.2818 113.533 62.2459C113.464 62.2271 113.395 62.2034 113.328 62.1748C113.236 62.1372 113.147 62.0954 113.058 62.0494C112.935 61.9861 112.817 61.9106 112.704 61.8236L112.576 61.7233L112.502 61.6522L112.36 61.5142L112.261 61.4055C112.187 61.326 112.144 61.2717 112.091 61.209C111.899 60.9706 111.768 60.7908 111.634 60.5818C111.134 59.8292 110.755 59.1351 110.361 58.4326C109.588 57.0361 108.876 55.6437 108.181 54.2514C106.785 51.4457 105.473 48.6067 104.218 45.7132L106.444 44.0407L111.389 51.7008C112.211 52.9552 113.03 54.2346 113.87 55.4639C114.278 56.0618 114.71 56.6639 115.086 57.1364C115.16 57.2293 115.238 57.3172 115.32 57.3998C115.32 57.3998 115.345 57.4249 115.338 57.3998L115.295 57.3538L115.27 57.3329L115.199 57.2702C115.126 57.2134 115.049 57.1631 114.969 57.1197C114.898 57.0821 114.831 57.0528 114.76 57.0235L114.615 56.9734C114.53 56.9499 114.445 56.9318 114.359 56.919C114.142 56.8911 113.922 56.911 113.711 56.9775C113.641 57.0005 113.572 57.0284 113.505 57.0612C113.455 57.0863 113.505 57.0612 113.544 56.9859C113.65 56.8563 113.821 56.6305 113.987 56.3838C114.154 56.1371 114.342 55.857 114.508 55.5476C114.863 54.9664 115.217 54.3392 115.55 53.6953C116.238 52.4074 116.911 51.0611 117.567 49.698C118.223 48.3349 118.882 46.9551 119.531 45.5711L121.473 41.4316L126.181 44.3543Z" fill="#FF8B7B"/>
<path d="M122.845 36.293L116.791 48.0465L122.218 53.4486L124.082 43.5182L122.845 36.293Z" fill="#92E3A9"/>
<path opacity="0.3" d="M122.654 36.6357L116.791 48.0464L122.218 53.4486L124.082 43.5181L122.654 36.6357Z" fill="black"/>
<path d="M130.346 148.301V155.564L127.861 155.798L126.642 148.995L130.346 148.301Z" fill="#FF8B7B"/>
<path d="M128.58 155.112C128.58 155.112 127.8 153.343 127.34 153.532C126.879 153.72 126.687 155.869 126.687 155.869C126.687 155.869 124.181 156.856 123.497 156.91C122.813 156.964 122.228 157.429 122.14 159.042H130.7C130.7 159.042 130.64 155.401 130.625 154.778C130.611 154.155 129.856 154.932 129.856 154.932L128.58 155.112Z" fill="#92E3A9"/>
<g opacity="0.2">
<path d="M128.58 155.112C128.58 155.112 127.8 153.343 127.34 153.532C126.879 153.72 126.687 155.869 126.687 155.869C126.687 155.869 124.181 156.856 123.497 156.91C122.813 156.964 122.228 157.429 122.14 159.042H130.7C130.7 159.042 130.64 155.401 130.625 154.778C130.611 154.155 129.856 154.932 129.856 154.932L128.58 155.112Z" fill="white"/>
</g>
<path d="M130.59 156.162C130.438 156.262 130.304 156.397 130.197 156.56C130.091 156.722 130.013 156.909 129.97 157.108C129.926 157.307 129.918 157.515 129.945 157.718C129.971 157.921 130.033 158.116 130.126 158.29C130.13 158.299 130.133 158.308 130.134 158.318C130.136 158.328 130.135 158.338 130.133 158.348C130.131 158.357 130.128 158.366 130.123 158.375C130.118 158.383 130.112 158.389 130.104 158.395C130.097 158.4 130.089 158.403 130.081 158.405C130.072 158.407 130.064 158.406 130.056 158.404C130.047 158.401 130.04 158.397 130.033 158.391C130.026 158.385 130.02 158.378 130.016 158.37C129.913 158.179 129.844 157.966 129.814 157.743C129.783 157.521 129.79 157.293 129.836 157.074C129.882 156.854 129.964 156.648 130.079 156.468C130.194 156.288 130.339 156.137 130.505 156.024C130.576 155.97 130.661 156.112 130.59 156.162Z" fill="white"/>
<path d="M130.604 158.465L123.887 158.544L122.328 158.565C122.239 158.565 122.221 158.406 122.328 158.406L129.041 158.323L130.604 158.302C130.689 158.302 130.707 158.461 130.622 158.465H130.604Z" fill="white"/>
<path d="M127.06 156.504C126.705 156.011 126.195 155.869 125.812 156.245C125.748 156.303 125.663 156.166 125.727 156.103C126.17 155.685 126.769 155.86 127.17 156.425C127.23 156.508 127.12 156.588 127.06 156.504Z" fill="white"/>
<path d="M126.351 156.768C126.286 156.651 126.202 156.55 126.103 156.472C126.004 156.395 125.892 156.342 125.775 156.317C125.658 156.293 125.538 156.297 125.423 156.329C125.307 156.361 125.198 156.421 125.103 156.505C125.039 156.567 124.954 156.429 125.018 156.367C125.461 155.949 126.06 156.124 126.461 156.684C126.521 156.768 126.411 156.852 126.351 156.768Z" fill="white"/>
<path d="M125.617 157.027C125.552 156.909 125.467 156.809 125.368 156.732C125.269 156.655 125.158 156.603 125.041 156.578C124.924 156.554 124.804 156.558 124.688 156.591C124.573 156.623 124.464 156.683 124.369 156.767C124.306 156.83 124.221 156.692 124.284 156.629C124.727 156.211 125.326 156.387 125.727 156.947C125.787 157.031 125.677 157.11 125.617 157.027Z" fill="white"/>
<path d="M131.841 76.3072C131.77 77.6034 131.919 81.5839 131.77 83.7206C131.49 87.7931 131.115 93.074 130.817 98.3549C130.462 104.48 130.221 110.614 130.345 114.871C130.664 125.801 130.594 150.57 130.594 150.57H126.574C126.574 150.57 121.853 125.951 120.97 114.871C120.233 105.672 120.616 82.0188 120.747 76.2988L131.841 76.3072Z" fill="#263238"/>
<path opacity="0.2" d="M131.771 83.7212C131.491 87.7937 131.115 93.0746 130.817 98.3555C128.839 91.4481 130.675 81.0117 130.675 81.0117L131.771 83.7212Z" fill="black"/>
<path d="M130.945 150.747H126.227L125.879 148.974L131.164 148.757L130.945 150.747Z" fill="#92E3A9"/>
<path d="M135.985 115.599C137.927 126.471 145.105 150.25 145.105 150.25L149.1 149.71C149.1 149.71 146.19 125.308 144.825 114.496C143.595 104.732 142.826 82.4589 142.546 75.8232L129.208 76.3083C129.63 82.0073 134.376 106.568 135.985 115.612V115.599Z" fill="#263238"/>
<path d="M148.76 148.301V155.564L146.275 155.798L145.056 148.995L148.76 148.301Z" fill="#FF8B7B"/>
<path d="M146.998 155.112C146.998 155.112 146.215 153.343 145.754 153.532C145.293 153.72 145.102 155.869 145.102 155.869C145.102 155.869 142.596 156.856 141.912 156.91C141.228 156.964 140.643 157.429 140.554 159.042H149.114C149.114 159.042 149.054 155.401 149.04 154.778C149.026 154.155 148.271 154.932 148.271 154.932L146.998 155.112Z" fill="#92E3A9"/>
<g opacity="0.2">
<path d="M146.998 155.112C146.998 155.112 146.215 153.343 145.754 153.532C145.293 153.72 145.102 155.869 145.102 155.869C145.102 155.869 142.596 156.856 141.912 156.91C141.228 156.964 140.643 157.429 140.554 159.042H149.114C149.114 159.042 149.054 155.401 149.04 154.778C149.026 154.155 148.271 154.932 148.271 154.932L146.998 155.112Z" fill="white"/>
</g>
<path d="M149.004 156.162C148.852 156.262 148.718 156.397 148.612 156.56C148.505 156.722 148.428 156.909 148.384 157.108C148.341 157.307 148.332 157.515 148.359 157.718C148.386 157.921 148.447 158.116 148.54 158.29C148.544 158.299 148.547 158.308 148.549 158.318C148.55 158.328 148.55 158.338 148.548 158.348C148.546 158.357 148.542 158.366 148.537 158.375C148.532 158.383 148.526 158.389 148.519 158.395C148.512 158.4 148.504 158.403 148.495 158.405C148.487 158.407 148.478 158.406 148.47 158.404C148.462 158.401 148.454 158.397 148.447 158.391C148.44 158.385 148.435 158.378 148.43 158.37C148.328 158.179 148.259 157.966 148.228 157.743C148.197 157.521 148.205 157.293 148.25 157.074C148.296 156.854 148.379 156.648 148.494 156.468C148.609 156.288 148.753 156.137 148.919 156.024C148.99 155.97 149.075 156.112 149.004 156.162Z" fill="white"/>
<path d="M149.019 158.465L142.302 158.544L140.742 158.565C140.653 158.565 140.636 158.406 140.724 158.406L147.438 158.323L149.001 158.302C149.086 158.302 149.104 158.461 149.019 158.465Z" fill="white"/>
<path d="M145.474 156.504C145.119 156.011 144.609 155.869 144.226 156.245C144.162 156.303 144.077 156.166 144.141 156.103C144.584 155.685 145.183 155.86 145.584 156.425C145.644 156.508 145.534 156.588 145.474 156.504Z" fill="white"/>
<path d="M144.765 156.768C144.7 156.651 144.616 156.55 144.517 156.472C144.418 156.395 144.307 156.342 144.19 156.317C144.073 156.293 143.953 156.297 143.837 156.329C143.721 156.361 143.613 156.421 143.517 156.505C143.454 156.567 143.368 156.429 143.432 156.367C143.875 155.949 144.474 156.124 144.875 156.684C144.935 156.768 144.825 156.852 144.765 156.768Z" fill="white"/>
<path d="M144.031 157.027C143.966 156.909 143.882 156.809 143.783 156.732C143.684 156.655 143.572 156.603 143.455 156.578C143.338 156.554 143.218 156.558 143.103 156.591C142.987 156.623 142.879 156.683 142.784 156.767C142.72 156.83 142.638 156.692 142.699 156.629C143.142 156.211 143.741 156.387 144.141 156.947C144.202 157.031 144.092 157.11 144.031 157.027Z" fill="white"/>
<path d="M149.462 149.835L144.776 150.463L144.262 148.744L149.486 147.824L149.462 149.835Z" fill="#92E3A9"/>
<path d="M120.215 77.838L143.078 76.9014C143.223 73.1382 140.441 55.4223 142.869 37.6645C142.926 37.2415 142.91 36.8094 142.822 36.3938C142.735 35.9781 142.577 35.5876 142.359 35.2454C142.14 34.9032 141.866 34.6164 141.551 34.402C141.237 34.1876 140.89 34.05 140.529 33.9975C139.53 33.8512 138.324 33.7132 137.002 33.6379C134.295 33.4241 131.578 33.4241 128.871 33.6379C127.155 33.8219 123.228 34.6498 122.519 36.9495C121.906 38.9607 120.91 71.8588 120.215 77.838Z" fill="#92E3A9"/>
<path d="M106.745 46.4744L106.533 43.765C106.533 43.765 106.933 42.473 106.575 41.6744C105.562 39.4165 103.385 38.7015 103.197 39.3329C103.165 39.4374 102.021 42.6779 102.021 42.6779L104.75 46.8089L106.745 46.4744Z" fill="#FF8B7B"/>
<path d="M102.907 45.2282L105.743 45.9264C106.225 46.0435 106.558 45.5083 106.409 44.8602L104.587 36.9869C104.544 36.7824 104.455 36.595 104.331 36.4437C104.206 36.2924 104.05 36.1827 103.878 36.1256L101.042 35.4273C100.56 35.3102 100.227 35.8454 100.38 36.4977L102.202 44.3668C102.243 44.5716 102.331 44.7595 102.455 44.911C102.579 45.0625 102.735 45.172 102.907 45.2282Z" fill="black"/>
<g opacity="0.2">
<path d="M102.907 45.2282L105.743 45.9264C106.225 46.0435 106.558 45.5083 106.409 44.8602L104.587 36.9869C104.544 36.7824 104.455 36.595 104.331 36.4437C104.206 36.2924 104.05 36.1827 103.878 36.1256L101.042 35.4273C100.56 35.3102 100.227 35.8454 100.38 36.4977L102.202 44.3668C102.243 44.5716 102.331 44.7595 102.455 44.911C102.579 45.0625 102.735 45.172 102.907 45.2282Z" fill="white"/>
</g>
<path d="M102.62 45.1617L105.455 45.8558C105.941 45.9729 106.271 45.4377 106.122 44.7896L104.286 36.9163C104.242 36.7118 104.154 36.5244 104.029 36.3731C103.905 36.2218 103.749 36.1121 103.577 36.055L100.741 35.3609C100.255 35.2396 99.9258 35.779 100.075 36.4271L101.897 44.3004C101.941 44.507 102.032 44.6957 102.159 44.8472C102.286 44.9986 102.445 45.1072 102.62 45.1617Z" fill="black"/>
<g opacity="0.2">
<path d="M102.205 40.3996C102.232 40.6218 102.309 40.8313 102.428 41.0063C102.547 41.1814 102.704 41.3155 102.882 41.3948C103.183 41.47 103.368 41.1439 103.293 40.6672C103.266 40.4439 103.189 40.2332 103.069 40.0573C102.949 39.8814 102.792 39.7469 102.613 39.6679C102.311 39.5968 102.131 39.923 102.205 40.3996Z" fill="white"/>
</g>
<path d="M100.386 38.0156C100.386 38.0156 102.159 38.4547 102.187 38.9355C102.205 39.5083 101.414 39.3536 100.826 39.3244C100.163 39.2993 100.106 38.0407 100.386 38.0156Z" fill="#FF8B7B"/>
<path d="M100.784 39.124C100.566 39.5414 100.492 40.0406 100.574 40.5206C100.716 41.315 101.574 43.7443 102.237 42.1554C103.236 39.7596 101.174 39.1742 100.784 39.124Z" fill="#FF8B7B"/>
<path d="M103.293 37.1757C103.308 37.3005 103.352 37.4183 103.418 37.5168C103.485 37.6153 103.573 37.691 103.673 37.736C103.843 37.7778 103.946 37.5938 103.903 37.3179C103.887 37.1927 103.843 37.0748 103.776 36.9764C103.709 36.8779 103.62 36.8023 103.52 36.7576C103.354 36.7367 103.251 36.9081 103.293 37.1757Z" fill="black"/>
<g opacity="0.2">
<path d="M103.293 37.1757C103.308 37.3005 103.352 37.4183 103.418 37.5168C103.485 37.6153 103.573 37.691 103.673 37.736C103.843 37.7778 103.946 37.5938 103.903 37.3179C103.887 37.1927 103.843 37.0748 103.776 36.9764C103.709 36.8779 103.62 36.8023 103.52 36.7576C103.354 36.7367 103.251 36.9081 103.293 37.1757Z" fill="white"/>
</g>
<path d="M127.535 16.6671C128.285 16.4395 129.066 16.3963 129.831 16.5402C130.595 16.684 131.327 17.0119 131.98 17.5033C132.834 18.164 133.543 19.1047 133.415 20.3717C133.114 23.332 131.997 28.2073 131.997 28.2073L123.912 22.387C123.912 22.387 123.558 19.8783 124.586 18.3312C125.117 17.541 126.415 17.0058 127.535 16.6671Z" fill="black"/>
<path d="M127.967 31.4725V31.5059L128.361 33.2119C128.423 33.8317 128.396 34.4595 128.279 35.0683C127.964 35.5868 127.822 36.7408 128.949 36.7408C130.367 36.7408 132.979 34.2572 133.072 33.5129C132.394 31.2216 131.827 28.533 131.92 26.3379L130.303 28.4285L127.967 31.4725Z" fill="#FF8B7B"/>
<g opacity="0.2">
<path d="M127.978 31.5108L128.371 33.2168C129.261 32.7275 130.19 31.6822 130.395 30.5617C130.541 29.7505 130.229 28.9937 129.952 28.9561L127.978 31.5108Z" fill="black"/>
</g>
<path d="M124.345 27.9557C124.43 28.3236 124.529 28.6874 124.632 29.047C125.55 32.2247 128.885 32.484 130.941 30.1216C131.129 29.907 131.302 29.6749 131.459 29.4275C132.763 27.3745 132.423 25.8065 132.2 22.2441C132.155 21.4169 131.933 20.6167 131.553 19.9194C131.173 19.222 130.648 18.6507 130.029 18.2596C129.409 17.8684 128.715 17.6704 128.013 17.6843C127.31 17.6981 126.622 17.9234 126.014 18.3388C123.494 20.0448 123.473 24.2636 124.345 27.9557Z" fill="#FF8B7B"/>
<path d="M126.33 28.5537H126.262C126.249 28.5549 126.235 28.5526 126.223 28.5469C126.21 28.5413 126.199 28.5325 126.19 28.5212C126.18 28.5099 126.173 28.4963 126.169 28.4813C126.164 28.4664 126.162 28.4505 126.164 28.4347C126.165 28.4189 126.169 28.4037 126.176 28.39C126.183 28.3764 126.192 28.3647 126.203 28.3557C126.214 28.3467 126.227 28.3407 126.24 28.3381C126.253 28.3355 126.267 28.3363 126.28 28.3405C126.456 28.3606 126.633 28.3381 126.801 28.2744C126.969 28.2107 127.124 28.1071 127.257 27.97C127.39 27.8329 127.497 27.6653 127.573 27.4773C127.649 27.2893 127.691 27.0851 127.698 26.877C127.701 26.8489 127.714 26.8235 127.733 26.8063C127.752 26.7891 127.777 26.7815 127.801 26.785C127.812 26.7866 127.824 26.7909 127.834 26.7976C127.844 26.8044 127.853 26.8134 127.86 26.8243C127.868 26.8352 127.873 26.8477 127.876 26.8611C127.879 26.8744 127.88 26.8884 127.879 26.9021C127.857 27.3629 127.683 27.7951 127.393 28.1045C127.102 28.4139 126.72 28.5754 126.33 28.5537Z" fill="black"/>
<path d="M132.238 22.5786C132.238 22.5786 131.327 22.6372 131.292 23.5571C131.256 24.4769 131.342 24.5982 131.342 24.5982L130.278 24.87C130.278 24.87 130.565 21.3619 129.778 21.4079C128.991 21.4539 129.839 19.8734 129.367 19.6476C128.254 19.1166 125.224 19.104 124.05 21.2615C124.05 21.2615 124.352 19.1375 125.787 17.9834C127.223 16.8294 130.112 16.5744 131.288 18.2427C132.465 19.911 132.238 22.5786 132.238 22.5786Z" fill="black"/>
<path d="M133.759 24.3976C133.703 24.8374 133.574 25.2598 133.379 25.6408C133.185 26.0217 132.928 26.3537 132.625 26.6178C131.806 27.3161 131.051 26.5551 130.984 25.4303C130.924 24.4185 131.278 22.8338 132.239 22.5787C133.199 22.3237 133.89 23.3104 133.759 24.3976Z" fill="#FF8B7B"/>
<path d="M127.74 24.67C127.772 24.9502 127.673 25.1927 127.52 25.2178C127.368 25.2429 127.216 25.038 127.184 24.7578C127.152 24.4777 127.251 24.2352 127.403 24.2101C127.556 24.185 127.708 24.3899 127.74 24.67Z" fill="black"/>
<path d="M125.149 25.0294C125.181 25.3095 125.082 25.5521 124.93 25.5771C124.777 25.6022 124.621 25.3974 124.575 25.1172C124.529 24.8371 124.642 24.5945 124.798 24.5695C124.954 24.5444 125.103 24.7493 125.135 25.0294" fill="black"/>
<path d="M124.136 23.9842C124.156 23.98 124.176 23.9698 124.193 23.9545C124.21 23.9392 124.223 23.9192 124.231 23.8963C124.26 23.8047 124.303 23.7207 124.359 23.6489C124.415 23.5771 124.482 23.5191 124.557 23.4782C124.716 23.4087 124.891 23.4087 125.05 23.4782C125.065 23.4881 125.081 23.4941 125.098 23.4961C125.115 23.498 125.132 23.4957 125.148 23.4894C125.164 23.4831 125.178 23.4729 125.191 23.4594C125.203 23.446 125.213 23.4296 125.22 23.4113C125.227 23.3931 125.23 23.3733 125.23 23.3534C125.23 23.3335 125.226 23.3138 125.219 23.2957C125.212 23.2775 125.202 23.2613 125.189 23.2481C125.177 23.2349 125.162 23.225 125.146 23.219C124.927 23.121 124.685 23.121 124.465 23.219C124.358 23.2758 124.262 23.3583 124.183 23.4612C124.105 23.5641 124.045 23.6853 124.008 23.8169C124.002 23.8341 123.999 23.8527 123.999 23.8715C123.999 23.8902 124.002 23.9088 124.008 23.926C124.014 23.9432 124.024 23.9587 124.035 23.9716C124.047 23.9845 124.06 23.9944 124.075 24.0009C124.096 23.9995 124.117 23.9939 124.136 23.9842Z" fill="black"/>
<path d="M128.311 23.4152C128.327 23.421 128.344 23.421 128.361 23.4152C128.374 23.405 128.385 23.3918 128.394 23.3763C128.403 23.3608 128.409 23.3434 128.412 23.325C128.415 23.3066 128.415 23.2877 128.412 23.2694C128.408 23.2511 128.402 23.2338 128.393 23.2186C128.259 22.9915 128.058 22.8318 127.829 22.7712C127.713 22.7496 127.595 22.7562 127.482 22.7908C127.368 22.8253 127.262 22.887 127.17 22.9719C127.144 22.9945 127.126 23.0281 127.121 23.0655C127.116 23.103 127.123 23.1414 127.141 23.1726C127.161 23.2023 127.189 23.2222 127.221 23.2284C127.252 23.2346 127.285 23.2266 127.311 23.2061C127.377 23.1436 127.452 23.0974 127.533 23.0701C127.614 23.0428 127.699 23.035 127.783 23.0472C127.949 23.0951 128.095 23.2124 128.194 23.3775C128.209 23.3954 128.228 23.4083 128.248 23.415C128.269 23.4216 128.29 23.4216 128.311 23.4152Z" fill="black"/>
<path d="M126.145 24.5146C125.94 25.3539 125.631 26.1527 125.227 26.8854C125.167 26.9899 126.255 27.2074 126.255 27.2074L126.145 24.5146Z" fill="#FF5652"/>
<path d="M139.452 79.519L139.611 79.8869C140.395 81.135 141.288 82.2815 142.277 83.3072C143.34 82.8054 144.219 79.7531 144.286 79.3643C144.354 78.9754 142.943 76.3203 142.943 76.3203C141.347 76.7073 139.851 77.5292 138.573 78.7203C137.644 79.6569 140.43 78.5322 140.43 78.5322L139.452 79.519Z" fill="#FF8B7B"/>
<path d="M132.136 24.2186C132.136 24.2646 131.898 26.7274 131.459 30.3734C131.104 33.1916 130.665 36.7206 130.094 40.4084C128.322 51.8232 126.429 59.2659 124.423 62.5356C123.458 64.1078 122.271 64.898 120.878 64.898H120.669C119.084 64.8102 117.238 63.7189 115.171 61.6575C113.22 59.6353 111.439 57.3948 109.854 54.9675C107.822 51.8979 105.948 48.6864 104.243 45.3507C104.225 45.3139 104.219 45.2702 104.228 45.2288C104.236 45.1873 104.259 45.1515 104.289 45.1291C104.321 45.1077 104.358 45.1019 104.393 45.1128C104.429 45.1238 104.459 45.1506 104.477 45.1876C106.174 48.5135 108.042 51.7139 110.07 54.771C114.26 61.0429 117.925 64.4423 120.665 64.597C122.051 64.6722 123.235 63.928 124.189 62.3767C125.709 59.8889 127.223 54.7376 128.634 47.2949V47.274C128.938 42.7583 127.191 35.646 125.901 31.0884C126.028 31.172 126.149 31.264 126.326 31.3644C127.457 35.4369 128.807 41.3492 128.931 45.6601C129.229 43.9876 129.522 42.2259 129.81 40.375C130.349 36.8544 130.796 33.4843 131.125 30.7581C131.597 26.8862 131.834 24.2646 131.852 24.2186C131.854 24.1978 131.859 24.1777 131.868 24.1594C131.876 24.1411 131.888 24.1251 131.902 24.1122C131.915 24.0993 131.931 24.0898 131.948 24.0844C131.966 24.079 131.983 24.0777 132.001 24.0806C132.034 24.0803 132.066 24.0941 132.09 24.1195C132.115 24.145 132.131 24.1802 132.136 24.2186Z" fill="black"/>
<path opacity="0.9" d="M104.753 45.6764C106.383 48.8198 108.164 51.8506 110.088 54.7539C114.278 61.0257 117.943 64.4251 120.683 64.5798C122.065 64.6551 123.253 63.9108 124.206 62.3554C125.727 59.8717 127.24 54.7204 128.651 47.2736C128.956 42.762 127.208 35.6497 125.918 31.0921C126.042 31.1758 126.166 31.2636 126.344 31.3681C126.911 33.3918 127.531 35.9006 128.034 38.4093C128.53 40.7834 128.838 43.2062 128.956 45.6471C129.254 43.9746 129.547 42.2129 129.835 40.362C130.374 36.8414 130.82 33.4713 131.15 30.7451C131.618 26.8774 131.859 24.2558 131.877 24.2098C131.878 24.1892 131.883 24.1692 131.891 24.1509C131.899 24.1326 131.91 24.1165 131.924 24.1036C131.938 24.0906 131.953 24.0811 131.97 24.0757C131.987 24.0702 132.005 24.0689 132.022 24.0718C132.057 24.0761 132.089 24.0964 132.112 24.1285C132.135 24.1605 132.146 24.2018 132.143 24.2433C132.143 24.2851 131.905 26.752 131.466 30.3981C131.111 33.2162 130.672 36.741 130.101 40.4331C128.329 51.8437 126.436 59.2905 124.429 62.5603C123.465 64.1324 122.278 64.9227 120.885 64.9227H120.676C119.091 64.8349 117.245 63.7435 115.178 61.678C113.225 59.6578 111.444 57.4171 109.861 54.988C107.882 51.9979 106.053 48.8733 104.385 45.6304L104.753 45.6764Z" fill="white"/>
<path d="M132.05 24.7954C132.281 24.7954 132.469 24.5745 132.469 24.302C132.469 24.0295 132.281 23.8086 132.05 23.8086C131.819 23.8086 131.632 24.0295 131.632 24.302C131.632 24.5745 131.819 24.7954 132.05 24.7954Z" fill="black"/>
<path d="M132.05 24.7954C132.281 24.7954 132.469 24.5745 132.469 24.302C132.469 24.0295 132.281 23.8086 132.05 23.8086C131.819 23.8086 131.632 24.0295 131.632 24.302C131.632 24.5745 131.819 24.7954 132.05 24.7954Z" fill="black"/>
<path opacity="0.9" d="M132.05 24.7954C132.281 24.7954 132.469 24.5745 132.469 24.302C132.469 24.0295 132.281 23.8086 132.05 23.8086C131.819 23.8086 131.632 24.0295 131.632 24.302C131.632 24.5745 131.819 24.7954 132.05 24.7954Z" fill="white"/>
<path d="M133.327 21.1364C131.893 21.3173 130.444 21.217 129.038 20.8395C128.637 20.7476 128.237 20.6388 127.836 20.5259C127.372 20.386 126.897 20.3005 126.418 20.2709C124.072 20.1496 124.469 21.2618 123.894 22.4075C123.894 22.4075 119.113 20.8981 119.113 18.8827C119.115 18.6626 119.168 18.4473 119.265 18.2597C119.949 16.8715 121.874 17.3106 123.788 18.1175C125.341 14.3001 131.763 15.4457 133.071 17.6743C133.883 19.0416 133.327 21.1364 133.327 21.1364Z" fill="#92E3A9"/>
<path opacity="0.5" d="M129.038 20.8479C128.637 20.7559 128.237 20.6472 127.836 20.5343C127.372 20.3943 126.897 20.3089 126.418 20.2793C124.072 20.158 124.469 21.2702 123.894 22.4159C123.894 22.4159 119.113 20.9065 119.113 18.8911C119.115 18.671 119.168 18.4557 119.265 18.2681C119.949 16.8799 121.874 17.3189 123.788 18.1259C125.855 19.0249 127.999 20.3336 129.038 20.8479Z" fill="black"/>
<path d="M142.511 37.251C143.539 40.596 144.496 43.941 145.407 47.286C145.857 48.9585 146.303 50.6644 146.722 52.3787C147.14 54.0931 147.551 55.8032 147.906 57.622C147.991 58.0862 148.076 58.5419 148.154 59.0688C148.193 59.3154 148.228 59.629 148.256 59.9594C148.256 60.1391 148.256 60.3357 148.256 60.4946V60.9461C148.189 61.9294 148.071 62.9069 147.902 63.873C147.622 65.6919 147.253 67.4229 146.885 69.1581C146.119 72.6118 145.251 75.9945 144.269 79.3646L141.88 78.6788L143.124 68.2801C143.333 66.5616 143.51 64.8347 143.648 63.1664C143.718 62.3942 143.75 61.618 143.744 60.8416V60.6284V60.5071C143.726 60.4026 143.709 60.2771 143.67 60.089C143.609 59.7503 143.514 59.3531 143.422 58.9642C143.032 57.3753 142.574 55.7154 142.114 54.0722L140.696 49.1174L137.839 39.1744L142.511 37.251Z" fill="#FF8B7B"/>
<path d="M142.124 34.9256C142.124 34.9256 143.365 36.0629 144.095 39.0275C144.825 41.992 146.357 46.8297 146.357 46.8297L139.53 50.4255C139.53 50.4255 136.113 41.6867 136.34 38.5048C136.542 35.8622 139.516 33.7173 142.124 34.9256Z" fill="#92E3A9"/>
<path opacity="0.3" d="M142.124 34.9256C142.124 34.9256 143.365 36.0629 144.095 39.0275C144.825 41.992 146.357 46.8297 146.357 46.8297L139.53 50.4255C139.53 50.4255 136.113 41.6867 136.34 38.5048C136.542 35.8622 139.516 33.7173 142.124 34.9256Z" fill="black"/>
<path d="M145.403 76.2368C145.403 76.2368 144.045 74.4682 142.422 74.602C142.135 74.8863 142.181 75.4382 142.231 75.9734C142.231 75.9734 143.914 76.3037 144.818 77.5706C144.8 77.5706 145.562 76.8766 145.403 76.2368Z" fill="#263238"/>
<path d="M144.269 77.3992L143.914 77.2403C143.542 77.0772 143.407 76.404 143.616 75.7476C143.826 75.0911 144.293 74.6813 144.68 74.8444L145.119 75.0451L145.027 75.3169L144.368 77.1985L144.269 77.3992Z" fill="#263238"/>
<path d="M144.269 77.3999C143.897 77.2368 143.765 76.5637 143.971 75.9114C144.177 75.2591 144.648 74.8452 145.034 75.0082C145.421 75.1713 145.541 75.8445 145.332 76.4968C145.123 77.149 144.641 77.563 144.269 77.3999Z" fill="#263238"/>
<path d="M144.471 77.0145C144.23 76.91 144.141 76.4751 144.279 76.0445C144.418 75.6138 144.719 75.3462 144.963 75.4549C145.208 75.5636 145.293 75.9943 145.155 76.425C145.017 76.8556 144.715 77.1232 144.471 77.0145Z" fill="white"/>
<path d="M68.6908 55.0252C68.6908 55.5228 68.6908 56.0246 68.6553 56.5639C68.6553 56.8357 68.6199 57.1201 68.5915 57.4295C68.5563 57.7844 68.5019 58.1364 68.4285 58.4831C68.3728 58.741 68.3018 58.9939 68.2158 59.24C68.0475 59.7238 67.8075 60.1684 67.5069 60.5529C67.1708 60.9821 66.7563 61.3153 66.2946 61.5271C66.1397 61.5954 65.981 61.6513 65.8197 61.6943C65.6344 61.7428 65.4457 61.7708 65.2561 61.778C65.0944 61.7928 64.9321 61.7928 64.7705 61.778C64.6392 61.7631 64.509 61.7379 64.3805 61.7027C64.0554 61.6174 63.7425 61.4765 63.4519 61.2846C63.2928 61.18 63.14 61.0627 62.9946 60.9334C62.8134 60.7715 62.6406 60.597 62.4771 60.4107C62.3424 60.2602 62.2361 60.1306 62.1226 59.9926C61.9277 59.7375 61.7682 59.5075 61.6122 59.2901C61.1656 58.6295 60.7899 58.0148 60.4354 57.4086C60.3326 57.212 60.2227 57.0239 60.1129 56.8315C59.2338 55.2301 58.4256 53.6663 57.6635 52.0733C56.1287 48.8913 54.7215 45.7052 53.4277 42.3937L59.3224 38.9943C60.6693 42.0132 61.9879 45.1115 63.3065 48.1429C63.3065 47.7624 63.3313 47.3777 63.342 46.9972C63.42 43.4641 63.4696 39.8891 63.5759 36.3267L66.6491 35.9922C67.2836 39.5546 67.7656 43.1003 68.1449 46.7213C68.3399 48.5318 68.4781 50.3464 68.5915 52.2029C68.6589 53.1061 68.6837 54.0468 68.6908 55.0252Z" fill="#263238"/>
<path opacity="0.2" d="M62.1331 59.9633C61.9381 59.7083 61.7786 59.4783 61.6226 59.2609C61.176 58.6002 60.8003 57.9856 60.4458 57.3793L59.8574 45.584L62.1331 59.9633Z" fill="black"/>
<path d="M63.6042 36.7706L62.7889 34.011C62.7889 34.011 62.3352 32.6981 62.679 31.866C63.6467 29.5036 65.8692 28.6673 66.0712 29.3071C66.1102 29.4158 67.3933 32.7106 67.3933 32.7106L66.6383 36.018C65.7132 36.9964 64.7136 37.3309 63.6042 36.7706Z" fill="#B55B52"/>
<path d="M66.5638 35.3488L63.6714 36.1851C63.1787 36.3272 62.8207 35.792 62.9625 35.1188L64.5859 26.957C64.6234 26.7429 64.7089 26.5445 64.8337 26.3827C64.9584 26.2209 65.1176 26.1015 65.2948 26.0372L68.1872 25.2009C68.6799 25.0588 69.0379 25.5898 68.8961 26.2671L67.2762 34.4373C67.2373 34.6504 67.1507 34.8474 67.0254 35.0077C66.9001 35.168 66.7407 35.2858 66.5638 35.3488Z" fill="black"/>
<g opacity="0.2">
<path d="M66.5638 35.3488L63.6714 36.1851C63.1787 36.3272 62.8207 35.792 62.9625 35.1188L64.5859 26.957C64.6234 26.7429 64.7089 26.5445 64.8337 26.3827C64.9584 26.2209 65.1176 26.1015 65.2948 26.0372L68.1872 25.2009C68.6799 25.0588 69.0379 25.5898 68.8961 26.2671L67.2762 34.4373C67.2373 34.6504 67.1507 34.8474 67.0254 35.0077C66.9001 35.168 66.7407 35.2858 66.5638 35.3488Z" fill="white"/>
</g>
<path d="M66.8543 35.2652L63.9619 36.1015C63.4692 36.2436 63.1112 35.7126 63.253 35.0353L64.8693 26.8651C64.9077 26.6519 64.9937 26.4546 65.1183 26.2936C65.2429 26.1327 65.4017 26.0138 65.5782 25.9494L68.4706 25.1131C68.9598 24.9668 69.3213 25.502 69.1796 26.1794L67.5632 34.3495C67.5248 34.5628 67.4388 34.76 67.3142 34.921C67.1896 35.082 67.0308 35.2008 66.8543 35.2652Z" fill="black"/>
<g opacity="0.2">
<path d="M67.1276 30.3524C67.1075 30.5826 67.0354 30.8022 66.9188 30.9883C66.8022 31.1744 66.6454 31.3201 66.4647 31.4103C66.1563 31.4981 65.9578 31.172 66.0181 30.6786C66.0392 30.4482 66.1121 30.2287 66.2293 30.0427C66.3464 29.8567 66.5036 29.711 66.6845 29.6207C66.9893 29.5329 67.1878 29.8591 67.1276 30.3524Z" fill="white"/>
</g>
<path d="M68.9245 27.8223C68.9245 27.8223 67.1025 28.3575 67.1025 28.8509C67.1025 29.4404 67.9107 29.2355 68.5204 29.1854C69.1939 29.131 69.1939 27.839 68.9245 27.8223Z" fill="#B55B52"/>
<path d="M68.5491 28.9805C68.7836 29.4008 68.8748 29.91 68.8043 30.4063C68.6838 31.2425 67.8828 33.7513 67.1526 32.1582C66.0466 29.7415 68.138 29.0516 68.5491 28.9805Z" fill="#B55B52"/>
<path d="M65.9078 27.0907C65.896 27.2203 65.8549 27.3438 65.7888 27.4482C65.7227 27.5527 65.6341 27.6343 65.5321 27.6845C65.3584 27.7346 65.2485 27.5507 65.284 27.2663C65.2979 27.1429 65.3389 27.0259 65.4029 26.9269C65.467 26.8278 65.5518 26.7503 65.6491 26.7019C65.8299 26.6308 65.9397 26.8147 65.9078 27.0907Z" fill="black"/>
<g opacity="0.2">
<path d="M65.9078 27.0907C65.896 27.2203 65.8549 27.3438 65.7888 27.4482C65.7227 27.5527 65.6341 27.6343 65.5321 27.6845C65.3584 27.7346 65.2485 27.5507 65.284 27.2663C65.2979 27.1429 65.3389 27.0259 65.4029 26.9269C65.467 26.8278 65.5518 26.7503 65.6491 26.7019C65.8299 26.6308 65.9397 26.8147 65.9078 27.0907Z" fill="white"/>
</g>
<path d="M57.4614 151.236L58.2058 155.694H60.2049L60.4708 151.236H57.4614Z" fill="#B55B52"/>
<path d="M59.9426 155.125C60.0425 154.976 60.1758 154.863 60.3274 154.798C60.479 154.734 60.6429 154.721 60.8004 154.761C61.279 154.954 61.9099 155.882 61.9099 155.882C61.9099 155.882 64.5152 156.865 65.217 156.919C65.9188 156.973 66.5356 157.437 66.8015 159.043H58.2696C58.2696 159.043 57.9151 155.414 57.8832 154.791C57.8513 154.168 58.6666 154.945 58.6666 154.945L59.9426 155.125Z" fill="#92E3A9"/>
<path d="M66.5464 158.566L65.0116 158.545L58.2768 158.461C58.2599 158.461 58.2437 158.454 58.2317 158.439C58.2197 158.425 58.213 158.406 58.213 158.386C58.213 158.366 58.2197 158.347 58.2317 158.333C58.2437 158.319 58.2599 158.311 58.2768 158.311H58.7341C58.867 157.916 58.8678 157.477 58.7361 157.082C58.6045 156.686 58.3503 156.365 58.0252 156.183C57.9507 156.137 58.0252 155.999 58.0925 156.049C58.4381 156.249 58.7077 156.594 58.8481 157.016C58.9885 157.439 58.9896 157.908 58.851 158.332H59.801L66.518 158.415C66.533 158.416 66.5475 158.422 66.5591 158.434C66.5707 158.445 66.5788 158.46 66.5821 158.478C66.5853 158.495 66.5836 158.513 66.5771 158.529C66.5707 158.545 66.5598 158.558 66.5464 158.566Z" fill="black"/>
<path d="M61.6085 156.513C61.6689 156.395 61.7498 156.294 61.846 156.216C61.9421 156.137 62.0512 156.084 62.1661 156.059C62.281 156.034 62.3991 156.038 62.5126 156.071C62.626 156.104 62.7323 156.165 62.8243 156.25C62.8952 156.313 62.959 156.175 62.8916 156.116C62.7843 156.021 62.6613 155.953 62.5304 155.917C62.3995 155.881 62.2637 155.878 62.1317 155.908C61.9998 155.938 61.8746 156 61.7643 156.091C61.654 156.181 61.5611 156.298 61.4915 156.434C61.4419 156.513 61.5589 156.593 61.6085 156.513Z" fill="white"/>
<path d="M62.3422 156.773C62.4032 156.655 62.4848 156.554 62.5813 156.476C62.6779 156.398 62.7874 156.345 62.9025 156.32C63.0177 156.296 63.136 156.3 63.2495 156.334C63.3631 156.367 63.4694 156.428 63.5615 156.513C63.6289 156.572 63.6927 156.438 63.6289 156.38C63.5216 156.28 63.3974 156.208 63.2647 156.169C63.132 156.131 62.9938 156.126 62.8595 156.156C62.7252 156.186 62.5978 156.249 62.4859 156.342C62.3741 156.434 62.2803 156.554 62.211 156.693C62.1614 156.777 62.2748 156.856 62.3244 156.773H62.3422Z" fill="white"/>
<path d="M63.1008 157.036C63.1615 156.918 63.2428 156.816 63.3394 156.738C63.4359 156.659 63.5455 156.606 63.6609 156.582C63.7762 156.557 63.8946 156.562 64.0083 156.595C64.122 156.629 64.2283 156.691 64.3202 156.777C64.3875 156.835 64.4549 156.701 64.3875 156.639C64.2802 156.543 64.1572 156.475 64.0263 156.439C63.8954 156.404 63.7596 156.401 63.6276 156.431C63.4956 156.461 63.3705 156.523 63.2602 156.613C63.1499 156.704 63.057 156.821 62.9874 156.956C62.9378 157.04 63.0512 157.115 63.1008 157.036Z" fill="white"/>
<path d="M39.5894 151.27L40.0041 155.693H42.0032L42.5987 151.27H39.5894Z" fill="#B55B52"/>
<path d="M41.7374 155.125C41.8381 154.976 41.972 154.863 42.1242 154.799C42.2764 154.734 42.4407 154.721 42.5988 154.761C43.0773 154.954 43.7082 155.882 43.7082 155.882C43.7082 155.882 46.3135 156.865 47.0154 156.919C47.7172 156.973 48.3339 157.437 48.5998 159.043H40.0679C40.0679 159.043 39.7135 155.414 39.6816 154.791C39.6497 154.168 40.4649 154.945 40.4649 154.945L41.7374 155.125Z" fill="#92E3A9"/>
<path d="M48.3447 158.566L46.8099 158.545L40.0752 158.461C40.0582 158.461 40.042 158.454 40.03 158.439C40.0181 158.425 40.0114 158.406 40.0114 158.386C40.0114 158.366 40.0181 158.347 40.03 158.333C40.042 158.319 40.0582 158.311 40.0752 158.311H40.5324C40.6654 157.916 40.6661 157.477 40.5344 157.082C40.4028 156.686 40.1486 156.365 39.8235 156.183C39.7491 156.137 39.8235 155.999 39.8908 156.049C40.2364 156.249 40.506 156.594 40.6464 157.016C40.7869 157.439 40.7879 157.908 40.6494 158.332H41.5958L48.3305 158.415C48.3446 158.419 48.3573 158.427 48.367 158.44C48.3767 158.452 48.3827 158.468 48.3843 158.485C48.3859 158.501 48.3829 158.518 48.3758 158.533C48.3687 158.548 48.3578 158.559 48.3447 158.566Z" fill="black"/>
<path d="M43.4034 156.513C43.4642 156.395 43.5455 156.293 43.6419 156.215C43.7384 156.136 43.8478 156.083 43.963 156.058C44.0782 156.033 44.1965 156.037 44.3102 156.07C44.424 156.103 44.5305 156.164 44.6228 156.249C44.6937 156.312 44.7575 156.174 44.6901 156.115C44.5824 156.016 44.458 155.946 44.3253 155.908C44.1925 155.87 44.0544 155.866 43.9203 155.896C43.7861 155.926 43.6589 155.989 43.5471 156.082C43.4354 156.175 43.3417 156.294 43.2723 156.433C43.2227 156.513 43.3396 156.592 43.3857 156.513H43.4034Z" fill="white"/>
<path d="M44.1409 156.772C44.2019 156.654 44.2834 156.553 44.38 156.475C44.4766 156.397 44.5861 156.344 44.7012 156.32C44.8164 156.295 44.9346 156.3 45.0482 156.333C45.1618 156.366 45.2681 156.428 45.3602 156.513C45.4275 156.571 45.4913 156.438 45.424 156.379C45.3174 156.283 45.1949 156.214 45.0643 156.178C44.9337 156.141 44.7981 156.138 44.6663 156.167C44.5344 156.197 44.4094 156.259 44.2993 156.35C44.1892 156.44 44.0966 156.557 44.0274 156.693C43.9778 156.776 44.0912 156.856 44.1409 156.772Z" fill="white"/>
<path d="M44.8993 157.035C44.96 156.917 45.0413 156.815 45.1379 156.737C45.2344 156.658 45.344 156.605 45.4594 156.581C45.5747 156.556 45.6931 156.561 45.8068 156.595C45.9205 156.628 46.0268 156.69 46.1186 156.776C46.186 156.834 46.2533 156.701 46.186 156.638C46.0783 156.539 45.9539 156.468 45.8211 156.43C45.6884 156.392 45.5503 156.388 45.4161 156.418C45.2819 156.448 45.1547 156.512 45.043 156.605C44.9313 156.697 44.8376 156.817 44.7681 156.956C44.7185 157.039 44.832 157.115 44.8816 157.035H44.8993Z" fill="white"/>
<path d="M56.7879 151.392H61.1974C61.5767 144.702 62.6578 122.512 61.8035 111.536C62.4167 96.3035 60.4424 76.083 60.4424 76.083H46.4873C46.4873 76.083 47.5117 89.6135 52.1055 111.314C52.0736 128.508 55.6288 145.697 56.7879 151.392Z" fill="#92E3A9"/>
<path opacity="0.2" d="M51.3504 107.667C53.8742 95.508 51.6588 79.7363 51.6588 79.7363L49.4824 97.7492L51.3504 107.667Z" fill="black"/>
<path d="M56.2705 151.261L56.5931 153.239L61.6477 153.214L61.6512 151.236L56.2705 151.261Z" fill="#263238"/>
<path d="M38.962 151.584H43.3679C44.9382 144.697 48.7628 122.512 49.2662 111.536C51.7651 96.3035 52.2897 76.083 52.2897 76.083H38.3275C38.3275 76.083 37.6789 89.6135 39.5859 111.314C37.4307 128.508 38.8628 145.697 38.962 151.584Z" fill="#92E3A9"/>
<path d="M38.5755 151.258L38.5684 153.215L43.662 153.219L43.9278 151.258H38.5755Z" fill="#263238"/>
<path d="M62.2753 78.5499C52.595 82.9444 36.8144 79.7583 36.8144 79.7583C37.0058 74.1763 37.1689 63.1085 37.1015 53.9139C37.1015 52.3836 37.0696 50.9034 37.0448 49.5111C37.0023 47.0023 36.9278 44.7486 36.8286 42.9883C36.6513 39.8524 38.094 36.938 40.7276 36.4196C41.5252 36.2607 42.3865 36.1227 43.2833 36.0014L43.932 35.9262C46.4937 35.631 49.0683 35.5193 51.6415 35.5917H51.9959H52.198H52.517C53.63 35.6419 54.6792 35.7422 55.622 35.8885C57.7488 36.2147 59.6664 38.2091 59.7054 40.7555C59.8047 47.525 61.2261 75.6815 62.2753 78.5499Z" fill="#263238"/>
<path d="M49.4898 39.8938C46.4096 39.3251 44.818 37.0798 43.9248 35.9467C46.4865 35.6515 49.0611 35.5398 51.6343 35.6122C54.0517 38.861 52.3503 40.4248 49.4898 39.8938Z" fill="#263238"/>
<path opacity="0.9" d="M49.4898 39.8938C46.4096 39.3251 44.818 37.0798 43.9248 35.9467C46.4865 35.6515 49.0611 35.5398 51.6343 35.6122C54.0517 38.861 52.3503 40.4248 49.4898 39.8938Z" fill="white"/>
<path d="M49.7695 17.704C48.9809 17.5767 48.1787 17.6416 47.4123 17.8948C46.6459 18.148 45.9317 18.5839 45.3139 19.1758C44.5128 19.9702 43.8961 21.0281 44.1406 22.3075C44.7468 25.2846 46.3879 30.1056 46.3879 30.1056L54.0939 23.3152C54.0939 23.3152 54.1683 20.4302 52.9561 18.9793C52.3251 18.2392 50.9463 17.8796 49.7695 17.704Z" fill="black"/>
<path d="M44.8782 19.6773C44.7283 19.4551 44.517 19.302 44.2812 19.2447C44.0455 19.1874 43.8001 19.2295 43.5879 19.3637C42.8578 19.8613 43.7687 20.2 43.7687 20.2C43.7687 20.2 42.8719 21.1993 43.3044 21.63C43.7368 22.0606 44.5875 20.8773 44.5875 20.8773L44.8782 19.6773Z" fill="black"/>
<path d="M50.8224 32.8699C50.8218 32.8825 50.8218 32.895 50.8224 32.9076L50.5955 34.7013C50.5956 35.0561 50.6229 35.4102 50.677 35.7592C50.724 36.0425 50.7867 36.3219 50.8649 36.5954C51.2406 37.0763 51.5065 38.2679 50.3509 38.4059C48.8941 38.6024 45.984 36.5954 45.8174 35.847C46.2746 33.4093 46.583 30.4114 46.2675 28.1953L48.1285 30.1061L50.8224 32.8699Z" fill="#B55B52"/>
<g opacity="0.2">
<path d="M50.8153 32.9113L50.5884 34.705C49.6279 34.3329 48.5751 33.3963 48.249 32.2799C48.0222 31.4729 48.2667 30.6576 48.5432 30.5781L50.8153 32.9113Z" fill="black"/>
</g>
<path d="M54.1686 28.7925C54.119 29.1814 54.0552 29.5702 53.9879 29.9507C53.3676 33.325 49.9931 34.0567 47.6537 31.9327C47.4401 31.7412 47.2409 31.5286 47.0582 31.2971C45.5163 29.3863 45.7077 27.7389 45.573 24.0677C45.5328 23.2154 45.6776 22.3652 45.9936 21.5973C46.3097 20.8295 46.7867 20.1694 47.3793 19.6796C47.9719 19.1899 48.6607 18.8865 49.3805 18.7983C50.1002 18.7101 50.8271 18.84 51.4925 19.1757C54.236 20.5722 54.6861 24.8747 54.1686 28.7925Z" fill="#B55B52"/>
<path d="M54.1685 28.7926C54.1189 29.1814 54.0551 29.5703 53.9877 29.9508C53.3674 33.3251 49.993 34.0568 47.6535 31.9327C46.6575 30.6783 46.3208 29.2149 47.1077 26.7939L47.8166 27.3501C47.8166 27.3501 47.9655 27.8393 49.0395 28.0483C50.1135 28.2574 50.6026 27.4629 52.1729 27.9563C52.1729 27.9563 53.098 27.396 53.768 27.7682C54.2536 28.0316 54.1472 28.3368 54.1685 28.7926Z" fill="black"/>
<path d="M52.0593 29.4984C52.0333 29.6036 51.9824 29.6978 51.9127 29.7702C51.8429 29.8425 51.7572 29.8899 51.6654 29.9068C51.5736 29.9238 51.4797 29.9096 51.3945 29.8659C51.3094 29.8221 51.2365 29.7507 51.1845 29.66C51.1325 29.5692 51.1035 29.4629 51.1008 29.3534C51.0981 29.2439 51.1219 29.1357 51.1694 29.0416C51.217 28.9475 51.2862 28.8712 51.3691 28.8218C51.452 28.7724 51.5451 28.7518 51.6375 28.7625C51.7758 28.7949 51.8977 28.8904 51.9767 29.0282C52.0557 29.166 52.0854 29.335 52.0593 29.4984Z" fill="white"/>
<path d="M51.6906 18.7866C50.1098 17.8124 47.1323 17.9504 46.0973 19.8278C45.0622 21.7051 45.562 24.3895 45.562 24.3895C45.8189 24.379 46.0728 24.4575 46.2922 24.6153C46.4275 24.7128 46.5474 24.8373 46.6467 24.9832C46.9565 25.3437 47.3161 25.6392 47.7101 25.8571C47.5647 24.8453 47.3556 22.8926 47.9617 22.8466C48.7699 22.7881 47.7455 21.287 48.2063 20.9901C49.291 20.2919 52.3818 19.8487 53.7855 21.8933C53.7926 21.8933 53.2715 19.765 51.6906 18.7866Z" fill="black"/>
<path d="M48.8301 17.8253C48.8301 17.8253 50.5528 15.9898 51.7189 16.4413C52.7823 16.8595 53.4522 16.1068 53.7393 14.9277C53.7393 14.9277 54.4802 16.7382 53.7925 18.1933C53.7925 18.1933 54.9551 17.4072 55.1076 16.2908C55.1076 16.2908 55.6818 18.5027 54.9835 19.9327C54.7808 20.3411 54.4777 20.6673 54.1144 20.8682C53.7511 21.069 53.3447 21.135 52.9489 21.0575L48.8301 17.8253Z" fill="black"/>
<path d="M44.1938 26.4634C44.4027 27.3494 44.9012 28.1013 45.5797 28.554C46.4836 29.1519 47.1784 28.2697 47.1323 27.1115C47.0897 26.0704 46.5687 24.5024 45.562 24.377C44.5554 24.2515 43.9492 25.3554 44.1938 26.4676" fill="#B55B52"/>
<path d="M46.5263 28.55C46.5263 28.6327 46.5055 28.7135 46.4666 28.7823C46.4276 28.851 46.3723 28.9046 46.3075 28.9363C46.2427 28.9679 46.1714 28.9762 46.1027 28.9601C46.0339 28.9439 45.9708 28.9041 45.9212 28.8456C45.8716 28.7871 45.8379 28.7126 45.8242 28.6315C45.8105 28.5504 45.8175 28.4664 45.8444 28.39C45.8712 28.3136 45.9166 28.2482 45.9749 28.2023C46.0332 28.1564 46.1017 28.1318 46.1718 28.1318C46.2659 28.1318 46.356 28.1759 46.4225 28.2543C46.489 28.3327 46.5263 28.4391 46.5263 28.55Z" fill="white"/>
<path d="M50.3511 25.0709C50.3511 25.3594 50.4716 25.5978 50.6311 25.602C50.7906 25.6061 50.9253 25.372 50.9288 25.0835C50.9324 24.795 50.8083 24.5566 50.6488 24.5566C50.4893 24.5566 50.3546 24.7824 50.3511 25.0709Z" fill="black"/>
<path d="M53.0342 25.0918C53.0342 25.3803 53.1547 25.6186 53.3142 25.6186C53.4737 25.6186 53.6084 25.3928 53.6119 25.1043C53.6155 24.8158 53.4914 24.5775 53.3319 24.5733C53.1724 24.5691 53.0377 24.8033 53.0342 25.0918Z" fill="black"/>
<path d="M53.7892 24.0305C53.7679 24.0302 53.7471 24.023 53.729 24.0098C53.7108 23.9965 53.6961 23.9776 53.6865 23.9552C53.6511 23.8585 53.5991 23.7714 53.5338 23.6995C53.4686 23.6275 53.3914 23.5722 53.3072 23.5371C53.1367 23.4921 52.9583 23.5203 52.8038 23.6166C52.7754 23.6324 52.743 23.6348 52.713 23.6235C52.6831 23.6121 52.658 23.5878 52.6426 23.5554C52.6273 23.523 52.623 23.485 52.6306 23.449C52.6381 23.413 52.657 23.3817 52.6833 23.3615C52.8998 23.2217 53.1533 23.1843 53.3923 23.257C53.5073 23.2998 53.6136 23.3702 53.7044 23.4637C53.7953 23.5572 53.8689 23.6719 53.9204 23.8005C53.9356 23.8344 53.9389 23.874 53.9296 23.9108C53.9204 23.9475 53.8992 23.9785 53.8708 23.9971C53.8473 24.0182 53.8188 24.0299 53.7892 24.0305Z" fill="black"/>
<path d="M49.6172 23.9471C49.5986 23.9528 49.5791 23.9528 49.5605 23.9471C49.5291 23.9275 49.5056 23.8942 49.4949 23.8542C49.4843 23.8143 49.4875 23.7711 49.5037 23.7339C49.6283 23.4636 49.8326 23.2568 50.078 23.1527C50.2039 23.1125 50.3354 23.1029 50.4646 23.1245C50.5938 23.1461 50.7179 23.1983 50.8294 23.2781C50.8476 23.286 50.8641 23.2984 50.8778 23.3145C50.8916 23.3306 50.9022 23.35 50.909 23.3713C50.9158 23.3927 50.9187 23.4156 50.9173 23.4383C50.916 23.4611 50.9105 23.4833 50.9012 23.5033C50.8919 23.5234 50.8791 23.5408 50.8636 23.5545C50.8481 23.5682 50.8303 23.5777 50.8114 23.5826C50.7924 23.5874 50.7729 23.5873 50.754 23.5824C50.7351 23.5775 50.7173 23.5678 50.7018 23.5541C50.6216 23.4957 50.5323 23.4567 50.4392 23.4395C50.3461 23.4222 50.251 23.4271 50.1595 23.4537C49.9823 23.5298 49.8339 23.6781 49.7412 23.8718C49.7283 23.8966 49.71 23.9166 49.6881 23.9299C49.6662 23.9432 49.6417 23.9491 49.6172 23.9471Z" fill="black"/>
<path d="M51.9814 24.9834C52.1102 25.5925 52.386 26.1444 52.7754 26.5723C53.3993 27.2162 52.141 27.7472 52.141 27.7472L51.9814 24.9834Z" fill="#A02724"/>
<path opacity="0.2" d="M41.8722 44.6182L37.1011 53.9298C37.1011 52.3995 37.0692 50.9193 37.0444 49.527L41.8722 44.6182Z" fill="black"/>
<path d="M37.1863 67.2897L35.2722 70.3922C32.6703 68.6365 30.1758 66.6679 27.8073 64.5008C27.2047 63.9488 26.5985 63.3718 26.0101 62.7279C25.3532 62.0386 24.7483 61.2831 24.2024 60.47C24.0288 60.2029 23.869 59.9236 23.7239 59.6338C23.5161 59.216 23.3564 58.7674 23.2489 58.3C23.2055 58.1278 23.1746 57.9515 23.1567 57.7731C23.1296 57.5572 23.1166 57.3391 23.1177 57.1209C23.118 56.9811 23.1251 56.8415 23.139 56.7027C23.139 56.5648 23.1674 56.431 23.1922 56.2846C23.2213 56.1285 23.2592 55.9748 23.3056 55.8247L23.3694 55.5989L23.419 55.4734L23.5183 55.2309L23.5998 55.0511L23.6813 54.8797L23.7487 54.7501C23.8444 54.5661 23.9224 54.4407 24.0004 54.2985C24.3087 53.7926 24.571 53.4079 24.8369 53.0441C25.1027 52.6804 25.3615 52.3208 25.6202 51.9737C26.6588 50.6232 27.7045 49.373 28.7537 48.1353C29.8029 46.8977 30.8804 45.6977 31.9438 44.5311C34.0989 42.1687 36.2895 39.8857 38.5828 37.7031L42.8186 43.6112C40.6919 45.8733 38.4623 48.0852 36.2682 50.2803L32.9895 53.5752C31.8977 54.6623 30.8202 55.7661 29.7993 56.8533C29.5547 57.1167 29.3173 57.3801 29.0904 57.631C29.2641 57.9069 29.4626 58.1954 29.6611 58.4672C30.0864 59.0526 30.5437 59.6547 31.0222 60.2484C32.9753 62.6359 35.1056 64.9733 37.1863 67.2897Z" fill="#263238"/>
<path d="M36.0661 66.0059C36.0661 66.0059 39.164 66.2191 39.7028 66.6916C40.2416 67.1641 38.4622 71.3955 37.5761 72.1899C36.6899 72.9844 36.8671 71.408 36.8671 71.408C36.8671 71.408 35.3323 71.5795 34.4639 70.6178C33.5955 69.6561 33.7018 66.9843 36.0661 66.0059Z" fill="#B55B52"/>
</svg>
