<svg width="178" height="163" viewBox="0 0 178 163" fill="none" xmlns="http://www.w3.org/2000/svg">
<path d="M145.891 95.6284C146.829 96.2032 149.117 96.1323 149.12 96.1323C149.123 96.1323 148.617 94.0035 148.584 93.8899C148.082 92.4069 146.492 89.9588 145.2 90.2036C144.986 90.2533 144.782 90.3659 144.601 90.5341C144.42 90.7023 144.266 90.9224 144.149 91.18C144.032 91.4376 143.955 91.727 143.922 92.0295C143.89 92.3319 143.903 92.6406 143.96 92.9355C144.176 94.1986 145.094 95.1353 145.891 95.6284Z" fill="#263238"/>
<path d="M146.683 104.984C147.654 105.186 149.701 104.349 149.859 104.274C150.196 105.925 150.61 107.541 151.099 109.114C151.378 110.029 151.682 110.945 151.994 111.853C151.808 111.466 151.64 111.126 151.612 111.079C150.858 109.838 148.861 108.067 147.659 108.787C147.462 108.915 147.286 109.099 147.143 109.329C147 109.558 146.893 109.827 146.828 110.119C146.764 110.411 146.744 110.719 146.769 111.022C146.794 111.326 146.864 111.619 146.975 111.881C147.418 113.02 148.484 113.584 149.341 113.762C150.199 113.939 151.967 113.276 152.429 113.091C152.552 113.446 152.681 113.801 152.796 114.134C153.387 115.798 153.983 117.452 154.531 119.101C154.725 119.683 154.901 120.265 155.077 120.847C154.911 120.492 154.77 120.219 154.745 120.176C153.991 118.935 151.992 117.164 150.792 117.884C150.595 118.012 150.42 118.196 150.276 118.426C150.133 118.655 150.026 118.924 149.961 119.216C149.897 119.508 149.877 119.816 149.902 120.119C149.927 120.423 149.998 120.716 150.108 120.978C150.551 122.117 151.617 122.681 152.474 122.859C153.332 123.036 154.929 122.437 155.492 122.22C155.66 122.823 155.829 123.43 155.975 124.023C156.065 124.434 156.176 124.821 156.251 125.236C156.327 125.651 156.412 126.059 156.503 126.464C156.636 127.248 156.779 128.06 156.895 128.83C156.978 129.366 157.051 129.894 157.126 130.395C156.938 129.813 156.553 128.688 156.515 128.599C155.894 127.205 154.116 125.051 152.852 125.488C152.643 125.571 152.45 125.716 152.283 125.912C152.117 126.109 151.982 126.352 151.888 126.627C151.793 126.902 151.74 127.202 151.733 127.508C151.725 127.813 151.764 128.118 151.846 128.401C152.16 129.618 153.151 130.402 153.981 130.76C154.898 131.158 156.925 130.796 157.179 130.76C157.3 131.615 157.413 132.445 157.511 133.244C157.727 134.982 157.891 136.543 158.014 137.856H158.869C158.721 136.49 158.524 134.862 158.268 133.034C158.147 132.165 158.004 131.243 157.853 130.295C158.463 129.948 159.058 129.553 159.636 129.11C160.305 130.129 162.015 131.324 162.236 131.477C162.004 132.282 161.773 133.066 161.544 133.801C161.072 135.337 160.621 136.699 160.227 137.856H161.15C161.492 136.792 161.866 135.571 162.256 134.223C162.495 133.407 162.739 132.523 162.983 131.615C163.234 131.686 165.246 132.261 166.171 131.97C167.021 131.7 168.049 131.023 168.434 129.841C168.53 129.567 168.584 129.267 168.592 128.962C168.601 128.656 168.564 128.351 168.483 128.067C168.403 127.783 168.281 127.526 168.126 127.313C167.97 127.1 167.785 126.935 167.582 126.829C166.345 126.244 164.459 128.223 163.767 129.547C163.724 129.625 163.35 130.54 163.118 131.126C163.216 130.771 163.317 130.395 163.415 130.008C163.611 129.249 163.792 128.486 163.988 127.663L164.24 126.442C164.333 126.038 164.393 125.594 164.474 125.169C164.64 124.172 164.775 123.15 164.899 122.117C165.369 122.362 167.051 123.182 167.916 123.1C168.781 123.018 169.872 122.564 170.375 121.475C170.5 121.225 170.585 120.94 170.627 120.64C170.668 120.34 170.664 120.031 170.615 119.733C170.566 119.435 170.474 119.155 170.343 118.911C170.213 118.668 170.047 118.465 169.857 118.317C168.698 117.473 166.619 119.027 165.794 120.187C165.741 120.262 165.216 121.188 164.934 121.702C165.002 121.081 165.075 120.46 165.13 119.829C165.291 118.005 165.412 116.15 165.54 114.301C165.578 113.733 165.623 113.169 165.666 112.605C165.832 112.694 167.818 113.737 168.794 113.641C169.661 113.556 170.75 113.105 171.253 112.016C171.377 111.766 171.463 111.481 171.504 111.181C171.545 110.88 171.541 110.571 171.492 110.273C171.443 109.976 171.35 109.696 171.219 109.452C171.088 109.208 170.922 109.006 170.732 108.858C169.573 108.014 167.496 109.568 166.671 110.728C166.609 110.817 165.852 112.147 165.666 112.502C165.759 111.26 165.859 110.019 165.993 108.809C166.17 107.167 166.422 105.544 166.747 103.948C166.825 103.991 168.894 105.09 169.895 104.991C170.763 104.906 171.851 104.455 172.354 103.366C172.478 103.115 172.563 102.831 172.604 102.531C172.645 102.23 172.641 101.922 172.592 101.624C172.543 101.326 172.45 101.046 172.319 100.802C172.189 100.559 172.023 100.356 171.834 100.208C170.675 99.364 168.598 100.918 167.77 102.078C167.707 102.17 166.893 103.607 166.764 103.881C166.785 103.788 166.797 103.689 166.817 103.6C167.174 102.009 167.63 100.466 168.18 98.9879C168.477 98.1683 168.794 97.4091 169.113 96.6817C169.483 96.9407 171.185 98.1009 172.093 98.1577C173 98.2145 174.079 97.9306 174.663 96.9265C174.806 96.6967 174.913 96.427 174.977 96.135C175.042 95.8429 175.062 95.535 175.037 95.2312C175.011 94.9274 174.941 94.6346 174.83 94.3716C174.719 94.1087 174.571 93.8816 174.394 93.705C173.307 92.6867 171.125 93.9108 170.209 94.9361C170.159 94.9929 169.706 95.6457 169.372 96.1141C169.518 95.7876 169.666 95.447 169.812 95.1384C170.358 93.9782 170.908 92.9634 171.401 92.0729C171.683 91.5691 171.947 91.1185 172.196 90.7034C172.653 90.7034 174.499 90.6147 175.306 90.0789C176.113 89.5432 176.994 88.5852 177.185 87.3115C177.237 87.0149 177.244 86.7062 177.206 86.4054C177.168 86.1046 177.085 85.8186 176.963 85.5658C176.842 85.3131 176.684 85.0994 176.5 84.9386C176.315 84.7779 176.109 84.6736 175.895 84.6328C174.597 84.4341 173.056 86.9425 172.583 88.4433C172.543 88.5746 172.068 90.7069 172.08 90.7069H172.108C171.856 91.0972 171.605 91.523 171.326 91.9984C170.823 92.8783 170.25 93.8753 169.684 95.0248C169.07 96.2518 168.507 97.5276 167.997 98.846C167.417 100.32 166.93 101.863 166.543 103.458C166.543 103.476 166.543 103.497 166.543 103.519C166.543 102.979 166.543 101.472 166.523 101.354C166.375 99.7259 165.407 96.6995 164.122 96.366C163.908 96.3188 163.689 96.3357 163.48 96.4156C163.271 96.4955 163.076 96.6366 162.908 96.8297C162.74 97.0227 162.603 97.2635 162.505 97.5363C162.408 97.8091 162.352 98.1079 162.341 98.4131C162.269 99.7082 162.932 101.003 163.581 101.823C164.313 102.745 166.347 103.636 166.505 103.707C166.141 105.345 165.854 107.017 165.648 108.709C165.525 109.692 165.419 110.689 165.324 111.69C165.324 111.225 165.324 110.806 165.309 110.749C165.158 109.121 164.19 106.095 162.907 105.761C162.693 105.713 162.474 105.73 162.265 105.809C162.056 105.889 161.861 106.03 161.693 106.223C161.525 106.417 161.388 106.658 161.29 106.931C161.193 107.204 161.137 107.503 161.127 107.808C161.051 109.103 161.718 110.398 162.367 111.218C163.015 112.037 164.745 112.857 165.203 113.063C165.168 113.45 165.133 113.833 165.1 114.216C164.944 116.064 164.793 117.909 164.597 119.712C164.532 120.347 164.449 120.968 164.371 121.592C164.371 121.177 164.371 120.829 164.353 120.776C164.205 119.144 163.237 116.121 161.954 115.784C161.74 115.737 161.521 115.754 161.311 115.834C161.102 115.914 160.907 116.055 160.739 116.249C160.571 116.442 160.433 116.683 160.336 116.957C160.238 117.23 160.182 117.529 160.171 117.835C160.098 119.13 160.762 120.425 161.411 121.244C162.06 122.064 163.624 122.802 164.177 123.05C164.081 123.685 163.986 124.321 163.875 124.931C163.79 125.342 163.732 125.75 163.624 126.158C163.516 126.566 163.438 126.967 163.347 127.368C163.151 128.128 162.952 128.915 162.746 129.65C162.608 130.161 162.467 130.647 162.329 131.133C162.399 130.505 162.52 129.263 162.52 129.156C162.503 127.712 162.224 126.298 161.71 125.048C161.713 124.886 161.705 124.725 161.688 124.565C161.661 124.262 161.589 123.97 161.476 123.708C161.364 123.446 161.214 123.221 161.036 123.047C160.858 122.872 160.655 122.753 160.442 122.696C160.229 122.639 160.01 122.646 159.799 122.717C158.542 123.192 157.74 126.315 157.682 127.954C157.682 128.053 157.722 129.107 157.757 129.774C157.695 129.387 157.637 129.011 157.569 128.614C157.436 127.826 157.287 127.049 157.129 126.208C157.043 125.807 156.958 125.399 156.877 124.991C156.797 124.583 156.674 124.164 156.571 123.746C156.319 122.784 156.038 121.826 155.733 120.872C156.221 120.705 157.949 120.084 158.643 119.336C159.337 118.587 160.063 117.366 160.058 116.064C160.064 115.759 160.024 115.455 159.941 115.173C159.858 114.891 159.734 114.636 159.577 114.426C159.419 114.216 159.233 114.055 159.028 113.953C158.824 113.852 158.607 113.812 158.391 113.836C157.094 114.035 155.967 116.948 155.733 118.559C155.718 118.658 155.64 119.839 155.608 120.492C155.421 119.917 155.24 119.346 155.039 118.775C154.458 117.129 153.835 115.486 153.219 113.847C153.03 113.343 152.847 112.839 152.661 112.335C152.834 112.279 154.898 111.605 155.678 110.764C156.367 110.015 157.101 108.791 157.094 107.492C157.099 107.187 157.059 106.883 156.976 106.601C156.893 106.319 156.769 106.064 156.612 105.854C156.455 105.644 156.268 105.483 156.064 105.381C155.859 105.28 155.642 105.24 155.426 105.264C154.129 105.463 153.005 108.376 152.769 109.987C152.751 110.107 152.643 111.81 152.63 112.243C152.22 111.133 151.821 110.022 151.459 108.905C150.964 107.399 150.539 105.85 150.186 104.267C150.267 104.239 152.422 103.558 153.219 102.688C153.908 101.94 154.639 100.716 154.634 99.4172C154.64 99.1118 154.6 98.808 154.517 98.5258C154.434 98.2435 154.31 97.9891 154.153 97.779C153.996 97.5688 153.809 97.4077 153.604 97.3061C153.4 97.2045 153.183 97.1646 152.967 97.1891C151.67 97.3878 150.543 100.301 150.309 101.911C150.289 102.039 150.174 103.866 150.171 104.2C150.148 104.111 150.121 104.019 150.103 103.927C149.78 102.325 149.558 100.685 149.442 99.0269C149.369 98.1116 149.336 97.2317 149.319 96.3766C149.729 96.3056 151.604 95.9544 152.381 95.2909C153.158 94.6274 153.948 93.5524 154.041 92.2609C154.071 91.9577 154.056 91.6488 153.997 91.3543C153.937 91.0599 153.834 90.7866 153.694 90.5522C153.554 90.3178 153.381 90.1277 153.185 89.9942C152.99 89.8607 152.777 89.7868 152.56 89.7773C151.255 89.7773 149.91 92.4987 149.543 94.0598C149.522 94.1449 149.392 95.0426 149.304 95.6954C149.304 95.3087 149.289 94.9113 149.291 94.5387C149.291 93.1479 149.354 91.8742 149.417 90.746C149.454 90.1038 149.5 89.5254 149.545 88.972C149.922 88.6172 151.431 87.1022 151.894 86.0271C152.356 84.9521 152.718 83.4655 152.379 82.2592C152.307 81.9709 152.192 81.7074 152.042 81.4858C151.893 81.2643 151.712 81.0898 151.511 80.9736C151.311 80.8574 151.095 80.8022 150.879 80.8116C150.662 80.821 150.449 80.8947 150.254 81.028C149.095 81.8724 148.791 85.1614 148.982 86.7828C148.999 86.9248 149.437 89.0713 149.457 89.0536L149.48 89.0323C149.429 89.5503 149.379 90.0967 149.331 90.7176C149.253 91.8458 149.17 93.1231 149.148 94.521C149.112 96.0262 149.137 97.533 149.223 99.034C149.315 100.711 149.514 102.374 149.817 104.001C149.817 104.019 149.817 104.04 149.829 104.058C149.623 103.604 149.019 102.359 148.967 102.284C148.212 101.042 146.213 99.2718 145.014 99.992C144.817 100.119 144.641 100.304 144.498 100.533C144.355 100.763 144.248 101.032 144.183 101.324C144.119 101.616 144.098 101.923 144.124 102.227C144.149 102.53 144.219 102.823 144.33 103.086C144.76 104.246 145.821 104.807 146.683 104.984Z" fill="#263238"/>
<path d="M169.05 96.338C169.07 96.3557 169.468 94.1914 169.48 94.0495C169.641 92.4245 169.274 89.1462 168.1 88.3443C167.902 88.2187 167.688 88.1533 167.471 88.1524C167.255 88.1514 167.04 88.2149 166.842 88.3388C166.644 88.4627 166.466 88.6441 166.321 88.8713C166.176 89.0984 166.067 89.3662 166 89.6571C165.683 90.8776 166.083 92.3749 166.556 93.4073C167.111 94.6172 169.05 96.338 169.05 96.338Z" fill="#263238"/>
<path d="M166.086 155.319H153.571L152.007 135.706H167.65L166.086 155.319Z" fill="white" stroke="#263238" stroke-linecap="round" stroke-linejoin="round"/>
<path d="M152.293 139.301L152.444 141.202H167.212L167.363 139.301H152.293Z" fill="#263238"/>
<path d="M166.878 145.381L167.029 143.479H152.625L152.779 145.381H166.878Z" fill="#263238"/>
<path d="M100.924 111.804H93.3254V155.064H100.924V111.804Z" fill="#263238" stroke="#263238" stroke-linecap="round" stroke-linejoin="round"/>
<path d="M147.01 40.4434H51.1016V122.526H147.01V40.4434Z" fill="#263238" stroke="#263238" stroke-linecap="round" stroke-linejoin="round"/>
<path d="M145.079 40.4434H49.1704V122.526H145.079V40.4434Z" fill="#92E3A9" stroke="#263238" stroke-linecap="round" stroke-linejoin="round"/>
<path d="M141.622 43.3984H52.6252V119.567H141.622V43.3984Z" fill="white" stroke="#263238" stroke-linecap="round" stroke-linejoin="round"/>
<path d="M141.622 114.982H52.6252V119.57H141.622V114.982Z" fill="white" stroke="#263238" stroke-linecap="round" stroke-linejoin="round"/>
<path d="M97.5397 150.211L69.3645 152.78V155.37H124.885V152.78L97.5397 150.211Z" fill="#263238" stroke="#263238" stroke-linecap="round" stroke-linejoin="round"/>
<path d="M141.622 43.3984H52.6252V119.567H141.622V43.3984Z" fill="white" stroke="#263238" stroke-linecap="round" stroke-linejoin="round"/>
<path d="M139.769 47.5352H96.8557V64.6897H139.769V47.5352Z" fill="white" stroke="#263238" stroke-linecap="round" stroke-linejoin="round"/>
<path d="M139.598 68.7988H112.539V91.513H139.598V68.7988Z" fill="white" stroke="#263238" stroke-linecap="round" stroke-linejoin="round"/>
<path d="M112.539 91.5125L121.958 80.8792L125.896 84.9878L134.116 76.0469L139.424 83.2954V91.5125H112.539Z" fill="#263238" stroke="#263238" stroke-linecap="round" stroke-linejoin="round"/>
<path d="M119.047 74.6024C119.046 75.1278 118.935 75.6413 118.728 76.0778C118.521 76.5144 118.226 76.8544 117.882 77.055C117.538 77.2556 117.159 77.3077 116.794 77.2048C116.429 77.1019 116.094 76.8485 115.831 76.4767C115.567 76.1049 115.388 75.6314 115.316 75.116C115.243 74.6006 115.281 74.0664 115.423 73.5811C115.566 73.0957 115.807 72.6809 116.117 72.389C116.427 72.0972 116.791 71.9414 117.163 71.9414C117.663 71.9423 118.142 72.2231 118.495 72.722C118.848 73.221 119.047 73.8973 119.047 74.6024Z" fill="#263238" stroke="#263238" stroke-linecap="round" stroke-linejoin="round"/>
<path d="M139.598 94.6523H112.539V117.367H139.598V94.6523Z" fill="white" stroke="#263238" stroke-linecap="round" stroke-linejoin="round"/>
<path d="M112.539 117.367L121.958 106.734L125.896 110.842L134.116 101.901L139.424 109.153V117.367H112.539Z" fill="#263238" stroke="#263238" stroke-linecap="round" stroke-linejoin="round"/>
<path d="M119.047 100.453C119.047 100.979 118.936 101.493 118.729 101.93C118.522 102.367 118.228 102.707 117.884 102.908C117.54 103.11 117.161 103.162 116.796 103.06C116.43 102.957 116.095 102.704 115.831 102.332C115.568 101.961 115.389 101.487 115.316 100.972C115.243 100.456 115.281 99.922 115.423 99.4364C115.566 98.9508 115.807 98.5358 116.117 98.2438C116.427 97.9518 116.791 97.7959 117.163 97.7959C117.662 97.7968 118.141 98.0771 118.494 98.5753C118.847 99.0734 119.046 99.7488 119.047 100.453Z" fill="#263238" stroke="#263238" stroke-linecap="round" stroke-linejoin="round"/>
<path d="M99.076 105.672L98.0225 96.5469H98.7768L99.4708 103.104L100.338 96.6001H100.977L101.865 103.139L102.544 96.5469H103.28L102.242 105.672H101.586L100.683 98.9134L99.7726 105.672H99.076Z" fill="#263238"/>
<path d="M104.251 97.1006H110.578" stroke="#263238" stroke-miterlimit="10"/>
<path d="M104.251 99.5635H110.578" stroke="#263238" stroke-miterlimit="10"/>
<path d="M104.251 102.025H110.578" stroke="#263238" stroke-miterlimit="10"/>
<path d="M104.251 104.487H110.578" stroke="#263238" stroke-miterlimit="10"/>
<path d="M104.251 106.95H110.578" stroke="#263238" stroke-miterlimit="10"/>
<path d="M104.251 109.412H110.578" stroke="#263238" stroke-miterlimit="10"/>
<path d="M104.251 111.874H110.578" stroke="#263238" stroke-miterlimit="10"/>
<path d="M104.251 114.337H110.578" stroke="#263238" stroke-miterlimit="10"/>
<path d="M104.251 116.799H110.578" stroke="#263238" stroke-miterlimit="10"/>
<path d="M100.474 69.1604C98.7459 69.1569 97.0562 69.8808 95.6211 71.2395V43.3984H52.6228V119.567H95.6211V91.7291C96.755 92.7977 98.0504 93.4768 99.4036 93.7122C100.757 93.9475 102.13 93.7324 103.414 93.0841C104.698 92.4359 105.856 91.3725 106.797 89.9792C107.737 88.5858 108.433 86.9012 108.828 85.0601C109.224 83.2191 109.309 81.2729 109.076 79.3773C108.843 77.4817 108.299 75.6894 107.487 74.1439C106.675 72.5984 105.618 71.3427 104.4 70.4773C103.182 69.6119 101.838 69.1609 100.474 69.1604Z" fill="#263238" stroke="#263238" stroke-linecap="round" stroke-linejoin="round"/>
<path d="M57.0986 55.0254H76.4504" stroke="white" stroke-width="2" stroke-linecap="round" stroke-linejoin="round"/>
<path d="M57.0986 63.1963H67.202" stroke="white" stroke-width="2" stroke-linecap="round" stroke-linejoin="round"/>
<path d="M57.0986 58.7012H66.518" stroke="#92E3A9" stroke-width="2" stroke-linecap="round" stroke-linejoin="round"/>
<path d="M68.5725 58.7012H73.5387" stroke="#92E3A9" stroke-width="2" stroke-linecap="round" stroke-linejoin="round"/>
<path d="M76.4504 58.7012H81.4166" stroke="#92E3A9" stroke-width="2" stroke-linecap="round" stroke-linejoin="round"/>
<path d="M57.0986 66.6699H66.518" stroke="white" stroke-width="2" stroke-linecap="round" stroke-linejoin="round"/>
<path d="M68.5725 66.6699H73.5387" stroke="white" stroke-width="2" stroke-linecap="round" stroke-linejoin="round"/>
<path d="M76.4504 66.6699H81.4166" stroke="#92E3A9" stroke-width="2" stroke-linecap="round" stroke-linejoin="round"/>
<path d="M57.0986 74.6348H66.518" stroke="white" stroke-width="2" stroke-linecap="round" stroke-linejoin="round"/>
<path d="M68.5725 74.6348H73.5387" stroke="#92E3A9" stroke-width="2" stroke-linecap="round" stroke-linejoin="round"/>
<path d="M76.4504 74.6348H81.4166" stroke="white" stroke-width="2" stroke-linecap="round" stroke-linejoin="round"/>
<path d="M62.9197 78.1084H70.0835" stroke="white" stroke-width="2" stroke-linecap="round" stroke-linejoin="round"/>
<path d="M71.6477 78.1084H75.4245" stroke="white" stroke-width="2" stroke-linecap="round" stroke-linejoin="round"/>
<path d="M77.6372 78.1084H81.4165" stroke="white" stroke-width="2" stroke-linecap="round" stroke-linejoin="round"/>
<path d="M62.9197 82.3975H70.0835" stroke="white" stroke-width="2" stroke-linecap="round" stroke-linejoin="round"/>
<path d="M71.6477 82.3975H75.4245" stroke="white" stroke-width="2" stroke-linecap="round" stroke-linejoin="round"/>
<path d="M77.6372 82.3975H81.4165" stroke="white" stroke-width="2" stroke-linecap="round" stroke-linejoin="round"/>
<path d="M57.0986 87.0957H76.4504" stroke="#92E3A9" stroke-width="2" stroke-linecap="round" stroke-linejoin="round"/>
<path d="M57.0986 95.2666H67.202" stroke="white" stroke-width="2" stroke-linecap="round" stroke-linejoin="round"/>
<path d="M57.0986 90.7715H66.518" stroke="#92E3A9" stroke-width="2" stroke-linecap="round" stroke-linejoin="round"/>
<path d="M68.5725 90.7715H73.5387" stroke="white" stroke-width="2" stroke-linecap="round" stroke-linejoin="round"/>
<path d="M76.4504 90.7715H81.4166" stroke="#92E3A9" stroke-width="2" stroke-linecap="round" stroke-linejoin="round"/>
<path d="M57.0986 98.7402H66.518" stroke="#92E3A9" stroke-width="2" stroke-linecap="round" stroke-linejoin="round"/>
<path d="M68.5725 98.7402H73.5387" stroke="#92E3A9" stroke-width="2" stroke-linecap="round" stroke-linejoin="round"/>
<path d="M76.4504 98.7402H81.4166" stroke="white" stroke-width="2" stroke-linecap="round" stroke-linejoin="round"/>
<path d="M57.0986 106.705H66.518" stroke="white" stroke-width="2" stroke-linecap="round" stroke-linejoin="round"/>
<path d="M68.5725 106.705H73.5387" stroke="#92E3A9" stroke-width="2" stroke-linecap="round" stroke-linejoin="round"/>
<path d="M76.4504 106.705H81.4166" stroke="#92E3A9" stroke-width="2" stroke-linecap="round" stroke-linejoin="round"/>
<path d="M62.9197 110.179H70.0835" stroke="white" stroke-width="2" stroke-linecap="round" stroke-linejoin="round"/>
<path d="M71.6477 110.179H75.4245" stroke="white" stroke-width="2" stroke-linecap="round" stroke-linejoin="round"/>
<path d="M77.6372 110.179H81.4165" stroke="white" stroke-width="2" stroke-linecap="round" stroke-linejoin="round"/>
<path d="M62.9197 114.468H70.0835" stroke="white" stroke-width="2" stroke-linecap="round" stroke-linejoin="round"/>
<path d="M71.6477 114.468H75.4245" stroke="white" stroke-width="2" stroke-linecap="round" stroke-linejoin="round"/>
<path d="M77.6372 114.468H81.4165" stroke="white" stroke-width="2" stroke-linecap="round" stroke-linejoin="round"/>
<path d="M57.6267 50.1222L59.4447 48.7988V49.182L57.9134 50.2677L59.4447 51.3498V51.733L57.6267 50.4096V50.1222Z" fill="white" stroke="white" stroke-miterlimit="10"/>
<path d="M60.5334 51.9672L61.6323 47.958H61.8837L60.7874 51.9672H60.5334Z" fill="white" stroke="white" stroke-miterlimit="10"/>
<path d="M64.7931 50.4304L62.9751 51.7467V51.3635L64.519 50.2814L62.9751 49.1957V48.8125L64.7931 50.1288V50.4304Z" fill="white" stroke="white" stroke-miterlimit="10"/>
<path d="M83.6897 25.9277L76.0581 42.2556" stroke="#263238" stroke-miterlimit="10" stroke-dasharray="5 5"/>
<path d="M95.8298 17.2216V13.514L93.2147 13.1024C93.0673 12.329 92.8474 11.5869 92.561 10.8955L94.218 7.96845L92.3598 5.34649L90.2979 7.67752C89.81 7.27238 89.2856 6.96209 88.7389 6.75504L88.4447 3.0332H85.8246L85.5329 6.7373C84.9849 6.93927 84.4588 7.24479 83.9688 7.64558L81.8969 5.30746L80.0386 7.92942L81.6882 10.8423C81.401 11.5307 81.1811 12.2706 81.0344 13.0421L78.3992 13.4572V17.1648L81.0218 17.5764C81.1661 18.349 81.3826 19.0912 81.6655 19.7832L80.0085 22.7068L81.8667 25.3287L83.9311 23.0013C84.419 23.4064 84.9434 23.7167 85.4901 23.9237L85.7843 27.642H88.412L88.7037 23.9415C89.2513 23.7379 89.7772 23.4325 90.2677 23.0332L92.3397 25.3713L94.1979 22.7494L92.561 19.8365C92.8481 19.1481 93.068 18.4082 93.2147 17.6367L95.8298 17.2216ZM87.1095 19.7655C86.4887 19.7634 85.8823 19.5016 85.367 19.0131C84.8518 18.5246 84.4507 17.8315 84.2147 17.0214C83.9786 16.2113 83.9181 15.3206 84.0409 14.462C84.1636 13.6034 84.4641 12.8155 84.9043 12.1979C85.3445 11.5803 85.9046 11.1607 86.5138 10.9923C87.1229 10.8239 87.7538 10.9143 88.3266 11.2519C88.8994 11.5895 89.3884 12.1593 89.7317 12.8891C90.075 13.6189 90.2571 14.4759 90.2551 15.3518C90.2525 16.5237 89.9207 17.6463 89.3325 18.4736C88.7442 19.3009 87.9476 19.7655 87.117 19.7655H87.1095Z" fill="#92E3A9" stroke="#263238" stroke-linecap="round" stroke-linejoin="round"/>
<path d="M106.167 9.77758L105.888 7.32238L104.128 7.46075C103.973 6.97132 103.772 6.5141 103.529 6.10187L104.379 3.90567L102.943 2.45809L101.759 4.32433C101.404 4.13476 101.033 4.01536 100.655 3.96953L100.167 1.5498L98.4273 1.96137L98.5253 4.44496C98.178 4.66377 97.8532 4.94781 97.5598 5.28938L96.0058 4.06533L94.9798 6.09123L96.3025 7.76233C96.1681 8.26266 96.0835 8.78682 96.051 9.31989L94.321 10.0295L94.6127 12.4847L96.3729 12.3463C96.528 12.8364 96.7293 13.2947 96.9714 13.7087L96.1038 15.9014L97.5396 17.349L98.724 15.4827C99.0786 15.6723 99.45 15.7917 99.8278 15.8375L100.316 18.2573L102.068 17.8351L101.97 15.3515C102.317 15.1334 102.641 14.8493 102.933 14.507L104.49 15.7063L105.516 13.6804L104.193 12.0093C104.327 11.5089 104.412 10.9848 104.445 10.4517L106.167 9.77758ZM100.592 12.8253C100.182 12.9218 99.7602 12.8443 99.3809 12.6028C99.0015 12.3613 98.6815 11.9665 98.4611 11.4683C98.2408 10.9702 98.13 10.391 98.1429 9.8041C98.1558 9.21717 98.2917 8.64881 98.5335 8.17084C98.7752 7.69288 99.112 7.32677 99.5012 7.1188C99.8903 6.91083 100.314 6.87033 100.72 7.00242C101.125 7.13451 101.494 7.43326 101.779 7.86091C102.065 8.28856 102.253 8.82592 102.322 9.40504C102.414 10.1822 102.283 10.979 101.959 11.6203C101.634 12.2615 101.143 12.695 100.592 12.8253Z" fill="#263238" stroke="#263238" stroke-miterlimit="10"/>
<path d="M61.2703 26.0986L61.3935 26.9714" stroke="#263238" stroke-miterlimit="10"/>
<path d="M61.6248 28.6064L63.3522 40.8754" stroke="#263238" stroke-miterlimit="10" stroke-dasharray="4.7 4.7"/>
<path d="M63.468 41.6914L63.5912 42.5642" stroke="#263238" stroke-miterlimit="10"/>
<path d="M63.0406 24.5762H66.5911V5.92441H63.0406V24.5762Z" fill="#92E3A9" stroke="#263238" stroke-linecap="round" stroke-linejoin="round"/>
<path d="M58.3057 24.5762H61.8562V10.1004H58.3057V24.5762Z" fill="#263238" stroke="#263238" stroke-miterlimit="10"/>
<path d="M53.5733 24.5762H57.1238V13.4426H53.5733V24.5762Z" fill="#92E3A9" stroke="#263238" stroke-linecap="round" stroke-linejoin="round"/>
<path d="M48.836 24.5762H52.3865V16.2242H48.836V24.5762Z" fill="#263238" stroke="#263238" stroke-miterlimit="10"/>
<path d="M50.4981 14.9936L50.1511 14.3515L53.7821 10.4522L55.5825 11.3002L58.5547 6.78361L60.3022 7.53578L63.4731 2.40894L64.8158 3.633L66.2089 2.24219L66.5408 2.90211L64.8309 4.60869L63.5787 3.46624L60.4908 8.45826L58.7307 7.70254L55.751 12.2298L53.8877 11.3534L50.4981 14.9936Z" fill="#263238"/>
<path d="M66.83 4.43445L67.9514 1L65.281 1.3477L66.83 4.43445Z" fill="#263238"/>
<path d="M33.437 25.4385L33.96 25.9281" stroke="#263238" stroke-miterlimit="10"/>
<path d="M35.011 26.9072L51.3076 42.1103" stroke="#263238" stroke-miterlimit="10" stroke-dasharray="5.01 5.01"/>
<path d="M51.8333 42.6006L52.3563 43.0902" stroke="#263238" stroke-miterlimit="10"/>
<path d="M16.4968 10.2246H34.7522C35.1777 10.2246 35.5857 10.4631 35.8866 10.8876C36.1874 11.3121 36.3565 11.8879 36.3565 12.4882V30.104H14.895V12.4847C14.8957 11.8856 15.0647 11.3112 15.3649 10.8876C15.6651 10.464 16.0722 10.2255 16.4968 10.2246Z" fill="white" stroke="#263238" stroke-linecap="round" stroke-linejoin="round"/>
<path d="M20.3086 18.2109H30.4748" stroke="#263238" stroke-linecap="round" stroke-linejoin="round"/>
<path d="M20.3086 20.5283H30.4748" stroke="#263238" stroke-linecap="round" stroke-linejoin="round"/>
<path d="M20.3086 22.8418H30.4748" stroke="#263238" stroke-linecap="round" stroke-linejoin="round"/>
<path d="M20.3086 25.1543H30.4748" stroke="#263238" stroke-linecap="round" stroke-linejoin="round"/>
<path d="M36.3565 13.361V12.0767C36.3565 11.5855 36.2182 11.1144 35.972 10.7671C35.7259 10.4197 35.392 10.2246 35.0439 10.2246H16.2051C16.0328 10.2246 15.8623 10.2725 15.7032 10.3657C15.5441 10.4588 15.3995 10.5953 15.2778 10.7673C15.1562 10.9393 15.0597 11.1435 14.994 11.3682C14.9283 11.5929 14.8947 11.8336 14.895 12.0767V13.361H36.3565Z" fill="#92E3A9" stroke="#263238" stroke-linecap="round" stroke-linejoin="round"/>
<path d="M32.6851 11.8746C32.6851 11.7818 32.6655 11.6911 32.629 11.614C32.5924 11.5369 32.5404 11.4769 32.4796 11.4416C32.4188 11.4062 32.3519 11.3972 32.2875 11.4155C32.223 11.4339 32.1639 11.4788 32.1176 11.5447C32.0712 11.6105 32.0398 11.6943 32.0273 11.7854C32.0148 11.8765 32.0217 11.9708 32.0472 12.0563C32.0727 12.1418 32.1157 12.2147 32.1706 12.2657C32.2255 12.3167 32.2899 12.3436 32.3557 12.3429C32.4433 12.342 32.527 12.2922 32.5887 12.2045C32.6505 12.1168 32.6851 11.9982 32.6851 11.8746Z" fill="#263238" stroke="#263238" stroke-linecap="round" stroke-linejoin="round"/>
<path d="M34.0103 11.8746C34.0103 11.782 33.9908 11.6914 33.9543 11.6144C33.9179 11.5374 33.866 11.4773 33.8054 11.4419C33.7447 11.4065 33.678 11.3972 33.6136 11.4152C33.5492 11.4333 33.4901 11.4779 33.4437 11.5434C33.3972 11.6089 33.3656 11.6924 33.3528 11.7832C33.34 11.8741 33.3466 11.9682 33.3717 12.0538C33.3968 12.1394 33.4394 12.2125 33.4939 12.264C33.5485 12.3155 33.6127 12.3429 33.6784 12.3429C33.7664 12.3429 33.8508 12.2936 33.9131 12.2057C33.9753 12.1179 34.0103 11.9988 34.0103 11.8746Z" fill="#263238" stroke="#263238" stroke-linecap="round" stroke-linejoin="round"/>
<path d="M35.3355 11.8746C35.3355 11.782 35.316 11.6914 35.2795 11.6144C35.2431 11.5374 35.1912 11.4773 35.1306 11.4419C35.0699 11.4065 35.0032 11.3972 34.9388 11.4152C34.8744 11.4333 34.8153 11.4779 34.7688 11.5434C34.7224 11.6089 34.6908 11.6924 34.678 11.7832C34.6652 11.8741 34.6718 11.9682 34.6969 12.0538C34.722 12.1394 34.7646 12.2125 34.8191 12.264C34.8737 12.3155 34.9379 12.3429 35.0036 12.3429C35.0916 12.3429 35.176 12.2936 35.2383 12.2057C35.3005 12.1179 35.3355 11.9988 35.3355 11.8746Z" fill="#263238" stroke="#263238" stroke-linecap="round" stroke-linejoin="round"/>
<path d="M12.1717 34.3297C12.0863 34.2296 12.0161 34.1065 11.965 33.9676C11.9138 33.8287 11.8829 33.6768 11.874 33.5207C11.8651 33.3647 11.8784 33.2078 11.9131 33.0591C11.9478 32.9104 12.0032 32.7731 12.0761 32.655L18.111 22.8945L19.0313 23.9589L13.3535 34.1558C13.2848 34.2784 13.1995 34.3804 13.1024 34.4557C13.0054 34.531 12.8987 34.5781 12.7886 34.5943C12.6784 34.6105 12.5671 34.5954 12.4611 34.55C12.3552 34.5045 12.2568 34.4296 12.1717 34.3297Z" fill="#263238" stroke="#263238" stroke-linejoin="round"/>
<path d="M16.5018 25.4922L12.0762 32.6556C12.0064 32.7739 11.9537 32.9105 11.9213 33.0576C11.8889 33.2046 11.8773 33.3592 11.8872 33.5126C11.8972 33.666 11.9284 33.8151 11.9792 33.9514C12.0299 34.0877 12.0992 34.2086 12.1831 34.3072C12.267 34.4057 12.3638 34.48 12.468 34.5257C12.5722 34.5715 12.6818 34.5878 12.7905 34.5738C12.8992 34.5598 13.0048 34.5157 13.1015 34.4441C13.1981 34.3725 13.2838 34.2747 13.3536 34.1564L17.5403 26.6417L16.5018 25.4922Z" fill="white" stroke="#263238" stroke-linejoin="round"/>
<path d="M23.1325 15.6529C22.5534 14.9761 21.8451 14.5569 21.0971 14.4482C20.3491 14.3394 19.5951 14.5461 18.9303 15.0421C18.2656 15.538 17.72 16.3009 17.3625 17.2344C17.0051 18.1678 16.8519 19.2299 16.9222 20.2862C16.9925 21.3426 17.2833 22.3458 17.7577 23.1689C18.2321 23.9921 18.8688 24.5983 19.5874 24.9109C20.3059 25.2235 21.0741 25.2284 21.7946 24.925C22.5152 24.6217 23.1558 24.0236 23.6354 23.2065C23.9539 22.664 24.1936 22.0382 24.3407 21.365C24.4878 20.6917 24.5395 19.9842 24.4928 19.2827C24.4461 18.5813 24.3019 17.8997 24.0685 17.2769C23.8351 16.6541 23.5171 16.1022 23.1325 15.6529ZM18.634 23.3201C18.1385 22.7408 17.7758 21.9672 17.5918 21.097C17.4078 20.2269 17.4108 19.2993 17.6005 18.4316C17.7901 17.5639 18.1579 16.7951 18.6572 16.2222C19.1565 15.6494 19.765 15.2984 20.4057 15.2136C21.0465 15.1287 21.6906 15.3138 22.2568 15.7456C22.8229 16.1773 23.2856 16.8362 23.5864 17.6389C23.8871 18.4417 24.0124 19.3523 23.9464 20.2555C23.8804 21.1588 23.626 22.0141 23.2155 22.7134C22.9429 23.1777 22.6082 23.5617 22.2304 23.8434C21.8527 24.1252 21.4393 24.2992 21.0138 24.3556C20.5884 24.4119 20.1593 24.3495 19.751 24.1718C19.3426 23.9941 18.9631 23.7047 18.634 23.3201Z" fill="#263238" stroke="#263238" stroke-linejoin="round"/>
<path d="M25.9287 67.582H26.5573" stroke="#263238" stroke-miterlimit="10"/>
<path d="M27.8196 67.582H49.8644" stroke="#263238" stroke-miterlimit="10" stroke-dasharray="5.01 5.01"/>
<path d="M50.4956 67.582H51.1242" stroke="#263238" stroke-miterlimit="10"/>
<path d="M15.5864 54.3799H29.801" stroke="#263238" stroke-linecap="round" stroke-linejoin="round"/>
<path d="M22.6951 64.261V54.3799" stroke="#263238" stroke-linecap="round" stroke-linejoin="round"/>
<path d="M11.4299 56.8379V69.3374" stroke="#263238" stroke-linecap="round" stroke-linejoin="round"/>
<path d="M25.1089 70.6504H37.9807V81.635" stroke="#263238" stroke-linecap="round" stroke-linejoin="round"/>
<path d="M29.801 70.8389V81.4367" stroke="#263238" stroke-linecap="round" stroke-linejoin="round"/>
<path d="M18.1336 50.2139H8.88013V59.1087H18.1336V50.2139Z" fill="#263238" stroke="#263238" stroke-miterlimit="10"/>
<path d="M35.6348 50.2139H26.3813V59.1087H35.6348V50.2139Z" fill="#92E3A9" stroke="#263238" stroke-linecap="round" stroke-linejoin="round"/>
<path d="M32.846 78.7861H26.9167V84.4842H32.846V78.7861Z" fill="#92E3A9" stroke="#263238" stroke-linecap="round" stroke-linejoin="round"/>
<path d="M14.7439 66.4883H8.8147V72.1863H14.7439V66.4883Z" fill="white" stroke="#263238" stroke-linecap="round" stroke-linejoin="round"/>
<path d="M40.626 78.7861H34.6968V84.4842H40.626V78.7861Z" fill="#263238" stroke="#263238" stroke-miterlimit="10"/>
<path d="M22.6928 64.2592L18.0291 70.8398L22.6928 77.4204L27.3566 70.8398L22.6928 64.2592Z" fill="#92E3A9" stroke="#263238" stroke-linecap="round" stroke-linejoin="round"/>
<path d="M39.8464 109.725L40.4424 109.438" stroke="#263238" stroke-miterlimit="10"/>
<path d="M41.637 108.863L50.5887 104.552" stroke="#263238" stroke-miterlimit="10" stroke-dasharray="5.02 5.02"/>
<path d="M51.1846 104.264L51.7805 103.977" stroke="#263238" stroke-miterlimit="10"/>
<path d="M38.4359 104.207H10.0947V113.599H38.4359V104.207Z" fill="white" stroke="#263238" stroke-linecap="round" stroke-linejoin="round"/>
<path d="M38.3404 115.849H23.5273V128.284H38.3404V115.849Z" fill="white" stroke="#263238" stroke-linecap="round" stroke-linejoin="round"/>
<path d="M23.5273 128.284L28.6846 122.465L30.8396 124.715L35.3406 119.818L38.2474 123.789V128.284H23.5273Z" fill="#263238" stroke="#263238" stroke-linecap="round" stroke-linejoin="round"/>
<path d="M26.0593 120.479C26.6287 120.479 27.0902 119.827 27.0902 119.024C27.0902 118.221 26.6287 117.569 26.0593 117.569C25.4899 117.569 25.0283 118.221 25.0283 119.024C25.0283 119.827 25.4899 120.479 26.0593 120.479Z" fill="#263238" stroke="#263238" stroke-linecap="round" stroke-linejoin="round"/>
<path d="M38.3404 130.005H23.5273V142.441H38.3404V130.005Z" fill="white" stroke="#263238" stroke-linecap="round" stroke-linejoin="round"/>
<path d="M23.5273 142.441L28.6846 136.618L30.8396 138.868L35.3406 133.972L38.2474 137.942V142.441H23.5273Z" fill="#263238" stroke="#263238" stroke-linecap="round" stroke-linejoin="round"/>
<path d="M26.0593 134.635C26.6287 134.635 27.0902 133.984 27.0902 133.18C27.0902 132.377 26.6287 131.726 26.0593 131.726C25.4899 131.726 25.0283 132.377 25.0283 133.18C25.0283 133.984 25.4899 134.635 26.0593 134.635Z" fill="#263238" stroke="#263238" stroke-linecap="round" stroke-linejoin="round"/>
<path d="M10.5247 116.785H21.7847" stroke="#263238" stroke-miterlimit="10"/>
<path d="M10.5247 120.315H21.7847" stroke="#263238" stroke-miterlimit="10"/>
<path d="M10.5247 123.846H21.7847" stroke="#263238" stroke-miterlimit="10"/>
<path d="M10.5247 127.376H21.7847" stroke="#263238" stroke-miterlimit="10"/>
<path d="M10.5247 130.906H21.7847" stroke="#263238" stroke-miterlimit="10"/>
<path d="M10.5247 134.437H21.7847" stroke="#263238" stroke-miterlimit="10"/>
<path d="M10.5247 137.967H21.7847" stroke="#263238" stroke-miterlimit="10"/>
<path d="M10.5247 141.497H21.7847" stroke="#263238" stroke-miterlimit="10"/>
<path d="M16.6123 155.369H176.292" stroke="#263238" stroke-miterlimit="10"/>
<path d="M8.32202 155.369H12.6193" stroke="#263238" stroke-miterlimit="10"/>
</svg>
